<?xml version="1.0" encoding="utf-8" ?><svg xmlns="http://www.w3.org/2000/svg" xmlns:xlink="http://www.w3.org/1999/xlink" width="1024" height="2048" viewBox="0 0 1024 2048"><path fill="white" d="M0 0L1024 0L1024 182.077L1024 1911.27L1024 2048L0 2048L0 1911.24L0 182.059L0 0Z"/><path fill="#242F3B" d="M0 0L1024 0L1024 182.077L1001.67 182.033L418.621 182.047C331.337 182.109 243.804 180.447 156.564 182.185C138.865 181.424 120.868 182.061 103.129 182.061L0 182.059L0 0Z"/><path fill="white" d="M82.3195 64.7825L85.3933 65.4435L86.6175 67.5807C86.3459 73.3974 71.9663 85.4066 67.7422 89.9725L94.8025 89.1672C99.922 89.0572 110.407 88.2453 114.228 91.8995L114.144 94.2853C105.872 103.707 81.248 92.5424 70.1416 98.0737L69.9862 99.6783L73.2214 103.372C77.6507 108.155 86.9354 114.553 87.0189 121.322L85.1113 122.771C78.4095 122.283 58.4219 99.2692 52.4832 93.25C62.6631 84.0318 72.1273 74.0241 82.3195 64.7825Z"/><path fill="white" d="M922.923 66.4228C930.175 67.8021 940.807 81.376 945.922 86.6012C949.409 82.867 952.859 79.0421 956.508 75.4677C959.329 72.7051 964.041 68.4423 968.162 68.4644L968.954 69.9479C967.003 78.6061 957.418 86.2598 951.292 92.3614C956.305 97.746 962.219 102.255 967.014 107.874C969.391 110.66 969.473 112.055 969.144 115.624C968.425 115.791 967.63 116.018 966.882 116.022C961.061 116.049 949.931 102.245 945.729 98.031C941.497 102.412 937.087 107.54 932.202 111.169C929.411 113.242 925.964 115.593 922.447 115.023C922.432 114.71 922.371 114.397 922.401 114.086C923.112 106.761 935.131 97.1972 940.401 92.2121C935.097 86.8945 925.318 79.4645 922.104 72.8686C920.88 70.3551 922.004 68.7773 922.923 66.4228Z"/><path fill="white" d="M500.057 70.7545C502.258 70.7852 504.218 70.9889 506.371 71.4222C507.069 71.5626 507.052 71.4028 507.362 72.0368C509.18 75.7482 508.302 108.858 506.967 113.127C503.612 113.115 500.047 112.915 496.74 113.484C494.47 113.874 492.239 114.054 489.946 114.227C489.346 113.993 488.759 113.746 488.189 113.444C484.691 111.588 481.8 108.436 480.656 104.6C479.321 100.127 479.535 91.2545 482.134 87.1661C484.894 82.823 494.428 82.8683 499.179 81.6779C500.655 78.6333 500.088 74.1348 500.057 70.7545Z"/><path fill="#242F3B" d="M494.102 87.5151C496.232 87.7859 497.45 88.0822 499.11 89.4784C501.105 93.974 501.37 97.2377 499.93 102.002C498.73 105.971 496.716 106.631 493.324 108.38C491.914 107.422 490.408 106.424 489.369 105.05C487.515 102.614 486.747 99.5215 487.245 96.5012C487.932 92.2333 490.719 89.8174 494.102 87.5151Z"/><path fill="white" d="M455.079 72.2587C456.668 72.3985 459.419 72.424 460.728 73.3803C466.474 77.5786 475.918 105.363 477.608 112.914L476.264 114.345C468.519 115.7 470.591 106.301 465.004 104.349L451.018 104.615C450.128 107.464 449.144 110.232 448.044 113.007C446.105 114.194 445.065 114.888 442.757 114.645L441.793 113.278C441.061 103.219 451.63 82.5838 455.079 72.2587Z"/><path fill="#242F3B" d="M458.361 83.557C461.692 86.521 463.376 93.0051 463.829 97.3557L462.092 98.7304C459.688 98.6078 457.003 98.8622 455.077 97.2604C453.957 92.8023 456.806 87.8245 458.361 83.557Z"/><path fill="white" d="M562.757 82.1796C565.044 82.0538 567.288 82.0305 569.559 82.3838C574.079 83.0868 576.222 85.3885 578.819 88.96C580.373 91.0971 581.544 93.2018 581.099 95.9299C576.483 101.623 568.126 99.4026 561.685 101.856L561.013 103.515L562.332 105.528C567.616 108.745 571.219 107.797 576.969 106.755C578.502 108.119 578.314 108.299 578.526 110.247C577.988 110.954 577.382 111.624 576.614 112.091C572.689 114.481 566.371 114.739 562.098 113.263C558.78 112.117 556.189 109.732 554.692 106.567C552.498 101.931 552.134 94.7097 554.029 89.9253C555.7 85.7072 558.799 83.9542 562.757 82.1796Z"/><path fill="#242F3B" d="M565.601 87.6024C565.751 87.6348 565.901 87.6649 566.049 87.6998C569.161 88.4289 571.471 89.5926 573.155 92.3749L572.759 93.9672L570.205 95.2719C566.779 95.2025 563.911 95.4439 561.263 93.1047C562.162 90.15 563.298 89.5821 565.601 87.6024Z"/><path fill="white" d="M536.157 73.9551C538.738 73.7962 540.485 73.8844 542.959 74.6946C543.293 76.3785 543.435 77.997 543.533 79.7097C545.717 82.0073 546.391 81.8877 549.403 82.2828C550.588 84.396 550.29 84.866 549.922 87.3073C548.083 88.2356 545.644 89.271 544.549 91.0954C542.865 93.9026 542.309 103.139 544.642 105.693C547.927 109.288 549.469 107.255 550.986 112.802C547.487 113.894 544.154 114.414 540.729 112.881C533.838 109.796 537.756 94.9595 535.451 89.0033L532.635 88.3725C528.506 83.3923 533.979 82.9769 535.82 79.5986C536.282 78.7505 536.088 75.114 536.157 73.9551Z"/><path fill="white" d="M516.2 73.9333L520.898 74.2698C524.106 77.8812 528.359 81.4777 528.925 86.4996L528.294 87.0722C527.953 87.3847 527.623 87.7089 527.273 88.01C524.363 90.5096 522.615 92.4589 522.177 96.4467C520.911 107.967 527.039 104.841 532.091 110.873C530.422 112.345 528.272 113.242 526.166 113.927C523.416 114.821 521.97 114.263 519.572 112.976C514.952 107.465 516.188 96.5955 515.762 89.6877C514.396 88.8264 513.429 88.0193 512.305 86.8582C512.153 80.1149 515.662 82.5104 516.2 73.9333Z"/><path fill="white" d="M156.564 182.185C243.804 180.447 331.337 182.109 418.621 182.047L1001.67 182.033C1003.39 201.099 1002.08 221.518 1002.09 240.712L1001.98 356.158C966.464 358.067 930.141 356.252 894.513 356.493L619.275 356.254L22.8383 356.218L22.9145 183.02C55.0112 182.029 87.4487 183.308 119.584 183.242C131.268 183.218 145.21 184.674 156.564 182.185Z"/><path fill="#7ECC01" d="M113.915 240.3L117.364 242.122C121.656 247.753 119.245 261.781 119.113 268.783C125.268 268.564 133.055 267.508 138.938 269.299C141.697 270.14 144.218 270.588 145.957 273.083L145.197 274.73C138.018 279.599 127.807 278.19 119.523 277.954C119.047 283.027 119.49 288.178 119.384 293.273C119.259 299.239 119.32 302.043 114.917 306.262C113.741 305.606 112.317 304.896 111.364 303.934C107.925 300.465 109.804 283.572 109.913 278.617C101.905 277.974 88.9619 280.995 82.6484 275.985C81.9312 273.805 81.9912 273.623 82.7354 271.439C87.9379 266.557 102.999 268.485 109.991 268.705C110.046 264.349 109.719 259.992 109.63 255.637C109.495 249.047 109.238 245.184 113.915 240.3Z"/><path fill="#353F48" d="M270.335 261.313C270.505 261.359 270.684 261.378 270.845 261.449C277.551 264.404 284.317 260.24 290.315 263.896C294.084 266.193 296.606 269.74 297.511 274.061C298.528 278.922 297.364 284.368 294.587 288.477C291.798 292.604 288.287 293.598 283.593 294.471L277.25 292.254C274.107 293.372 275.985 304.136 273.563 307.809L271.944 307.189C269.091 303.77 270.384 268.331 270.335 261.313Z"/><path fill="white" d="M279.49 265.796C282.91 265.908 286.041 266.178 288.647 268.624C291.098 270.924 292.49 274.135 292.493 277.496C292.458 282.813 290.658 286.058 286.918 289.661C283.855 289.665 280.71 289.856 278.312 287.606C276.204 285.628 274.976 282.476 274.837 279.606C274.579 274.303 275.949 269.731 279.49 265.796Z"/><path fill="#353F48" d="M703.652 250.486C710.128 253.392 718.171 277.907 721.313 285.339C724.046 279.038 732.931 253.618 736.961 251.343L738.742 252.385C742.76 260.339 742.77 280.033 740.807 288.804C740.31 291.024 740.081 291.857 738.119 293.108L736.861 292.209C735.06 287.727 735.686 282.499 735.803 277.75L735.743 264.636C732.067 271.959 729.008 283.631 723.399 289.445C722.18 290.708 721.911 290.476 720.244 290.509C714.399 285.492 710.597 272.669 707.507 265.435C707.399 272.689 707.373 279.959 707.142 287.21C707.064 289.658 707.431 291.14 705.572 292.871L703.759 292.16C702.753 290.313 702.202 288.487 701.941 286.402C701.101 279.682 699.93 255.301 703.652 250.486Z"/><path fill="#353F48" d="M759.01 261.057C761.512 260.948 764.059 261.027 766.488 261.699C770.048 262.683 773.144 265.644 774.829 268.862C777.016 273.039 777.227 278.029 775.743 282.471C773.774 288.367 770.486 291.116 765.027 293.738C763.389 293.664 761.738 293.615 760.123 293.307C756.402 292.599 752.895 289.862 750.884 286.715C748.266 282.62 747.804 277.672 748.985 273.013C750.498 267.044 753.84 264.032 759.01 261.057Z"/><path fill="white" d="M759.122 265.887C761.572 265.872 764.606 265.558 766.6 267.241C769.167 269.409 770.613 272.62 770.766 275.945C771.01 281.252 769.448 284.865 765.967 288.754C762.951 288.735 759.671 288.704 757.271 286.624C755.178 284.809 754.049 282.348 753.832 279.614C753.402 274.2 755.68 269.847 759.122 265.887Z"/><path fill="#353F48" d="M248.72 261.189C251.221 261.471 254.332 261.818 256.526 263.162C259.68 265.094 261.05 268.252 262.015 271.667C263.736 277.759 264.995 287.261 261.599 292.99C261.093 293.843 260.407 293.748 259.492 294L257.057 291.442C253.408 290.819 249.939 293.706 246.209 294.137C242.554 293.27 240.58 291.634 237.826 289.165C237.616 286.898 237.338 284.499 238.18 282.323C240.807 275.536 250.751 276.369 256.383 273.799C257.22 271.52 256.864 271.1 256.212 268.837C250.658 265.205 246.059 268.865 240.077 269.259C240.187 268.715 240.21 268.433 240.414 267.947C241.936 264.318 245.33 262.655 248.72 261.189Z"/><path fill="white" d="M251.904 279.213C254.052 279.051 255.177 278.973 257.04 280.123C257.495 281.563 257.981 282.258 257.446 283.725C255.969 287.77 253.132 289.253 249.423 290.928C247.179 290.009 245.553 288.924 243.689 287.379C242.774 285.045 242.652 284.983 243.507 282.648C245.906 280.157 248.645 279.85 251.904 279.213Z"/><path fill="#353F48" d="M813.761 261.131C818.376 261.669 821.564 261.988 824.749 265.717C827.057 268.421 829.778 272.251 829.507 275.938C824.587 281.359 816.638 277.136 810.318 278.577C808.107 279.082 808.053 279.449 806.817 281.246C806.737 283.114 806.406 284.009 807.652 285.522C809.453 287.709 813.562 289.073 816.349 289.266C819.664 289.496 821.967 287.108 824.278 285.064C826.071 285.317 826.402 285.239 827.775 286.519L827.436 288.209C826.293 289.413 825.072 290.663 823.587 291.445C819.62 293.537 813.372 293.497 809.149 292.211C806.051 291.267 803.212 289.41 801.829 286.375C799.676 281.649 801.636 275.352 803.278 270.779C805.266 265.247 808.631 263.527 813.761 261.131Z"/><path fill="white" d="M812.318 265.691C813.55 265.613 814.811 265.535 816.045 265.637C818.68 265.855 820.154 267.689 821.799 269.516C822.448 271.915 822.745 272.079 821.585 274.229L819.25 274.865C815.456 274.991 810.761 275.807 807.804 273.15C807.903 270.092 810.412 267.874 812.318 265.691Z"/><path fill="#353F48" d="M311.708 261.954C312.421 261.927 313.134 261.918 313.847 261.928C317.677 261.987 321.567 262.695 324.296 265.609C326.569 268.037 329.663 272.396 329.497 275.83C329.226 281.418 311.824 277.529 308.095 280.884C307.523 281.398 307.67 283.027 307.617 283.812C308.589 286.077 309.768 287.913 312.004 289.125C314.495 290.475 316.816 289.998 319.399 289.364C319.56 289.257 319.719 289.147 319.883 289.043C322.459 287.41 323.3 286.621 326.234 287.296L326.544 289.025C325.94 290.235 325.287 291.339 324.197 292.181C321.266 294.444 317.361 294.569 313.847 293.944C310.058 293.27 306.779 291.221 304.648 287.987C301.853 283.745 301.245 278.441 302.394 273.548C303.763 267.711 306.758 264.986 311.708 261.954Z"/><path fill="white" d="M312.853 265.849C314.549 265.862 316.625 265.826 318.193 266.551C320.35 267.548 322.602 269.946 323.41 272.17C323.975 273.724 323.641 273.846 322.901 275.306L320.189 275.853C317.357 275.925 313.867 276.302 311.095 275.774C308.938 275.364 308.545 274.785 307.483 273.072C308.248 269.804 310.494 268.05 312.853 265.849Z"/><path fill="#707379" d="M901.646 261.317C908.712 262.688 917.331 274.054 922.408 279.316C926.426 274.785 935.132 262.702 940.981 262.205C943.09 263.222 943.122 263.413 944.154 265.538C943.949 268.137 943.902 268.442 942.259 270.448C935.896 277.452 929.411 284.651 921.49 289.917C915.093 283.917 904.5 275.969 900.913 268.133C899.699 265.479 900.722 263.798 901.646 261.317Z"/><path fill="#353F48" d="M212.314 250.202C215.824 249.946 218.74 249.879 221.983 251.419C225.765 253.216 230.545 257.509 231.884 261.517C232.168 262.368 231.545 263.06 231.181 263.84C230.805 263.959 229.077 264.657 228.814 264.587C225.831 263.801 221.287 256.051 214.413 254.879C212.328 254.524 210.472 254.925 208.82 256.228C206.321 258.198 205.553 262.385 205.173 265.375C204.389 271.555 203.827 282.335 208.293 287.185C210.945 290.066 215.471 289.704 219.01 289.604C223.789 287.342 225.278 282.594 230.736 282.41L231.393 283.432C231.29 283.907 231.261 284.092 231.093 284.592C229.841 288.318 225.559 291.615 222.17 293.333C218.559 295.164 214.097 295.05 210.339 293.686C205.915 292.08 202.833 288.595 200.984 284.34C197.9 277.243 198.096 268.211 200.93 261.078C203.308 255.092 206.593 252.767 212.314 250.202Z"/><path fill="#353F48" d="M401.37 262.485C408.412 264.646 416.137 274.225 421.474 279.337C426.345 275.419 435.054 264.082 441.188 263.862C442.018 263.832 442.546 264.757 443.107 265.317C443.106 268.013 443.062 268.108 441.339 270.184C434.897 276.634 428.347 282.975 421.689 289.203C415.545 283.778 404.27 275.709 400.653 268.256C399.6 266.086 400.62 264.542 401.37 262.485Z"/><path fill="#353F48" d="M582.526 263.498C589.225 263.738 597.968 275.081 602.82 279.747C607.337 275.177 612.399 269.197 617.854 265.777C619.915 264.485 620.473 264.437 622.687 264.935C623.378 267.215 623.065 267.531 622.199 269.797C617.358 274.407 608.719 285.879 602.228 286.379C595.141 283.851 589.398 276.84 584.649 271.255C582.151 268.317 582.234 267.084 582.526 263.498Z"/><path fill="#353F48" d="M783.461 261.274C785.66 261.509 786.997 262.304 788.786 263.496L789.442 263.938C790.8 263.365 792.262 262.689 793.707 262.386C796.163 261.871 797.601 262.009 799.602 263.429L799.047 265.324C796.483 268.002 793.177 268.302 789.792 269.416C787.823 272.188 788.241 275.505 788.269 278.75C788.349 281.597 788.565 284.655 788.271 287.487C787.997 290.134 787.698 292.644 785.578 294.309C780.944 288.773 782.871 268.396 783.461 261.274Z"/><path d="M22.9062 1911.28L678.923 1911.65L894.152 1911.84L963.25 1911.79C976.086 1911.77 989.232 1912.25 1002.03 1911.39L1024 1911.27L1024 2048L0 2048L0 1911.24L22.9062 1911.28Z"/><path fill="white" d="M504.533 1947.41C516.695 1944.58 529.443 1948.5 537.91 1957.68C546.377 1966.86 549.256 1979.88 545.449 1991.77C541.641 2003.67 531.735 2012.6 519.511 2015.15C500.908 2019.05 482.639 2007.24 478.536 1988.69C474.433 1970.13 486.024 1951.73 504.533 1947.41Z"/><path d="M505.79 1954.51C515.409 1952.06 525.603 1954.98 532.458 1962.16C539.314 1969.34 541.766 1979.66 538.874 1989.15C535.981 1998.65 528.193 2005.85 518.499 2007.99C503.847 2011.22 489.312 2002.1 485.843 1987.5C482.374 1972.9 491.252 1958.22 505.79 1954.51Z"/><path fill="white" d="M509.4 1961.46C520.042 1959.76 530.086 1966.89 532 1977.49C533.915 1988.1 526.996 1998.29 516.433 2000.42C509.404 2001.84 502.157 1999.34 497.488 1993.9C492.82 1988.46 491.458 1980.92 493.929 1974.19C496.401 1967.45 502.318 1962.59 509.4 1961.46Z"/><path fill="#F0F0EF" d="M773.429 1952.41C781.601 1951.99 798.598 1950.13 805.084 1955.4C808.441 1958.12 809.646 1964.19 810.116 1968.23C811.187 1977.43 812.481 1997.96 806.069 2005.15C803.389 2008.15 799.988 2008.48 796.25 2008.79C785.988 2008.96 772.77 2010.75 763.285 2006.5C759.687 2003.06 758.661 1998.31 758.193 1993.5C757.258 1983.9 755.789 1964.36 762.465 1956.55C765.476 1953.03 769.138 1952.73 773.429 1952.41Z"/><path d="M770.283 1961.04C776.234 1960.91 795.259 1959.02 799.247 1962.66C801.996 1965.17 801.974 1969.81 802.149 1973.3C802.572 1981.75 803.687 1993.6 797.83 2000.06C789.024 2000.2 777.48 2001.72 769.151 1999.27C765.978 1996.15 765.922 1990.94 765.797 1986.74C765.562 1978.83 764.563 1967.1 770.283 1961.04Z"/><path fill="white" d="M237.789 1957.04C241.894 1956.94 245.906 1957.4 249.71 1959.05C255.086 1961.39 259.294 1965.51 261.333 1971.06C264.161 1978.75 262.552 1984.88 259.21 1992.05C262.275 1994.86 265.478 1997.66 268.332 2000.69C270.186 2002.65 271.653 2004.7 271.53 2007.52C269.997 2009.4 269.314 2009.45 266.966 2010.2C263.66 2009.98 261.238 2007.62 258.717 2005.68L252.426 1998.97C251.391 1999.39 250.348 1999.79 249.297 2000.17C242.977 2002.43 236.374 2002.53 230.276 1999.48C224.952 1996.79 220.951 1992.05 219.194 1986.35C217.373 1980.5 218.045 1974.15 221.05 1968.81C224.803 1962.17 230.658 1958.98 237.789 1957.04Z"/><path d="M238.011 1964.51C246.26 1963.15 254.077 1968.65 255.575 1976.88C257.072 1985.1 251.697 1993.01 243.497 1994.64C238.071 1995.72 232.484 1993.8 228.881 1989.6C225.278 1985.4 224.219 1979.58 226.111 1974.38C228.003 1969.18 232.552 1965.41 238.011 1964.51Z"/><path fill="#F0F0EF" d="M0 182.059L103.129 182.061C120.868 182.061 138.865 181.424 156.564 182.185C145.21 184.674 131.268 183.218 119.584 183.242C87.4487 183.308 55.0112 182.029 22.9145 183.02L22.8383 356.218L619.275 356.254L894.513 356.493C930.141 356.252 966.464 358.067 1001.98 356.158L1002.09 240.712C1002.08 221.518 1003.39 201.099 1001.67 182.033L1024 182.077L1024 1911.27L1002.03 1911.39C1001.16 1885.11 1002.23 1858.55 1002.38 1832.24L1002.43 1715.52L1002.75 1389.05L1001.99 386.051L22.7931 386.069L22.9062 1911.28L0 1911.24L0 182.059Z"/><path fill="#72BC04" d="M543.004 462.782L671.839 462.787L671.27 589.906C657.432 591.317 642.336 590.179 628.361 590.153C599.887 590.017 571.412 590.052 542.939 590.257L543.004 462.782Z"/><path fill="#7ECC01" d="M545.315 464.51C586.767 464.492 628.32 463.864 669.759 464.824C669.175 505.747 668.463 546.897 669.688 587.808L544.49 587.815C544.069 546.792 545.239 505.566 545.315 464.51Z"/><path fill="white" d="M607.703 521.865C612.26 517.409 616.985 512.175 622.243 508.594C624.851 506.818 627.96 504.774 631.211 505.352L631.632 507.029C629.324 515.574 620.359 522.277 614.036 528.081C617.181 531.563 620.698 534.702 623.99 538.045C628.548 542.672 631.855 545.48 631.824 552.293L631.197 552.29C622.284 552.164 613.878 540.908 607.892 534.799C603.96 538.779 600.038 543.207 595.656 546.68C592.968 548.81 589.138 551.522 585.598 551.151L584.898 549.465C587.217 540.881 595.476 534.588 601.733 528.696C596.683 523.09 587.974 517.205 584.704 510.64C583.338 507.897 584.49 506.054 585.432 503.446C593.2 505.016 602.041 516.242 607.703 521.865Z"/><path fill="#72BC04" d="M542.914 717.201C585.685 716.709 628.541 717.326 671.319 717.356C671.676 759.388 671.638 801.422 671.202 843.453C628.441 842.974 585.624 843.362 542.857 843.352L542.914 717.201Z"/><path fill="#7ECC01" d="M545.391 719.477C586.612 718.819 627.963 719.415 669.196 719.394C668.493 735.675 672.139 834.639 668.012 841.361L664.252 841.288C624.652 840.674 585.047 840.408 545.442 840.49C544.743 800.211 545.392 759.77 545.391 719.477Z"/><path fill="white" d="M627.259 756.46C629.479 757.673 630.047 757.983 631.375 760.101C631.095 767.079 617.857 776.755 612.898 781.433C616.773 784.908 620.983 788.387 624.521 792.195C627.215 795.094 631.193 800.096 631.106 804.192L629.724 804.672C621.347 802.971 613.447 792.898 607.63 786.919L589.124 805.448C588.622 805.364 588.435 805.353 587.903 805.148C585.507 804.224 585.112 803.698 584.131 801.484C584.773 794.837 596.784 785.542 601.621 780.887C595.993 775.559 587.974 769.304 585.211 761.953C584.56 760.222 584.528 760.006 585.254 758.344C585.593 758.342 585.932 758.321 586.271 758.336C593.609 758.674 602.954 771.125 607.37 776.111C613.849 769.391 620.269 762.657 627.259 756.46Z"/><path fill="#7ECC01" d="M306.807 968.949L433.044 969.048L433.071 1097.04C394.574 1097.03 355.948 1097.67 317.47 1096.57L309.051 1096.82C307.035 1095.1 307.222 1094.27 307.017 1091.66C305.957 1078.15 306.872 1063.9 306.886 1050.33L306.807 968.949Z"/><path fill="#5D9809" d="M306.807 968.949L433.044 969.048L433.071 1097.04C394.574 1097.03 355.948 1097.67 317.47 1096.57C330.785 1094.32 345.964 1095.46 359.5 1095.46L431.752 1095.51C430.945 1053.81 431.581 1011.93 431.599 970.22C417.646 972.245 402.321 970.915 388.188 970.928L308.605 971.204L309.066 1053.16C309.156 1067.46 310.292 1082.6 309.051 1096.82C307.035 1095.1 307.222 1094.27 307.017 1091.66C305.957 1078.15 306.872 1063.9 306.886 1050.33L306.807 968.949Z"/><path fill="white" d="M346.387 1008.49C346.869 1008.52 347.351 1008.55 347.829 1008.61C348.04 1008.63 348.25 1008.67 348.461 1008.69C354.873 1009.5 365.233 1022.37 369.955 1027.19C374.201 1022.84 378.725 1017.51 383.691 1014.01C386.601 1011.97 389.874 1010.03 393.447 1010.69L393.694 1012.28C391.54 1020.85 382.771 1027.49 376.524 1033.34C381.004 1038.46 388.422 1043.18 391.278 1049.37C392.614 1052.27 391.393 1053.98 390.321 1056.68C383.462 1055.4 375.215 1044.9 370.256 1040.05C364.453 1045.66 357.111 1054.28 349.245 1056.59C347.628 1057.06 347.677 1056.99 346.234 1056.17C346.788 1048.1 357.809 1038.99 363.189 1033.63C358.109 1027.74 349.465 1021.59 346.106 1014.69C344.884 1012.19 345.633 1010.92 346.387 1008.49Z"/><path fill="#7ECC01" d="M306.559 462.889L433.088 462.728L433.23 590.174C418.063 590.19 309.838 591.578 306.844 589.479C306.858 586.213 306.985 582.94 307.062 579.675C305.914 540.815 306.616 501.771 306.559 462.889Z"/><path fill="#72BC04" d="M306.559 462.889L433.088 462.728L433.23 590.174C418.063 590.19 309.838 591.578 306.844 589.479C318.614 585.955 412.535 587.8 431.574 588.218C430.757 547.166 431.349 506.08 431.118 465.017C390.244 465.719 349.245 465.111 308.356 465.199C308.35 481.716 310.781 570.216 307.062 579.675C305.914 540.815 306.616 501.771 306.559 462.889Z"/><path fill="white" d="M361.362 500.16C367.788 499.32 374.498 499.424 380.471 502.302C383.931 503.969 386.406 507.02 387.602 510.64C391.785 523.303 378.697 540.858 373.145 551.743C372.846 551.999 372.582 552.248 372.252 552.459C369.828 554.008 368.124 553.844 365.466 553.427C363.475 551.807 362.318 549.866 361.035 547.693C356.738 540.418 345.171 522.451 347.567 513.952C349.525 507.011 355.367 503.351 361.362 500.16Z"/><path fill="#5D9809" d="M306.986 1221.88L433.222 1221.97L433.246 1349.45C391.449 1347.57 348.835 1349.3 306.962 1349.37L306.986 1221.88Z"/><path fill="#7ECC01" d="M308.982 1224.06L431.9 1223.99L431.963 1347.35C419.11 1349.45 403.522 1347.86 390.422 1347.87C363.312 1347.88 336.082 1348.4 308.985 1347.63L308.982 1224.06Z"/><path fill="#72BC04" d="M308.985 1347.63C314.263 1346.1 425.116 1345.9 431.963 1347.35C419.11 1349.45 403.522 1347.86 390.422 1347.87C363.312 1347.88 336.082 1348.4 308.985 1347.63Z"/><path fill="white" d="M389.935 1266.38C390.231 1266.5 390.538 1266.59 390.825 1266.73C393.229 1267.92 393.592 1268.58 394.372 1270.98C392.6 1279.84 368.385 1300.72 361.419 1307.7L345.644 1292.73C343.15 1290.28 341.261 1287.79 339.86 1284.59L341.009 1282.25C343.355 1281.89 345.038 1282.74 347.117 1283.67C352.725 1286.17 356.749 1291.08 360.932 1295.45C370.504 1285.66 380.172 1275.97 389.935 1266.38Z"/><path fill="#7ECC01" d="M307.066 1474.31C349.317 1474.02 391.57 1474.09 433.82 1474.52L434.035 1558.26C434.065 1572.37 435.286 1587.6 433.455 1601.53C391.544 1600.07 349.083 1600.98 307.14 1601.51L307.066 1474.31Z"/><path fill="white" d="M368.794 1531.52C372.858 1526.96 377.273 1521.18 382.229 1517.65C384.961 1515.7 387.757 1514.06 391.114 1514.62L391.487 1516.64C389.005 1525.32 380.753 1531.57 374.369 1537.53C380.115 1543.24 391.348 1550.75 392.533 1558.9L388.483 1560.09C381.955 1559.12 373.169 1547.85 368.563 1543.05C364.708 1547.2 360.71 1552.28 356.13 1555.62C353.821 1557.31 350.789 1559.39 347.815 1558.92L347 1557.11C349.136 1548.8 356.844 1542.82 362.794 1537.04C358.011 1531.92 352.311 1527.64 347.985 1522.09C345.641 1519.08 345.991 1517.18 346.384 1513.62C346.86 1513.64 347.337 1513.67 347.811 1513.73C348.028 1513.75 348.244 1513.79 348.461 1513.81C355.012 1514.51 364.217 1526.64 368.794 1531.52Z"/><path fill="#7ECC01" d="M306.465 717.6C320.823 716.146 335.942 717.075 350.405 717.076L433.179 717.08L433.077 843.449L345.147 843.443C334.383 843.441 317.582 845.265 307.517 842.813C306.543 840.222 306.809 838.029 307.053 835.349C305.176 796.343 306.839 756.704 306.465 717.6Z"/><path fill="#72BC04" d="M306.465 717.6C320.823 716.146 335.942 717.075 350.405 717.076L433.179 717.08L433.077 843.449L345.147 843.443C334.383 843.441 317.582 845.265 307.517 842.813C306.543 840.222 306.809 838.029 307.053 835.349C308.565 836.624 308.477 838.459 308.824 840.36C315.172 843.224 414.02 840.191 430.671 841.317C431.512 829.34 430.913 816.908 430.979 804.886C430.948 776.086 431.161 747.286 431.617 718.49L359.437 718.025C341.892 718.019 323.959 718.832 306.465 717.6Z"/><path fill="white" d="M362.102 754.207C368.398 753.348 374.784 753.477 380.487 756.676C384.158 758.735 386.522 762.104 387.527 766.171C390.994 780.202 379.717 795.057 372.74 806.448C370.942 807.776 370.347 807.834 368.101 808.116C363.121 805.725 358.485 797.534 355.734 792.775C351.293 785.094 347.321 776.465 349.897 767.464C351.809 760.788 356.239 757.381 362.102 754.207Z"/><path fill="#7ECC01" d="M146.146 968.716C181.686 966.227 212.54 992.964 215.129 1028.5C217.719 1064.03 191.068 1094.96 155.542 1097.65C119.875 1100.35 88.796 1073.57 86.1961 1037.89C83.5962 1002.22 110.464 971.216 146.146 968.716Z"/><path fill="white" d="M134.821 1008.14C141.939 1008.03 147.724 1014.29 150.961 1014.12C154.407 1013.94 158.211 1008.3 162.761 1008.29C166.924 1008.27 172.441 1010.63 175.352 1013.61C178.151 1016.48 179.174 1020.31 179.055 1024.25C178.743 1034.54 172.088 1041.58 165.12 1048.23L150.742 1059.21C141.053 1052.13 129.248 1043.95 123.961 1032.8C122.034 1028.74 120.915 1023.77 122.581 1019.43C124.815 1013.61 129.291 1010.49 134.821 1008.14Z"/><path fill="#7ECC01" d="M138.581 462.23C173.773 455.702 207.57 479.015 213.968 514.231C220.366 549.446 196.929 583.157 161.69 589.425C126.634 595.66 93.1369 572.372 86.7722 537.339C80.4075 502.307 103.572 468.724 138.581 462.23Z"/><path fill="white" d="M134.257 502.735C139.098 502.578 150.421 508.145 151.14 507.894C154.385 506.764 157.06 503.135 160.741 502.833C165.078 502.477 171.278 503.972 174.512 507.044C177.055 509.459 177.902 512.844 177.927 516.247C178.008 527.272 170.222 534.458 163.119 541.708L151.042 553.682C142.566 545.723 131.549 537.204 125.531 527.261C123.184 523.384 121.667 518.691 122.933 514.183C124.529 508.495 129.36 505.376 134.257 502.735Z"/><path fill="#7ECC01" d="M143.673 716.25C179.1 712.463 210.9 738.084 214.738 773.505C218.576 808.926 193.002 840.763 157.587 844.653C122.098 848.551 90.1803 822.913 86.3342 787.418C82.4881 751.924 108.173 720.044 143.673 716.25Z"/><path fill="white" d="M135.181 756.235C143.134 755.945 143.812 760.102 149.884 762.462C152.182 763.356 157.739 757.426 160.626 756.616C164.148 755.629 170.495 756.464 173.477 758.693C176.204 760.733 177.21 764.057 177.485 767.308C178.433 778.549 171.627 787.124 164.756 795.09C161.764 797.988 158.033 802.178 154.076 803.734C151.671 804.68 149.529 804.503 147.179 803.569C138.511 800.127 129.623 788.201 126.043 779.697C124.121 775.131 123.157 769.274 125.143 764.564C127.106 759.909 130.763 758.142 135.181 756.235Z"/><path fill="#7ECC01" d="M145.536 1473.48C180.939 1470.89 211.773 1497.41 214.515 1532.8C217.257 1568.19 190.876 1599.14 155.497 1602.04C119.896 1604.96 88.7088 1578.38 85.9497 1542.76C83.1906 1507.15 109.911 1476.08 145.536 1473.48Z"/><path fill="white" d="M148.86 1511.05C154.402 1511.21 159.64 1512.72 164.313 1515.77C167.703 1517.99 169.625 1521.31 170.432 1525.24C173.325 1539.32 160.015 1555.2 152.807 1566.39C151.862 1567.44 151.776 1567.34 150.354 1567.51C146.027 1563.92 133.478 1542.29 131.987 1536.53C130.581 1531.1 130.901 1525.42 133.871 1520.55C137.332 1514.88 142.622 1512.47 148.86 1511.05Z"/><path fill="#7ECC01" d="M140.958 1222.9C175.84 1217.81 208.3 1241.8 213.662 1276.64C219.023 1311.49 195.28 1344.13 160.481 1349.76C125.298 1355.46 92.2145 1331.39 86.7936 1296.17C81.3727 1260.94 105.691 1228.05 140.958 1222.9Z"/><path fill="white" d="M146.133 1260.12C153.316 1259.71 160.808 1260.29 166.999 1264.45C170.282 1266.65 172.368 1270.2 173.032 1274.07C175.343 1287.55 161.906 1302.55 154.703 1312.94C152.634 1314.14 152.401 1314.2 150.025 1313.97C144.998 1310.31 134.909 1293.8 132.092 1287.8C129.955 1283.25 128.899 1278.19 130.713 1273.35C133.295 1266.47 139.789 1262.9 146.133 1260.12Z"/><path fill="#353F48" d="M351.699 1726.46C384.041 1724.17 412.147 1748.46 414.57 1780.79C416.994 1813.12 392.823 1841.33 360.502 1843.89C327.988 1846.46 299.576 1822.12 297.138 1789.59C294.7 1757.07 319.165 1728.76 351.699 1726.46Z"/><path fill="white" d="M334.934 1761.98C341.332 1763.12 350.181 1775.14 354.709 1780.02C360.541 1774.46 367.501 1765.04 375.95 1763.98L377.209 1765.07C376.398 1772.52 366.265 1780.31 360.986 1785.36C366.704 1791.56 374.079 1796.75 378.144 1804.25C378.088 1807.27 377.43 1807.75 375.625 1810.03C368.253 1805.8 361.17 1797.05 355.138 1790.95C350.021 1796.27 341.247 1807.58 333.498 1807.94L332.698 1806.52C334.742 1798.15 343.485 1791.2 349.506 1785.39C343.698 1780.1 336.648 1774.8 332.782 1767.88C332.597 1764.73 333.124 1764.39 334.934 1761.98Z"/><path fill="#353F48" d="M150.068 1737.9C151.847 1737.93 154.189 1737.84 155.843 1738.55C161.525 1740.98 167.459 1756.87 170.216 1762.39C178.152 1763.27 187.08 1761.87 194.467 1765.47C196.924 1766.68 197.369 1767.72 198.186 1770.14C196.715 1778.11 184.517 1786.09 178.551 1791.15C180.325 1797.66 184.497 1808.36 182.407 1814.97C181.643 1817.39 180.769 1817.68 178.691 1818.84C170.201 1819.22 162.303 1812.82 155.405 1808.44C146.961 1806.53 137.324 1821.05 127.739 1819.42C126.159 1819.15 125.086 1818.52 124.346 1817.05C121.433 1811.24 126.772 1796.85 128.412 1790.58C122.507 1786.35 111.911 1780.37 108.915 1773.47C107.802 1770.9 108.337 1769.81 109.377 1767.43C115.932 1761.51 127.601 1762.75 135.918 1762.46C140.411 1754.88 143.704 1743.69 150.068 1737.9Z"/><path fill="#F0F0EF" d="M85.4806 653.351C110.528 651.112 136.997 652.836 162.225 652.855L311.3 652.906L798.562 652.838L892.155 652.872C907.378 652.882 923.359 651.857 938.477 653.106C939.893 653.222 941.022 653.776 942.198 654.552C928.594 657.153 892.185 654.984 875.803 654.888L743.201 654.947L229.439 654.824L136.571 655.069C121.363 655.109 105.121 656.268 90.0165 654.936C88.2529 654.78 86.9821 654.298 85.4806 653.351Z"/><path fill="#F0F0EF" d="M86.8453 1660.51C99.3714 1659.71 112.23 1660.22 124.789 1660.18L200.845 1660.25L392.928 1660.09L931.404 1660.05C934.73 1660.08 938.127 1659.69 941.054 1661.52C928.82 1664.1 899.193 1662.19 885.521 1662.16L757.174 1662.05L238.354 1662.1C222.11 1662.1 93.3042 1664.09 86.8453 1660.51Z"/><path fill="#F0F0EF" d="M85.358 1160.47C99.4743 1157.91 128.557 1160.01 143.965 1160.05C189.433 1159.78 234.902 1159.86 280.368 1160.3L763.281 1160.44C785.56 1160.33 932.607 1157.82 940.383 1160.89C940.205 1160.96 940.031 1161.05 939.849 1161.11C931.195 1163.95 890.845 1162.11 878.158 1162.11L729.756 1162.07L319.758 1162.09C244.53 1162.13 169.077 1163.36 93.8799 1161.97C90.747 1161.91 88.249 1161.82 85.358 1160.47Z"/><path fill="#F0F0EF" d="M86.0082 1410.46C99.1337 1407.72 128.119 1409.95 143.187 1410.03L265.76 1410.07L795.995 1410.52C814.614 1410.54 933.198 1407.77 941.053 1411.52C940.911 1411.54 940.768 1411.58 940.625 1411.6C927.078 1414.1 900.105 1412.07 884.87 1412.06L748.956 1411.99L222.497 1412.09L134.299 1412.19C119.81 1412.2 104.452 1413.22 90.0383 1411.96C88.4102 1411.81 87.3547 1411.4 86.0082 1410.46Z"/><path fill="#B3B3B3" d="M863.408 765.544C864.986 765.557 866.551 765.655 868.007 766.322C874.97 769.518 889.501 784.085 891.893 791.209C891.695 797.359 875.594 810.118 871.002 814.962C869.283 816.329 868.184 816.707 866.001 816.886C863.887 815.664 863.687 815.746 862.991 813.438C864.489 806.09 876.615 796.637 882.039 791.32C876.567 784.777 869.408 779.559 864.348 772.734C862.421 770.134 862.971 768.453 863.408 765.544Z"/><path fill="#B3B3B3" d="M864.509 1017.39C864.699 1017.42 864.891 1017.44 865.079 1017.47C865.39 1017.53 865.697 1017.61 866.006 1017.68C873.427 1019.33 889.071 1037.26 895.313 1043.27L869.784 1068.12L867.5 1068.82C865.406 1067.92 864.743 1067.86 863.471 1065.9C864.124 1059.49 879.1 1048.06 883.849 1043.58C877.978 1038.38 867.291 1030.9 863.981 1023.93C862.729 1021.3 863.629 1019.9 864.509 1017.39Z"/><path fill="#B3B3B3" d="M864.788 1520.73C872.832 1522.9 888.388 1541.88 894.635 1548.41C886.595 1557.51 877.392 1565.87 868.771 1574.44C867.64 1574.63 866.832 1574.77 865.704 1574.48C863.833 1573.98 863.69 1573.88 862.692 1572.22C863.14 1565.57 879.38 1553.01 884.172 1548.51C879.027 1542.81 864.966 1533.03 863.091 1525.9C862.557 1523.87 863.848 1522.43 864.788 1520.73Z"/><path fill="#B3B3B3" d="M863.397 1269.56C872.382 1270.02 888.22 1289.67 894.823 1296.46L869.684 1321.29C868.41 1322.58 867.183 1322.72 865.445 1323.06C863.556 1322.01 863.619 1321.82 862.843 1319.91C863.933 1312.77 878.729 1301.68 884.025 1296.53C877.868 1290.28 870.908 1284.78 865.325 1277.96C862.759 1274.83 863.043 1273.33 863.397 1269.56Z"/><path fill="#B3B3B3" d="M863.405 514.393C863.883 514.452 864.362 514.513 864.835 514.605C865.045 514.645 865.255 514.692 865.465 514.732C871.497 515.871 888.091 534.966 893.578 540.319C886.5 548.481 877.544 555.93 869.679 563.392C867.64 564.134 866.47 564.231 864.352 563.746L863.448 561.506C865.327 554.427 877.346 545.602 882.907 540.573C877.05 534.144 868.886 529.026 864.033 521.834C862.116 518.993 862.794 517.469 863.405 514.393Z"/></svg>