<?xml version="1.0" encoding="utf-8" ?><svg xmlns="http://www.w3.org/2000/svg" xmlns:xlink="http://www.w3.org/1999/xlink" width="1024" height="2048" viewBox="0 0 1024 2048"><path fill="white" d="M0 0L1024 0L1024 20.858L1024 184.348L1024 1889.22L1024 2048L0 2048L0 1889.25L0 184.428L0 20.7407L0 0Z"/><path fill="#F0F0EE" d="M0 0L1024 0L1024 20.858L1024 184.348L1024 1889.22L1001.81 1889.22L1002.34 437.316C989.507 436.395 976.38 436.926 963.503 436.95L899.287 436.982C826.607 436.554 753.925 436.54 681.245 436.941L21.8007 436.468C22.834 453.591 21.9896 471.225 22.0186 488.4L22.2554 584.016L21.9215 878.904L22.7047 1889.22L0 1889.25L0 184.428L0 20.7407L0 0Z"/><path fill="#25303B" d="M0 0L1024 0L1024 20.858L1024 184.348L897.27 184.409L413.907 184.574L286.144 184.466C269.796 184.431 240.92 182.893 226.052 184.837C200.603 182.41 173.199 184.389 147.589 184.431L0 184.428L0 20.7407L0 0Z"/><path fill="#000100" d="M0 0L1024 0L1024 20.858L0 20.7407L0 0Z"/><path fill="#F0F0EE" d="M941.939 69.8209C942.459 69.8086 942.98 69.794 943.501 69.814C949.024 70.0259 969.46 90.0123 973.875 94.7783C976.181 97.2676 976.761 98.1587 976.604 101.549L975.218 102.78C973.177 102.64 971.479 102.533 969.485 103.041C967.822 113.03 969.081 124.695 969.119 134.911C962.685 135.348 956.048 135.083 949.589 135.133L918.061 134.941C917.896 130.913 919.329 105.778 917.392 103.778C915.582 101.908 914.1 102.514 912.484 99.7126C912.975 94.2399 936.502 74.8404 941.939 69.8209Z"/><path fill="#25303B" d="M944.513 79.2178C950.243 82.6067 956.095 89.8674 960.99 94.5771L960.9 127.904L948.021 127.687C948.075 124.179 948.621 119.866 948.035 116.43C947.507 113.336 945.858 112.488 943.567 110.773L940.658 113.66C938.919 117.775 939.548 122.726 939.668 127.115L925.209 127.094C925.461 117.016 925.623 106.937 925.693 96.8565L944.513 79.2178Z"/><path fill="#F0F0EE" d="M80.9034 72.6916C81.9508 72.8022 82.7969 72.8655 83.7441 73.3603C85.5133 74.2846 85.4514 74.6466 86.0413 76.4701C84.3387 84.2111 70.3117 95.3509 64.7932 101.296C78.9264 101.563 94.5321 99.285 108.373 101.858C110.492 103.621 110.624 103.576 110.971 106.287C110.596 106.815 110.489 107.047 110.026 107.443C104.858 111.857 73.5405 109.708 65.1075 109.578C67.1473 112.014 69.366 114.335 71.495 116.696C76.1514 121.147 83.7778 127.113 85.9307 133.328C86.4436 134.809 86.156 134.918 85.4432 136.283C84.4031 136.617 83.4911 136.855 82.3846 136.781C75.8952 136.349 53.3483 111.322 48.1941 105.128C58.4895 93.8861 70.045 83.4183 80.9034 72.6916Z"/><path fill="white" d="M226.052 184.837C240.92 182.893 269.796 184.431 286.144 184.466L413.907 184.574L897.27 184.409C901.151 186.859 988.973 185.484 1001.49 185.477C1001.92 227.907 1004.29 270.996 1001.95 313.359C952.194 314.591 902.201 313.68 852.425 313.605L634.305 313.758L22.471 313.711C21.3039 271.299 21.0293 227.858 22.8344 185.474L164.447 185.427C181.414 185.426 210.607 187.442 226.052 184.837Z"/><path fill="#BABABB" d="M81.5689 227.928C83.5092 228.728 84.4776 229.43 85.733 231.116C85.818 237.79 76.8463 244.333 72.4055 249.27C78.7703 249.656 85.1864 249.235 91.5424 249.799C95.4224 250.143 101.792 250.726 104.426 253.902L103.225 255.347C93.4637 259.443 81.4498 258.293 71.0323 258.288L77.6556 265.036C79.2178 266.51 80.7478 268.017 82.2445 269.558C84.5689 271.996 85.6552 273.87 85.5815 277.199C83.6202 278.683 83.0152 278.499 80.511 278.567C72.7678 273.284 61.1485 262.172 57.0469 253.761C58.2545 246.619 75.8576 233.011 81.5689 227.928Z"/><path fill="#686C74" d="M240.824 244.157C243.599 243.651 247.103 243.262 249.879 243.905C253.742 244.799 257.156 250.086 259.064 253.294C259.215 255.37 259.415 255.489 258.086 257.224C254.301 259.33 249.914 258.964 245.732 259.465C243.06 259.786 241.007 259.684 239.305 261.854C239.529 262.668 239.788 263.67 240.307 264.347C242.285 266.925 245.18 266.971 248.11 267.565C251.237 266.879 252.448 266.174 255.44 267.465L255.696 269.086C253.088 271.063 249.863 271.559 246.65 271.401C242.932 271.217 239.489 270.024 236.961 267.197C234.352 264.278 233.337 260.262 233.636 256.413C234.064 250.909 236.73 247.583 240.824 244.157Z"/><path fill="white" d="M241.696 247.995C242.862 247.923 244.028 247.859 245.197 247.879C248.3 247.931 250.56 249.135 252.682 251.363C253.063 253.702 252.988 253.721 251.702 255.726C247.538 255.889 242.457 256.845 239.142 254.056C239.315 251.302 240.229 250.259 241.696 247.995Z"/><path fill="#686C74" d="M203.006 254.987C203.602 252.443 203.678 251.886 202.925 249.403C198.328 246.849 191.849 250.541 188.743 248.045C189.975 245.727 190.572 244.891 193.255 244.1C197.274 242.915 202.482 243.712 206.013 245.871C207.739 246.926 208.429 248.253 208.865 250.223C210.177 256.149 209.997 262.944 208.696 268.845L207.496 270.19C205.952 270.065 205.251 269.953 203.915 269.066C203.227 269.303 202.541 269.516 201.847 269.734C198.907 270.657 196.513 271.354 193.399 270.605C190.629 269.938 189.125 268.378 187.706 266.017C187.427 263.083 187.39 260.83 189.524 258.518C192.922 254.837 198.427 255.122 203.006 254.987Z"/><path fill="#686C74" d="M203.006 254.987C203.602 252.443 203.678 251.886 202.925 249.403C198.328 246.849 191.849 250.541 188.743 248.045C189.975 245.727 190.572 244.891 193.255 244.1C197.274 242.915 202.482 243.712 206.013 245.871C207.739 246.926 208.429 248.253 208.865 250.223C210.177 256.149 209.997 262.944 208.696 268.845L207.496 270.19C205.952 270.065 205.251 269.953 203.915 269.066L203.486 266.843C203.994 263.587 204.131 261.275 203.331 258.05L203.006 254.987Z"/><path fill="white" d="M203.331 258.05C204.131 261.275 203.994 263.587 203.486 266.843C202.032 267.141 200.553 267.462 199.075 267.617C196.121 267.928 194.688 266.95 192.55 265.165C192.191 262.538 192.432 262.448 193.893 260.194C196.706 258.086 199.96 258.235 203.331 258.05Z"/><path fill="#686C74" d="M150.248 245.612C150.136 253.783 150.079 261.868 148.931 269.977L147.624 270.685C143.761 264.938 144.203 248.152 144.721 241.381C144.938 238.537 145.109 236.968 147.226 235.057L149.495 235.449C156.201 240.482 160.277 255.894 163.373 263.714C164.45 266.11 164.543 266.431 164.092 269.009L163.417 269.952C158.451 267.978 152.658 250.971 150.248 245.612Z"/><defs><linearGradient id="gradient_0" gradientUnits="userSpaceOnUse" x1="167.47241" y1="247.23123" x2="183.5484" y2="261.93295"><stop offset="0" stop-color="#585F6D"/><stop offset="1" stop-color="#787E85"/></linearGradient></defs><path fill="url(#gradient_0)" d="M163.373 263.714C166.728 255.205 170.383 241.594 177.099 235.349L178.807 234.949C182.097 238.272 181.213 247.005 181.188 251.43C181.16 256.497 181.478 266.682 178.439 270.755C176.864 269.617 177.014 269.559 176.712 267.671C175.528 260.27 175.736 252.614 175.677 245.132C172.71 252.146 169.348 263.47 164.092 269.009C164.543 266.431 164.45 266.11 163.373 263.714Z"/><path fill="#686C74" d="M216.539 242.979C221.371 245.16 223.934 244.631 229.082 244.324C230.025 245.401 225 249.407 223.824 250.71C221.386 253.411 221.905 255.742 221.814 259.16C221.909 262.313 222.503 266.54 221.109 269.412C220.763 270.124 219.382 270.377 218.639 270.657L217.175 269.861C214.765 262.72 216.436 250.771 216.539 242.979Z"/><path fill="white" d="M235.218 317.194C294.746 318.887 354.336 317.21 413.877 317.342L691.656 317.829C764.909 317.433 838.164 317.42 911.417 317.789C941.78 317.871 972.15 317.354 1002.51 317.858C1002.65 354.323 1002.51 390.788 1002.09 427.25C1002.02 429.734 1002.25 430.654 1000.68 432.681C991.571 434.118 981.253 433.157 971.997 433.088L918.081 432.745C851.863 433.255 785.643 433.227 719.426 432.66L405.113 432.76C348.431 433.368 291.743 433.299 235.063 432.553C235.049 394.203 234.024 355.513 235.218 317.194Z"/><path fill="#F0F0EE" d="M505.328 384.222C513.491 383.886 521.185 383.779 528.78 387.37C537.525 391.504 541.37 398.672 544.389 407.337C537.142 408.084 529.547 407.806 522.25 407.95C511.786 407.8 500.816 409.299 490.438 408.298C487.496 408.014 484.673 407.479 482.686 405.103C482.219 402.369 482.2 401.044 483.626 398.578C488.364 390.384 496.728 386.827 505.328 384.222Z"/><path fill="#F0F0EE" d="M693.965 385.251C700.717 384.146 709.399 384.698 715.672 387.342C725.283 391.393 729.434 398.671 733.074 407.846C725.024 408.347 716.815 408.089 708.743 408.141C698.846 408.046 688.754 409.092 678.891 408.363C675.537 408.115 672.478 407.67 670.144 405.016C669.693 402.354 669.784 401.055 671.283 398.712C676.666 390.298 684.789 387.369 693.965 385.251Z"/><path fill="#F0F0EE" d="M507.881 347.959C511.208 347.825 514.782 347.516 517.963 348.687C522.232 350.258 526.059 353.55 527.944 357.724C529.558 361.264 529.682 365.304 528.29 368.937C526.085 374.653 522.13 376.963 516.789 379.398C514.563 379.645 512.36 379.853 510.14 379.436C505.556 378.574 501.097 376.073 498.547 372.08C496.238 368.463 495.652 364.319 496.67 360.163C498.201 353.908 502.635 351.027 507.881 347.959Z"/><path fill="#F0F0EE" d="M697.548 348.734C706.413 347.28 714.76 353.339 716.125 362.217C717.491 371.096 711.35 379.383 702.458 380.66C693.69 381.919 685.544 375.882 684.198 367.127C682.852 358.373 688.807 350.167 697.548 348.734Z"/><path fill="#F0F0EE" d="M305.124 351.486C317.035 351.349 344.451 349.236 354.335 352.236C355.773 355.585 355.131 359.695 354.935 363.267C344.339 363.413 313.989 365.564 305.803 362.712C304.262 359.338 304.93 355.114 305.124 351.486Z"/><path fill="#F0F0EE" d="M305.135 370.848C319.49 370.707 340.531 368.709 354.188 371.441C355.742 374.758 355.116 379.22 355.01 382.825L305.113 382.88L305.135 370.848Z"/><path fill="#2090CF" d="M859.828 372.044C872.738 371.993 896.214 369.959 908.149 372.528C910.676 376.516 909.862 379.237 908.889 383.634C895.494 383.767 875.702 385.709 863.077 383.666C860.685 383.279 860.564 382.961 859.129 381.021C858.692 377.708 859.064 375.272 859.828 372.044Z"/><path fill="#2090CF" d="M860.53 391.097C872.948 391.194 894.302 388.326 905.48 391.436C908.15 392.179 908.74 392.887 910.089 395.134C910.167 398.05 909.902 399.752 908.749 402.472C894.834 402.691 880.352 403.653 866.489 402.737C863.327 402.528 861.667 402.356 859.538 399.977C858.722 396.649 859.549 394.272 860.53 391.097Z"/><path fill="#2090CF" d="M860.992 353.411C873.838 353.368 892.228 351.1 904.374 353.754C907.37 354.409 908.456 355.132 910.124 357.653C910.239 360.62 909.973 362.217 908.711 364.952C897.139 365.061 874.165 367.435 863.853 364.608C861.086 363.849 860.298 363.216 858.852 360.796C858.9 357.708 859.462 356.059 860.992 353.411Z"/><path fill="#F0F0EE" d="M304.848 390.585C319.004 390.53 340.441 388.488 353.925 391.211C355.513 394.302 354.974 398.648 354.939 402.066C341.364 402.107 318.667 404.065 305.885 401.481C304.267 398.323 304.797 394.066 304.848 390.585Z"/><path fill="#BABABB" d="M158.19 365.557C160.745 366.153 161.042 366.119 162.678 368.129C162.729 368.722 162.743 369.279 162.637 369.872C161.393 376.825 137.924 397.906 131.535 402.591C124.869 396.904 118.769 390.586 112.625 384.351C111.009 382.642 109.518 380.821 108.004 379.022C107.447 376.764 107.288 375.521 108.201 373.349L109.659 372.785C117.087 374.361 125.724 386.61 131.369 391.865C140.973 384.01 149.51 374.44 158.19 365.557Z"/><path fill="#000100" d="M1001.81 1889.22L1024 1889.22L1024 2048L0 2048L0 1889.25L22.7047 1889.22L1001.81 1889.22Z"/><path fill="white" d="M502.134 1910.64C536.026 1905.1 567.962 1928.18 573.324 1962.11C578.687 1996.03 555.429 2027.84 521.479 2033.02C487.786 2038.16 456.27 2015.12 450.948 1981.45C445.626 1947.79 468.498 1916.15 502.134 1910.64Z"/><path fill="#87C806" d="M508.957 1944.17C511.814 1944.7 512.869 1944.79 515.128 1946.76C517.502 1952.53 516.665 1959.35 516.696 1965.52C524.052 1965.65 530.877 1964.34 537.115 1969.09L537.158 1970.79C531.91 1976.04 523.04 1974.97 516.182 1975.3C516.279 1981.78 516.917 1989.23 514.85 1995.43C511.974 1995.7 511.249 1995.96 508.701 1994.37C505.639 1988.97 507.014 1980.83 507.237 1974.79C502.274 1974.74 496.797 1975.19 491.912 1974.69C489.321 1974.42 488.721 1973.29 487.29 1971.34C487.045 1968.88 486.914 1968.6 488.2 1966.52C492.256 1964.49 499.803 1965.9 504.51 1965.33C509.843 1961.18 505.557 1950.49 508.957 1944.17Z"/><path fill="#F0F0EE" d="M828.696 1920.55C829.786 1920.77 830.863 1921.02 831.918 1921.37C838.708 1923.66 844.62 1940.94 847.64 1947.26C854.941 1948.18 865.882 1948.19 872.292 1951.69C874.798 1953.06 875.296 1954.01 876.106 1956.67C874.518 1964.73 863.451 1973.17 857.628 1978.84C859.142 1986.51 861.598 1995.16 861.555 2002.95C861.536 2006.22 860.954 2007.86 858.633 2010.12C851.621 2012.03 837.544 2002.47 831.333 1999.23C826.394 1998.68 813.841 2008.64 808.578 2010.74C805.703 2011.89 804.171 2011.86 801.384 2010.67C797.626 2004.64 803.274 1985.84 804.357 1978.72C799.144 1972.88 789.388 1966.09 786.575 1958.84C785.596 1956.32 785.982 1955.6 786.938 1953.25C793.291 1947.85 805.808 1948.22 813.912 1947.52C818.006 1938.58 821.876 1927.7 828.696 1920.55Z"/><path fill="#000100" d="M830.262 1931.65C834.02 1934.73 839.651 1949.7 841.929 1954.66C850.314 1956.03 858.83 1956.9 867.259 1957.98C860.802 1964.06 854.355 1970.05 848.61 1976.82C850.187 1985.35 851.983 1993.83 853.997 2002.26C847.238 1998.1 840.286 1994.22 833.412 1990.25C833.11 1990.16 832.813 1990.05 832.505 1989.98C827.647 1988.91 813.814 1998.42 809.3 2000.96C810.804 1992.64 812.214 1984.31 813.53 1975.97C808.247 1969.58 801.976 1963.76 796.446 1957.52C804.398 1956.89 812.147 1956.06 819.994 1954.61C823.897 1947.27 826.943 1939.28 830.262 1931.65Z"/><path fill="#F0F0EE" d="M196.304 1925.19C200.091 1925.14 204.367 1925.53 207.828 1927.17C215.039 1930.59 217.558 1937.76 220.142 1944.73C220.779 1944.68 221.416 1944.64 222.054 1944.61C226.584 1944.37 229.486 1944.34 233.03 1947.5C236.014 1952.9 234.667 1960.78 234.518 1966.81C213.408 1968.63 191.762 1967.83 170.576 1967.93C170.811 1979.26 170.751 1990.63 170.821 2001.97C180.055 2002.07 219.552 2004.24 225.305 2000.51C226.177 1997.96 226.185 1996.19 225.971 1993.56C223.802 1991.25 221.115 1991.48 218.041 1990.95C217.03 1990.27 215.996 1989.62 215.36 1988.55C214.279 1986.74 214.702 1986.3 215.28 1984.37C219 1981.16 224.162 1979.51 229.081 1979.72C231.645 1979.83 232.678 1980.33 234.302 1982.23C235.698 1987.86 235.933 1999.99 233.924 2005.44C233.272 2007.2 231.908 2008.73 230.178 2009.45C225.832 2011.27 172.162 2010.51 167.275 2008.77C163.502 2005.09 163.078 1997.55 162.972 1992.56C162.814 1985.13 161.022 1950.41 165.309 1945.92C169.402 1943.86 174.883 1944.37 179.389 1944.29C179.971 1940.91 180.512 1937.44 182.19 1934.4C185.348 1928.68 190.295 1926.8 196.304 1925.19Z"/><path fill="#000100" d="M170.677 1952.02C185.819 1951.94 210.958 1949.86 224.836 1952.88C226.319 1955.09 225.926 1957.14 225.994 1959.75C209.506 1959.89 187.404 1962 171.695 1959.49C170.153 1956.85 170.607 1955.05 170.677 1952.02Z"/><path fill="#000100" d="M198.4 1931.97C199.797 1932.17 201.213 1932.4 202.518 1932.96C205.371 1934.17 209.65 1936.81 210.777 1939.82C211.286 1941.18 210.696 1941.84 210.17 1943.12C207.253 1945.48 202.52 1944.64 198.954 1944.49C197.988 1944.53 197.021 1944.57 196.054 1944.6C192.349 1944.72 190.675 1944.98 187.915 1942.38C187.793 1941.44 187.407 1940.26 187.832 1939.41C189.999 1935.06 194.072 1933.5 198.4 1931.97Z"/><path fill="#87C806" d="M100.197 494.887C128.838 495.153 157.481 495.091 186.12 494.7C186.161 524.245 186.955 553.973 185.996 583.492C157.407 584.201 128.626 583.527 100.018 583.353L100.197 494.887Z"/><path fill="#87C806" d="M100.71 959.802C129.242 960.033 157.775 960.067 186.307 959.904L186.403 1014.77C186.403 1025.41 186.988 1036.52 185.788 1047.09C157.484 1046.3 128.595 1046.25 100.302 1047.1C100.834 1018 100.469 988.901 100.71 959.802Z"/><path fill="white" d="M110.739 970.774L176.175 970.673L176.04 1037.32L110.759 1037.28L110.739 970.774Z"/><path fill="#87C806" d="M100.232 727.058C129 727.244 157.77 727.192 186.538 726.9L186.367 812.953C157.64 813.169 128.894 812.843 100.165 812.727L100.232 727.058Z"/><path fill="#87C806" d="M323.543 725.919C348.015 723.625 369.757 741.498 372.241 765.951C374.725 790.405 357.023 812.285 332.59 814.96C307.885 817.666 285.708 799.723 283.196 774.998C280.684 750.273 298.8 728.237 323.543 725.919Z"/><path fill="#87C806" d="M503.18 726.848C527.021 722.588 549.829 738.373 554.242 762.185C558.655 785.998 543.018 808.907 519.234 813.474C495.232 818.081 472.068 802.27 467.614 778.239C463.161 754.209 479.121 731.147 503.18 726.848Z"/><path fill="#25303B" d="M137.359 1427.58C160.43 1423.64 182.322 1439.16 186.229 1462.24C190.136 1485.32 174.575 1507.19 151.492 1511.06C128.458 1514.92 106.646 1499.4 102.747 1476.37C98.8485 1453.35 114.336 1431.51 137.359 1427.58Z"/><path fill="white" d="M138.935 1438.44C156.072 1435.35 172.482 1446.69 175.652 1463.82C178.822 1480.94 167.559 1497.4 150.452 1500.65C133.23 1503.93 116.629 1492.57 113.438 1475.33C110.246 1458.1 121.682 1441.55 138.935 1438.44Z"/><path fill="#25303B" d="M127.874 1462.09C138.909 1461.88 152.015 1460.56 162.504 1464.59L162.831 1467.79C158.408 1470.2 153.938 1470.8 149.043 1471.57L149.045 1484.25C149.111 1485.16 149.153 1486.08 149.021 1486.99C148.655 1489.48 147.766 1491.04 145.834 1492.62C143.816 1492.63 143.554 1492.28 141.931 1491.19C137.984 1484.36 139.039 1478.58 139.594 1470.99C135.656 1470.82 129.536 1471.22 126.598 1468.25C126.201 1465.36 126.671 1464.64 127.874 1462.09Z"/><path fill="#25303B" d="M322.626 1427.63C345.617 1422.94 368.028 1437.88 372.541 1460.9C377.055 1483.93 361.942 1506.23 338.88 1510.56C316.07 1514.85 294.071 1499.93 289.607 1477.16C285.143 1454.38 299.885 1432.27 322.626 1427.63Z"/><path fill="white" d="M327.743 1437.46C345.244 1435.64 360.917 1448.33 362.777 1465.83C364.637 1483.33 351.983 1499.03 334.49 1500.93C316.942 1502.83 301.181 1490.13 299.315 1472.58C297.449 1455.02 310.187 1439.29 327.743 1437.46Z"/><path fill="#25303B" d="M313.643 1461.96C319.983 1461.32 340.426 1460.3 345.87 1462.06C347.908 1462.72 348.097 1464.32 348.92 1466.14C347.969 1472.81 339.695 1468.34 335.389 1471.62L335.042 1474.75C335.074 1478.13 335.456 1481.68 335.092 1485.04C334.806 1487.67 333.698 1489.92 331.661 1491.65L329.711 1490.97C325.024 1484.26 325.92 1478.32 326.123 1470.45C322.555 1470.32 318.888 1470.5 315.6 1468.93C313.679 1466.27 313.809 1465.13 313.643 1461.96Z"/><path fill="#87C806" d="M327.752 501.209C332.994 497.964 338.369 495.903 344.6 495.727C352.855 495.451 360.872 498.524 366.828 504.248C372.092 509.227 375.117 516.123 375.217 523.367C375.459 540.827 356.381 554.184 345.017 565.679L328.069 583.42C316.435 571.572 288.062 547.714 282.907 533.373C280.48 526.62 280.325 518.422 283.426 511.86C287.311 503.64 295.223 498.992 303.465 496.124C313.388 495.032 319.153 496.061 327.752 501.209Z"/><path fill="#87C806" d="M511.358 501.059C516.111 498.334 520.749 496.209 526.31 495.922C534.429 495.489 542.38 498.344 548.368 503.844C553.797 508.87 556.979 515.867 557.198 523.262C557.812 541.507 537.832 556.063 526.15 568.293L511.531 583.252C501.792 575.111 470.796 543.283 467.097 532.904C464.711 526.21 465.002 518.474 468.082 512.056C472.109 503.663 480.186 499.135 488.55 496.116C497.68 494.838 503.557 496.699 511.358 501.059Z"/><path fill="#25303B" d="M346.813 1682.76C346.687 1679.06 345.768 1673.05 348.396 1670.17C349.915 1668.51 350.233 1668.53 352.329 1668.51C352.847 1668.91 353.33 1669.3 353.771 1669.79C356.508 1672.81 355.41 1678.38 355.125 1682.17L369.208 1682.26C369.228 1695.21 370.909 1735.92 368.878 1745.89C368.401 1748.23 368.11 1748.21 366.199 1749.5L294.15 1749.63C293.966 1727.28 294.045 1704.94 294.388 1682.59C299.562 1682.36 304.808 1682.64 309.988 1682.75C309.813 1677.34 308.924 1671.77 312.529 1667.33C314.432 1667.77 315.629 1668.41 317.194 1669.57C319.261 1673.28 318.342 1678.64 318.159 1682.77L346.813 1682.76Z"/><path fill="white" d="M304.163 1694.94L359.973 1695.15L359.944 1740.16C341.25 1740.34 322.533 1740.1 303.837 1740.07C303.719 1725.03 303.827 1709.98 304.163 1694.94Z"/><path fill="#25303B" d="M332.062 1712.32C336.3 1707.99 340.175 1702.66 346.627 1702.15C347.671 1702.07 347.963 1702.7 348.725 1703.35C348.718 1703.54 348.717 1703.73 348.705 1703.92C348.292 1710.16 341.965 1714.29 337.62 1718.09C341.922 1722.92 347.671 1727 350.597 1732.87C349.115 1733.68 347.437 1734.96 345.733 1734.99C340.514 1735.06 335.42 1728.15 332.076 1724.67C329.297 1727.57 325.318 1732.71 321.333 1733.62C319.252 1734.1 319.013 1733.96 317.264 1732.79C317.127 1732.11 317.02 1731.46 317.025 1730.77C317.051 1726.32 322.922 1721.46 325.846 1718.42C322.32 1715.23 316.879 1711.18 314.912 1706.83C313.67 1704.09 314.353 1703.13 315.299 1700.55C322.063 1700.71 327.504 1707.9 332.062 1712.32Z"/><path fill="#25303B" d="M146.752 1664.29C147.079 1664.36 147.407 1664.42 147.733 1664.49C157.001 1666.62 151.085 1671.98 153.095 1677.24C154.204 1680.14 162.799 1680.89 165.617 1683.24C169.795 1686.73 168.71 1692.29 171.681 1696.27C174.807 1700.46 180.377 1698.31 186.614 1708.27C186.862 1715.88 187.223 1723.52 187.251 1731.12C187.271 1736.46 186.751 1742.45 182.68 1746.38C175.736 1753.07 161.48 1751.1 152.5 1750.93C144.287 1750.92 122.835 1753.54 116.652 1748.5C113.423 1745.87 112.166 1740.83 111.589 1736.91C110.191 1727.4 109.239 1703.1 116.247 1695.65C120.051 1691.6 127.168 1687.88 132.014 1684.84C134.93 1683.02 140.299 1680.76 142.571 1678.42C144.734 1676.18 143.463 1668.77 146.752 1664.29Z"/><path fill="white" d="M139.696 1689.41C139.87 1689.45 140.047 1689.48 140.218 1689.53C147.226 1691.6 141.778 1700.93 144.787 1706.05C146.177 1707.31 147.501 1708.74 149.426 1709.06C150.701 1709.27 150.815 1708.95 151.859 1708.21C153.995 1703.94 153.323 1699.12 154.013 1694.53C154.355 1692.24 154.326 1691.19 156.269 1689.8L158.639 1691.18C163.905 1698.58 158.324 1707.68 160.796 1715.55C161.564 1718 162.917 1718.28 165.057 1719.26C172.762 1718.54 168.889 1712.44 172.828 1708.29L175.222 1709.87C177.964 1714.71 176.362 1734.13 176.352 1740.62C159.435 1743.18 138.558 1741.27 121.329 1741.21C121.248 1733.5 119.528 1706.39 123.918 1701.4C127.849 1702.09 129.286 1707.73 133.844 1708.59C140.795 1705.48 136.168 1695.37 139.696 1689.41Z"/><path fill="#87C806" d="M878.671 723.615C878.843 723.651 879.02 723.673 879.189 723.722C879.467 723.803 879.735 723.912 880.009 724.005C880.187 724.066 880.369 724.114 880.545 724.182C885.542 726.138 892.953 745.736 895.424 750.792C902.648 751.351 916.101 750.846 922.1 754.85C924.011 756.126 923.967 756.6 924.469 758.718C921.883 766.363 908.544 774.098 902.109 778.923C904.211 787.398 908.823 798.059 908.785 806.688C908.773 809.505 908.287 810.194 906.358 812.018C899.085 813.171 889.181 804.949 883.183 801.079C871.605 797.066 863.083 814.558 851.881 813.343L850.299 811.17C848.733 802.084 852.284 790.897 854.113 781.867C848.806 774.418 838.604 767.03 835.856 758.281C835.98 757.453 835.96 756.04 836.516 755.426C841.09 750.37 857.916 751.662 864.497 751.46C868.473 742.565 872.183 730.911 878.671 723.615Z"/><path fill="#87C806" d="M876.74 494.451C889.233 496.203 885.9 513.795 894.68 520.614C902.794 526.914 918.111 519.306 925.465 527.277C923.831 537.46 906.553 541.17 904.304 550.539C902.116 559.653 912.334 572.68 908.621 581.255C908.063 582.543 907.387 582.568 906.171 583.093C897.782 581.494 888.664 574.151 881.451 569.519C870.205 568.99 861.859 583.876 851.586 582.608C844.173 576.112 855.301 560.462 854.486 551.955C853.859 545.418 836.296 536.011 833.439 528.151C832.882 526.618 833.214 526.454 833.912 525.004C840.158 522.395 849.19 524.63 856.05 523.309C869.208 520.776 870.306 503.913 876.74 494.451Z"/><path fill="#87C806" d="M691.751 494.358C703.496 497.103 700.142 514.61 708.922 520.712C717.029 526.347 732.522 519.826 739.537 527.434C738.903 533.714 723.409 545.928 718.742 551.276C719.997 559.19 723.223 567.605 723.184 575.603C723.17 578.402 722.79 579.53 720.858 581.482C714.319 582.966 701.295 573.317 695.521 569.925C685.762 568.904 678.469 578.696 669.877 581.92C667.631 582.763 666.866 582.605 664.741 581.686C660.954 573.842 667.93 562.915 668.364 554.439C668.789 546.147 655.554 539.03 650.59 532.867C648.83 530.683 648.424 529.514 648.742 526.792C654.205 522.071 671.936 522.763 679.408 521.831C684.041 512.914 686.755 503.169 691.751 494.358Z"/><path fill="#87C806" d="M692.422 723.456C693.124 723.837 692.944 723.719 693.527 724.1C693.702 724.214 693.874 724.335 694.05 724.447C700.335 728.449 703.696 744.772 706.844 751.91C715.37 754.358 724.74 753.334 733.492 754.777C735.936 755.179 737.552 755.435 739.065 757.447C736.49 765.506 722.067 775.671 715.716 781.591C718.492 788.368 722.576 800.042 722.645 807.252C722.671 810.01 722.269 810.866 720.352 812.771C712.642 813.79 699.845 803.28 693.444 799.259C687.089 799.103 676.491 809.67 669.99 812.473C667.227 813.664 665.589 813.933 662.844 812.773C661.412 809.553 668.034 784.968 668.791 779.574C663.441 774.274 657.347 769.744 652.003 764.411C649.536 761.95 647.998 760.343 647.989 756.837C652.831 751.914 671.566 753.284 678.782 753.063C682.977 744.102 685.227 730.312 692.422 723.456Z"/><path fill="#87C806" d="M691.38 1183.3L694.925 1184.14C700.876 1188.38 704.564 1203.59 707.08 1210.58C714.52 1211.72 722.114 1211.75 729.553 1212.99C732.396 1213.46 735.787 1213.97 737.585 1216.45C736.679 1223.31 721.388 1234.89 716.315 1240.02C718.551 1247.65 722.942 1258.16 722.615 1266.04C722.507 1268.65 722.145 1269.25 720.295 1270.99C713.172 1271.96 701.519 1262.64 695.484 1258.83C688.068 1254.71 675.079 1272.18 666.9 1272.09C665.443 1272.08 665.089 1271.13 664.195 1270.1C662.331 1260.64 667.083 1248.39 669.526 1239.16C663.679 1233.09 654.148 1227.19 649.864 1219.98C648.777 1218.16 648.753 1217.96 649.212 1215.89C655.201 1211.19 671.423 1211.51 679.122 1210.57C684.212 1202 686.088 1191.9 691.38 1183.3Z"/><path fill="#87C806" d="M876.896 1183.43L880.46 1183.85C886.165 1187.71 890.48 1204.69 893.174 1211.33C900.799 1211.71 912.272 1211.02 919.16 1214.11C921.368 1215.1 921.593 1215.62 922.436 1217.72C921.046 1224.97 907.701 1234.46 902.188 1239.41C903.874 1246.23 909.876 1263.03 907.336 1269.65C906.834 1270.96 906.067 1271.05 904.876 1271.64C896.742 1270.8 886.572 1261.71 879.85 1257.01C872.763 1260.26 858.964 1272.42 851.581 1271.65C850.787 1271.57 850.124 1270.31 849.63 1269.69C848.361 1260.72 853.324 1248.3 855.762 1239.54C849.282 1233.4 839.547 1226.19 835.247 1218.49C835.218 1217.19 834.876 1216.34 835.825 1215.34C839.863 1211.05 858.585 1211.32 864.841 1210.85C869.544 1202.09 872.428 1192.35 876.896 1183.43Z"/><path fill="#87C806" d="M691.275 955.464L694.429 955.885C700.23 959.964 704.774 974.925 707.596 981.65C715.38 983.438 723.588 983.044 731.482 984.392C734.495 984.906 736.567 985.366 738.362 987.847C737.102 994.463 722.994 1004.56 717.896 1009.53C719.861 1017.23 723.639 1027.39 723.244 1035.26C723.114 1037.87 722.682 1038.76 720.796 1040.49C713.924 1041.67 700.398 1030.79 694.519 1027.14C685.691 1026.91 677.374 1041.16 668.17 1041.63C666.675 1041.7 666.316 1040.97 665.276 1040.02C662.748 1031.54 667.883 1017.82 669.912 1009.27C663.423 1002.88 654.653 998.051 649.824 990.146C649.724 988.77 649.318 987.855 650.313 986.775C654.417 982.32 672.378 982.423 678.831 981.8C682.559 972.81 686.191 963.791 691.275 955.464Z"/><path fill="#87C806" d="M878.015 955.414L881.485 955.95C887.546 960.197 891.66 975.075 894.45 982.115C902.102 983.119 919.141 981.882 924.264 987.572C923.789 993.504 907.184 1005.46 902.62 1009.62C904.424 1017.13 910.232 1030.99 908.434 1038.3C908.034 1039.93 907.293 1040.06 905.954 1040.93C898.211 1040.89 887.94 1031.99 881.572 1027.67C871.923 1026.98 864.147 1040.51 854.632 1041.9C852.991 1042.14 852.617 1041.47 851.361 1040.53C848.702 1031.85 854.796 1017.96 857.274 1009.51C851.725 1003.56 844.743 998.925 838.986 993.13C836.98 991.111 836.002 989.76 836.031 986.928C840.585 982.06 858.998 982.434 865.601 981.837C870.218 973.242 872.981 963.8 878.015 955.414Z"/><path fill="#F0F0EE" d="M101.006 1350.25C133.661 1348.92 167.009 1350.45 199.743 1350.55L378.86 1350.64L923.379 1350.54L925.648 1353.6C925.092 1353.94 924.545 1354.17 923.917 1354.35C915.712 1356.6 891.338 1354.95 881.538 1354.97L739.433 1354.6L278.716 1354.57C261.67 1354.5 105.776 1356.4 102.351 1354.07C101.279 1353.34 101.274 1351.5 101.006 1350.25Z"/><path fill="#F0F0EE" d="M98.9553 886.303C121.646 884.383 147.653 886.034 170.653 886.02L325.883 886.326L795.026 886.062C809.969 886.058 919.964 885.024 924.38 886.703C925.269 887.041 926.369 887.992 927.196 888.527L924.925 890.165C918.382 891.052 911.605 890.209 905.008 890.149C894.254 890.052 883.49 890.193 872.736 890.239L725.671 890.128L241.295 890.047C227.444 890.042 106.273 892.058 100.216 889.118C99.5015 888.771 99.2159 887.077 98.9553 886.303Z"/><path fill="#F0F0EE" d="M100.147 655.58C111.367 654.625 123.023 655.455 134.31 655.533C151.151 655.65 168.005 655.366 184.847 655.325L376.362 655.321L692.001 655.143C769.793 654.997 847.699 654.238 925.48 655.153L927.708 657.497C927.029 657.833 927.17 657.778 926.345 658.103C920.138 660.548 102.304 659.234 100.52 658.472L100.147 655.58Z"/><path fill="#25303B" d="M168.248 1200.67C169.934 1200.83 171.508 1201.34 173.126 1201.81C175.04 1203.9 175.231 1204.08 175.513 1206.88C173.078 1215.5 158.293 1227.08 152.188 1233.56C159.222 1240.2 167.984 1247.11 173.489 1255.01C175.453 1257.83 176.025 1259.77 175.429 1263.14C173.571 1264.76 172.803 1265.6 170.171 1265.53C163.705 1265.37 149.189 1246.8 144.394 1242.07C136.496 1249.63 128.811 1257.45 121.04 1265.14C118.797 1265.63 117.042 1265.3 114.826 1264.92C112.753 1263.2 112.782 1263.12 112.349 1260.45C115.064 1251.13 129.25 1239.96 135.837 1233.08C130.149 1226.12 116.093 1216.79 113.899 1208.09C113.253 1205.53 113.772 1204.94 115.037 1202.81C116.037 1202.44 117.21 1201.96 118.279 1201.91C125.103 1201.58 138.811 1219.13 144.567 1223.98L168.248 1200.67Z"/><path fill="#25303B" d="M290.544 976.353C299.72 977.132 320.864 1002.23 328.203 1009.86C336.697 1001.07 345.061 991.56 354.151 983.42C357.37 980.537 361.305 977.241 365.87 977.494C368.306 979.179 368.385 979.877 369.3 982.571C369.14 985.957 367.656 987.362 365.466 989.742C354.004 1001.01 341.69 1015.65 328.211 1024.42C320.698 1019.51 290.128 990.904 287.443 983.197C287.326 980.323 288.942 978.547 290.544 976.353Z"/><path fill="#25303B" d="M510.646 1008.31C519.087 999.278 529.115 985.869 539.671 979.572C542.163 978.085 544.194 977.424 547.11 978.138C548.931 979.881 549.243 980.39 550.008 982.793C549.4 986.462 546.184 989.064 543.681 991.612C537.344 998.091 518.902 1020.76 511.479 1022.6C503.279 1019.23 476.253 991.765 471.446 983.824C471.825 980.443 472.956 979.417 474.948 976.72C476.762 976.822 478.821 976.882 480.433 977.8C489.906 983.2 503.024 999.942 510.646 1008.31Z"/><path fill="#25303B" d="M351.202 1217.74C352.862 1217.81 354.526 1218.17 356.163 1218.45C358.114 1220.43 358.202 1220.55 358.489 1223.3C355.739 1232.26 343.603 1241.96 336.901 1248.41C334.328 1250.88 327.486 1257.77 323.999 1257.47C319.234 1257.06 310.789 1246.33 307.348 1242.69C305.48 1240.99 302.955 1238.95 301.94 1236.61C300.909 1234.23 300.697 1230.88 301.812 1228.53C302.163 1227.79 303.331 1227.67 304.094 1227.42C312.82 1229.37 318.984 1237.96 324.942 1244.21C333.344 1235.02 342.266 1226.4 351.202 1217.74Z"/><path fill="#25303B" d="M485.869 1220.58C486.483 1220.64 487.055 1220.74 487.663 1220.83C495.867 1222.01 506.026 1235.66 511.375 1241.7C516.852 1235.81 522.424 1228.92 528.926 1224.18C531.545 1222.28 533.906 1220.69 537.292 1221.21C539.04 1222.96 539.537 1224.15 539.669 1226.68C539.807 1229.33 538.193 1230.88 536.53 1232.68C529.632 1239.73 522.333 1249.31 514.076 1254.51C512.635 1254.61 511.794 1254.79 510.43 1254.22C501.77 1250.62 487.056 1236.16 483.417 1227.42C483.518 1224.16 484.186 1223.26 485.869 1220.58Z"/><path fill="#F0F0EE" d="M98.0855 1581.49C99.0983 1581.33 100.125 1581.17 101.149 1581.1C124.66 1579.54 367.825 1580.84 368.896 1581.39C369.668 1581.8 370.629 1582.92 371.314 1583.52C368.907 1583.85 366.438 1584.06 364.01 1584.09C309.266 1584.77 254.406 1583.92 199.65 1583.95L136.773 1584C125.888 1584.01 114.617 1584.6 103.79 1583.8C100.837 1583.59 100.24 1583.57 98.0855 1581.49Z"/><path fill="#F0F0EE" d="M98.8021 1819.47C101.342 1819 103.991 1818.97 106.568 1818.89C155.526 1817.33 205.049 1819.12 254.067 1819.09L326.209 1818.95C338.329 1818.91 350.822 1818.22 362.892 1818.98C366.155 1819.19 366.768 1819.21 369.179 1821.48C367.651 1821.59 366.123 1821.69 364.593 1821.76C348.207 1822.55 331.499 1821.95 315.07 1821.96L217.526 1821.9L142.418 1821.89C129.854 1821.9 116.74 1822.72 104.236 1821.84C101.321 1821.63 100.968 1821.44 98.8021 1819.47Z"/></svg>