<?xml version="1.0" encoding="utf-8" ?><svg xmlns="http://www.w3.org/2000/svg" xmlns:xlink="http://www.w3.org/1999/xlink" width="1024" height="2048" viewBox="0 0 1024 2048"><path fill="#D6D5D3" d="M0 0L34.5488 0L989.19 0L1024 0L1024 177.267L1024 2048L990.152 2048L988.51 2048L37.1904 2048L35.0532 2048L0 2048L0 177.564L0 0Z"/><path fill="#FCFCFC" d="M96.1305 1415.28L986.49 1415.51C986.507 1422.38 987.448 1430.77 986.105 1437.44C992.918 1448.1 986.625 1488.24 986.167 1503.23C988.144 1529.71 986.474 1557.35 986.545 1583.95C986.58 1597.23 988.652 1611.52 986.859 1624.6C991.98 1635.48 982.572 1709.79 989.775 1729.08C989.848 1729.28 989.915 1729.48 989.985 1729.68C990.234 1743.23 990.228 1756.8 989.969 1770.36C992.19 1798.75 990.525 1831.51 990.619 1860.4L990.152 2048L988.51 2048L37.1904 2048L35.0532 2048L34.6201 1654.94L34.6119 1532.03C34.6141 1508.61 34.0606 1485.04 35.012 1461.65C33.7306 1446.7 34.7717 1430.76 35.0156 1415.71C54.8725 1413.51 76.1159 1415.02 96.1305 1415.28Z"/><path fill="#FCFCFC" d="M36.6394 1859.48C46.9827 1858.24 58.1108 1859.04 68.5364 1859.05L128.072 1859.12L324.214 1859.15L988.718 1859.16L988.51 2048L37.1904 2048C36.5709 1985.16 36.3872 1922.32 36.6394 1859.48Z"/><path fill="#676767" d="M104.116 1936.81C114.173 1936.55 125.124 1935.48 134.445 1940.02C137.844 1941.68 141.123 1944.2 142.244 1947.98C145.415 1958.65 135.635 1963.48 132.187 1971.27C130.97 1974.02 139.479 1986.19 140.881 1989.55C141.7 1991.51 142.032 1992.03 141.204 1994.1C138.607 1994.67 136.353 1994.04 133.821 1993.49C130.969 1987.79 128.27 1981.36 124.555 1976.18C123.056 1974.09 120.827 1971.79 118.079 1971.71C115.455 1971.64 114.462 1972.71 112.778 1974.41C111.293 1978.62 112.482 1983.55 112.668 1987.94C112.776 1990.47 112.661 1992.52 110.939 1994.4C108.279 1994.46 107.208 1994.67 104.866 1993.25C102.59 1988.99 104.133 1945.32 104.116 1936.81Z"/><path fill="#FCFCFC" d="M112.293 1943.92C117.649 1943.81 123.412 1943.26 128.417 1945.52C130.862 1946.62 132.861 1948.19 133.654 1950.87C134.901 1955.08 133.067 1959.26 131.309 1963.01C126.225 1966.34 118.097 1965.19 112.258 1965.1C112.103 1958.05 112.264 1950.97 112.293 1943.92Z"/><path fill="#676767" d="M452.522 1952.04C455.751 1951.76 459.713 1951.54 462.826 1952.56C467.906 1954.22 472.308 1958.34 474.621 1963.11C477.397 1968.92 477.721 1975.6 475.519 1981.64C473.143 1988.28 469.158 1991.71 462.888 1994.57C458.503 1995.1 454.58 1995.43 450.385 1993.79C445.358 1991.81 441.49 1987.6 439.496 1982.63C437.032 1976.49 437.137 1969.15 439.88 1963.12C442.662 1957 446.336 1954.28 452.522 1952.04Z"/><path fill="#FCFCFC" d="M453.679 1957.74C453.872 1957.75 454.065 1957.76 454.258 1957.78C458.81 1958.16 462.509 1958.96 465.526 1962.65C468.231 1965.96 469.559 1970.11 469.129 1974.37C468.515 1980.45 465.987 1984.3 461.399 1988.16C460.594 1988.2 459.793 1988.23 458.986 1988.23C455.082 1988.2 452.147 1987.43 449.427 1984.54C446.596 1981.52 445.393 1977.42 445.588 1973.34C445.913 1966.55 448.721 1962.14 453.679 1957.74Z"/><path fill="#676767" d="M164.777 1951.09C168.327 1951.25 172.272 1951.96 175.344 1953.82C179.903 1956.58 182.882 1961.41 184.12 1966.51C185.764 1973.28 184.878 1980.96 181.199 1986.93C177.961 1992.19 173.768 1993.77 167.964 1995.07C161.019 1994.92 157.387 1992.89 151.858 1988.95C150.694 1986.79 149.421 1984.5 148.776 1982.12C146.914 1975.25 146.705 1966.65 150.338 1960.32C153.734 1954.4 158.471 1952.78 164.777 1951.09Z"/><path fill="#FCFCFC" d="M161.61 1959C162.943 1958.91 164.28 1958.89 165.615 1958.95C168.905 1959.07 171.216 1959.82 173.488 1962.36C176.136 1965.37 177.493 1969.3 177.269 1973.3C176.924 1979.45 174.958 1983.58 170.356 1987.57C169.609 1987.6 168.878 1987.59 168.131 1987.56C164.487 1987.41 161.79 1987.22 159.206 1984.33C156.374 1981.16 155.001 1976.75 155.299 1972.54C155.733 1966.43 156.952 1963 161.61 1959Z"/><path fill="#676767" d="M356.097 1951.22C360.963 1951.77 366.122 1952.71 369.852 1956.18C375.354 1961.29 375.226 1968.3 375.407 1975.22C366.311 1976.15 356.22 1974.42 347.443 1976.7L346.541 1978.39C346.833 1979.63 347.137 1980.99 347.872 1982.06C349.936 1985.05 353.855 1987.36 357.41 1987.93C362.455 1988.73 366.683 1986.63 370.642 1983.75C372.45 1985.72 373.863 1986.38 373.753 1989.15C370.973 1991.83 367.468 1993.53 363.758 1994.55C358.791 1995.96 353.466 1995.32 348.98 1992.76C343.655 1989.67 340.158 1984.48 338.763 1978.53C337.309 1972.34 338.097 1965.6 341.487 1960.16C345.052 1954.44 349.761 1952.64 356.097 1951.22Z"/><path fill="#FCFCFC" d="M355.951 1958.01C356.703 1958.04 356.745 1958.02 357.416 1958.11C360.84 1958.55 363.766 1959.78 365.901 1962.6C367.446 1964.64 367.369 1965.22 367.099 1967.61C364.577 1969.63 362.961 1969.28 359.79 1969.49C356.971 1969.61 352.248 1970.43 349.678 1969.45C347.898 1968.77 347.611 1967.73 346.782 1966.16C346.899 1965.7 346.942 1965.49 347.119 1965.02C348.448 1961.45 352.759 1959.55 355.951 1958.01Z"/><path fill="#676767" d="M305.591 1938C309.174 1937.63 313.677 1937.19 317.177 1938.08C322.106 1939.34 329.864 1942.68 332.343 1947.5C333.506 1949.76 333.033 1951.64 332.212 1953.91C330.029 1955.29 328.368 1955.14 325.913 1955C325.385 1954.42 325.182 1954.06 324.993 1953.29C324.344 1950.65 323.228 1948.95 321.026 1947.39C317.484 1944.87 312.302 1943.72 308.025 1944.49C305.13 1945 303.304 1946.22 301.654 1948.68C297.06 1965.15 325.416 1962.86 331.092 1974.79C332.71 1978.19 332.213 1982.11 330.975 1985.55C329.302 1990.2 324.95 1992.56 320.719 1994.47C316.72 1994.96 312.307 1995.49 308.33 1994.63C303.267 1993.54 294.458 1990.86 291.943 1985.97C290.654 1983.46 291.237 1981.84 291.854 1979.3C298.379 1976.48 304.198 1988.07 310.939 1988.62C315.464 1989 319.374 1987.37 322.71 1984.44C328.459 1971 297.111 1969.3 293.081 1957.22C291.814 1953.42 292.87 1949.4 294.492 1945.87C296.722 1941.03 300.854 1939.69 305.591 1938Z"/><path fill="#676767" d="M882.145 1938.89C884.198 1938.82 886.685 1938.57 888.456 1939.79C895.35 1944.55 911.813 1959.11 913.571 1967.57C912.122 1974.8 896.33 1986.75 890.832 1992.38L887.475 1993.78C884.834 1993.71 882.977 1992.87 880.635 1991.79C880.16 1991.02 879.149 1989.86 879.174 1988.97C879.38 1981.67 892.889 1971.37 897.863 1966.68C891.904 1960.01 882.563 1954.54 879.408 1945.95C879.619 1942.58 880.34 1941.62 882.145 1938.89Z"/><path fill="#676767" d="M231.293 1933.35C234.752 1933.45 236.445 1932.79 238.927 1935.31C240.95 1941.14 239.409 1948.91 239.326 1955.14C240.741 1954.43 242.186 1953.77 243.658 1953.18C247.84 1951.53 252.059 1950.63 256.314 1952.62C259.861 1954.27 262.117 1957.46 263.407 1961.06C266.007 1968.32 266.66 1986.47 263.14 1993.33C262.412 1994.75 261.927 1994.63 260.486 1995.06C259.928 1994.66 259.389 1994.26 258.917 1993.75C254.765 1989.35 256.797 1974.79 256.86 1968.75C256.823 1966.81 256.657 1965.08 255.954 1963.26C255.14 1961.17 253.862 1959.66 251.719 1958.85C249.108 1957.85 245.199 1958.41 242.762 1959.7C235.006 1963.8 240.326 1984.65 237.828 1992.29C235.698 1994.25 235.413 1993.99 232.469 1994.01C229.429 1990.65 231.265 1941.55 231.293 1933.35Z"/><path fill="#676767" d="M526.206 1951.22C530.2 1951.44 534.454 1951.82 537.941 1953.99C541.444 1956.18 542.895 1959.81 543.713 1963.67C540.154 1967.62 530.25 1956.46 524.74 1957.95C522.218 1958.64 521.499 1959.86 520.074 1961.86C522.274 1970.22 537.172 1972.56 542.693 1979.48C544.64 1981.93 544.726 1983.56 544.392 1986.55C541.183 1991.66 535.774 1993.57 530.235 1995.19C529.421 1995.15 528.612 1995.08 527.8 1995.01C522.544 1994.54 515.858 1993.41 512.358 1988.92C510.854 1986.99 511.061 1986.17 511.288 1983.9L513.339 1982.4C518.975 1982.57 520.242 1986.03 524.78 1988.52C526.565 1989.5 528.86 1989.92 530.816 1989.23C533.084 1988.44 534.638 1987.31 535.748 1985.19C533.119 1976.2 518.311 1974.43 512.798 1966.3C511.112 1963.82 511.125 1962.12 511.625 1959.27C514.729 1954.58 520.977 1952.39 526.206 1951.22Z"/><path fill="#676767" d="M201.141 1951.89C205.951 1951.52 211.259 1950.99 215.608 1953.56C218.051 1955 220.943 1958.04 221.69 1960.8C216.385 1962.45 209.208 1958.28 203.335 1959.18C200.913 1959.55 200.521 1959.94 199.219 1961.8C202.677 1971.43 219.229 1970.91 223.377 1981.44C224.068 1983.19 224.072 1984.91 223.248 1986.62C221.381 1990.49 214.873 1993.98 210.942 1995.39C210.59 1995.38 210.238 1995.37 209.886 1995.36C207.017 1995.23 203.849 1995.57 201.104 1994.62C196.425 1993 192.241 1990.05 189.946 1985.61L190.626 1984.52C197.148 1983.63 204.209 1987.57 211.064 1987.58C212.155 1987.18 213.11 1986.83 213.856 1985.89C215.132 1984.28 214.972 1983.88 214.788 1981.95C210.994 1975.98 200.577 1974.83 194.988 1970.48C192.092 1968.22 191.297 1966.15 190.855 1962.62C192.598 1956.96 196.16 1954.71 201.141 1951.89Z"/><path fill="#676767" d="M416.133 1941.22C418.74 1941.18 421.138 1940.8 423.296 1942.49L423.919 1951.51C427.348 1954.21 430.951 1951.42 434.167 1954.2C433.164 1957.9 426.069 1959.76 423.818 1964.25C420.98 1969.9 422.027 1980.08 424.768 1985.74C426.17 1988.64 429.775 1987.3 432.389 1988.19C434.566 1988.93 434.81 1990.75 435.672 1992.7C432.732 1993.73 430.004 1994.51 426.868 1994.63C424.066 1994.73 421.363 1994.24 419.344 1992.1C413.426 1985.82 415.628 1968.9 415.544 1960.6C413.292 1957.9 410.42 1960.04 407.657 1957.99L407.892 1955.3C409.86 1953 411.457 1953.15 414.365 1952.52C416.795 1949.98 416.017 1944.77 416.133 1941.22Z"/><path fill="#676767" d="M386.924 1940.91C387.905 1940.96 388.911 1941 389.882 1941.16C392.457 1941.58 392.726 1941.86 394.196 1943.89C393.902 1945.62 393.396 1947.65 393.658 1949.4C394.458 1954.71 401.248 1951.59 404.8 1954.06L405.019 1957.99C404.431 1957.97 404.362 1957.95 403.683 1958.03C400.661 1958.38 397.585 1959.25 395.73 1961.85C391.226 1968.16 393.875 1978.57 395.24 1985.56C397.846 1988.43 400.119 1986.58 403.299 1988.07C405.177 1988.95 405.344 1991.58 405.856 1993.46C403.583 1994.1 401.365 1994.59 398.999 1994.72C395.816 1994.89 392.487 1994.45 390.141 1992.04C384.788 1986.55 387.241 1973.89 387.199 1966.96C387.124 1954.44 382.799 1962.31 378.259 1957.87L378.759 1954.23C380.7 1952.48 382.24 1952.95 384.732 1952.93C386.847 1949.72 386.301 1944.8 386.924 1940.91Z"/><path fill="#676767" d="M502.763 1951.99C504.818 1952.02 505.847 1952.21 507.483 1953.49C507.513 1958.94 496.467 1960.65 493.296 1964.53C490.252 1968.27 494.999 1986.16 492.03 1992.38C491.034 1994.47 488.88 1994.57 486.838 1995.21C483.718 1990.98 484.852 1959.92 485.497 1953.49L487.607 1952.3C490.482 1952.73 491.304 1953.5 493.531 1955.24C496.64 1954.91 499.879 1953.2 502.763 1951.99Z"/><path fill="#D6D5D3" d="M35.0156 1415.71C54.8725 1413.51 76.1159 1415.02 96.1305 1415.28C77.0041 1416.64 57.7022 1414.88 38.5447 1415.91C38.2253 1433.27 38.0678 1450.63 38.0722 1468C39.4007 1479.43 38.2725 1491.06 38.1397 1502.53C37.9736 1516.87 38.5613 1531.24 38.6015 1545.58C38.6327 1556.69 37.9007 1568.28 38.8218 1579.33C36.7315 1610.12 38.4897 1641.21 38.3146 1672.03L37.51 1857.39L687.323 1857.1L885.271 1857.22L953.212 1857.22C964.886 1857.16 976.963 1857.72 988.587 1856.72C988.553 1845.06 986.829 1777.44 988.675 1771.96C988.814 1771.54 989.663 1770.74 989.969 1770.36C992.19 1798.75 990.525 1831.51 990.619 1860.4L990.152 2048L988.51 2048L988.718 1859.16L324.214 1859.15L128.072 1859.12L68.5364 1859.05C58.1108 1859.04 46.9827 1858.24 36.6394 1859.48C36.3872 1922.32 36.5709 1985.16 37.1904 2048L35.0532 2048L34.6201 1654.94L34.6119 1532.03C34.6141 1508.61 34.0606 1485.04 35.012 1461.65C33.7306 1446.7 34.7717 1430.76 35.0156 1415.71Z"/><path fill="#EEEEEC" d="M35.0156 1415.71C54.8725 1413.51 76.1159 1415.02 96.1305 1415.28C77.0041 1416.64 57.7022 1414.88 38.5447 1415.91C38.2253 1433.27 38.0678 1450.63 38.0722 1468C35.2712 1473.25 37.1336 1521.34 36.398 1531.71C35.1684 1514.17 38.7244 1476.19 35.2038 1462.37C35.1429 1462.13 35.076 1461.89 35.012 1461.65C33.7306 1446.7 34.7717 1430.76 35.0156 1415.71Z"/><path fill="#7CC704" d="M861.038 1711.43C862.489 1711.45 863.939 1711.49 865.388 1711.57C874.781 1712.04 883.404 1716.84 889.584 1723.88C894.833 1729.85 897.937 1737.51 897.326 1745.52C895.958 1763.46 877.364 1777.95 864.871 1788.89C862.871 1788.52 860.938 1787.83 859.23 1786.71C846.981 1778.67 832.501 1764.39 829.731 1749.55C828.196 1741.17 830.151 1732.53 835.141 1725.63C841.462 1716.88 850.72 1712.99 861.038 1711.43Z"/><path fill="#FCFCFC" d="M860.078 1729.69C868.652 1728.33 876.726 1734.11 878.197 1742.67C879.669 1751.22 873.992 1759.37 865.457 1760.96C859.835 1762 854.087 1759.94 850.411 1755.56C846.735 1751.18 845.7 1745.16 847.702 1739.8C849.703 1734.45 854.431 1730.58 860.078 1729.69Z"/><path fill="#7CC704" d="M358.974 1714.13C359.978 1714.12 360.983 1714.15 361.985 1714.23C371.989 1714.97 383.938 1731.9 390.315 1739.1C397.491 1731.57 406.433 1719.68 416.194 1715.65C419.28 1714.38 421.149 1714.71 424.127 1715.99C425.992 1718.25 426.861 1720.26 427.219 1723.16C428.105 1730.36 409.115 1744.86 404.286 1751.16C410.674 1758.25 426.186 1768.44 427.34 1778C427.831 1782.07 425.082 1784.59 422.607 1787.43C409.813 1787.25 398.85 1771.87 390.073 1763.59C384.014 1770.2 372.683 1785.48 363.32 1786.67C360.855 1786.98 358.512 1786.24 356.635 1784.62C354.457 1782.74 354.04 1780.8 354.002 1778.07C353.912 1771.68 373.471 1755.16 378.082 1750.36C377.605 1749.99 377.133 1749.61 376.665 1749.23C370.037 1743.84 354.578 1732.44 354.153 1723.42C353.965 1719.41 356.428 1716.81 358.974 1714.13Z"/><path fill="#7CC704" d="M594.2 1714C594.945 1713.98 595.688 1713.97 596.434 1714.01C604.43 1714.44 617.66 1731.99 623.123 1737.96C630.961 1732.19 640.959 1716.14 650.76 1715.19C653.019 1714.97 654.69 1715.39 656.433 1716.78C658.265 1718.23 659.445 1720.05 659.58 1722.46C660.069 1731.18 641.806 1745.79 636.075 1751.79C641.817 1757.33 648.148 1762.62 653.578 1768.43C656.489 1771.55 660.055 1775.97 659.679 1780.51C659.375 1784.18 656.791 1785.93 654.132 1788.04C653.743 1788.02 653.354 1788.01 652.967 1787.97C652.757 1787.95 652.548 1787.93 652.338 1787.91C642.309 1787.06 631.275 1770.37 623.171 1764.09C617.122 1770.78 605.964 1786.03 596.537 1787.27C594.443 1787.55 592.503 1786.93 590.886 1785.58C589.142 1784.13 588.512 1782.32 588.302 1780.14C588.097 1778.01 588.16 1775.69 589.278 1773.8C593.193 1767.19 605.475 1757.93 611.096 1750.96C604.824 1743.54 596.251 1737.54 590.694 1729.7C588.889 1727.15 587.195 1724.11 587.908 1720.87C588.722 1717.18 591.17 1715.74 594.2 1714Z"/><path fill="#7CC704" d="M184.607 1718.93C187.035 1719.13 189.816 1719.82 191.987 1720.97C193.783 1721.93 195.268 1723.29 195.828 1725.31C196.373 1727.27 196.069 1729.21 195.031 1730.95C189.972 1739.47 147.334 1782.11 139.484 1784.17C131.976 1782.31 124.409 1772.09 119.131 1766.53C116.616 1764.32 112.969 1761.42 111.471 1758.41C109.602 1754.67 109.103 1749.99 110.289 1746C112.101 1744.23 112.53 1743.71 115.221 1743.71C123.744 1743.68 134.661 1757.51 140.356 1763.06C148.293 1753.59 175.473 1724.68 184.607 1718.93Z"/><path fill="#676767" d="M438.944 1519.11C443.631 1519.02 448 1519.33 452.19 1521.64C456.665 1524.09 459.738 1528.2 461.148 1533.07C463.667 1541.78 461.044 1549.68 456.897 1557.29C454.071 1559.16 451.035 1560.8 448.109 1562.51C445.091 1562.88 441.659 1562.91 438.718 1562.04C433.85 1560.54 429.803 1557.12 427.51 1552.57C424.38 1546.51 424.241 1539.02 426.423 1532.63C428.796 1525.68 432.479 1522.26 438.944 1519.11Z"/><path fill="#FCFCFC" d="M440.858 1525.71C441.085 1525.74 441.313 1525.75 441.54 1525.78C445.635 1526.28 449.173 1527.88 451.701 1531.21C454.302 1534.65 455.368 1539.02 454.647 1543.27C453.675 1549.38 451.189 1552.59 446.245 1556.11C444.824 1556.11 443.372 1556.1 441.965 1555.89C438.922 1555.42 436.401 1553.58 434.633 1551.13C432 1547.47 431.398 1543 432.165 1538.63C433.217 1532.65 436.035 1529.19 440.858 1525.71Z"/><path fill="#676767" d="M204.058 1519.19C209.248 1518.86 214.939 1518.59 219.06 1522.33C224.158 1526.96 225.209 1533.7 225.452 1540.24C225.68 1546.38 226.582 1558.04 222.321 1562.64C219.089 1562.29 219.076 1560.41 216.656 1559.51C214.855 1558.84 206.553 1563.29 203.446 1563.17C198.676 1563 195.163 1559.85 192.03 1556.61C191.457 1552.62 190.949 1548.72 193.226 1545.11C197.411 1538.49 206.159 1538.78 212.885 1536.92C215.599 1536.16 216.272 1535.57 217.614 1533.24C217.339 1531.22 216.816 1529.99 215.625 1528.38C209.578 1520.2 200.963 1531.48 194.157 1530.45C193.809 1528.61 193.79 1527.1 194.589 1525.36C196.177 1521.9 200.795 1520.57 204.058 1519.19Z"/><path fill="#FCFCFC" d="M207.824 1543.44C209.367 1543.28 211.08 1543 212.628 1543.08C215.134 1543.2 215.554 1543.78 217.19 1545.51C217.53 1547.32 217.847 1548.13 217.235 1549.92C215.704 1554.39 212.611 1556.07 208.541 1558.02C206.049 1557.62 204.233 1557.13 201.978 1555.97C200.936 1554.79 199.796 1553.61 199.432 1552.04C198.958 1549.98 199.242 1548.53 200.433 1546.76C202.078 1544.31 205.158 1543.93 207.824 1543.44Z"/><path fill="#676767" d="M164.279 1519.1C164.713 1519.08 165.148 1519.06 165.583 1519.05C170.625 1519 176.213 1520.43 179.819 1524.14C184.974 1529.45 185.023 1536.32 184.969 1543.22C176.321 1543.09 165.694 1541.81 157.385 1544.41C156.701 1546.61 157.47 1548.27 158.477 1550.31C159.842 1553.09 162.066 1555.4 165.045 1556.38C170.131 1558.05 174.445 1556.44 178.991 1554.12L179.773 1553.33C181.821 1553.88 181.737 1553.98 182.834 1555.65C182.714 1556.1 182.665 1556.32 182.492 1556.78C181.645 1559.06 179.598 1560.67 177.387 1561.55C172.254 1563.6 165.47 1563.31 160.447 1561.08C155.476 1558.88 151.924 1554.76 150.082 1549.68C147.849 1543.34 148.185 1536.38 151.02 1530.29C153.986 1524.03 157.904 1521.37 164.279 1519.1Z"/><path fill="#FCFCFC" d="M163.78 1525.9C167.263 1525.81 170.461 1525.79 173.304 1527.99C176.058 1530.12 176.953 1532.1 177.373 1535.47C175.508 1537.68 175.182 1537.39 172.25 1537.67C168.026 1537.83 161.643 1538.84 158.114 1536.3C157.419 1535.8 157.514 1534.72 157.391 1533.89C158.888 1530.5 161.121 1528.42 163.78 1525.9Z"/><path fill="#676767" d="M116.689 1504.3C118.057 1504.06 119.425 1503.84 120.809 1503.72C126.946 1503.19 132.658 1505.22 137.304 1509.23C139.718 1511.31 142.743 1514.95 142.815 1518.3C142.861 1520.44 142.316 1520.67 140.868 1522.02C134.678 1522.47 133.577 1515.02 129.11 1511.81C126.838 1510.17 124.324 1509.46 121.542 1509.95C118.147 1510.54 112.6 1513.09 110.674 1516.09C109.842 1517.38 109.705 1518.22 110.131 1519.69C112.179 1526.79 127.422 1531.53 133.523 1535.02C137.529 1537.32 141.461 1540.89 142.575 1545.54C143.286 1548.49 142.743 1551.61 141.076 1554.14C137.582 1559.4 130.856 1561.67 125.015 1562.96C122.378 1563.09 119.828 1563.1 117.223 1562.6C111.48 1561.49 106.385 1557.53 103.22 1552.67C101.681 1550.31 101.381 1548.7 102.013 1546.02L104.411 1544.93C110.19 1545.57 111.13 1554.47 117.518 1556.77C120.778 1557.94 125.417 1557.44 128.472 1555.89C131.256 1554.48 133.362 1552.23 134.318 1549.26C133.939 1537.82 110.2 1534.72 104.113 1524.14C102.757 1521.78 101.998 1519.16 102.888 1516.48C104.808 1510.68 111.546 1506.77 116.689 1504.3Z"/><path fill="#676767" d="M883.253 1504.77C885.054 1504.8 886.872 1504.86 888.422 1505.89C895.473 1510.59 913.127 1527.09 914.422 1534.99C912.051 1542.73 897.019 1553.63 890.918 1559.25C888.422 1560.4 886.132 1560.27 883.522 1559.72C881.16 1557.71 880.858 1557.49 880.115 1554.51C882.097 1546.28 892.136 1538.94 898.145 1533.24C892.18 1527.64 880.782 1519.84 879.371 1511.54C879.606 1508.46 881.289 1506.92 883.253 1504.77Z"/><path fill="#676767" d="M304.741 1499.66C306.488 1499.8 308.227 1500.03 309.968 1500.24C314.079 1504.35 312.017 1517.95 312.073 1523.78C314.4 1522.21 316.675 1520.72 319.38 1519.89C322.82 1518.84 326.537 1518.8 329.755 1520.56C333.6 1522.66 335.765 1526.76 336.82 1530.86C338.608 1537.83 339.505 1555.86 335.786 1562.12C333.456 1562.46 333.402 1562.36 331.401 1561.09C328.512 1556.69 330.156 1541.49 330.161 1535.75C330.109 1534.21 330.012 1532.19 329.48 1530.72C328.799 1528.84 327.304 1527.16 325.468 1526.35C322.637 1525.09 319.253 1525.73 316.509 1526.91C306.189 1531.31 313.946 1552.86 310.508 1561.54C308.454 1562.18 307.273 1562.18 305.196 1561.63C303.355 1558.55 304.761 1507.74 304.741 1499.66Z"/><path fill="#676767" d="M471.846 1518.83C473.812 1519.14 475.538 1519.63 477.402 1520.33L477.961 1523.04C480.625 1523.05 482.733 1521.78 485.1 1520.72C488.161 1519.36 490.978 1518.2 494.315 1519.56C497.972 1521.06 500.25 1522.94 501.734 1526.67C504.88 1534.57 506.359 1554.64 502.843 1562.57C500.573 1563.41 500.559 1563.32 498.306 1562.4C495.028 1557.31 496.725 1543.65 496.725 1537.19C496.553 1535.62 496.427 1533.91 495.995 1532.39C495.335 1530.07 493.746 1528.38 491.693 1527.16C489.726 1526 487.145 1525.26 484.905 1525.94C472.168 1529.78 481.016 1553.31 476.318 1562.91L474.147 1563.2C471.787 1561.37 471.042 1559.93 470.423 1556.97C469.161 1550.93 468.945 1523.21 471.846 1518.83Z"/><path fill="#676767" d="M396.312 1519.08C397.624 1518.99 398.938 1518.92 400.252 1518.88C405.951 1518.72 410.73 1519.89 414.918 1523.91C417.507 1526.4 418.784 1528.6 418.861 1532.16C412.935 1535.37 404.862 1524.94 397.407 1526.17C396.09 1526.39 394.553 1527.78 393.886 1528.89C391.228 1533.29 390.883 1541.78 392.051 1546.67C392.829 1549.93 394.612 1553.03 397.632 1554.69C401.12 1556.61 404.284 1555.67 407.884 1554.73C409.208 1553.32 410.878 1551.21 412.607 1550.36C414.5 1549.42 415.541 1549.82 417.392 1550.39L418.16 1552.37C417.31 1555.83 415.878 1558.11 412.844 1560.04C408.416 1562.86 402.38 1563.38 397.342 1562.22C392.965 1561.21 389.477 1558.69 387.192 1554.81C383.246 1548.12 383.483 1538.99 385.557 1531.75C387.49 1525.01 390.266 1522.35 396.312 1519.08Z"/><path fill="#676767" d="M275.106 1519.19C276.618 1519.04 278.127 1518.94 279.647 1518.96C285.008 1519.05 290.449 1520.48 294.206 1524.56C295.786 1526.28 296.404 1527.85 296.347 1530.16L294.69 1531.63C288.913 1532.38 284.714 1526.01 278.968 1525.39C276.851 1525.16 275.102 1525.48 273.534 1527.01C269.873 1530.59 268.815 1540.03 269.261 1544.86C269.566 1548.15 271.725 1551.85 274.37 1553.85C278.083 1556.66 281.97 1555.94 286.281 1555.45C287.26 1554.55 288.305 1553.46 289.422 1552.73C291.412 1551.44 292.018 1551.43 294.22 1551.85L294.984 1553.73C293.971 1557.06 292.086 1559.24 289.078 1560.94C284.612 1563.45 279.304 1563.52 274.487 1562.03C269.552 1560.5 265.747 1557.3 263.459 1552.66C260.443 1546.54 260.406 1538.89 262.571 1532.5C264.912 1525.6 268.683 1522.29 275.106 1519.19Z"/><path fill="#676767" d="M251.674 1518.88C253.459 1518.84 255.008 1519.14 256.749 1519.51C257.872 1521.82 257.344 1522.65 256.811 1525C255.893 1525.56 255.031 1525.92 254.03 1526.29C231.999 1534.33 249.242 1547.52 242.08 1560.74C241.064 1562.61 238.667 1562.74 236.738 1563.26C233.784 1558.47 234.829 1528.1 235.771 1521.38C237.157 1520.18 237.333 1519.69 239.216 1519.66C240.321 1521.18 241.298 1522.04 242.854 1523.07C246.731 1522.99 248.567 1521.02 251.674 1518.88Z"/><path fill="#676767" d="M367.108 1519.47C369.109 1519.7 371.102 1520.04 373.093 1520.35C375.984 1523.77 374.681 1555.65 374.67 1562.39C372.077 1562.36 369.8 1562.49 367.496 1561.1C365.706 1547.8 367.023 1532.94 367.108 1519.47Z"/><path fill="#676767" d="M368.341 1500.4C369.797 1499.49 371.632 1499.46 373.117 1500.32C374.602 1501.18 375.497 1502.78 375.446 1504.49C375.395 1506.2 374.406 1507.75 372.873 1508.52C370.648 1509.63 367.942 1508.79 366.73 1506.62C365.517 1504.45 366.227 1501.71 368.341 1500.4Z"/><path fill="#FCFCFC" d="M0 177.564C11.3645 177.532 22.9408 177.041 34.2831 177.514C34.8534 199.288 35.7484 221.63 34.6152 243.384L34.9418 245.466C35.0343 245.661 35.1342 245.853 35.2195 246.052C39.5497 256.148 35.52 281.236 36.6639 293.388C38.7495 282.665 33.1244 259.662 38.9608 250.82C63.8084 251.91 89.1687 254.201 114.009 254.213C123.714 254.218 133.338 252.797 143.035 252.606C174.201 251.992 205.427 252.36 236.604 252.357C246.497 252.356 256.266 251.331 266.168 251.51L266.082 1006.91L266.019 1270.35C266.077 1317.07 267.923 1365.84 266.152 1412.35L111.703 1412.26C86.2301 1412.26 59.5516 1413.86 34.2928 1411.48L35.0156 1415.71C34.7717 1430.76 33.7306 1446.7 35.012 1461.65C34.0606 1485.04 34.6141 1508.61 34.6119 1532.03L34.6201 1654.94L35.0532 2048L0 2048L0 177.564Z"/><path fill="#1C2D40" d="M0 177.564C11.3645 177.532 22.9408 177.041 34.2831 177.514C34.8534 199.288 35.7484 221.63 34.6152 243.384L34.9418 245.466C33.5642 281.629 34.7693 318.169 34.7623 354.371L34.7512 564.433L34.6447 1140.46L34.7174 1340.15C34.733 1353.77 36.899 1400.86 34.2928 1411.48L35.0156 1415.71C34.7717 1430.76 33.7306 1446.7 35.012 1461.65C34.0606 1485.04 34.6141 1508.61 34.6119 1532.03L34.6201 1654.94L35.0532 2048L0 2048L0 177.564Z"/><path fill="#060606" d="M111.311 331.064C131.726 330.166 164.274 329.63 184.307 330.969C189.294 331.302 193.389 331.784 196.653 335.988C199.576 339.752 199.131 409.167 197.821 416.849C197.366 419.516 193.944 421.376 191.875 422.864C191.33 422.889 190.784 422.906 190.237 422.915C180.026 423.065 113.519 424.962 109.673 420.911C107.099 418.2 106.218 414.238 105.667 410.643C103.635 397.38 104.479 356.638 105.238 341.884C105.518 336.429 107.355 334.583 111.311 331.064Z"/><path fill="#FCFCFC" d="M121.256 347L181.468 347.083C181.786 366.988 181.42 386.941 181.338 406.85L121.534 406.807C121.225 386.873 121.132 366.936 121.256 347Z"/><path fill="#060606" d="M111.015 1298.93L158.852 1298.7C167.871 1298.66 177.791 1297.77 186.679 1299.31C190.62 1299.99 193.803 1301.08 196.684 1303.91C198.735 1308.57 198.749 1367.03 198.388 1374.92C198.068 1381.92 197.388 1385.22 192.061 1390.04C173.466 1391.53 136.396 1391.53 117.521 1390.23C114.856 1390.04 109.685 1389.89 107.951 1387.61C103.042 1381.15 104.008 1317.49 105.148 1306.42C105.519 1302.81 108.378 1301.07 111.015 1298.93Z"/><path fill="#FCFCFC" d="M120.672 1314.97L181.942 1314.97L181.99 1374.06L120.723 1374.08L120.672 1314.97Z"/><path fill="#060606" d="M148.166 568.989C150.285 568.844 152.418 568.812 154.489 569.362C165.954 572.405 192.834 588.398 198.889 598.441C198.503 611.646 200.958 630.806 198.06 643.225C197.207 646.882 195.645 649.698 192.928 652.285C186.374 658.523 164.109 669.88 155.055 675.571C153.767 675.699 152.339 675.838 151.046 675.653C142.169 674.378 112.467 655.55 106.712 648.248C103.491 638.345 104.111 610.98 105.896 600.512L106.031 599.751C106.181 598.875 106.312 597.997 106.563 597.143C108.821 589.454 139.906 573.768 148.166 568.989Z"/><path fill="#FCFCFC" d="M150.15 586.817C154.871 586.592 176.506 601.199 181.77 604.33L181.677 639.702C171.946 644.265 162.613 650.58 153.346 656.056C150.003 656.907 126.491 642.226 121.997 639.643L122.04 605.077C130.801 598.394 140.96 592.964 150.15 586.817Z"/><path fill="#060606" d="M147.317 811.099C149.774 810.785 152.274 810.432 154.692 811.144C163.776 813.819 183.016 825.993 191.071 831.8C193.934 833.864 196.716 835.886 197.285 839.594L197.375 840.214C199.091 851.361 199.868 876.674 197.078 887.483C195.061 895.3 162.573 911.079 154.371 915.811C153.019 916.094 151.453 916.17 150.089 915.882C144.264 914.653 109.222 893.883 106.661 889.296C103.021 882.778 104.504 848.063 106.329 839.956C108.532 830.166 138.219 816.989 147.317 811.099Z"/><path fill="#FCFCFC" d="M151.345 828.864C159.018 829.983 174.79 841.93 181.853 846.381L181.822 880.877L152.561 898.134C145.708 897.459 127.84 884.161 121.616 880.119C121.468 868.939 121.614 857.738 121.626 846.556C131.68 840.935 141.478 834.808 151.345 828.864Z"/><path fill="#060606" d="M152.131 1093.37C159.122 1085.78 172.126 1068.07 182.185 1066.32C184.316 1065.95 186.361 1066.24 188.107 1067.59C190.432 1069.4 191.271 1072.36 191.169 1075.21C190.971 1080.75 168.794 1100.06 163.471 1105.2C171.711 1113.2 182.736 1121.62 189.032 1131.18C190.667 1133.67 192.113 1136.58 191.297 1139.63C190.429 1142.87 187.983 1144.13 185.281 1145.66C176.162 1144.61 159.733 1125.39 152.383 1118.4C142.451 1126.19 133.533 1139.34 122.364 1144.84C119.927 1145.14 117.416 1145.2 115.301 1143.71C113.379 1142.36 112.318 1140.36 112.225 1138.02C111.839 1128.32 133.861 1111.34 140.556 1105.1C132.422 1098.92 122.565 1090.78 116.361 1082.72C114.346 1080.11 111.893 1076.24 112.578 1072.78C113.315 1069.06 116.267 1067.52 119.26 1065.74C129.587 1066.56 144.562 1085.95 152.131 1093.37Z"/><path fill="#FCFCFC" d="M989.157 177.036C1000.74 177.812 1012.4 177.422 1024 177.267L1024 2048L990.152 2048L990.619 1860.4C990.525 1831.51 992.19 1798.75 989.969 1770.36C990.228 1756.8 990.234 1743.23 989.985 1729.68C991.297 1700.19 990.082 1670.16 990.146 1640.6L989.946 1434.34L989.569 1259.84C989.465 1231.8 991.033 1202.91 989.143 1174.98C987.884 1183.64 988.563 1193.16 988.573 1201.94L988.657 1249.07L988.722 1411.82C973.903 1412.65 958.755 1412.08 943.898 1412.19C905.384 1412.53 866.867 1412.64 828.351 1412.52C804.991 1412.44 781.441 1411.5 758.112 1412.66C759.283 1376.64 758.303 1340.49 758.267 1304.45L758.143 1108.02L758.364 571.633L758.179 358.602L758.13 291.778C758.124 278.454 757.508 264.777 758.747 251.51L989.092 250.51L989.054 244.078C988.693 221.759 989.107 199.363 989.157 177.036Z"/><path fill="#1C2D40" d="M989.157 177.036C1000.74 177.812 1012.4 177.422 1024 177.267L1024 2048L990.152 2048L990.619 1860.4C990.525 1831.51 992.19 1798.75 989.969 1770.36C990.228 1756.8 990.234 1743.23 989.985 1729.68C991.297 1700.19 990.082 1670.16 990.146 1640.6L989.946 1434.34L989.569 1259.84C989.465 1231.8 991.033 1202.91 989.143 1174.98C989.857 1164.51 989.263 1153.58 989.254 1143.05L989.242 1080.37L989.22 870.617L989.092 250.51L989.054 244.078C988.693 221.759 989.107 199.363 989.157 177.036Z"/><path fill="#EEEEEC" d="M872.269 1052.91C883.181 1053.46 912.99 1072.19 921.158 1080.33C921.091 1092.63 923.689 1116.41 919.824 1127.21C915.603 1139 886.011 1152.27 874.53 1157.74C874.144 1157.82 873.646 1157.95 873.232 1157.94C869.309 1157.81 835.875 1138.24 832.37 1134.67C822.691 1124.81 826.91 1093.47 827.152 1080.18C827.251 1080.06 827.348 1079.94 827.45 1079.83C827.619 1079.64 827.797 1079.45 827.964 1079.26C836.878 1068.9 859.629 1059.19 872.269 1052.91Z"/><path fill="#FCFCFC" d="M872.073 1071.79C880.436 1071.54 895.863 1083.54 903.363 1088.24C903.617 1099.29 903.412 1110.25 903.083 1121.29C895.24 1128.38 884.721 1133.81 875.403 1138.73C868.317 1139.75 851.143 1126.29 844.24 1122.59C844.157 1111.46 844.237 1100.32 844.48 1089.19C852.287 1082.15 862.998 1077.11 872.073 1071.79Z"/><path fill="#EEEEEC" d="M870.309 1293.85C870.501 1293.84 870.693 1293.83 870.885 1293.83C871.204 1293.84 871.522 1293.87 871.841 1293.87C872.395 1293.88 872.949 1293.88 873.502 1293.92C880.922 1294.43 913.644 1313.95 918.801 1320.02C921.817 1330.27 920.984 1357.41 919.215 1368.06L919.098 1368.74C918.955 1369.62 918.856 1370.44 918.409 1371.23C914.361 1378.38 883.504 1394.47 875.301 1397.41L874.219 1397.71C864.825 1396.24 833.701 1378.8 827.152 1371.52C826.966 1359.47 823.982 1332.83 827.809 1322.58C831.866 1311.71 859.561 1298.7 870.309 1293.85Z"/><path fill="#FCFCFC" d="M870.881 1313.07C878.338 1312.96 896.064 1322.81 901.573 1327.84C905.353 1331.29 903.339 1356.18 903.273 1362.35C894.588 1368.71 884.326 1373.9 874.79 1378.86C866.804 1379.22 850.048 1366.95 844.085 1361.6L844.047 1328.44C852.756 1323.01 861.956 1318.15 870.881 1313.07Z"/><path fill="#EEEEEC" d="M864.721 329.223C890.925 324.503 916.02 341.837 920.882 368.015C925.745 394.193 908.548 419.382 882.397 424.387C856.043 429.431 830.617 412.072 825.717 385.691C820.817 359.311 838.314 333.979 864.721 329.223Z"/><path fill="#FCFCFC" d="M867.031 346.871C883.243 343.308 899.298 353.472 903.013 369.65C906.728 385.828 896.715 401.978 880.572 405.844C864.215 409.761 847.803 399.585 844.039 383.192C840.274 366.799 850.603 350.482 867.031 346.871Z"/><path fill="#EEEEEC" d="M869.741 810.353C873.47 810.201 876.762 810.175 879.772 812.696C884.944 817.027 881.738 825.808 882.652 831.753C883.053 834.361 884.47 836.87 886.716 838.321C893.162 842.485 903.09 834.268 909.852 833.333C912.236 833.003 914.49 833.404 916.365 834.991C918.374 836.692 920.506 840.451 920.488 843.138C920.436 850.671 910.371 853.883 905.791 858.687C904.031 860.534 902.722 863.171 902.861 865.768C903.17 871.508 914.235 876.689 918.219 880.561C920.46 882.738 921.197 884.574 921.199 887.704C920.071 890.676 918.454 893.521 915.516 895.048C910.077 897.875 902.16 892.469 897.075 890.55C894.125 889.436 890.155 888.793 887.266 890.471C881.457 893.845 883.397 904.862 881.888 910.639C880.704 915.169 877.824 916.635 874.032 918.868C873.555 918.791 873.077 918.717 872.602 918.626C867.204 917.587 865.178 914.575 862.194 910.212C862.316 906.047 862.948 900.936 861.99 896.887C861.006 892.727 858.307 891.276 854.93 889.097C848.156 891.15 841.085 895.917 834.022 895.973C831.179 895.073 828.865 893.735 827.213 891.176C818.259 877.303 842.087 875.292 844.371 865.562C843.341 856.642 830.845 854.703 826.784 847.714C825.451 845.418 825.23 842.718 825.983 840.194C826.79 837.485 828.676 834.651 831.267 833.404C837.181 830.557 846.088 837.435 851.884 839.084C854.156 839.73 856.764 839.784 858.824 838.487C865.913 834.023 861.306 823.629 863.389 816.919C864.481 813.401 866.596 811.92 869.741 810.353Z"/><path fill="#1396F3" d="M871.303 573.902C874.322 573.916 877.934 574.697 880.118 576.965C886.291 583.378 883.122 606.424 883.034 615.597C892.267 615.672 912.718 611.996 919.724 618.876C921.538 620.658 922.791 623.371 922.653 625.952C922.533 628.213 921.787 629.617 920.249 631.189C914.359 637.21 891.848 634.294 883.221 634.087C883.067 645.531 886.483 661.628 878.851 670.965C877.302 671.416 875.815 671.679 874.206 671.769C871.542 671.919 869.243 671.372 867.302 669.399C861.198 663.198 863.946 643.274 863.988 634.491C854.851 634.385 835.021 637.659 827.928 631.297C826.199 629.746 825.491 627.749 825.467 625.458C825.442 622.973 826.345 620.546 828.203 618.856C834.959 612.713 854.964 615.576 864.1 615.78C864.271 604.808 861.913 591.865 864.798 581.244C865.867 577.306 867.949 575.857 871.303 573.902Z"/><path fill="#7CC704" d="M0 0L34.5488 0L989.19 0L1024 0L1024 177.267C1012.4 177.422 1000.74 177.812 989.157 177.036C989.107 199.363 988.693 221.759 989.054 244.078C965.561 245.152 941.689 244.325 918.16 244.322L781.396 244.194L380.721 244.229L142.876 244.264L74.8437 244.246C61.6418 244.237 47.7021 245.036 34.6152 243.384C35.7484 221.63 34.8534 199.288 34.2831 177.514C22.9408 177.041 11.3645 177.532 0 177.564L0 0Z"/><path fill="#060606" d="M989.19 0L1024 0L1024 177.267C1012.4 177.422 1000.74 177.812 989.157 177.036C989.395 158.646 988.248 140.02 989.624 121.682C991.795 119.36 996.274 121.111 999.514 119.781C1000.36 117.697 1000.07 117.131 999.654 114.976C996.48 112.356 993.621 113.56 989.965 111.976C987.224 105.168 989.107 91.7726 989.244 84.1405C988.575 81.3476 988.534 79.4478 988.888 76.6262C990.223 69.5195 989.305 60.4572 989.298 53.1512L989.19 0Z"/><path fill="#9EA098" d="M988.888 76.6262C992.219 76.7661 996.775 77.5764 999.481 75.3448C1002.26 71.784 1000.34 67.1695 1003.32 64.5481C1006.12 64.5555 1006.4 64.7288 1008.7 66.3354C1009.52 69.5209 1008.09 73.2651 1009.57 75.9538C1013.16 76.2692 1017.85 76.1283 1020.88 78.1965C1021.86 80.405 1021.4 80.6678 1020.61 82.8674C1017.24 85.5377 1013.08 84.5895 1008.95 84.2194C1008.93 92.6306 1008.48 101.322 1010.03 109.613C1007.63 110.841 1006.51 111.727 1005.23 114.11C999.054 106.434 1001.02 93.684 1001.19 84.3342L989.244 84.1405C988.575 81.3476 988.534 79.4478 988.888 76.6262Z"/><path fill="#A0A29C" d="M1005.23 114.11C1006.51 111.727 1007.63 110.841 1010.03 109.613C1013.79 112.095 1017.39 113.668 1019.13 118.066L1019.03 120.775C1017.23 122 1015.99 122.08 1013.83 121.533C1009.97 120.56 1007.61 117.042 1005.23 114.11Z"/><path fill="#060606" d="M0 0L34.5488 0C34.474 13.6795 32.6384 51.729 34.8728 62.6499C29.7511 64.4486 25.7751 67.1573 23.3618 72.1716C21.6835 75.6586 21.5515 78.8604 21.6523 82.6701C25.379 87.946 28.1957 91.3075 34.0823 94.0447C34.1201 99.9672 34.2396 105.889 34.4408 111.808L34.137 119.694C34.1476 138.916 33.5921 158.314 34.2831 177.514C22.9408 177.041 11.3645 177.532 0 177.564L0 0Z"/><path fill="#9EA098" d="M34.137 119.694C30.7231 118.943 26.2272 118.387 23.1691 116.624C21.055 115.405 20.4168 114.023 20.0236 111.763L22.1079 110.115C26.1142 108.971 30.5411 110.744 34.4408 111.808L34.137 119.694Z"/><path fill="#9EA098" d="M34.8728 62.6499C35.2463 65.5948 35.7923 68.2046 33.8627 70.737C32.3981 72.6591 30.5119 74.2313 29.0917 76.1759C27.8248 78.8666 27.4981 81.0014 24.4774 82.0781C23.5899 82.3945 22.5817 82.5228 21.6523 82.6701C21.5515 78.8604 21.6835 75.6586 23.3618 72.1716C25.7751 67.1573 29.7511 64.4486 34.8728 62.6499Z"/><path fill="#A0A29C" d="M21.6523 82.6701C22.5817 82.5228 23.5899 82.3945 24.4774 82.0781C27.4981 81.0014 27.8248 78.8666 29.0917 76.1759C29.2515 84.195 35.5311 83.9794 34.0823 94.0447C28.1957 91.3075 25.379 87.946 21.6523 82.6701Z"/><path fill="#EEEEEC" d="M881.214 114.31C886.297 109.47 890.859 104.17 895.828 99.2471C897.923 97.1717 900.575 94.9683 903.668 95.005C905.777 96.0575 906.081 96.1736 907.201 98.2214C907.078 105.849 893.489 116.506 888.026 121.924C893.331 126.903 903.858 134.575 906.943 141.053C908.243 143.782 907.044 145.336 905.986 147.842C905.825 147.833 905.664 147.828 905.503 147.814C905.237 147.79 904.971 147.749 904.704 147.729C897.342 147.186 886.764 133.71 881.372 128.562C876.284 133.863 871.117 139.979 865.257 144.398C862.583 146.415 860.769 147.227 857.487 146.744C856.172 144.967 855.621 143.916 855.611 141.667C855.594 137.978 870.964 124.558 873.87 121.596C868.378 115.054 858.02 108.622 855.445 100.484C856.046 97.4141 856.916 96.5751 858.9 94.2707C866.879 98.0843 874.772 108.14 881.214 114.31Z"/><path fill="#EEEEEC" d="M483.053 107.233C486.516 107.073 490.25 106.713 493.628 107.661C497.656 108.792 500.652 111.683 502.608 115.314C506.934 123.34 506.728 140.392 504.214 149.046C499.901 153.6 498.299 148.085 493.736 148.339C491.27 148.477 488.015 150.296 485.41 150.8C481.151 151.623 477.701 149.928 474.248 147.64C472.505 144.687 471.173 140.922 471.035 137.474C470.39 121.418 489.194 128.584 495.31 121.422C495.777 120.875 495.416 119.749 495.335 119.044C488.622 111.4 479.5 119.621 472.76 114.875C472.87 114.558 472.965 114.234 473.091 113.923C474.558 110.292 479.755 108.597 483.053 107.233Z"/><path fill="#7CC704" d="M484.122 131.254C487.386 131.027 490.663 130.513 493.766 131.79C495.876 133.812 496.145 133.864 496.45 136.734C495.247 139.872 493.953 141.395 491.448 143.584C488.743 143.756 485.493 143.978 483.016 142.648C480.56 141.33 480.249 140.19 479.606 137.715C480.464 134.598 481.78 133.338 484.122 131.254Z"/><path fill="#EEEEEC" d="M393.901 93.1519C401.496 92.6138 409.024 92.2343 415.125 97.6637C418.032 100.25 421.477 106.614 421.313 110.49C421.24 112.199 420.394 112.734 419.267 113.831C411.168 114.521 413.153 107.253 408.021 103.362C405.281 101.285 401.236 99.0826 397.678 99.8853C394.817 100.531 392.622 103.106 391.251 105.552C387.32 112.564 386.015 126.681 388.338 134.556C389.316 137.766 391.555 140.441 394.543 141.967C398.949 144.271 403.314 143.31 407.829 141.952C409.561 139.048 411.671 134.537 414.64 132.848C416.872 131.579 417.991 131.318 420.401 132.049C421.523 134.474 421.235 136.536 420.353 138.963C418.505 144.044 414.483 147.871 409.559 149.969C404.257 152.229 397.309 152.286 391.99 150.061C386.797 147.89 383.138 143.711 381.042 138.548C377.219 129.127 377.532 113.405 381.57 104.137C384.173 98.164 388.036 95.5471 393.901 93.1519Z"/><path fill="#EEEEEC" d="M584.247 88.5451C586.16 88.5917 589.333 88.5013 590.708 89.9129C594.266 93.5629 592.34 106.125 592.251 111.102C596.162 109.043 600.119 106.966 604.663 107.167C608.416 107.334 611.937 109.032 614.406 111.865C620.49 118.817 620.039 131.253 619.457 139.983C619.229 143.398 619.119 148.503 616.423 150.865C613.59 150.7 613.37 150.34 611.168 148.486C608.14 143.343 610.237 129.959 610.477 123.752C610.45 122.855 610.43 121.864 610.169 121.002C609.411 118.498 608.35 117.306 606.17 115.963C603.705 114.445 601.224 113.708 598.365 114.422C588.949 120.421 595.251 139.495 591.802 148.742C591.005 150.881 590.482 151.098 588.544 151.962C587.404 151.536 586.08 151.14 585.234 150.228C581.902 146.638 583.878 96.7359 584.247 88.5451Z"/><path fill="#EEEEEC" d="M429.137 88.61C432.424 88.5763 433.712 88.3378 436.643 89.9503C439.173 94.0084 437.19 99.3168 436.836 103.772C436.646 106.174 437.1 108.015 438.658 109.833C439.977 109.29 441.318 108.792 442.633 108.241C444.506 107.456 445.995 107.024 448.033 106.985C452.065 106.906 455.821 107.717 458.731 110.685C464.142 116.205 464.105 125.322 464.154 132.533C464.194 138.609 465.429 146.338 460.954 150.876C458.52 151.228 458.535 151.218 456.52 149.803C453.883 144.356 455.441 132.978 455.518 126.75C455.56 126.33 455.61 126.008 455.601 125.597C455.525 121.936 454.257 118.282 451.419 115.867C449.776 114.47 447.662 113.713 445.498 114.006C430.193 116.078 442.467 142.03 436.597 149.808C434.335 150.223 432.704 150.556 430.448 149.766C426.979 139.818 429.122 101.246 429.137 88.61Z"/><path fill="#EEEEEC" d="M553.775 106.936C558.125 106.637 563.056 106.702 567.07 108.571C570.337 110.092 573.686 113.384 574.814 116.867C575.505 119.001 575.795 120.018 574.76 122.079C569.121 121.928 564.37 116.134 558.576 115.513C556.135 115.252 554.064 115.724 552.256 117.425C549.358 120.153 548.605 125.844 548.637 129.608C548.673 133.876 549.885 138.911 553.262 141.807C555.001 143.298 557.121 143.941 559.394 143.689C563.424 143.242 565.374 140.59 567.745 137.655L568.964 136.121C571.331 135.505 572.514 135.575 574.772 136.518C575.667 138.602 575.677 140.409 574.908 142.539C573.706 145.87 570.46 148.271 567.39 149.757C562.926 151.918 557.281 153.284 552.452 151.551C547.724 149.855 544.481 145.848 542.507 141.365C538.737 132.802 539.654 123.499 542.917 114.967C546.398 111.641 549.412 109.042 553.775 106.936Z"/><path fill="#EEEEEC" d="M514.258 106.067C522.113 106.322 518.454 107.887 522.914 110.249C523.775 110.704 526.548 109.036 527.623 108.577C530.406 107.387 533.081 106.334 536.043 107.669C537.4 108.28 537.29 108.771 537.781 110.15C535.025 118.642 528.837 114.922 523.919 119.613C522.201 123.522 522.37 127.235 522.438 131.405C522.533 136.079 523.061 141.328 522.449 145.943C522.172 148.036 521.863 148.98 520.154 150.247C517.788 150.101 516.283 150.427 514.447 148.769C512.117 135.378 513.909 119.711 514.258 106.067Z"/><path fill="#EEEEEC" d="M90.338 112.253C97.7166 112.287 105.201 111.596 112.556 112.013C117.02 112.265 120.403 112.637 123.477 116.013C123.578 119.297 122.82 120.309 121.335 123.175C113.323 122.898 105.155 123.89 97.2009 123.124C93.4624 122.765 91.0871 122.226 88.6471 119.299C88.1785 116.291 88.9626 114.794 90.338 112.253Z"/><path fill="#EEEEEC" d="M89.8575 85.1569C97.8054 84.3804 107.196 83.7359 115.119 84.5367C118.96 84.925 121.187 85.3928 123.666 88.426C123.612 91.4622 123.05 92.3284 121.549 94.8581C114.389 95.0417 107.001 95.5337 99.8571 95.0824C95.8195 94.8273 91.5169 94.5269 88.6809 91.3272C88.2003 88.3769 88.6195 87.7528 89.8575 85.1569Z"/><path fill="#EEEEEC" d="M89.2715 140.897C96.285 140.697 103.333 140.03 110.343 140.06C114.437 140.078 119.691 140.045 122.77 143.133C123.669 146.099 123.319 147.222 122.659 150.161C114.278 150.546 96.6781 153.633 89.9794 148.504C88.5426 145.552 88.9906 144.12 89.2715 140.897Z"/><path fill="#FCFCFC" d="M283.51 251.5C287.6 249.957 486.813 251.528 511.243 251.51C512.359 292.11 511.504 332.958 511.501 373.585L511.484 598.241L511.527 1139.88L511.428 1327.29L511.396 1382.79C511.359 1391.84 512.242 1402.33 510.623 1411.18C507.73 1412.91 503.065 1412.25 499.75 1412.16L268.157 1412.19L268.075 600.421L268.068 366.297L268.018 293.74C268.017 279.816 267.222 265.332 268.784 251.51L283.51 251.5Z"/><path fill="#1396F3" d="M352.213 331.433C364.838 330.933 418.375 329.59 427.7 332.498C430.231 333.287 431.564 333.892 432.755 336.425C436.237 343.829 436.844 411.482 433.671 418.394C432.193 421.614 428.575 422.625 425.479 423.561C411.323 423.662 356.744 426.729 346.505 421.289C344.588 420.27 343.504 418.936 342.898 416.894C339.695 406.109 342.365 391.342 342.272 380.086C342.179 368.974 340.982 357.582 341.684 346.502C341.884 343.352 342.237 339.373 343.883 336.595C345.878 333.226 348.676 332.35 352.213 331.433Z"/><path fill="#FCFCFC" d="M360.05 349.326L417.731 349.397C417.817 368.275 417.749 387.152 417.529 406.029C398.355 405.937 379.181 405.95 360.007 406.068C359.89 387.154 359.904 368.24 360.05 349.326Z"/><path fill="#EEEEEC" d="M350.127 1299.11C363.125 1298.09 415.065 1297.47 426.177 1299.54C430.777 1300.4 432.911 1303.97 435.438 1307.51C435.29 1332.61 434.782 1357.77 435.411 1382.87C432.639 1386.23 429.915 1389.4 425.79 1391.04C407.161 1391 372.08 1392.88 355.388 1390.13C351.732 1389.52 346.918 1388.25 344.349 1385.36C342.419 1383.2 341.777 1379.76 341.474 1376.96C340.657 1369.43 341.524 1361.27 341.475 1353.65C341.372 1337.8 340.521 1321.63 341.621 1305.83C344.244 1303.22 346.632 1300.51 350.127 1299.11Z"/><path fill="#FCFCFC" d="M358.953 1315.02L417.941 1315.02C418.007 1323.34 419.719 1370.2 416.859 1374.27C397.337 1374.7 377.808 1374.75 358.285 1374.42C358.646 1354.62 358.869 1334.82 358.953 1315.02Z"/><path fill="#EEEEEC" d="M381.945 812.781C399.015 812.079 418.09 826.257 432.672 834.7C433.841 837.579 435.184 840.548 435.619 843.646C436.847 852.38 437.292 875.654 435.458 883.724C431.739 900.087 406.954 907.801 393.689 915.958C391.463 916.072 389.137 916.238 386.912 916.087C375.612 915.319 348.392 897.908 341.018 889.168C339.704 878.874 338.204 855.164 340.599 845.463C344.056 831.467 369.747 820.193 381.945 812.781Z"/><path fill="#FCFCFC" d="M385.966 830.767C395.199 829.768 410.763 843.601 419.141 848.077L419.131 881.224C410.86 887.983 400.021 892.945 390.657 898.107C390.404 898.095 390.151 898.081 389.898 898.073C380.298 897.752 365.528 886.407 357.225 881.405C356.642 870.578 356.971 859.508 356.9 848.655C366.157 842.223 376.339 836.651 385.966 830.767Z"/><path fill="#EEEEEC" d="M384.998 1054.03C400.085 1053.31 419.983 1067.85 431.896 1076.61C438.389 1087.86 435.551 1115.19 435.455 1128.91C426.111 1141.78 405.491 1150.63 391.281 1157.38C389.35 1157.79 387.501 1157.92 385.563 1157.45C375.922 1155.13 353.788 1141.9 346.28 1135.28C344.053 1133.31 342.479 1130.75 340.98 1128.21C340.721 1112.74 340.623 1097.28 340.686 1081.81C340.77 1081.69 340.853 1081.58 340.939 1081.46C341.443 1080.78 341.922 1080.09 342.43 1079.41C347.886 1072.15 375.509 1055.44 384.998 1054.03Z"/><path fill="#FCFCFC" d="M387.936 1071.23C398.234 1074.87 407.415 1082.47 417.849 1086.43L418.474 1122.61C409.7 1129.28 399.18 1134.87 389.515 1140.13C383.669 1138.72 366.58 1129.58 362.448 1125.25C355.037 1117.48 357.888 1099.09 357.967 1088.76C358.093 1088.64 358.224 1088.53 358.345 1088.4C365.83 1080.72 378.269 1075.95 387.936 1071.23Z"/><path fill="#1396F3" d="M385.245 569.892C395.57 570.367 418.592 585.03 427.531 591.413C430.236 593.346 433.665 595.565 434.209 599.098C434.603 601.663 434.946 604.194 435.056 606.789C435.348 613.619 436.83 645.84 432.547 649.972C432.338 650.173 432.109 650.351 431.893 650.544C423.025 658.436 401.947 669.806 390.793 675.627C389.34 675.835 387.993 675.868 386.542 675.598C379.113 674.217 346.884 654.519 343.167 648.205C340.008 642.839 340.791 605.965 342.61 598.918C344.811 590.39 376.564 575.03 385.245 569.892Z"/><path fill="#FCFCFC" d="M388.657 588.746C398.152 594.781 407.748 600.654 417.442 606.363C417.728 617.564 417.765 628.77 417.553 639.972C413.537 642.309 408.34 646.176 404.042 647.659C399.235 651.086 393.997 653.9 388.883 656.837C383.27 654.328 378.134 650.869 372.936 647.612L359.985 639.684L360.055 604.996C369.765 599.91 378.953 593.7 388.657 588.746Z"/><path fill="#EEEEEC" d="M372.936 647.612C381.143 647.232 388.871 647.886 396.997 648.045C399.392 648.092 401.594 647.485 404.042 647.659C399.235 651.086 393.997 653.9 388.883 656.837C383.27 654.328 378.134 650.869 372.936 647.612Z"/><path fill="#FCFCFC" d="M513.553 251.553C539.187 250.888 565.217 251.5 590.892 251.48L755.736 251.51C757.458 325.829 755.964 400.532 755.928 474.889L756.086 882.543L755.955 1228.59L755.963 1347.28C755.964 1368.62 756.574 1390.15 755.778 1411.47L754.117 1412.35C673.762 1412.75 593.405 1412.68 513.051 1412.15C514.078 1375.77 513.002 1339.27 513.195 1302.87L513.543 1005.97L513.553 251.553Z"/><path fill="#EEEEEC" d="M595.345 1059.4C610.465 1059.48 625.586 1059.43 640.706 1059.26C650.962 1059.13 662.288 1057.96 672.354 1059.65C675.611 1060.2 677.917 1062.09 679.73 1064.77C680.909 1066.51 681.627 1068.4 681.859 1070.49C682.813 1079.06 683.108 1136.78 681.533 1143.11C680.5 1147.26 676.345 1149.7 673 1151.84C658.739 1151.64 644.476 1151.62 630.215 1151.79C620.601 1151.95 609.848 1153.1 600.337 1151.66C596.968 1151.15 593.569 1150.03 591.102 1147.58C588.617 1145.11 587.513 1141.73 587.019 1138.34C585.796 1129.93 586.852 1120.36 586.935 1111.85C587.083 1096.67 586.933 1081.48 586.881 1066.3C589.54 1063.85 592.517 1061.66 595.345 1059.4Z"/><path fill="#FCFCFC" d="M606.716 1075.45L664.769 1075.27C664.85 1084.45 666.999 1129.71 663.735 1134.91L603.487 1134.97C603.233 1122.93 601.227 1085.68 604.52 1076.38L606.716 1075.45Z"/><path fill="#EEEEEC" d="M594.606 1298.82C594.834 1298.8 595.061 1298.77 595.29 1298.76C610.602 1297.98 626.346 1298.77 641.696 1298.81C650.33 1298.83 659.558 1297.88 668.091 1298.71C670.533 1298.95 675.445 1299.87 677.235 1301.58C683.898 1307.96 681.267 1358.9 681.464 1370.26C675.954 1378.72 668.846 1381.49 660.122 1386.01C660.069 1386.06 660.02 1386.11 659.962 1386.15C653.589 1390.76 640.787 1398.67 632.861 1397.86C623.042 1396.86 592.858 1378.16 586.608 1370.6C585.773 1356 584.954 1321.6 587.323 1308.52C588.235 1303.49 590.589 1301.67 594.606 1298.82Z"/><path fill="#FCFCFC" d="M603.222 1315.1L663.73 1314.95L663.482 1362.81C660.235 1365.14 656.923 1367.26 653.5 1369.32C648.145 1373.29 641.076 1376.27 635.161 1379.35C624.16 1374.12 613.69 1368.09 603.163 1361.99C602.857 1346.38 603.182 1330.71 603.222 1315.1Z"/><path fill="#1396F3" d="M629.041 570.635C630.506 570.568 631.997 570.512 633.459 570.651C639.395 571.213 673.393 590.793 676.905 595.937C681.174 602.187 680.157 639.195 677.898 646.91C675.424 655.359 645.701 670.388 637.166 675.281C636.727 675.359 636.288 675.439 635.845 675.488C627.933 676.363 600.735 658.938 594.029 653.318C589.932 649.884 589.313 647.384 588.91 642.153C588.336 634.7 586.841 600.367 591.377 595.592C591.599 595.358 591.843 595.146 592.074 594.921C602.334 584.949 617.532 579.441 629.041 570.635Z"/><path fill="#FCFCFC" d="M632.579 590.265C642.629 594.61 652.264 601.034 661.599 606.754L661.748 639.275C652.969 644.705 643.552 649.053 635.208 655.184C628.373 656.288 612.536 643.975 606.275 639.958L606.198 606.369C614.756 600.617 623.689 595.48 632.579 590.265Z"/><path fill="#EEEEEC" d="M635.081 811.004C635.371 811.047 635.663 811.082 635.952 811.134C650.875 813.799 640.064 828.892 645.961 837.147C652.7 846.581 665.306 832.15 673.856 833.509C676.267 833.892 677.815 835.289 679.204 837.203C687.364 848.449 664.709 854.933 662.906 865.485C663.7 873.481 675.577 875.81 679.951 881.768C681.501 883.879 682.084 885.916 681.486 888.522C680.881 891.16 677.564 894.822 675.118 895.886C669.633 898.272 660.105 891.55 654.808 889.749C651.758 888.713 650.088 889.27 647.283 890.587C642.378 896.619 643.752 904.03 644.062 911.311C643.238 912.438 642.409 913.558 641.496 914.617C638.725 917.832 636.014 918.222 631.997 918.524C620.755 911.281 627.181 902.235 622.67 892.185C612.761 883.582 602.678 900.122 593.062 896.276C590.236 895.146 588.324 892.279 587.221 889.555C582.668 878.313 602.231 875.362 605.322 866.726C608.173 858.76 590.099 851.605 586.924 844.391C586.173 842.686 585.912 840.812 586.741 839.092C588.058 836.357 591.199 833.609 594.08 832.639C598.834 831.037 604.802 835.388 608.854 837.511C611.966 839.142 615.742 840.928 619.269 839.613C629.953 835.629 622.118 824.015 625.87 816.76C627.878 812.877 631.176 812.237 635.081 811.004Z"/><path fill="#1396F3" d="M631.046 331.818C634.508 331.658 638.203 331.347 640.885 334.029C646.946 340.095 643.938 361.786 643.943 369.98C653.321 370.177 673.196 366.922 680.39 373.117C682.04 374.538 682.867 376.338 682.936 378.508C683.005 380.678 682.346 382.607 680.8 384.156C674.022 390.943 652.49 387.695 643.411 387.357C643.432 398.541 646.692 416.195 639.936 425.431C638.586 425.738 637.184 425.926 635.804 426.046C633.232 426.27 630.933 425.78 629.012 423.928C622.763 417.905 625.554 395.854 625.468 387.624C615.783 387.492 596.183 390.613 588.701 384.349C587.015 382.937 586.104 381.07 585.953 378.881C585.818 376.923 586.392 375.177 587.763 373.752C593.983 367.284 616.556 370.039 625.649 370.065C625.804 361.964 624.867 353.837 625.168 345.745C625.407 339.323 626.3 336.2 631.046 331.818Z"/></svg>