<?xml version="1.0" encoding="utf-8"?>
<svg xmlns="http://www.w3.org/2000/svg" viewBox="143.3959 403.8543 1730.4197 1274.1699" width="1730.42px" height="1274.17px" preserveAspectRatio="none"><g id="object-1" transform="matrix(0.9999999999999999, 0, 0, 0.9999999999999999, -1.4210854715202004e-14, 0)"><path d="M 1354.08 1062.49 C 1358.07 1062.17 1362.06 1062.12 1366.07 1062.12 C 1393.07 1062.07 1419.93 1065.64 1446.83 1067.53 C 1485.52 1070.08 1524.25 1072.03 1563 1073.4 C 1599.76 1074.86 1636.54 1075.66 1673.33 1075.81 C 1696.89 1075.92 1721.25 1074.65 1744.71 1076.79 C 1754.01 1077.64 1765.39 1080.01 1772 1087.11 C 1777.74 1093.27 1779.68 1104.08 1779.37 1112.19 C 1779.01 1121.17 1776.22 1128.22 1770.33 1134.95 C 1755.45 1151.92 1736.7 1166.69 1719.96 1181.8 L 1636.27 1258.13 C 1563.73 1324.55 1493.51 1393.5 1420.32 1459.19 C 1443.12 1462.67 1465.21 1469.42 1487.39 1475.6 C 1519.37 1484.37 1551.21 1493.62 1582.91 1503.34 C 1605.29 1510.09 1629.76 1518.89 1653.01 1521.59 C 1664.96 1522.98 1676.94 1522.29 1687.86 1516.84 C 1694.54 1513.51 1702.08 1507.91 1704.32 1500.42 C 1705.4 1496.77 1704.87 1493.16 1702.93 1489.89 C 1694.67 1475.99 1675.25 1477.27 1661.48 1474.01 C 1639.48 1468.8 1621.39 1452.82 1610.02 1433.68 C 1596.24 1410.46 1594.18 1380.96 1600.88 1355.14 C 1608.73 1324.93 1629.27 1299.83 1656.18 1284.38 C 1686.17 1267.16 1719.93 1261.9 1753.35 1271.36 C 1793.28 1282.66 1824.28 1313.93 1844.02 1349.43 C 1874.68 1404.6 1882.05 1474.61 1864.4 1535.13 C 1850.07 1584.29 1819.78 1630.89 1774.01 1655.86 C 1704.75 1693.64 1627.08 1676.06 1555.83 1655.13 C 1542.42 1651.43 1529.07 1646.11 1515.84 1641.65 C 1488.93 1632.54 1461.95 1623.63 1434.91 1614.92 C 1318.31 1577.77 1200.1 1551.77 1077.16 1552.99 C 1050.88 1553.27 1024.64 1554.93 998.543 1557.98 C 979.976 1560.08 961.426 1563.25 942.767 1564.32 C 937.12 1559.8 933.214 1554.79 929.171 1548.89 C 928.546 1506.58 962.007 1470.54 977.342 1431.96 C 987.363 1407.22 994.643 1381.46 999.043 1355.14 C 1001.99 1338.01 1003 1318.64 1008.78 1302.29 C 1013 1290.36 1020.61 1284.96 1031.58 1279.71 C 1052.15 1269.85 1177.64 1228.71 1195.4 1237.11 C 1196.47 1237.62 1198.75 1239.56 1199.02 1240.77 C 1200.08 1245.56 1196.36 1256.88 1195.02 1261.76 C 1178.88 1320.4 1163.71 1378.28 1162.93 1439.49 C 1162.81 1449.5 1162.01 1460.81 1164.56 1470.53 C 1165.4 1473.71 1166.4 1475.64 1169.31 1477.39 C 1205.2 1480.31 1472.26 1215.46 1521.32 1174.94 C 1496.03 1173.63 1467.67 1169.74 1442.68 1174.61 C 1397.24 1183.48 1372.81 1233.69 1326.39 1238.14 C 1304.41 1240.15 1282.55 1233.21 1265.76 1218.89 C 1250.43 1205.87 1241.22 1188.39 1239.63 1168.3 C 1237.99 1144.71 1245.68 1121.41 1261.04 1103.42 C 1284.9 1075.5 1318.62 1065.39 1354.08 1062.49 Z" style="stroke-width: 1;"/><path d="M 945.021 1072.49 C 946.466 1072.35 947.915 1072.26 949.365 1072.21 C 968.857 1071.6 989.253 1079.33 1003.35 1092.82 C 1022.61 1111.26 1030.11 1136.94 1030.46 1162.99 C 1032.05 1279.72 913.712 1440.72 835.651 1520.05 C 782.77 1573.79 716.333 1624.06 637.42 1624.15 C 627.187 1624.17 614.709 1622.67 607.404 1614.75 C 602.449 1609.37 599.078 1599.58 599.511 1592.32 C 600.719 1572.06 610.233 1551.69 613.943 1531.62 C 621.191 1492.39 623.234 1453.12 625.33 1413.39 C 615.44 1431.72 607.946 1451.57 599.469 1470.6 C 573.494 1528.9 534.312 1617.54 474.942 1647.76 C 442.638 1664.2 387.821 1672.01 353.384 1660.39 C 340.503 1656.04 328.923 1647.12 325.555 1633.4 C 318.557 1604.88 336.049 1558.16 343.852 1529.37 C 359.545 1471.48 394.451 1344.52 367.481 1290.74 C 360.912 1277.64 350.599 1267.08 336.307 1262.66 C 322.063 1258.26 306.278 1261.52 293.275 1268.23 C 278.078 1276.07 263.319 1290.26 258.385 1307.05 C 256.444 1313.66 256.618 1321.15 260.101 1327.23 C 263.073 1332.41 268.048 1335.8 273.818 1337.16 C 308.634 1345.35 311.759 1305.28 328.894 1295.72 C 331.713 1294.15 334.487 1293.71 337.621 1294.69 C 346.045 1297.32 353.517 1309.85 356.899 1317.71 C 366.748 1340.6 364.366 1373.34 355.27 1396.04 C 355.1 1396.46 354.92 1396.89 354.745 1397.31 C 352.895 1401.66 350.895 1405.95 348.75 1410.17 C 334.939 1437.56 311.877 1458.93 282.469 1468.36 C 257.084 1476.47 229.516 1474.13 205.856 1461.87 C 179.356 1448.24 157.926 1424.42 149.016 1395.82 C 136.616 1356.03 145.946 1309.06 165.166 1273.03 C 194.256 1218.48 247.439 1176.04 306.403 1158.2 C 351.988 1144.41 403.275 1144.47 445.931 1167.46 C 527.744 1211.54 530.126 1308.26 520.683 1389.55 C 519.793 1397.22 514.055 1427.96 515.763 1433.55 L 516.372 1433.85 C 517.307 1432.62 517.672 1431.95 517.98 1430.4 C 520.246 1419.02 526.247 1407.97 530.227 1397.01 C 539.272 1371.84 548.165 1346.62 556.907 1321.35 C 573.251 1274.01 586.145 1221.7 605.138 1176.06 C 608.596 1167.75 612.403 1159.83 619.688 1154.17 C 640.573 1137.94 701.079 1123.04 727.607 1126.64 C 737.457 1127.98 745.122 1132.16 751.022 1140.22 C 760.401 1153.02 763.85 1170.62 767.421 1185.83 C 785.424 1262.53 788.47 1346.64 777.717 1424.6 C 810.797 1384.71 861.306 1294.93 857.159 1242.73 C 855.41 1220.73 828.851 1234.54 817.173 1223.79 C 811.267 1218.35 809.978 1209.17 809.491 1201.55 C 807.708 1173.64 822.148 1147.54 840.14 1127.23 C 865.731 1098.34 906.021 1075.02 945.021 1072.49 Z" style="stroke-width: 1;"/><path d="M 547.658 413.478 C 570.493 411.028 597.079 416.878 618.494 424.488 C 649.76 435.588 676.494 455.318 690.767 485.908 C 701.338 508.558 704.411 535.578 695.521 559.298 C 688.916 576.918 676.715 592.628 659.297 600.518 C 644.395 607.288 627.389 607.758 612.132 601.828 C 596.934 595.848 582.406 582.828 576.253 567.518 C 573.708 561.188 572.96 554.048 575.953 547.728 C 578.079 543.238 582 538.568 586.921 537.118 C 593.493 535.178 599.825 539.268 605.3 542.388 C 606.684 540.998 608.023 539.558 609.314 538.068 C 613.193 533.528 616.984 527.498 615.807 521.228 C 615.228 518.138 613.353 515.688 610.758 514.008 C 605.779 510.798 599.071 510.888 593.551 512.438 C 582.701 515.488 573.774 524.038 568.763 533.948 C 540.358 590.128 629.789 633.708 661.603 664.348 C 685.341 687.208 703.83 714.278 713.865 745.818 C 730.407 797.908 725.323 854.458 699.756 902.758 C 666.429 966.299 606.505 1009.44 538.787 1030.29 C 458.894 1054.9 371.2 1051.04 296.902 1011.46 C 265.892 993.735 239.466 969.733 221.936 938.358 C 198.266 895.228 192.866 844.408 206.956 797.268 C 219.386 754.178 248.423 716.198 287.937 694.558 C 317.148 678.558 350.397 674.428 382.435 684.028 C 404.537 690.648 425.504 705.048 436.526 725.728 C 444.301 740.328 446.204 758.748 440.885 774.518 C 438.86 780.518 435.331 786.088 429.385 788.788 C 416.863 794.468 400.378 779.498 388.451 775.328 C 381.986 777.008 375.588 779.228 370.898 784.228 C 366.453 788.958 365.133 795.088 365.453 801.428 C 366.055 813.338 371.453 823.568 380.556 831.198 C 397.63 845.518 423.937 850.988 445.719 849.108 C 464.412 847.498 482.679 839.728 494.809 825.078 C 528.981 783.808 482.88 744.838 454.668 718.358 C 441.508 706.008 428.292 693.628 416.797 679.668 C 395.936 654.338 380.736 624.118 377.529 591.158 C 373.323 549.998 385.542 508.838 411.529 476.648 C 445.735 435.018 495.732 418.468 547.658 413.478 Z" style="stroke-width: 1;"/><path d="M 1580.91 408.478 C 1600.28 405.878 1623.56 409.918 1642.43 414.418 C 1680.18 423.428 1714.08 442.388 1734.48 476.338 C 1749.47 501.268 1755.06 530.948 1747.69 559.298 C 1740.67 586.748 1722.95 610.248 1698.49 624.558 C 1676.8 637.118 1650.6 639.708 1626.52 633.148 C 1605.02 627.288 1584.34 612.778 1573.24 593.198 C 1562.39 574.048 1565.42 553.498 1578.99 536.628 C 1582.69 532.038 1590.08 526.058 1590.84 520.018 C 1591.03 518.478 1590.77 517.058 1589.74 515.898 C 1587.36 513.238 1583.89 512.518 1580.46 512.358 C 1557.45 511.318 1532.77 528.148 1516.42 542.648 C 1462.86 590.168 1421.79 672.288 1417.84 743.758 C 1416.81 762.508 1419.26 785.608 1432.76 799.908 C 1439.42 806.968 1448.32 810.218 1457.93 810.378 C 1482.05 810.798 1502.31 794.168 1518.44 778.098 C 1524.04 772.528 1535.32 762.118 1534.55 753.518 C 1534.31 750.918 1533.13 749.218 1531.04 747.708 C 1520.67 740.268 1498.1 756.928 1488.38 761.578 C 1484.67 763.348 1480.89 764.438 1476.93 765.458 C 1472.09 764.348 1468.12 763.058 1464.4 759.598 C 1455.15 751.008 1453.22 737.568 1452.66 725.568 C 1451.96 710.368 1455.11 694.058 1465.9 682.678 C 1473.09 675.098 1482.64 670.748 1492.82 668.888 C 1513.37 665.148 1535.78 668.198 1556.67 668.208 C 1594.23 668.228 1631.82 667.508 1669.38 667.028 C 1692.93 666.558 1730.23 662.198 1748.96 678.398 C 1756.44 684.778 1760.99 693.938 1761.57 703.758 C 1762.18 714.458 1757.84 724.808 1750.78 732.718 C 1739.33 745.538 1726.09 746.968 1709.99 747.598 C 1687.6 764.058 1676.45 791.818 1659.34 813.028 C 1605.73 879.538 1525.29 932.818 1439.16 941.798 C 1385.12 947.425 1330.7 938.388 1287.71 903.208 C 1249.69 872.108 1228.25 825.428 1223.65 777.028 C 1216.2 698.748 1248.42 620.808 1297.53 561.098 C 1350.15 497.128 1423.62 443.708 1504 421.388 C 1529.38 414.338 1554.74 410.998 1580.91 408.478 Z" style="stroke-width: 1;"/><path d="M 1119.98 404.468 C 1121.31 404.218 1121.27 404.198 1122.87 404.078 C 1151.31 401.958 1182.73 415.138 1203.71 433.768 C 1229.22 456.428 1242.11 488.138 1243.85 521.878 C 1248.5 612.468 1179.84 709.248 1121.48 773.488 C 1046.56 855.948 941.956 930.978 826.905 936.248 C 808.851 937.078 763.565 938.488 750.567 925.718 C 745.187 920.428 744.653 911.498 745.186 904.438 C 746.639 885.178 754.107 866.838 757.927 848.018 C 767.376 801.448 774.177 754.928 775.678 707.398 C 777.488 683.548 777.645 659.598 776.149 635.718 C 774.712 611.458 772.507 587.238 769.538 563.108 C 766.679 541.008 762.34 518.138 762.418 495.838 C 762.43 492.488 762.676 489.468 764.332 486.498 C 768.487 479.028 777.212 475.278 785.062 473.088 C 812.428 465.438 898.314 455.588 927.089 459.318 C 933.845 460.198 938.916 462.158 944.81 465.438 C 949.894 473.648 951.974 481.718 953.601 491.128 C 958.754 520.938 958.212 552.068 958.723 582.238 C 959.627 635.648 959.086 688.918 958.911 742.318 C 958.895 747.258 958.057 755.918 961.738 759.628 C 962.004 759.598 962.275 759.608 962.535 759.548 C 974.931 756.628 1020.98 691.388 1028.71 678.358 C 1042.81 654.578 1056.59 629.218 1049.34 600.968 C 1035.68 589.608 1018.08 587.608 1004.36 576.938 C 992.263 567.508 985.313 552.248 983.793 537.178 C 980.954 509.088 995.163 480.398 1012.55 459.268 C 1040.14 425.758 1077.25 408.748 1119.98 404.468 Z" style="stroke-width: 1;"/><path d="M 1139.64 813.758 C 1146.22 834.388 1150.44 854.458 1159.91 874.258 C 1191.94 941.258 1243.95 966.758 1310.26 990.142 C 1298.66 995.424 1286.19 998.722 1274.36 1003.48 C 1225.55 1023.1 1180.9 1063.07 1156.41 1109.55 C 1149.87 1121.96 1146.12 1134.69 1140.72 1147.41 L 1139.56 1147.22 L 1138.42 1143.83 C 1135.59 1132.61 1131.07 1121.56 1125.97 1111.18 C 1091.33 1040.78 1031.51 1012 961.326 988.199 C 996.633 979.157 1029.7 968.03 1059.63 946.377 C 1092.11 922.878 1120.49 889.858 1132.29 850.988 C 1135.96 838.888 1137.66 826.228 1139.64 813.758 Z" style="stroke-width: 1;"/></g></svg>