<?xml version="1.0" encoding="utf-8" ?><svg xmlns="http://www.w3.org/2000/svg" xmlns:xlink="http://www.w3.org/1999/xlink" width="1024" height="1024" viewBox="0 0 1024 1024"><path d="M367.707 0L375.694 0L521.403 0L527.039 0L879.845 0L886.583 0L900.963 0L907.445 0L1024 0L1024 59.755L1024 66.7736L1024 104.127L1024 110.545L1024 135.07L1024 142.819L1024 154.747L1024 161.929L1024 239.641L1024 247.747L1024 249.836L1024 256.61L1024 395.056L1024 401.517L1024 412.419L1024 419.981L1024 577.151L1024 586.724L1024 594.475L1024 731.617L1024 748.441L1024 752.044L1024 757.931L1024 947.452L1024 956.131L1024 959.102L1024 963.527L1024 1024L978.447 1024L552.354 1024L545.42 1024C541.336 1009.69 534.596 995.439 529.171 981.547L501.031 908.488L476.216 844.471C468.189 823.707 460.287 803.004 450.899 782.803C448.848 778.39 447.518 773.369 445.326 769.117C445.315 769.095 444.829 768.324 444.671 768.253C442.8 767.412 425.098 766.389 421.643 765.99C378.025 760.999 335.205 750.56 294.184 734.916C224.002 707.678 156.221 661.059 125.1 590.03C116.405 570.184 109.818 548.127 106.644 526.697C105.812 521.083 105.671 515.324 105.124 509.67C104.336 501.526 103.435 493.373 103.237 485.187C102.742 453.249 108.383 421.513 119.852 391.701C142.743 333.547 188.229 289.793 242.618 260.519C254.447 254.152 266.804 248.835 279.112 243.479C276.276 226.397 281.728 171.731 286.318 154.046C287.992 147.595 290.458 141.74 293.71 135.937C293.13 133.76 292.768 131.5 292.5 129.263C291.379 119.919 291.24 107.763 295.148 98.9793C299.686 88.78 311.148 79.3378 317.92 70.0893C326.866 57.8701 334.871 44.868 343.47 32.391C351.13 21.2777 359.396 10.6275 367.707 0Z"/><path fill="#A4A48B" d="M527.039 0L879.845 0L886.583 0L900.963 0L907.445 0L1024 0L1024 59.755L1024 66.7736L1024 104.127L1024 110.545L1024 135.07L1024 142.819L1024 154.747L1024 161.929L1024 239.641L1024 247.747L1024 249.836L1024 256.61L1024 395.056L1024 401.517L1024 412.419L1024 419.981L1024 577.151L1024 586.724L1024 594.475L1024 731.617L1024 748.441L1024 752.044L1024 757.931L1024 947.452L1024 956.131L1024 959.102L1024 963.527L1024 1024L978.447 1024L552.354 1024C547.652 1010.19 542.366 996.332 536.599 982.927C537.224 982.398 536.906 982.603 537.718 982.212C539.826 981.197 541.699 980.375 543.114 978.437C550.201 968.734 554.819 953.983 559.777 942.886C566.12 928.69 573.103 914.784 579.333 900.532C583.56 890.862 587.789 881.152 591.696 871.348C593.131 867.747 594.19 864.011 595.661 860.435C599.773 863.322 603.575 866.878 607.422 870.117C613.377 875.138 619.414 880.06 625.531 884.882C635.814 893.032 656.002 905.25 663.201 914.407C665.441 917.257 666.805 921.774 668.499 925.087C672.627 933.161 686.795 961.373 692.734 965.879C693.598 966.535 693.628 966.584 694.731 966.386C695.513 963.56 693.013 958.682 691.773 956.059C688.508 949.149 684.544 942.51 680.918 935.777C675.358 925.412 669.911 914.987 664.58 904.502C649.199 874.097 634.896 843.159 621.699 811.745C629.077 799.769 633.655 786.984 637.898 773.659C644.929 773.593 652.199 771.924 659.107 770.663C681.977 766.491 705.277 761.439 726.799 752.436C736.757 748.271 745.908 742.715 755.65 738.142C774.737 729.183 793.305 721.271 809.148 706.843C814.668 719.933 821.765 731.914 828.469 744.404C834.976 756.524 841.051 768.902 847.387 781.116C865.294 814.853 882.27 849.076 898.294 883.747C899.829 887.015 901.802 890.058 903.441 893.275C904.957 896.251 905.898 899.518 907.28 902.569C908.979 906.32 911.145 909.842 912.772 913.629C918.389 926.709 923.041 940.423 928.027 953.767C932.075 964.601 935.133 975.456 938.554 986.482C939.933 990.925 941.742 995.224 943.131 999.657C944.397 1003.7 944.86 1008.1 946.524 1011.99C947.205 1013.59 947.814 1014.49 949.378 1015.25C950.419 1014.78 951.199 1014.44 951.633 1013.29C952.269 1011.6 952.398 1009.76 953.058 1008.05C954.027 1008.5 954.579 1008.77 955.659 1008.67C956.146 1008.25 956.259 1008.2 956.652 1007.6C959.902 1002.64 952.877 977.353 951.21 970.87C948.26 959.391 945.407 947.826 942.007 936.471C938.109 923.453 933.522 910.639 929.056 897.807C917.509 863.859 904.516 830.421 890.113 797.583C885.496 786.777 881.21 775.815 876.396 765.098C869.64 750.334 862.621 735.693 855.342 721.18C850.149 710.881 844.296 700.585 840.287 689.759C846.704 684.86 850.813 677.875 857.103 672.931C859.081 676.766 861.186 681.131 864.004 684.405C865.097 685.674 865.893 686.29 867.565 686.422L868.493 685.59C869.9 680.752 862.599 669.744 860.299 665.369C872.242 653.41 881.667 635.198 888.207 619.66C896.005 601.133 901.244 581.836 902.512 561.715C902.695 558.821 903.276 553.363 902.042 550.737C901.448 549.472 901.831 550.506 901.35 549.097L901.131 548.435C904.838 531.331 907.263 513.337 907.638 495.832C907.733 491.418 907.39 487.017 907.331 482.605C906.702 436.045 896.121 392.722 870.96 353.221C833.201 293.941 762.259 254.845 697.392 232.64C688.986 229.763 680.391 227.031 671.82 224.687C668.743 223.845 665.568 223.403 662.5 222.558C657.871 221.284 653.407 219.464 648.756 218.228C639.543 215.779 630.058 214.016 620.748 211.955C622.766 209.09 625.087 206.167 626.763 203.094C627.738 201.305 628.956 198.984 628.328 196.915L627.363 196.48C621.607 198.14 617.141 206.295 614.306 211.172C602.532 209.56 590.897 206.776 578.981 206.439C589.512 193.282 598.654 178.818 608.816 165.326C629.165 138.31 648.53 115.402 671.541 90.5637C691.476 96.3388 709.54 111.558 725.35 124.465C767.841 159.112 806.306 198.424 840.021 241.659C848.085 252.114 856.037 262.654 863.874 273.28C867.659 278.509 870.976 284.192 875.031 289.202C876.139 290.571 877.242 291.626 878.745 292.532C889.715 299.498 910.433 352.209 917.194 355.225C917.895 354.833 918.096 354.89 918.415 354.071C920.121 349.706 916.29 341.818 914.439 337.847C907.271 322.46 897.261 308.049 888.141 293.761C840.588 219.264 773.579 133.839 700.989 83.7518C689.903 76.1024 675.432 66.2558 662.861 61.6583C644.897 64.3744 622.056 77.8916 605.325 85.7844C584.342 95.6195 563.273 105.268 542.119 114.728C529.264 120.51 516.569 126.807 503.298 131.593C502.967 108.17 508.691 84.6066 513.311 61.7656C517.497 41.0716 521.496 20.3851 527.039 0Z"/><path fill="#FEEACA" d="M887.973 31.1525C894.474 38.3128 900.641 45.9155 907.516 52.7145C932.027 76.9507 963.264 97.757 996.976 106.252C1005.72 108.456 1014.49 108.7 1023.26 110.398L1024 110.545L1024 135.07L1024 142.819L1024 154.747L1024 161.929L1024 239.641L1024 247.747L1024 249.836L1024 256.61L1024 395.056L1024 401.517L1024 412.419L1024 419.981L1024 577.151C1010.3 578.758 996.49 579.14 982.725 578.295C972.422 577.743 962.172 575.897 951.861 577.126C950.926 572.67 950.848 568.059 950.246 563.548C949.68 559.308 948.78 555.111 948.258 550.865C947.141 541.778 946.466 532.832 944.827 523.789C944.042 519.462 945.483 515.284 944.797 510.783C943.714 503.682 942.245 496.628 941.339 489.503C940.348 481.72 939.948 473.857 939.096 466.056L930.351 390.734L918.139 293.525C916.962 284.017 913.203 269.623 913.444 260.749C913.563 256.354 912.59 252.506 912.054 248.194C910.266 233.798 907.848 219.538 905.816 205.187C905.034 199.669 905.465 194.025 904.695 188.502C901.549 165.927 898.374 143.371 895.897 120.697C895.43 116.417 895.338 112.11 894.877 107.835C892.138 82.4773 887.359 56.7476 887.973 31.1525Z"/><path fill="#A4A48B" d="M940.889 203.899C943.748 203.395 945.464 203.704 948.176 204.618C955.364 207.041 962.232 210.632 969.081 213.874C979.803 218.918 990.489 224.038 1001.14 229.234C1008.65 232.87 1016.69 235.671 1024 239.641L1024 247.747L1024 249.836C1002.87 245.497 982.453 238.253 962.35 230.561C954.761 227.657 946.141 224.794 939.309 220.35C938.31 215.923 932.907 210.882 933.311 206.497C933.386 205.681 933.668 204.991 934.325 204.508C936.196 203.13 938.738 203.679 940.889 203.899Z"/><path d="M940.889 203.899C943.748 203.395 945.464 203.704 948.176 204.618C955.364 207.041 962.232 210.632 969.081 213.874C979.803 218.918 990.489 224.038 1001.14 229.234C1008.65 232.87 1016.69 235.671 1024 239.641L1024 247.747C1017.11 244.001 1009.81 240.971 1002.72 237.617C989.994 231.585 977.306 225.469 964.658 219.269C957.921 215.949 950.098 212.819 944.118 208.285C942.478 207.043 941.719 205.756 940.889 203.899Z"/><path fill="#A4A48B" d="M973.487 399.548C982.165 400.242 990.994 401.406 999.679 401.721C1007.77 402.015 1015.9 401.524 1024 401.517L1024 412.419C1016.42 414.037 1008.06 413.637 1000.34 413.62C980.46 413.576 960.97 412.457 941.177 410.766C942.363 410.607 943.271 410.448 944.386 409.978C945.208 408.329 944.696 406.557 944.514 404.746C952.052 403.77 967.054 402.869 973.487 399.548Z"/><path d="M1024 256.61C1018.55 256.036 1012.97 253.997 1007.7 252.494C987.576 246.754 940.798 231.718 924.865 219.78C923.446 218.717 922.207 217.78 921.946 215.978C922.295 215.702 922.429 215.558 922.905 215.408C927.364 214.007 935.093 218.529 939.309 220.35C946.141 224.794 954.761 227.657 962.35 230.561C982.453 238.253 1002.87 245.497 1024 249.836L1024 256.61Z"/><path d="M941.177 410.766C960.97 412.457 980.46 413.576 1000.34 413.62C1008.06 413.637 1016.42 414.037 1024 412.419L1024 419.981C1006.42 420.895 958.553 420.969 943.029 416.033C941.311 415.487 938.756 414.69 937.894 412.981C938.585 411.668 939.887 411.325 941.177 410.766Z"/><path d="M973.487 399.548C968.066 398.41 962.525 397.773 957.072 396.781C952.013 395.86 942.169 394.029 939.055 389.551L939.598 388.86C943.813 387.804 948.778 388.756 953.005 389.486C959.289 390.571 965.543 391.945 971.867 392.779C989.173 395.06 1006.58 395.29 1024 395.056L1024 401.517C1015.9 401.524 1007.77 402.015 999.679 401.721C990.994 401.406 982.165 400.242 973.487 399.548Z"/><path d="M1024 142.819C1013.14 139.752 971.908 127.507 965.091 120.538C964.226 119.653 963.677 119.084 963.677 117.805C963.793 117.725 963.9 117.628 964.026 117.564C966.138 116.488 970.234 117.593 972.46 118.19C977.914 119.654 983.186 122.25 988.481 124.221C1000.14 128.56 1011.82 132.507 1024 135.07L1024 142.819Z"/><path d="M1024 161.929C1017.85 160.662 994.959 157.025 992.401 151.648C991.853 150.497 992.098 149.954 992.53 148.889C999.609 147.426 1016.09 153.287 1024 154.747L1024 161.929Z"/><path d="M916.553 85.1552C923.833 85.6455 938.505 98.3659 943.413 104.067C945.265 106.219 946.399 107.526 946.189 110.424C945.679 110.637 945.295 110.825 944.734 110.93C943.206 111.216 941.575 110.263 940.304 109.53C933.734 105.745 922.609 95.6656 918.218 89.4004C917.338 88.1449 916.946 86.6176 916.553 85.1552Z"/><path d="M879.845 0L886.583 0L900.963 0L907.445 0L1024 0L1024 59.755L1024 66.7736L1024 104.127L1024 110.545L1023.26 110.398C1014.49 108.7 1005.72 108.456 996.976 106.252C963.264 97.757 932.027 76.9507 907.516 52.7145C900.641 45.9155 894.474 38.3128 887.973 31.1525C887.359 56.7476 892.138 82.4773 894.877 107.835C895.338 112.11 895.43 116.417 895.897 120.697C898.374 143.371 901.549 165.927 904.695 188.502C905.465 194.025 905.034 199.669 905.816 205.187C907.848 219.538 910.266 233.798 912.054 248.194C912.59 252.506 913.563 256.354 913.444 260.749C913.203 269.623 916.962 284.017 918.139 293.525L930.351 390.734L939.096 466.056C939.948 473.857 940.348 481.72 941.339 489.503C942.245 496.628 943.714 503.682 944.797 510.783C945.483 515.284 944.042 519.462 944.827 523.789C946.466 532.832 947.141 541.778 948.258 550.865C948.78 555.111 949.68 559.308 950.246 563.548C950.848 568.059 950.926 572.67 951.861 577.126C962.172 575.897 972.422 577.743 982.725 578.295C996.49 579.14 1010.3 578.758 1024 577.151L1024 586.724L1024 594.475L1024 731.617L1024 748.441L1024 752.044L1024 757.931L1024 947.452L1024 956.131L1024 959.102L1024 963.527L1024 1024L978.447 1024C978.659 1020.53 978.938 1017.06 979.285 1013.6C979.143 1013.44 978.985 1013.3 978.858 1013.13C977.005 1010.67 976.8 1006.19 976.592 1003.17C975.734 990.765 976.113 978.102 975.653 965.644C974.053 922.325 973.143 878.996 970.202 835.737C961.03 710.911 948.316 586.371 932.074 462.266C927.587 425.384 924.479 388.266 919.621 351.431L889.637 118.797C889.125 114.683 888.067 110.633 887.574 106.532C887.3 104.251 888.255 102.049 887.959 99.7968C887.672 97.6099 886.867 95.4912 886.574 93.2931C884.818 80.1063 883.722 66.4702 882.613 53.197C882.432 51.0347 883.438 48.9062 883.211 46.9761C881.965 36.4144 881.023 26.0238 880.322 15.3816C879.989 10.3326 879.353 5.04705 879.845 0Z"/><path fill="#FEEACA" d="M968.874 733.166C975.462 739.951 982.266 736.426 985.494 740.066C982.267 741.762 977.553 740.578 974.038 741.989C973.009 742.402 973.001 742.421 972.549 743.488C972.908 744.082 972.932 744.191 973.48 744.736C978.472 749.705 1015.74 748.483 1024 748.441L1024 752.044L1024 757.931L1024 947.452L1024 956.131L1024 959.102L1024 963.527L1024 1024L978.447 1024C978.659 1020.53 978.938 1017.06 979.285 1013.6C981.111 1009.66 981.485 1005.33 981.78 1001.05C983 983.306 981.934 963.895 981.501 946C980.928 919.936 979.751 893.888 977.971 867.878C977.525 860.261 977.663 852.615 977.124 845.001C974.489 807.824 969.527 770.428 968.874 733.166Z"/><path d="M1024 757.931C1012.29 759.064 998.007 758.091 986.486 755.532C984.757 755.148 979.516 753.765 978.613 752.318C983.993 749.687 1004.65 752.621 1011.81 752.802C1015.95 752.907 1019.92 752.707 1024 752.044L1024 757.931Z"/><path d="M1024 956.131C1015.43 956.063 1005.51 957.387 997.226 954.97C995.672 954.516 994.466 954.069 993.661 952.635L994.355 951.642C1001.51 947.817 1015.7 947.83 1024 947.452L1024 956.131Z"/><path d="M1024 959.102L1024 963.527C1018.56 962.807 1011.15 963.686 1006.14 961.394C1005.11 960.923 1005.05 960.936 1004.66 959.826C1006.12 958.91 1020.9 959.166 1024 959.102Z"/><path fill="#FEEACA" d="M953.165 590.705C973.137 596.739 994.81 596.903 1015.43 595.051C1018.52 594.774 1020.98 595.603 1024 594.475L1024 731.617C1014.94 732.818 1005.83 731.857 996.735 731.621C987.218 731.374 977.674 731.488 968.153 731.484C965.756 720.861 966.077 708.145 965.136 697.224C964.536 690.252 962.975 683.391 962.417 676.466C962.021 671.548 961.758 652.321 959.986 648.844C959.635 648.156 959.224 647.769 959.008 646.983C957.961 643.168 958.721 636.491 958.341 632.264C957.89 627.264 956.611 622.372 956.112 617.382C955.713 613.393 955.792 609.359 955.44 605.363C955.007 600.455 954.023 595.555 953.165 590.705Z"/><path fill="#EC918F" d="M900.963 0L907.445 0L1024 0L1024 59.755L1024 66.7736C1012.2 64.2562 1000.19 62.6874 988.592 59.2786C954.439 49.2435 923.959 26.7363 900.963 0Z"/><path d="M900.963 0L907.445 0C914.39 5.32112 920.286 11.6489 926.818 17.4265C941.437 30.3168 958.274 40.447 976.51 47.3246C971.487 37.8852 959.913 20.6362 958.189 10.5692C958.142 10.2998 958.089 10.0315 958.045 9.76182C957.862 8.65771 957.71 7.86404 958.27 6.84173C960.905 7.49939 962.93 11.1422 964.28 13.3885C971.869 26.0074 979.549 38.6261 986.927 51.3655C998.936 55.6032 1011.59 57.099 1024 59.755L1024 66.7736C1012.2 64.2562 1000.19 62.6874 988.592 59.2786C954.439 49.2435 923.959 26.7363 900.963 0Z"/><path fill="#FEEACA" d="M886.583 0L900.963 0C923.959 26.7363 954.439 49.2435 988.592 59.2786C1000.19 62.6874 1012.2 64.2562 1024 66.7736L1024 104.127C1022.61 104.461 1021.19 104.473 1019.77 104.376C1014.68 104.03 1009.78 102.308 1004.81 101.285C1000.85 100.472 996.829 99.9321 992.941 98.8095C987.94 97.3653 982.99 95.1661 978.177 93.1867C941.004 77.8991 914.006 52.1797 887.814 22.5761C886.786 14.968 886.089 7.68562 886.583 0Z"/><path fill="#A4A48B" d="M951.861 577.126C962.172 575.897 972.422 577.743 982.725 578.295C996.49 579.14 1010.3 578.758 1024 577.151L1024 586.724C1004.03 587.899 971.214 589.606 952.426 582.991L951.861 577.126Z"/><path fill="#FDFDFD" d="M986.418 739.201C990.333 738.796 1011.5 739.384 1014.17 740.874C1012.79 741.162 1011.48 741.335 1010.08 741.41C1004.53 741.706 990.572 742.919 986.418 739.201Z"/><path d="M768.539 79.8571C770.566 79.9475 772.613 80.5236 774.594 80.9512C782.281 88.032 789.435 95.7739 796.292 103.654C804.213 112.759 811.606 122.254 819.116 131.694C824.388 138.321 829.973 144.694 835.143 151.401C848.358 168.545 860.844 186.275 873.603 203.761C882.707 216.237 899.695 237.274 904.994 250.816C905.666 252.533 905.556 254.195 905.431 256.003C904.856 255.92 904.483 255.895 903.916 255.668C899.985 254.093 884.045 228.824 880.373 223.61C858.5 192.289 835.66 161.654 811.886 131.75C803.744 121.817 795.444 112.015 786.99 102.346C780.637 95.0793 773.048 88.4795 768.539 79.8571Z"/><path d="M904.308 754.131C905.159 754.224 906.043 754.293 906.812 754.713C912.839 758.002 931.06 805.933 934.403 814.483C948.182 849.555 959.314 885.608 967.708 922.343C969.299 929.391 973.761 942.874 970.813 949.605C970.082 949.127 969.426 948.743 969.005 947.94C965.404 941.063 961.67 924.166 959.618 916.027C956.165 902.337 952.357 888.829 948.584 875.228C947.218 870.304 946.264 865.254 944.666 860.397C933.878 827.597 921.877 796.736 906.744 765.73C904.918 761.99 902.855 758.32 904.308 754.131Z"/><path d="M590.542 52.9427C591.786 52.969 592.395 53.1941 593.48 53.7941L593.705 54.7209C592.563 56.7993 590.465 58.122 588.573 59.4766C580.243 65.4405 540.91 90.6 532.831 89.2691C532.121 88.6682 531.752 88.2632 531.361 87.3935C529.012 82.1744 534.273 71.5547 536.243 66.4721C538.24 61.8576 539.736 58.5392 543.408 54.9889L543.36 55.5137C542.406 65.1833 539.284 74.2241 536.468 83.4701C544.145 79.2808 551.912 75.1834 559.458 70.7656C569.812 64.704 579.784 58.3172 590.542 52.9427Z"/><path d="M820.82 33.2703C822.963 34.2844 824.81 36.2807 826.378 38.0426C836.04 48.8965 860.39 88.8451 865.19 102.513C866.003 104.827 866.369 106.913 866.234 109.371C864.645 108.577 863.793 107.648 862.748 106.225C854.774 95.3621 848.783 82.688 841.704 71.2021C837.339 64.1353 832.911 57.1081 828.419 50.1214C825.928 46.2308 822.917 42.237 820.997 38.054C820.255 36.4371 820.531 34.9573 820.82 33.2703Z"/><path d="M679.701 26.8151C689.066 26.8585 719.066 44.3848 727.876 50.0443C730.591 51.7883 734.469 53.848 735.18 57.1905C730.547 57.4642 723.601 53.2978 719.362 51.254C710.353 46.9105 688.254 36.3019 681.504 30.0474C680.555 29.1673 680.12 28.0103 679.701 26.8151Z"/><path d="M664.004 21.5968C664.489 21.5516 664.973 21.4939 665.46 21.4838C666.425 21.4636 667.187 21.7166 667.842 22.4396C668.313 22.959 668.126 23.3564 668.111 24.0128C663.972 29.5892 642.56 34.1646 634.98 36.309C633.356 36.1134 632.129 36.0143 630.728 35.0739C630.529 34.4467 630.238 34.1539 630.599 33.5306C633.313 28.8442 658.052 23.1186 664.004 21.5968Z"/><path d="M833.41 27.1716C834.297 27.3702 835.2 27.5447 835.972 28.0553C842.665 32.4809 855.651 52.6968 857.56 60.2402C856.521 60.3905 855.417 60.5683 854.408 60.1577C848.326 57.6828 835.381 33.54 833.41 27.1716Z"/><path d="M615.058 915.437C620.629 915.422 639.82 917.344 643.611 921.317C644.71 922.468 644.379 923.007 644.237 924.501C638.731 924.458 618.536 923.102 615.37 918.895C614.476 917.706 614.86 916.759 615.058 915.437Z"/><path d="M879.841 705.652C880.041 705.711 880.247 705.751 880.44 705.83C884.61 707.539 890.731 721.688 892.257 725.974C893.199 728.618 893.528 729.812 892.272 732.413C891.805 732.454 891.473 732.516 890.991 732.392C887.845 731.584 885.248 726.205 883.921 723.48C881.351 718.205 877.806 711.515 879.841 705.652Z"/><path d="M787.533 783.286L789.492 784.144C790.049 784.757 790.464 785.206 790.607 786.064C791.132 789.226 788.09 792.504 786.178 794.724C785.008 794.632 784.989 794.651 784.146 793.842C783.41 790.57 786.168 786.165 787.533 783.286Z"/><path d="M799.871 794.78C800.321 794.826 801.096 794.884 801.508 795.026C802.712 795.441 802.822 795.877 803.183 796.96C802.669 799.052 801.26 800.571 799.969 802.246C799.318 802.137 798.371 802.065 797.787 801.776C796.704 801.239 796.702 800.852 796.487 799.785C797.09 797.728 798.493 796.363 799.871 794.78Z"/><path fill="#A4A48B" d="M375.694 0L521.403 0C517.447 10.1902 515.622 21.2392 513.153 31.8741C508.839 50.2076 505.05 68.661 501.793 87.2114C499.779 98.446 497.488 109.863 496.904 121.283C496.668 125.9 496.841 130.324 498.317 134.749C500.128 135.819 501.932 136.997 503.823 137.915C507.778 136.719 511.604 135.359 515.445 133.834C518.558 136.035 522.677 136.16 526.353 135.901C533.807 135.376 541.017 132.91 548.273 131.28L603.265 118.402C611.624 116.398 620.954 113.017 629.613 113.652C629.463 115.196 629.124 116.604 629.97 117.996C631.135 118.592 631.47 118.762 632.831 118.433C635.387 117.814 638.08 115.172 639.868 113.319C644.359 108.663 647.957 103.089 651.966 98.0158C658.577 89.6503 665.743 81.6225 671.708 72.7705L675.707 75.8201C666.631 85.5154 657.357 95.1135 648.595 105.091C628.08 128.449 608.463 153.565 590.745 179.1C584.702 187.81 578.344 196.488 573.035 205.671C547.6 202.493 521.956 201.948 496.352 202.288C474.681 202.576 453.213 203.392 431.719 206.349C430.506 193.833 425.043 181.052 421.156 169.122C412.196 141.623 403.722 113.523 391.263 87.3725C387.907 80.328 383.604 71.1271 377.41 66.0937C376.303 65.1941 374.908 64.3892 373.421 64.5389C371.785 64.7035 370.621 66.0182 369.79 67.3152C364.208 76.0298 369.195 98.3955 371.672 108.418C373.052 114.169 375.033 119.759 377.583 125.096C378.831 128.991 383.719 139.957 383.104 143.429C382.687 159.187 400.005 194.173 408.14 208.831C377.649 212.965 347.562 219.675 318.204 228.888C306.903 232.337 295.818 237.549 284.431 240.358C284.288 232.456 285.051 224.434 285.473 216.542C285.918 208.216 286.105 199.815 286.895 191.516C287.559 184.544 288.734 177.572 289.694 170.633C290.588 164.163 291.32 157.694 292.887 151.342C294.195 157.799 295.788 176.157 299.242 180.633C299.825 181.389 299.529 181.167 300.529 181.255C301.22 180.139 301.256 179.151 301.283 177.871C301.357 174.232 300.559 170.462 300.378 166.81L298.595 130.437C298.162 121.473 297.431 110.163 301.009 101.803C305.206 92.0017 316.38 83.2219 322.771 74.4488C328.564 66.4979 333.701 57.9748 339.166 49.7883C346.444 38.8543 354.034 28.1308 361.926 17.6309C366.458 11.4999 370.569 5.64118 375.694 0Z"/><path fill="#838168" d="M824.795 672.601C829.095 680.461 833.447 688.407 835.883 697.079C833.491 705.631 828.446 720.045 830.431 728.963C831.532 729.535 831.735 729.453 832.987 729.315C837.331 725.516 838.871 710.317 839.968 704.231C842.519 708.488 845.385 712.815 846.931 717.559C849.972 726.893 844.604 744.908 843.873 755.466C844.986 756.911 846.067 758.401 847.228 759.807C849.772 750.146 850.586 740.006 852.538 730.208C856.783 736.242 860.864 744.404 863.49 751.311C860.333 761.604 857.805 777.963 862.783 788.067C863.093 788.696 863.454 789.077 864.012 789.49C865.52 788.381 865.778 785.966 866.05 784.166C867.278 776.024 866.231 767.565 866.714 759.354C871.852 768.537 879.304 781.484 881.301 791.745C883.055 800.76 875.93 824.027 883.162 829.878C884.139 829.641 883.855 829.898 884.376 829.071C887.433 824.222 886.509 809.054 886.675 802.917C888.845 809.105 898.493 831.146 898.773 835.559C899.172 841.857 895.421 857.926 899.524 862.175L900.769 862.646C901.866 862.008 902.208 861.492 902.602 860.268C903.797 856.558 903.67 851.075 903.705 847.144C907.895 856.237 911.796 865.918 914.525 875.559C912.573 881.624 908.53 892.391 910.851 898.549C911.787 899.392 911.723 899.35 912.985 899.294C914.974 897.907 915.339 895.367 915.755 893.123C916.308 890.133 915.87 883.433 916.677 881.399C917.296 882.179 917.364 882.284 917.632 883.161C922.025 897.53 929.231 909.554 927.993 924.681C927.721 928.003 926.463 934.702 929.152 937.019C930.436 936.565 931.197 935.653 931.827 934.468C932.745 932.74 932.662 930.718 932.739 928.807C939.655 948.554 944.755 969 949.368 989.393C950.716 995.355 952.815 1001.93 953.058 1008.05C952.398 1009.76 952.269 1011.6 951.633 1013.29C951.199 1014.44 950.419 1014.78 949.378 1015.25C947.814 1014.49 947.205 1013.59 946.524 1011.99C944.86 1008.1 944.397 1003.7 943.131 999.657C941.742 995.224 939.933 990.925 938.554 986.482C935.133 975.456 932.075 964.601 928.027 953.767C923.041 940.423 918.389 926.709 912.772 913.629C911.145 909.842 908.979 906.32 907.28 902.569C905.898 899.518 904.957 896.251 903.441 893.275C901.802 890.058 899.829 887.015 898.294 883.747C882.27 849.076 865.294 814.853 847.387 781.116C841.051 768.902 834.976 756.524 828.469 744.404C821.765 731.914 814.668 719.933 809.148 706.843C793.305 721.271 774.737 729.183 755.65 738.142C745.908 742.715 736.757 748.271 726.799 752.436C705.277 761.439 681.977 766.491 659.107 770.663C652.199 771.924 644.929 773.593 637.898 773.659C633.655 786.984 629.077 799.769 621.699 811.745C617.238 803.727 613.546 795.643 610.96 786.809C615.243 777.967 619.373 769.122 622.221 759.689C688.755 747.635 773.876 718.264 824.795 672.601Z"/><defs><linearGradient id="gradient_0" gradientUnits="userSpaceOnUse" x1="586.66913" y1="901.23468" x2="448.81573" y2="875.80127"><stop offset="0" stop-color="#817B63"/><stop offset="1" stop-color="#B1B39B"/></linearGradient></defs><path fill="url(#gradient_0)" d="M462.622 792.503C467.926 793.229 473.127 794.738 478.428 795.368C485.888 796.256 494.262 795.621 501.814 795.602C508.292 833.567 513.419 871.727 520.085 909.675C522.517 923.519 524.466 937.904 527.883 951.527C529.064 956.234 530.316 961.925 533.222 965.898L534.191 966.222C536.173 964.924 537.262 962.637 538.303 960.57C541.401 954.417 543.864 947.879 546.539 941.533C552.239 927.97 557.87 914.378 563.431 900.758C570.444 883.932 579.457 867.276 584.087 849.6C588.011 853.099 591.676 857.051 595.661 860.435C594.19 864.011 593.131 867.747 591.696 871.348C587.789 881.152 583.56 890.862 579.333 900.532C573.103 914.784 566.12 928.69 559.777 942.886C554.819 953.983 550.201 968.734 543.114 978.437C541.699 980.375 539.826 981.197 537.718 982.212C536.906 982.603 537.224 982.398 536.599 982.927C531.201 967.488 524.826 952.371 518.972 937.084L462.622 792.503Z"/><path fill="#838168" d="M661.457 67.743L666.674 70.1113C658.657 78.8293 651.494 88.5762 644.055 97.799C639.723 103.169 635.127 109.497 629.613 113.652C620.954 113.017 611.624 116.398 603.265 118.402L548.273 131.28C541.017 132.91 533.807 135.376 526.353 135.901C522.677 136.16 518.558 136.035 515.445 133.834C529.078 128.067 542.19 121.334 555.592 115.075L610.432 89.8706C623.056 83.9381 635.576 77.5039 648.494 72.2407C643.815 77.7391 625.189 94.9075 623.922 98.2704C623.399 99.6598 623.432 100.689 624.035 102.019L625.224 102.263C633.979 99.4625 653.671 75.363 661.457 67.743Z"/><path fill="#838168" d="M377.583 125.096C378.987 123.882 379.434 123.562 379.584 121.58C380.272 112.496 369.023 76.9412 374.54 71.7882C379.059 76.5637 382.188 83.5966 385.088 89.4754C398.458 116.583 407.439 146.075 416.471 174.855C419.816 185.516 422.363 196.472 426.528 206.853C422.152 207.282 417.709 207.576 413.378 208.34C408.785 197.563 403.323 187.217 398.576 176.512C394.255 166.772 390.674 156.643 386.2 146.996C385.747 146.018 384.87 143.935 383.783 143.571C383.564 143.498 383.331 143.476 383.104 143.429C383.719 139.957 378.831 128.991 377.583 125.096Z"/><path fill="#838168" d="M671.541 90.5637C674.951 86.5407 678.559 82.586 681.755 78.395C693.484 86.6124 705.547 94.5925 716.91 103.3C729.578 113.007 741.963 123.966 753.585 134.886C764.101 144.767 773.601 155.852 783.195 166.614C811.076 197.813 837.161 230.571 861.325 264.73C866.779 272.356 876.548 283.576 878.745 292.532C877.242 291.626 876.139 290.571 875.031 289.202C870.976 284.192 867.659 278.509 863.874 273.28C856.037 262.654 848.085 252.114 840.021 241.659C806.306 198.424 767.841 159.112 725.35 124.465C709.54 111.558 691.476 96.3388 671.541 90.5637Z"/><path fill="#838168" d="M851.239 647.214C872.645 623.1 887.607 596.194 896.592 565.23C898.195 559.703 900.062 554.087 901.131 548.435L901.35 549.097C901.831 550.506 901.448 549.472 902.042 550.737C903.276 553.363 902.695 558.821 902.512 561.715C901.244 581.836 896.005 601.133 888.207 619.66C881.667 635.198 872.242 653.41 860.299 665.369C856.79 659.639 854.339 653.189 851.239 647.214Z"/><path fill="#838168" d="M451.941 769.22C467.042 770.07 483.27 772.467 498.277 770.007C499.535 778.528 500.714 787.059 501.814 795.602C494.262 795.621 485.888 796.256 478.428 795.368C473.127 794.738 467.926 793.229 462.622 792.503C459.28 784.632 455.297 777.063 451.941 769.22Z"/><path fill="#838168" d="M830.085 668.361L847.028 652.188C850.336 659.126 853.695 666.041 857.103 672.931C850.813 677.875 846.704 684.86 840.287 689.759C838.349 682.393 833.519 675.183 830.085 668.361Z"/><path fill="#EC918F" d="M493.842 207.28C494.545 207.002 494.245 207.028 494.99 207.093C503.502 207.838 512.24 207.389 520.795 207.55C531.535 207.752 542.297 208.529 553.012 209.302C614.507 213.374 674.882 227.738 731.622 251.796C808.276 284.952 875.998 339.018 894.578 424.04C897.088 435.563 899.003 447.208 900.315 458.929C900.825 463.885 900.991 468.62 900.912 473.597C900.863 476.71 900.428 480.39 900.883 483.457C901.211 485.665 902.269 487.974 903.091 490.046C902.341 492.07 901.183 493.984 900.755 496.111C900.12 499.262 900.605 503.065 900.519 506.306C900.399 510.851 899.88 515.366 899.323 519.874C895.709 549.174 888.412 578.771 874.037 604.795C831.842 681.187 746.2 720.453 666.098 744.271C651.297 748.672 635.822 750.694 621.098 755.061L620.337 755.29C615.709 762.952 612.132 771.317 608.468 779.471C602.968 791.757 597.595 804.099 592.35 816.496C580.188 844.995 568.207 873.571 556.409 902.222C549.27 919.539 542.417 937.027 534.9 954.182C534.328 950.066 533.322 945.961 532.483 941.889C523.578 901.305 517.76 859.742 511.323 818.688C508.599 801.319 506.453 783.796 502.738 766.605C490.885 764.47 478.274 764.978 466.25 764.485C453.437 763.959 440.566 762.65 427.825 761.228C344.772 751.958 256.242 724.776 192.146 669.09C139.823 623.634 114.81 568.437 110.001 499.728C105.554 436.183 124.409 374.416 166.501 326.13C226.17 257.68 327.665 225.629 415.081 213.743C441.288 210.179 467.508 209.105 493.842 207.28Z"/><path d="M443.232 457.408C445.338 457.856 447.211 458.498 448.559 460.267C450.33 462.59 451.37 467.817 452.115 470.657C453.781 477.011 465.726 527.88 465.299 530.501C465.055 531.996 464.691 533.092 463.455 534.038C461.819 534.352 460.73 534.052 459.398 533.105C457.434 531.71 455.767 529.485 454.759 527.31C450.317 517.732 445.765 488.889 443.557 477.743C441.548 483.135 440.069 488.769 438.296 494.247C435.804 501.943 433.076 509.586 430.727 517.325C429.422 521.625 428.494 526.116 427.011 530.351C426.39 532.125 425.899 533.689 423.969 534.396C422.676 534.87 421.231 534.692 419.996 534.136C418.454 533.443 417.347 532.304 416.563 530.819C413.242 524.531 411.712 516.846 409.542 510.087C406.563 501.062 403.462 492.078 400.238 483.138L399.515 482.518C394.167 489.394 392.893 531.543 386.336 535.471C385.77 535.81 385.74 535.795 385.103 535.597C383.109 534.976 381.644 532.923 380.716 531.149C376.354 522.801 386.848 492.575 389.385 481.963C390.94 475.457 391.446 468.514 393.446 462.151C393.972 460.48 394.838 459.151 396.491 458.424C397.888 457.799 399.493 457.837 400.86 458.526C402.514 459.359 403.163 460.75 403.874 462.369C406.214 467.693 407.361 473.601 409.207 479.122C413.151 490.627 417.235 502.085 421.457 513.491C425.654 502.012 429.648 490.459 433.438 478.84C435.206 473.275 436.219 466.148 438.928 461.027C439.844 459.298 441.617 458.397 443.232 457.408Z"/><path d="M320.166 364.187C321.615 364.611 322.897 365.071 324.107 366.004C325.668 367.208 326.405 368.663 327.089 370.481C330.103 378.49 331.373 387.195 333.596 395.448C336.354 405.686 340.356 415.659 341.881 426.191C345.837 415.596 349.374 404.731 352.915 393.985C355.365 386.549 358.309 372.469 362.76 366.635C363.485 365.685 364.135 365.357 365.375 365.327C366.698 365.295 368.187 366.07 369.106 367.007C370.205 368.127 370.57 369.206 370.93 370.705C373.295 380.559 374.414 390.859 376.415 400.815C377.829 407.848 385.008 434.237 384.659 439.225C384.536 440.978 384.01 441.813 382.688 442.918C381.064 443.305 379.894 443.093 378.484 442.211C376.603 441.035 375.602 439.538 374.779 437.508C372.291 431.373 371.715 424.203 370.517 417.713C369.032 409.65 367.392 401.616 365.598 393.615C365.37 391.819 364.882 389.996 364.515 388.219L354.982 416.259C353.127 421.839 351.62 427.606 349.488 433.081C348.559 435.468 347.119 439.528 344.585 440.458C343.517 440.85 342.59 440.492 341.664 439.912C333.537 434.824 323.816 395.115 322.084 384.947C318.728 395.776 316.101 406.881 313.707 417.957C312.211 424.878 311.084 432.183 308.882 438.904C308.341 440.554 307.906 441.839 306.528 442.94C305.133 443.279 304.733 443.41 303.384 442.688C301.985 441.939 300.795 439.85 300.389 438.373C298.35 430.957 312.798 381.704 316.568 371.435C317.516 368.851 318.758 366.545 320.166 364.187Z"/><path d="M562.302 364.704C563.348 364.551 564.429 364.543 565.486 364.519C571.306 364.386 580.351 365.486 584.625 369.77C585.976 371.124 587.019 372.523 586.986 374.498C585.808 376.112 584.21 376.457 582.261 376.54C577.55 376.741 572.973 374.507 568.342 373.84C559.725 372.599 549.435 375.764 541.078 377.816C540.54 385.429 539.943 393.038 539.288 400.641C548.742 400.001 577.896 391.372 584.692 394.918C585.683 395.435 586.469 396.537 586.695 397.621C586.953 398.865 586.628 400.265 585.939 401.318C585.04 402.694 583.691 403.368 582.119 403.625C578.016 404.297 573.714 403.457 569.585 403.896C559.111 405.008 548.627 407.788 538.5 410.584C538.495 415.261 538.615 419.823 539.069 424.486C539.693 429.616 540.739 431.925 544.549 435.397C556.537 435.895 567.247 433.578 578.809 430.766C581.061 431.502 583.914 432.451 585.431 434.39C586.233 435.415 586.665 436.561 586.396 437.876C586.181 438.927 585.253 439.88 584.413 440.498C583.146 441.429 581.53 442.033 580.002 442.364C577.159 442.98 574.141 442.809 571.25 443.112C562.415 444.036 553.721 446.177 544.786 445.014C541.303 444.56 535.186 443.285 533.09 440.239C526.236 430.283 530.473 398.85 530.883 386.494C531.048 381.504 530.198 376.327 531.012 371.4C537.978 365.611 553.642 365.63 562.302 364.704Z"/><path d="M505.501 456.206C513.334 455.845 520.664 456.841 528.205 458.914C529.451 460.173 530.779 461.553 531.402 463.252C531.863 464.508 531.657 465.157 531.195 466.359C530.297 467.177 529.634 467.55 528.393 467.63C523.343 467.954 515.217 465.221 508.896 465.277C502.218 465.336 495.598 466.65 489.031 467.741C488.722 475.415 488.557 483.139 487.451 490.747C501.108 489.72 519.257 482.653 532.733 485.426C534.539 485.797 535.531 486.362 536.504 487.928C536.656 489.97 535.873 491.761 535.227 493.665C518.859 494.41 503.32 496.525 487.188 499.26C487.04 504.575 486.798 509.887 486.464 515.194C486.522 517.626 486.934 520.216 488.199 522.329C495.946 535.259 520.411 521.219 527.764 523.426C529.33 523.896 530.381 524.984 531.08 526.418C531.889 528.075 531.672 530.469 531.052 532.143C527.687 534.381 523.617 535.152 519.685 535.786C509.59 537.414 492.006 539.701 483.167 532.973C480.043 530.595 478.262 527.215 477.498 523.408C475.501 513.457 477.804 501.715 478.408 491.584C478.999 481.657 478.786 471.935 477.486 462.068C485.956 457.08 495.968 456.957 505.501 456.206Z"/><path d="M637.806 364.205C642.481 364.536 647.093 365.476 651.525 367C653.946 367.813 656.595 369.72 657.611 372.15C658.135 373.405 657.98 373.979 657.509 375.202C653.293 378.403 647.089 375.249 642.514 374.277C632.563 372.161 621.016 375.24 611.454 377.966C611.334 385.555 610.443 393.095 610.425 400.701C619.365 399.69 650.921 390.831 657.084 395.395C658.122 396.164 658.866 397.107 659.035 398.424C659.205 399.749 658.746 400.758 657.879 401.727C655.002 404.944 644.762 403.576 640.501 403.847C634.8 404.21 613.694 406.814 610.223 411.159C607.412 414.677 608.784 422.714 609.261 426.869C609.758 429.302 610.501 431.643 611.236 434.011C627.937 438.959 639 429.665 650.198 431.897C651.966 432.25 653.808 433.045 654.708 434.713C655.435 436.06 655.538 438.086 654.834 439.449C653.982 441.097 651.924 441.517 650.284 441.875C646.244 442.755 642.01 443.148 637.906 443.695C626.964 445.155 613.66 447.385 603.833 440.96C602.006 436.324 600.612 431.853 600.118 426.871C598.992 415.491 601.041 403.69 601.396 392.291C601.614 385.304 599.929 377.597 602.015 370.842C609.834 365.562 628.172 364.673 637.806 364.205Z"/><path d="M422.837 364.69C428.073 363.54 435.171 364.696 440.16 366.512C442.916 367.516 446.218 369.095 447.292 372.082C447.787 373.461 447.701 374.196 447.184 375.53C445.876 376.889 444.612 377.338 442.737 377.296C440.087 377.235 436.953 375.349 434.269 374.79C424.504 372.757 414.29 374.985 405.118 378.381C404.118 385.615 403.693 392.982 403.071 400.259C411.776 399.294 440.393 391.264 446.691 395.17C447.795 395.855 448.258 396.359 448.49 397.647C448.696 398.791 448.167 401.054 447.422 401.952C446.395 403.188 445.654 403.286 444.159 403.556C439.596 404.38 434.64 403.921 429.989 404.44C420.836 405.462 411.837 407.559 402.926 409.821C402.765 414.81 402.639 419.766 403.13 424.74L403.182 425.063C403.711 428.532 404.395 431.222 407.231 433.526C415.324 440.102 432.166 432.829 441.488 431.79C443.665 431.547 446.808 431.351 448.481 433.092C449.378 434.025 449.807 435.407 449.734 436.684C449.657 438.028 448.938 439.204 447.956 440.084C443.072 444.465 421.63 445.966 414.746 445.667C409.373 445.433 401.104 444.147 397.479 439.849C390.569 431.657 394.178 403.273 394.42 392.644C394.587 385.299 394.206 377.948 394.603 370.61C403.414 366.482 413.301 365.877 422.837 364.69Z"/><path d="M487.131 553.004C489.013 553.114 491.033 553.131 492.779 553.926C500.41 557.401 506.215 592.012 509.497 601.199C513.207 593.218 522.539 562.491 528.298 559.092C529.218 558.548 530.307 558.271 531.335 558.708C532.804 559.333 533.585 560.833 534.072 562.253C535.571 566.622 536.058 571.489 537.018 576.01C538.915 585.143 541.937 594.006 546.015 602.396C548.77 594.903 560.972 559.283 565.067 556.016C565.987 555.721 566.694 555.457 567.677 555.687C568.803 555.95 569.712 556.705 570.181 557.742C571.848 561.431 568.31 567.788 566.883 571.139C563.871 579.617 560.473 587.951 557.364 596.394C555.097 602.548 553.209 609.093 550.315 614.966C549.472 616.678 548.757 618.18 547.066 619.156C545.805 619.319 545.117 619.332 544.003 618.629C537.026 614.228 530.43 583.953 528.603 575.139C526.108 580.406 524.095 585.937 522.214 591.451C520.383 596.823 516.163 614.814 512.846 618.308C511.626 619.594 510.499 619.885 508.783 619.83C507.294 619.23 506.595 618.61 505.784 617.258C501.925 610.825 496.905 587.485 494.187 578.579C491.994 571.392 488.95 564.383 487.008 557.136C486.585 555.561 486.702 554.563 487.131 553.004Z"/><path d="M494.133 364.694C498.981 363.782 505.004 364.63 509.653 366.132C512.812 367.151 515.633 368.563 517.078 371.711C517.638 372.931 517.682 373.877 517.224 375.141C513.643 378.856 506.932 374.927 502.682 374.171C493.611 372.559 482.626 375.483 473.977 378.04C473.729 385.688 472.907 393.343 472.455 400.987C483.321 399.227 504.954 391.587 514.769 395.025C515.86 395.407 517.077 396.181 517.503 397.296C518.177 399.06 517.752 400.598 516.972 402.226C514.039 404.553 507.723 403.48 503.983 403.768C493.212 404.597 482.135 407.657 471.666 410.27C470.89 415.926 470.96 420.904 471.609 426.577C471.799 427.43 472.012 428.278 472.247 429.119C472.973 431.62 474.5 433.294 476.795 434.492C485.609 439.092 500.43 434.031 509.227 431.054C511.45 431.82 513.933 432.6 515.709 434.215C516.741 435.154 517.61 436.425 517.448 437.89C517.303 439.212 516.352 440.315 515.312 441.062C513.975 442.024 512.385 442.584 510.79 442.942C507.541 443.669 504.233 443.466 500.94 443.789C493 444.569 484.983 446.583 476.98 445.419C472.483 444.766 468.55 443.182 465.918 439.319C458.318 428.163 463.166 404.407 463.5 391.401C463.679 384.451 462.432 377.353 463.63 370.469C473.04 366.359 484.017 365.894 494.133 364.694Z"/><path d="M425.564 554.635C431.092 553.923 438.359 554.051 443.095 557.33C444.801 558.512 447.247 561.694 447.291 563.864C447.32 565.271 447.056 565.508 446.159 566.465C441.013 568.426 433.43 562.506 427.617 562.819C418.45 563.313 408.993 569.082 402.939 575.728C398.019 581.129 393.724 588.79 394.219 596.295C394.475 600.169 396.108 603.792 399.196 606.216C404.109 610.07 411.453 610.47 417.455 609.83C431.582 608.325 440.186 601.747 448.899 591.039C442.142 591.531 435.407 592.28 428.707 593.284C422.31 594.29 414.715 596.486 408.241 596.019C406.587 595.899 405.833 595.538 404.776 594.282C404.264 592.746 404.287 592.065 404.604 590.475C405.415 589.238 405.912 588.912 407.275 588.353C415.042 586.301 451.38 580.477 457.452 582.837C458.613 583.289 459.49 584.084 459.866 585.308C460.632 587.802 458.78 590.89 457.571 592.981C450.412 605.362 437.359 613.571 423.744 617.036C414.407 619.412 403.438 620.182 394.916 614.857C390.248 611.941 387.185 607.516 386.022 602.143C384.023 592.91 387.197 582.928 392.354 575.265C400.217 563.581 411.987 557.224 425.564 554.635Z"/><path d="M637.493 554.71C642.827 554.28 650.921 553.424 655.682 556.275C657.454 557.336 658.03 558.527 658.45 560.494C658.127 562.784 656.298 564.966 654.847 566.715C650.437 572.031 645.061 576.776 640.262 581.761C631.5 590.827 622.988 600.131 614.736 609.663C626.099 609.247 638.509 606.861 649.808 608.467C652.437 608.841 654.591 609.431 656.219 611.64C656.585 613.004 656.606 613.546 656.112 614.873C655.004 616.197 653.874 616.59 652.221 616.848C647.639 617.563 642.55 616.983 637.892 617.017C630.28 617.029 622.677 617.502 615.123 618.433C612.934 618.602 610.751 619.136 608.555 619.347C606.491 619.546 604.059 619.568 602.466 618.001C601.531 617.081 601.084 615.8 601.066 614.505C601.036 612.349 602.069 610.399 603.393 608.767C606.425 605.027 610.635 602.305 613.916 598.765L646.621 563.098C641.977 562.774 637.35 562.567 632.696 562.802C626.937 563.092 605.867 567.194 602.094 565.021C601.159 564.482 600.408 563.159 600.221 562.128C600.017 560.998 600.296 559.655 601.021 558.75C603.852 555.215 631.751 555.045 637.493 554.71Z"/><path d="M584.257 555.382C585.741 555.536 587.465 555.742 588.686 556.695C590.172 557.856 590.337 559.123 590.529 560.861C591.648 570.955 590.248 581.767 590.041 591.939C589.89 599.368 590.813 607.655 589.493 614.937C589.205 616.526 588.459 617.62 587.473 618.865C585.805 618.856 584.564 618.782 582.992 618.2C581.635 616.758 581.439 616.101 581.237 614.152C580.239 604.529 581.357 594.417 581.422 584.74C581.476 576.753 580.368 567.987 581.601 560.109C581.899 558.203 583.087 556.851 584.257 555.382Z"/><path d="M680.412 551.541C681.742 551.409 683.752 551.164 685 551.751C686.323 552.373 686.479 552.786 687.016 554.042C685.759 562.989 681.613 571.376 678.92 579.948C676.965 586.168 676.291 593.803 672.777 599.322C672.128 599.699 671.381 599.981 670.696 600.295C669.534 600.189 668.917 600.268 668.196 599.18C664.192 593.138 673.879 561.288 676.31 553.72L680.412 551.541Z"/><path d="M628.543 517.062C630.581 517.169 632.796 517.454 634.65 518.359C636.054 519.044 637.221 520.251 637.549 521.822C637.856 523.299 637.408 524.726 636.661 525.986C634.582 529.491 631.371 530.553 627.688 531.584C626.218 531.411 624.66 531.168 623.252 530.714C621.231 530.062 619.37 528.902 618.612 526.815C618.091 525.38 618.405 523.826 619.14 522.534C621.173 518.963 624.837 517.975 628.543 517.062Z"/><path d="M551.345 517.509C553.258 517.439 555.355 517.358 557.215 517.861C559.122 518.377 561.504 519.709 562.322 521.623C562.849 522.856 562.879 524.03 562.363 525.282C561.21 528.076 558.147 529.249 555.591 530.397C553.4 530.766 551.301 530.933 549.136 530.285C547.428 529.774 545.571 528.695 544.834 526.974C544.264 525.641 544.298 524.319 544.772 522.969C545.83 519.955 548.702 518.807 551.345 517.509Z"/><path d="M587.758 518.084C589.563 517.845 591.386 517.794 593.157 518.303C594.985 518.829 596.501 519.808 597.345 521.569C598.046 523.032 597.868 524.707 597.22 526.152C595.979 528.919 593.38 530.048 590.748 531.154C589.653 531.397 588.684 531.469 587.573 531.344C585.444 531.103 583.208 530.335 582.018 528.43C581.019 526.829 581.049 524.882 581.65 523.147C582.643 520.28 585.173 519.222 587.758 518.084Z"/><path d="M676.304 427.436C676.608 427.463 676.913 427.484 677.216 427.517C678.976 427.706 681.155 428.438 682.126 430.035C682.817 431.171 682.83 432.533 682.454 433.77C681.189 437.936 677.976 440.421 674.269 442.324C673.052 442.21 671.725 442.139 670.549 441.787C669.267 441.403 668.105 440.421 667.55 439.203C666.932 437.844 667.183 436.306 667.745 434.981C669.415 431.038 672.514 429.046 676.304 427.436Z"/><path d="M669.748 605.96C671.435 605.928 673.659 606.16 674.847 607.55C675.694 608.54 675.836 609.756 675.599 610.989C674.978 614.22 672.532 616.039 670.022 617.815L669.369 617.738C668.512 617.641 667.606 617.577 666.779 617.321C665.501 616.925 664.273 615.826 663.724 614.623C663.153 613.376 663.266 611.979 663.776 610.737C664.9 607.997 667.143 606.977 669.748 605.96Z"/><path fill="#838168" d="M607.186 796.213C608.107 796.902 608.558 797.655 609.066 798.674C612.962 806.484 616.127 814.844 619.589 822.864C626.177 838.434 633.211 853.811 640.682 868.977C631.906 859.679 622.845 848.964 612.639 841.235C610.622 839.707 608.287 837.759 605.671 838.109L604.987 839.022C605.464 846.108 629.496 866.184 635.832 871.97C645.104 879.814 649.885 886.908 654.384 898.23C630.628 881.624 608.861 862.694 587.193 843.491C594.927 828.352 600.681 811.928 607.186 796.213Z"/></svg>