<?xml version="1.0" encoding="utf-8" ?><svg xmlns="http://www.w3.org/2000/svg" xmlns:xlink="http://www.w3.org/1999/xlink" width="511" height="496" viewBox="0 0 511 496"><path d="M207.88 8.55261C208.009 8.44929 208.145 8.35529 208.265 8.24266C208.348 8.16524 208.542 7.90397 208.619 7.80318C208.632 7.87726 208.643 7.95146 208.656 8.02541C208.742 8.50291 208.786 8.79668 209.055 9.20573C210.157 10.8817 209.136 13.5637 210.8 15.0696C211.289 16.3258 210.946 18.9904 211.674 19.9074C210.871 22.529 211.361 25.6367 210.981 28.3654C211.192 31.0869 212.207 42.4285 214.041 43.7918C214.326 44.0042 214.622 44.0311 214.961 44.0563C215.872 43.3963 217.706 34.932 218.418 33.0472C218.576 39.0738 219.712 41.1236 222.757 46.0771C223.251 46.8805 223.799 48.2276 224.485 48.8545C225.338 49.6344 226.582 49.6121 227.663 49.4852C229.761 49.2389 233.056 48.4621 234.756 47.1619C238.966 45.0559 241.806 40.3322 243.714 36.2247C244.787 40.1136 245.171 44.1607 244.846 48.182C244.676 50.0569 242.859 52.2103 243.671 53.9661C246.6 55.2133 250.674 53.8771 253.796 54.0049C253.579 57.6869 252.394 59.62 250.124 62.4223C249.642 63.0175 249.088 63.5525 248.869 64.3019C250.443 66.0177 253.093 63.7142 256.421 68.3075C257.116 69.2667 257.789 70.2185 258.133 71.3621L258.029 71.9352C256.508 72.9792 251.729 70.5491 251.25 72.8347C251.972 75.3438 255.305 77.1902 256.838 79.3466C255.852 79.4777 254.346 79.5674 253.662 80.3836C253.616 80.4377 253.587 80.5036 253.549 80.5635C253.719 81.2136 254.039 81.5116 254.627 81.8725C256.098 82.7756 257.397 82.5696 258.028 84.4925C258.522 85.999 258.882 87.9572 259.068 89.5378C259.717 90.9926 260.338 92.2746 261.296 93.5585L262.807 93.526C265.294 94.1651 268.167 94.2164 270.729 94.2205L270.397 94.4563C267.707 96.3528 264.201 97.287 260.927 96.7056C259.571 96.4649 257.826 95.508 256.507 95.6708C256.126 96.0599 256.112 96.1192 256.11 96.6923C256.106 98.4738 258.788 101.194 259.757 102.79C262.184 106.79 265.267 113.575 263.462 118.267L263.073 118.542C262.088 118.038 261.297 116.361 260.214 115.606C258.125 114.15 255.621 113.468 253.504 112.061C255.981 117.651 257.046 123.421 260.205 128.72C257.928 128.478 255.726 128.454 253.443 128.494C253.45 130.367 253.575 132.159 253.824 134.015C257.189 136.894 260.24 142.647 260.838 147.037C262.855 149.035 264.844 151.205 267.068 152.973C268.094 153.79 269.696 154.492 270.575 155.381C271.525 156.344 270.567 156.611 272.399 156.945C273.303 157.109 273.795 157.266 274.374 158.02C274.434 158.099 274.484 158.186 274.539 158.269C272.693 159.373 269.384 156.353 268.23 159.199C268.364 161.337 270.528 161.938 270.882 163.637C269.875 164.072 267.976 164.393 267.57 165.459C267.472 165.717 267.39 165.983 267.307 166.246C266.558 166.847 266.136 166.748 265.214 166.647C265.026 166.626 264.838 166.604 264.65 166.581C264.287 167.019 264.436 167.687 264.496 168.242C264.607 169.267 264.773 170.291 264.924 171.311C261.546 170.76 258.404 169.267 254.965 168.998C254.893 171.058 254.747 172.051 256.224 173.63C256.868 174.319 257.73 175.061 258.607 175.434C261.326 176.586 264.396 176.766 267.152 177.774C269.761 178.729 271.98 180.456 274.728 181.09C277.352 181.696 279.996 181.733 282.647 182.104C284.547 182.37 286.42 182.856 288.308 183.2C293.696 184.184 299.004 185.126 304.191 186.978C306.861 187.932 309.49 189.595 312.1 190.778C316.628 192.83 321.281 194.68 325.738 196.872C331.692 199.8 337.533 203.099 343.594 205.791C347.659 207.598 352.126 208.855 356.31 210.399C367.106 214.381 377.803 218.711 388.052 223.953C390.769 225.343 393.592 226.671 396.135 228.36C408.189 236.37 417.007 247.372 426.569 258C433.468 265.668 440.538 273.168 447.411 280.863C448.893 282.523 450.593 283.994 452.015 285.707C455.054 289.367 457.792 293.348 460.661 297.148C463.356 300.718 466.733 304.417 468.751 308.389C469.215 309.28 469.456 310.27 469.455 311.275C469.419 316.796 461.587 321.627 461.504 324.484C461.475 325.48 463.078 327.325 463.636 328.151C464.326 329.173 465.12 330.701 465.996 331.538C466.279 331.809 466.353 331.752 466.674 331.896C466.875 331.987 467.065 332.102 467.261 332.204C467.248 332.282 467.23 332.36 467.22 332.439C467.169 332.856 467.16 333.309 467.278 333.717C467.962 336.078 469.584 338.613 470.544 340.942C470.963 341.958 471.404 344.075 472.012 344.896C472.292 345.273 472.326 345.21 472.659 345.504C473.777 346.492 473.542 349.151 473.615 350.569C474.679 350.456 476.555 350.057 477.48 350.673C477.77 350.865 477.672 350.904 477.737 351.313C477.342 351.589 477.023 351.671 476.565 351.788C476.026 351.927 475.765 352.014 475.39 352.454C474.513 355.142 476.556 359.376 477.317 361.991C477.608 362.992 477.705 364.031 477.99 365.036C479.652 366.482 487.853 384.43 488.515 387.117C488.944 388.856 488.411 391.465 490.18 392.346C491.026 394.303 491.418 396.49 491.913 398.56C491.772 398.87 491.609 399.171 491.467 399.478C490.948 400.598 491.596 401.598 490.533 402.523C490.976 404.808 491.298 407.319 492.089 409.506C492.115 409.487 492.143 409.473 492.166 409.451C493.299 408.395 492.123 407.86 492.22 406.646C492.592 406.136 492.941 405.652 493.178 405.062C493.234 404.923 493.286 404.782 493.34 404.643C493.822 406.782 494.497 408.874 494.937 411.02C495.44 413.479 495.721 415.974 496.231 418.432C497.104 422.644 498.707 427.414 498.297 431.716C498.13 433.473 497.277 435.328 496.352 436.815C494.174 440.317 491.819 441.966 487.775 442.876C483.931 443.74 480.082 444.621 476.309 445.766C473.528 446.609 470.801 447.69 467.972 448.357C456.351 451.1 438.378 451.55 426.606 449.038C422.131 448.084 418.053 446.176 413.663 445.063C414.013 450.743 414.513 457.487 416.133 462.968C415.481 463.713 415.451 464.152 415.346 465.113C415.248 466.006 415.047 466.538 414.566 467.3C414.882 469.649 415.185 472.075 415.791 474.369C416.149 473.453 416.448 472.26 416.68 471.295C416.492 470.957 416.207 470.541 416.105 470.172C415.952 469.624 416.076 469.463 416.333 469.009L416.529 470.085L416.837 469.954C416.968 469.566 417.153 469.319 417.385 468.986C418.549 474.451 419.627 479.931 420.223 485.494C420.613 489.13 419.988 492.409 421.093 496L417.767 496L302.207 496L239.118 496L233.72 496L230.899 496C230.392 488.977 231.571 482.184 232.432 475.242C232.855 471.833 233.08 468.323 233.654 464.943C233.998 462.915 234.925 461.06 235.202 458.996C236.116 452.186 235.965 441.091 235.121 434.353C234.804 431.824 234.193 429.303 233.665 426.81C232.544 429.802 231.577 432.935 230.717 436.014C229.873 439.033 229.592 442.623 227.917 445.3C225.015 449.938 219.591 452.296 215.057 454.892C213.567 455.745 212.44 457.103 210.678 457.451C207.526 458.073 202.15 454.496 199.383 453.132C193.989 450.474 188.573 449.976 182.854 448.669C179.585 447.922 176.322 446.751 173.224 445.47C169.147 443.784 165.36 441.235 161.62 438.903C158.078 436.695 154.862 434.263 151.773 431.449C144.099 424.458 137.723 416.524 130.896 408.766C128.333 405.853 123.252 400.694 121.554 397.55C121.176 396.85 121.01 395.972 120.832 395.201C119.234 393.433 117.131 392.142 115.496 390.391C113.924 388.707 112.557 386.786 111.101 385.001C109.146 382.604 107.108 380.273 105.197 377.841C102.64 374.587 100.202 371.246 97.6117 368.017C95.9501 365.945 94.0949 363.999 92.491 361.889C90.6702 359.493 89.1331 356.624 87.0442 354.468C86.1084 353.501 85.4074 353.054 84.0579 353.045C81.1147 353.023 80.0724 351.524 77.7625 350.038C75.3376 348.479 73.7519 350.859 71.0056 351.467C70.8908 351.492 70.7756 351.515 70.6606 351.539C68.6936 350.842 66.633 350.494 64.6814 349.717C61.5794 348.483 58.7185 346.847 55.5198 345.825C51.8323 347.848 49.0269 347.099 45.0024 346.667C42.0495 346.351 38.8997 345.401 37.0346 342.94C33.2098 337.891 33.4026 330.019 32.0034 324.127C31.6163 322.497 30.583 320.79 30.4502 319.135C30.356 317.962 30.6858 316.544 30.8418 315.371C29.0569 310.399 25.9588 311.609 22.5666 309.227C22.3923 308.912 22.1943 308.727 22.2562 308.347C22.5216 306.72 24.5978 304.95 25.9011 304.033C31.6046 300.016 39.3329 299.457 45.5992 296.626C50.5519 294.388 55.0737 289.921 60.298 288.579C63.3479 287.795 67.1253 288.835 70.3694 288.452C76.8004 287.694 91.9526 285.046 97.3502 286.091C101.404 286.876 102.057 290.515 104.072 293.377C107.68 298.501 119.669 309.562 125.98 310.384C129.183 310.801 132.402 309.788 135.636 310.5C138.879 311.215 141.432 313.689 144.533 314.731C147.2 315.628 150.19 315.175 152.953 315.665C155.256 316.074 158.441 317.023 159.768 319.069C160.533 320.249 160.573 321.615 160.238 322.947C159.636 325.337 158.624 327.239 156.387 328.469C149.459 332.279 142.008 331.21 134.772 329.108C133.355 329.529 131.911 329.743 130.505 330.234C130.433 330.658 130.494 330.929 130.68 331.306C132.277 334.541 136.064 337.239 138.714 339.623C148.149 348.109 157.811 355.862 168.431 362.822C171.252 364.67 174.013 366.785 177.258 367.804C177.229 365.195 177.219 362.545 177.396 359.941C173.757 359.193 169.42 359.323 166.405 356.976C165.857 353.691 166.113 350.863 166.199 347.567C166.293 343.926 166.35 340.26 166.264 336.619C166.154 331.983 165.528 327.353 165.336 322.717C164.846 311.364 164.873 299.995 165.416 288.644C165.565 285.835 165.937 283.044 166.137 280.239C166.349 277.268 166.202 274.283 166.567 271.321C167.12 266.843 168.76 262.142 170.318 257.916C170.911 256.307 171.864 254.424 172.189 252.755C172.359 251.882 172.254 250.858 172.218 249.971C170.294 246.887 170.172 249.297 168.513 248.479C167.024 247.745 166.199 244.555 165.701 243.044C164.651 244.149 163.585 245.095 162.376 246.022C162.254 243.77 162.23 241.506 162.146 239.251C161.24 238.911 160.279 238.719 159.354 238.433C157.333 237.808 158.757 236.604 158.121 235.432C157.733 235.466 157.379 235.513 157.003 235.623C156.391 235.802 156.022 235.995 155.391 235.746C154.174 233.189 156.253 231.396 156.674 229.044C156.845 228.088 156.001 227.041 156.205 226.162C156.447 225.114 157.305 224.506 157.339 223.368C157.418 220.708 156.146 218.151 156.177 215.391C155.789 215.216 155.395 215.038 155.022 214.833C153.214 213.836 152.402 212.172 151.837 210.29C147.737 209.431 143.495 208.787 139.499 207.526C128.922 204.185 125.592 198.229 120.623 188.956C119.508 186.876 118.435 184.549 116.986 182.686C115.074 180.226 112.047 178.888 109.959 176.457C107.685 173.81 107.158 171.005 105.275 168.327C103.331 165.563 100.253 163.831 98.1958 161.177C96.2581 158.676 94.5392 153.336 92.9099 150.176C91.5072 150.231 88.8563 150.652 87.6718 149.81C86.9716 149.312 89.6248 146.239 89.4484 145.116C88.7692 144.638 88.2662 144.74 87.457 144.647C86.913 144.584 86.7987 144.691 86.4354 144.237C86.8209 142.372 89.1117 141.315 90.3763 140.033C90.9769 139.424 91.3713 138.596 91.3148 137.73C91.2909 137.363 91.102 135.701 90.9228 135.502C90.7026 135.256 86.6755 134.358 85.8592 133.92C82.377 132.051 79.3452 129.21 76.4685 126.536C81.9773 126.436 84.9168 125.009 89.2984 121.804C89.5121 117.705 89.398 113.548 89.4175 109.441C85.4072 110.026 81.782 111.244 78.6752 113.881C78.696 113.232 78.4106 112.653 78.1837 112.058C80.9416 109.455 86.7131 108.51 90.2536 107.499C90.3873 103.297 91.2891 99.6632 92.5848 95.6563C91.7342 95.4111 90.9991 95.0967 90.2067 94.7039L90.5334 94.1734C91.4516 93.6083 92.6726 93.8012 93.7283 93.7444C93.7948 93.5339 93.8652 93.3246 93.9276 93.1128C94.9896 89.509 96.9317 86.1496 98.6439 82.8198C97.6063 81.5768 96.8878 80.4737 96.34 78.9362L96.5112 78.6843C96.9614 78.8891 96.7228 78.8466 97.2289 78.8013L97.5789 78.142C98.1394 79.2038 98.6907 80.2705 99.2325 81.342C102.86 77.1292 105.47 72.0582 109.255 67.9958C118.357 58.2254 138.872 46.4028 151.216 40.242C164.35 33.6871 177.459 32.9153 191.293 37.4955C194.254 38.4759 196.917 40.0584 199.867 41.0377C197.878 33.0558 191.879 29.187 188.326 22.5464C189.053 22.092 190.151 22.7832 190.845 22.3521C191.382 22.0184 191.127 21.5812 191.937 21.3566C196.455 22.7665 199.407 27.4908 202.978 30.3342C203.111 30.3029 203.268 30.3224 203.377 30.2403C203.962 29.8024 206.118 12.5051 207.06 9.76373C207.221 9.29696 207.555 8.9137 207.88 8.55261ZM72.6636 347.382C72.6172 347.444 72.5715 347.506 72.5244 347.568C72.0203 348.227 71.5205 348.664 70.8429 349.136L70.6616 349.619L71.1619 350.135C71.9452 349.512 72.7214 348.977 73.2332 348.099L73.1632 347.594L72.6636 347.382ZM250.562 96.0546L251.352 95.3808C250.409 94.5394 249.49 93.6836 248.447 92.965C249.123 94.018 249.776 95.0794 250.562 96.0546Z"/><path fill="#E9918D" d="M399.447 349.484C401.681 348.947 403.87 348.087 406.04 347.33C415.888 343.891 423.374 339.646 432.143 334.202C434.791 332.558 437.542 331.002 440.094 329.216C442.698 327.394 451.595 320.125 453.965 319.428C456.204 320.161 460.458 328.798 461.648 331.132C460.092 331.142 456.665 330.846 455.48 331.901C455.186 332.162 455.276 332.334 455.263 332.693C456.627 333.657 461.219 332.924 462.983 332.89C466.623 338.933 469.398 344.133 471.402 350.954C469.161 351.595 465.943 352.203 464.418 354.098C464.297 354.743 464.306 354.741 464.628 355.316C466.113 355.611 470.329 353.163 472.012 352.524C473.29 357.261 474.097 362.245 475.814 366.843C477.055 370.166 478.743 373.38 480.201 376.619C484.037 385.139 487.846 393.549 490.533 402.523C490.976 404.808 491.298 407.319 492.089 409.506C492.953 415.147 495.994 425.544 495.322 430.77C495.074 432.701 494.254 434.744 493.276 436.425C492.368 437.986 491.178 439.296 489.546 440.111C486.371 441.696 482.168 442.026 478.71 442.942C475.01 443.923 471.394 445.22 467.682 446.16C455.739 449.184 438.423 449.726 426.412 446.932C418.244 445.033 411.287 439.934 403.832 436.342C390.621 429.862 377.116 423.999 363.362 418.77C352.675 414.826 341.812 411.416 330.93 408.059C328.251 407.233 321.575 406.18 319.688 404.935C319.259 404.652 319.406 404.804 319.273 404.242C320.57 403.108 323.543 404.219 325.217 403.715C325.795 403.541 325.827 403.389 326.099 402.892C326.042 402.544 326.059 401.907 325.746 401.717C324.092 400.718 320.123 401.379 318.286 401.603C315.499 405.056 314.731 409.577 311.683 412.878C309.432 415.315 306.582 416.893 303.522 418.093C292.594 422.38 285.715 419.795 275.081 420.316L274.615 420.342C273.808 419.808 273.078 419.329 272.166 418.997C272.07 419.07 271.91 419.101 271.877 419.217C271.855 419.296 273.114 423.823 273.188 424.6C273.642 429.338 272.762 433.056 271.308 437.488C271.414 438.004 271.463 438.067 271.826 438.453C272.815 438.461 273.225 437.356 274.201 437.295C277.497 440.293 281.314 442.877 283.008 447.21C284.194 450.244 283.354 452.909 282.118 455.728C278.353 451.672 273.025 448.649 268.326 445.789C265.844 444.277 263.229 443.017 261.287 440.805C261.102 438.326 261.388 435.772 261.438 433.286C261.483 429.773 261.418 426.26 261.242 422.751C261.179 421.368 261.242 419.697 260.963 418.349C260.821 417.665 260.719 417.609 260.174 417.254C259.817 417.269 259.623 417.178 259.366 417.474C258.817 418.108 258.729 419.13 258.677 419.935C258.444 423.517 259.006 427.293 259.068 430.896C259.119 433.848 258.68 436.92 259.024 439.849C259.376 442.846 261.807 444.185 263.971 445.965L263.989 446.271C263.597 446.459 263.369 446.52 262.923 446.557C262.037 446.63 261.095 445.781 260.446 445.23C258.911 443.924 251.745 437.408 251.6 435.759C251.95 435.312 252.312 434.947 252.369 434.359C251.855 433.654 250.573 433.462 249.763 433.219C249.582 429.131 249.949 425.126 250.167 421.051C250.331 417.969 250.929 408.594 248.958 406.525C248.556 406.104 248.568 406.057 247.962 406.043C246.754 407.712 249.171 423.555 247.047 427.686C246.732 428.299 246.483 428.396 245.847 428.586C244.304 428.35 243.316 427.599 242.202 426.546C241.887 425.53 241.61 424.531 241.579 423.461C241.407 417.508 241.825 411.434 241.858 405.465C241.878 401.766 241.224 398.05 241.882 394.394C243.705 391.891 246.695 390.486 247.445 387.254L247.158 386.977C246.919 387.003 246.783 386.999 246.552 387.135C245.241 387.91 240.476 392.389 239.958 393.757C238.554 397.468 239.713 403.786 239.728 407.9C239.743 411.832 239.67 415.87 239.118 419.765C236.745 417.767 232.798 414.986 232.164 411.84C231.699 409.535 234.9 403.904 235.69 401.338C237.444 395.634 237.152 384.911 240.401 380.571C241.069 379.679 242.128 378.776 243.264 378.602C244.501 378.412 245.214 379.638 246.361 379.595C248.472 379.517 253.078 378.355 255.451 377.978C265.154 376.435 275.011 375.395 284.615 373.328C289.412 372.295 294.262 371.054 298.961 369.642C306.897 367.257 309.514 365.588 318.066 365.756C321.897 365.831 325.683 366.483 329.458 367.09C339.176 368.651 348.843 371.114 358.617 372.256C364.24 372.914 369.866 373.686 375.503 374.208C379.657 374.593 383.838 374.67 388 374.961C392.251 375.258 396.491 375.739 400.74 376.073C407.63 376.614 414.519 376.676 421.359 377.801C424.987 378.397 428.404 379.421 431.78 380.879C435.163 382.339 438.552 383.986 441.808 385.707C445.024 387.406 452.439 392.809 456.068 392.215C456.67 391.76 456.638 391.747 456.795 391.002C456.199 389.573 451.695 387.971 450.245 387.202C443.327 383.534 436.732 379.475 429.269 376.917C424.752 375.368 418.999 375.285 414.955 372.802C408.072 368.576 401.328 357.144 399.447 349.484Z"/><path d="M286.043 384.751C286.276 384.794 286.491 384.946 286.7 385.057L286.752 385.541C286.412 386.274 286.054 386.588 285.374 386.988C283.398 388.151 281.311 388.82 279.176 389.603C273.279 391.766 267.374 393.745 261.109 392.051C258.539 392.884 255.184 393.789 253.34 395.867C252.477 396.839 251.828 397.983 250.987 398.963C250.432 399.609 250.142 399.538 249.348 399.568C249.134 399.15 248.853 398.689 248.712 398.243C248.52 397.633 248.56 397.372 248.843 396.81C250.379 393.755 257.854 389.711 261.125 389.624C264.337 389.539 267.005 390.728 270.342 389.992C275.823 388.783 280.735 386.435 286.043 384.751Z"/><path d="M476.752 408.896C477.212 409.072 477.488 409.189 477.834 409.554C478.649 410.412 478.76 412.055 478.704 413.157C478.589 415.441 477.662 417.39 475.947 418.903C474.705 420 473.211 420.772 471.597 421.152C466.898 422.232 458.427 420.638 453.307 420.336C452.938 420.21 452.533 420.074 452.21 419.853C451.668 419.481 451.131 418.889 450.971 418.247C452.789 416.964 462.354 418.24 465.057 418.273C468.342 418.314 472.786 418.249 475.217 415.698C476.984 413.844 476.771 411.258 476.752 408.896Z"/><path d="M439.144 379.283C442.875 378.935 453.629 380.407 457.106 381.779C459.023 382.535 460.548 383.569 461.378 385.504C460.61 385.57 459.778 385.644 459.013 385.545C457.134 385.303 455.111 384.423 453.242 383.963C449.784 383.111 446.19 382.685 442.799 381.587C441.316 381.106 439.895 380.754 439.144 379.283Z"/><path d="M391.16 412.446C397.201 413.293 410.574 419.259 415.867 422.156C416.9 422.722 417.531 423.078 417.871 424.244C416.709 424.241 415.687 424.09 414.59 423.704C410.591 422.296 406.795 420.099 402.918 418.371C399.236 416.729 395.41 415.49 391.657 414.03C391.178 413.411 391.221 413.206 391.16 412.446Z"/><path d="M290.864 373.82C291.831 373.736 292.374 373.744 293.267 374.143L293.385 374.59C292.326 375.593 275.845 381.541 273.249 382.493C272.885 382.586 272.505 382.639 272.135 382.706C271.517 382.454 271.441 382.49 271.142 381.905L271.403 381.302C273.574 379.472 287.788 374.21 290.864 373.82Z"/><path d="M441.125 348.68C441.835 348.825 442.424 348.908 442.885 349.527C444.351 351.497 445.512 355.068 446.661 357.354C447.886 359.793 449.524 362.195 450.485 364.741C450.764 365.48 450.716 366.156 450.615 366.925C450.121 366.869 449.838 366.768 449.406 366.521C446.902 362.878 440.485 352.876 441.125 348.68Z"/><path d="M432.917 339.082C434.999 338.984 437.309 338.647 439.062 340.015L438.984 340.39C436.689 341.755 431.141 341.541 428.302 341.979C426.795 342.399 425.375 342.963 423.795 342.768L423.583 342.455C425.312 340.286 430.318 339.402 432.917 339.082Z"/><path d="M263.051 407.074C264.875 406.971 267.582 406.554 269.248 407.471C269.635 408.009 269.672 407.976 269.578 408.625C268.182 409.864 266.656 408.957 264.953 409.174C264.223 409.663 264.117 410.165 263.75 410.95C263.229 411.992 262.542 413.319 261.417 413.801C261.008 413.976 260.979 413.851 260.615 413.68C260.407 413.187 260.301 412.845 260.352 412.303C260.513 410.589 261.755 408.194 263.051 407.074Z"/><path d="M423.252 399.88C424.425 400.001 424.853 400.327 425.665 401.15C427.878 403.389 432.371 409.928 432.366 413.049C431.67 413.017 431.447 413.05 430.871 412.679C429.584 410.252 428.333 407.758 426.757 405.504C425.729 404.034 424.345 402.636 423.472 401.087C423.249 400.691 423.252 400.321 423.252 399.88Z"/><path d="M410.241 382.095C412.345 382.695 414.482 385.652 415.765 387.326C417.125 389.101 419.779 392.088 419.467 394.432C418.888 394.296 418.532 394.064 418.158 393.606C416.982 392.166 415.948 390.605 414.783 389.153C413.433 387.468 411.445 385.632 410.458 383.729C410.189 383.21 410.208 382.663 410.241 382.095Z"/><path d="M289.233 391.005L289.639 391.215C289.761 391.596 289.891 391.688 289.694 392.077C288.573 394.293 283.317 396.123 281.084 396.951C280.981 396.864 280.862 396.793 280.775 396.69C280.384 396.224 280.512 395.984 280.66 395.468C282.57 393.46 286.614 391.914 289.233 391.005Z"/><path d="M433.413 358.636C434.678 358.477 436.146 358.307 437.413 358.413C438.249 358.483 439.023 358.699 439.549 359.35L439.269 359.782C437.697 360.477 436.035 360.332 434.345 360.366C432.817 360.256 431.659 360.786 430.207 360.85C429.524 360.88 429.186 360.712 428.67 360.301C428.52 359.735 428.447 359.608 428.621 359.059C430.014 358.638 431.492 358.854 432.929 358.694L433.413 358.636Z"/><path d="M368.263 392.586C371.118 392.166 373.688 393.993 375.919 395.586C377.373 396.625 379.484 398.043 379.795 399.85C376.608 399.405 372.789 395.015 369.537 393.628C369.267 393.513 369.002 393.396 368.734 393.275L368.438 393.143L368.263 392.586Z"/><path d="M405.007 397.88C406.149 398.235 406.651 398.844 407.332 399.771C408.607 401.505 411.87 406.417 411.55 408.538C411.093 408.405 410.823 408.391 410.468 408.057C409.127 406.792 405.044 399.6 405.007 397.88Z"/><path d="M388.333 388.554C388.726 388.663 389.002 388.8 389.359 388.989C391.137 391.306 393.228 397.284 393.208 400.217L392.685 400.148C390.853 398.585 388.645 391.1 388.333 388.554Z"/><path d="M443.818 364.343C444.436 364.568 444.771 364.871 445.163 365.382C446.579 367.228 447.469 369.187 447.196 371.551C446.855 371.402 446.503 371.291 446.255 370.994C445.017 369.508 443.794 366.206 443.818 364.343Z"/><path d="M434.496 368.149C435.402 368.379 436.625 368.629 437.443 369.094C438.015 369.419 437.941 369.671 438.068 370.278C437.057 370.142 435.447 370.104 434.704 369.354C434.385 369.032 434.507 368.577 434.496 368.149Z"/><path fill="#ACA992" d="M317.749 407.89C330.59 410.43 342.978 414.847 355.314 419.176C366.491 423.098 377.737 426.997 388.505 431.99C392.427 433.809 396.1 436.186 399.966 438.124C402.176 439.232 408.712 441.756 409.856 443.473C411.121 445.373 411.499 452.47 411.94 454.965C412.644 458.941 413.371 463.455 414.566 467.3C414.882 469.649 415.185 472.075 415.791 474.369C416.149 473.453 416.448 472.26 416.68 471.295C416.492 470.957 416.207 470.541 416.105 470.172C415.952 469.624 416.076 469.463 416.333 469.009L416.529 470.085L416.837 469.954C416.968 469.566 417.153 469.319 417.385 468.986C418.549 474.451 419.627 479.931 420.223 485.494C420.613 489.13 419.988 492.409 421.093 496L417.767 496L302.207 496C301.438 494.538 300.985 492.684 300.473 491.105C299.657 488.588 298.848 486.082 298.499 483.449C297.401 475.168 299.652 464.302 299.777 455.808C299.872 449.318 298.917 442.803 299.857 436.321C300.544 431.584 303.886 426.443 303.488 421.754C310.658 419.481 314.269 414.605 317.631 408.12L317.749 407.89Z"/><path d="M417.385 468.986C418.549 474.451 419.627 479.931 420.223 485.494C420.613 489.13 419.988 492.409 421.093 496L417.767 496C417.7 488.692 416.527 481.61 415.791 474.369C416.149 473.453 416.448 472.26 416.68 471.295C416.492 470.957 416.207 470.541 416.105 470.172C415.952 469.624 416.076 469.463 416.333 469.009L416.529 470.085L416.837 469.954C416.968 469.566 417.153 469.319 417.385 468.986Z"/><path fill="#85826C" d="M275.502 422.433C282.378 423.71 296.793 423.63 303.488 421.754C303.886 426.443 300.544 431.584 299.857 436.321C298.917 442.803 299.872 449.318 299.777 455.808C299.652 464.302 297.401 475.168 298.499 483.449C298.848 486.082 299.657 488.588 300.473 491.105C300.985 492.684 301.438 494.538 302.207 496L239.118 496L233.72 496C234.281 492.681 234.302 489.085 234.549 485.721C234.948 482.625 234.872 479.501 235.266 476.41C235.691 473.081 236.315 469.778 236.748 466.449C237.262 462.496 237.569 458.515 238.015 454.554C238.438 450.797 239.317 447.022 238.792 443.246L239.439 442.964C241.747 439.524 243.083 435.106 244.572 431.246C245.059 431.444 245.579 431.646 246.008 431.954C246.937 432.623 246.98 434.153 247.148 435.199C251.794 440.408 256.591 446.245 262.742 449.74C264.076 449.203 266.13 448.384 267.552 448.335C270.383 448.238 278.085 456.541 281.244 457.485C282.048 457.726 282.895 457.703 283.624 457.253C285.055 456.37 285.745 454.074 286.074 452.532C287.232 447.101 283.685 444.33 281.015 440.353L281.184 439.904C281.496 439.753 281.928 439.591 282.191 439.37C282.625 439.006 282.643 438.623 282.694 438.086C282.837 436.569 282.614 433.571 281.597 432.413C280.209 430.833 277.428 430.882 275.496 430.694L275.502 422.433Z"/><path fill="#ACA992" d="M234.549 485.721C236.151 486.485 237.408 490.088 238.001 491.751C238.495 493.133 238.869 494.554 239.118 496L233.72 496C234.281 492.681 234.302 489.085 234.549 485.721Z"/><path fill="#85826C" d="M208.398 13.0294L210.981 28.3654C211.192 31.0869 212.207 42.4285 214.041 43.7918C214.326 44.0042 214.622 44.0311 214.961 44.0563C215.872 43.3963 217.706 34.932 218.418 33.0472C218.576 39.0738 219.712 41.1236 222.757 46.0771C223.251 46.8805 223.799 48.2276 224.485 48.8545C225.338 49.6344 226.582 49.6121 227.663 49.4852C229.761 49.2389 233.056 48.4621 234.756 47.1619C238.966 45.0559 241.806 40.3322 243.714 36.2247C244.787 40.1136 245.171 44.1607 244.846 48.182C244.676 50.0569 242.859 52.2103 243.671 53.9661C246.6 55.2133 250.674 53.8771 253.796 54.0049C253.579 57.6869 252.394 59.62 250.124 62.4223C249.642 63.0175 249.088 63.5525 248.869 64.3019C250.443 66.0177 253.093 63.7142 256.421 68.3075C257.116 69.2667 257.789 70.2185 258.133 71.3621L258.029 71.9352C256.508 72.9792 251.729 70.5491 251.25 72.8347C251.972 75.3438 255.305 77.1902 256.838 79.3466C255.852 79.4777 254.346 79.5674 253.662 80.3836C253.616 80.4377 253.587 80.5036 253.549 80.5635C253.719 81.2136 254.039 81.5116 254.627 81.8725C256.098 82.7756 257.397 82.5696 258.028 84.4925C258.522 85.999 258.882 87.9572 259.068 89.5378C259.717 90.9926 260.338 92.2746 261.296 93.5585C262.107 94.3482 262.906 95.1503 263.692 95.9646C258.899 94.8554 254.05 92.8594 249.331 91.3917C248.938 91.5386 248.662 91.6968 248.342 91.9624C248.016 92.2323 248.111 92.3013 247.76 92.2082C246.981 92.0009 246.173 91.1841 245.516 90.7115C243.328 89.137 240.139 88.2452 237.455 88.4779C235.611 88.6378 230.523 90.8282 229.375 92.3758C229.177 92.6422 229.274 92.8591 229.298 93.1677C230.807 94.6575 234.297 91.4297 236.034 90.9063C237.158 90.5678 238.574 90.7257 239.742 90.7609C238.622 91.9119 237.412 93.0761 236.49 94.3963C234.654 97.0246 234.366 100.035 233.368 102.988C232.611 105.226 231.267 107.235 230.588 109.506C228.28 117.233 229.743 126.377 231.179 134.18C229.808 133.186 228.428 132.19 227.11 131.127C223.422 128.151 223.639 122.581 222.319 118.357C221.277 115.024 219.932 111.5 217.791 108.704C215.042 105.113 208.34 100.748 207.047 96.9025C206.689 95.8387 206.656 94.5229 206.543 93.405C207.337 92.9552 208.135 92.5059 208.906 92.0173C210.701 90.8797 212.444 89.0739 212.88 86.9296C213.395 84.3985 212.206 82.5802 210.841 80.605C212.1 79.9148 213.63 79.037 214.588 77.9545C215.256 77.1999 215.694 76.3199 215.618 75.2928C215.466 73.2528 213.54 71.6465 212.08 70.4289C212.809 69.5251 213.574 68.3611 213.887 67.2325C214.213 66.0588 214.113 64.7804 213.506 63.7156C211.725 60.5919 206.402 59.5727 203.195 58.6034C204.023 57.4068 204.934 56.2523 205.802 55.0837C205.335 54.1116 204.84 53.1685 204.137 52.3426C200.81 48.4376 195.362 48.2554 190.642 47.9479C192.018 47.4834 193.324 46.9115 194.662 46.3509C196.964 45.3857 199.181 44.6879 201.603 45.6997C202.331 46.0039 203.463 46.6177 204.261 46.365C204.815 46.1894 204.978 45.9707 205.245 45.5076C204.657 43.9366 203.645 42.3568 202.85 40.8678C199.84 35.2358 196.624 29.9399 193.007 24.6743C196.359 27.1049 199.11 30.7912 201.224 34.3094C201.867 35.3802 205.083 42.3787 205.645 42.6693C206.221 42.9666 206.473 42.9045 207.061 42.7699C208.238 41.6039 207.473 38.9889 207.353 37.3877C207.201 35.3558 206.566 33.3929 206.45 31.3162C206.116 25.342 207.419 18.9034 208.398 13.0294Z"/><path d="M233.109 51.5991C233.175 51.6243 233.243 51.6435 233.306 51.6745C233.863 51.9478 234.124 52.415 234.317 52.9796C235.164 55.4533 235.069 58.8895 233.918 61.2123C232.041 64.9964 226.528 68.5044 222.586 69.7707C222.103 69.3167 222.098 69.2578 221.965 68.6036C222.587 66.6303 229.039 64.4121 230.825 62.1668C232.674 59.8439 232.618 57.6565 232.185 54.8967C232.105 54.3868 231.87 53.6629 231.916 53.1559C231.984 52.3949 232.584 52.0719 233.109 51.5991Z"/><path d="M235.443 71.5282C238.537 72 241.521 71.9649 244.626 72.1733C244.992 72.8191 244.828 73.3161 244.775 74.0459C244.384 74.0855 243.993 74.1199 243.601 74.149C241.3 74.3172 237.346 74.5788 235.51 72.9886C235.217 72.317 235.273 72.2518 235.443 71.5282Z"/><path fill="#ACA992" d="M236.148 420.55C236.955 421.365 237.831 422.117 238.683 422.885C238.645 424.555 238.742 426.188 239.533 427.697C240.6 429.735 242.493 430.588 244.572 431.246C243.083 435.106 241.747 439.524 239.439 442.964L238.792 443.246C238.306 438.369 237.757 433.499 237.145 428.637C236.797 425.938 236.3 423.272 236.148 420.55Z"/><path fill="#ACA992" d="M220.65 269.093C223.97 272.006 229.068 273.035 233.374 273.05C233.641 272.809 234.077 272.355 234.468 272.34C235.541 272.298 237.308 272.888 238.423 273.085C244.794 274.212 250.553 275.257 256.501 271.958C269.153 264.94 279.434 245.315 283.155 231.725C286.667 218.899 282.857 195.857 276.276 184.367C278.805 184.905 281.442 185.133 284.001 185.526C289.685 186.398 295.812 187.456 301.299 189.168C306.233 190.707 310.993 193.105 315.669 195.294C319.744 197.202 323.958 198.851 327.998 200.812C333.639 203.55 339.07 206.712 344.825 209.22C347.654 210.453 350.849 210.694 353.736 211.815C366.914 216.935 379.9 222.328 392.154 229.466C404.458 236.634 413.481 248.35 422.833 258.809C425.158 261.41 427.727 263.797 430.102 266.354C436.202 272.918 442.225 279.661 447.989 286.518C450.38 289.363 452.529 292.466 454.743 295.451C458.098 299.998 461.511 304.501 464.981 308.961C454.593 313.44 446.187 320.708 436.953 327.041C423.608 336.191 409.739 343.6 393.939 347.409C389.753 348.418 385.249 349.411 380.965 348.619C378.818 345.869 377.373 342.352 375.785 339.243C372.671 333.148 369.656 326.885 366.318 320.915C363.077 315.116 359.927 309.187 356.32 303.607C353.594 299.389 350.397 295.502 347.836 291.177C347.275 291.587 346.156 292.245 345.816 292.856C345.775 292.93 345.545 293.438 345.566 293.583C345.636 294.079 359.114 313.392 360.992 318.246C363.78 322.795 366.124 327.608 368.566 332.347C371.78 338.609 375.054 344.839 378.387 351.038C384.337 352.563 389.303 351.644 395.279 350.757C397.709 353.979 398.988 357.761 401.091 361.163C403.754 365.474 407.368 368.915 409.537 373.557C405.707 373.032 401.74 373.107 397.877 372.924C392.835 372.686 387.813 372.124 382.781 371.737C379.829 371.51 376.836 371.519 373.904 371.104C377.461 369.353 381.443 367.623 384.186 364.688C379.97 366.108 376.095 369.096 372.034 370.993C369.655 370.663 367.027 370.615 364.696 370.12C354.501 368.883 344.551 366.929 334.474 364.988C331.529 364.421 328.627 363.63 325.663 363.162C320.964 362.419 316.317 362.32 311.621 361.81C316.133 361.26 320.666 360.597 325.198 360.265C335.594 359.502 346.586 360.339 356.266 355.987C357.349 355.5 358.846 354.925 359.639 354.006C359.936 353.662 360.037 353.421 360.143 352.99C359.9 351.753 359.068 350.804 358.293 349.842C355.804 352.446 353.162 354.024 349.681 354.966C338.516 357.99 325.541 356.488 313.775 359.167C311.543 359.676 308.711 360.223 306.77 361.499C305.001 362.661 303.602 364.419 301.595 365.212C292.747 368.706 283.045 370.474 273.761 372.39C269.925 372.985 266.05 373.149 262.219 373.723C257.304 374.459 250.207 376.807 245.484 376.252C242.636 375.917 240.92 376.967 238.796 378.71L238.426 379.018C235.565 382.986 235.361 389.122 234.582 393.818C234.108 396.676 233.532 399.518 233.052 402.376C231.92 398.033 228.558 394.23 226.061 390.576C224.59 388.422 223.219 386.179 221.657 384.09C219.897 381.736 217.806 379.564 216.837 376.73C215.377 372.458 215.82 367.689 215.421 363.261C215.162 360.375 214.695 357.514 214.477 354.622C213.67 343.951 213.29 333.436 211.475 322.862C210.703 318.598 209.596 314.402 208.163 310.312C207.126 307.31 204.67 303.209 204.512 300.136C204.505 299.991 204.506 299.846 204.503 299.7L204.095 299.401C203.155 299.437 202.25 299.374 201.313 299.297C202.761 303.434 204.714 307.28 206.016 311.504C208.368 319.131 209.307 326.709 210.115 334.619C210.823 341.546 211.321 347.299 211.343 354.306C208.485 353.902 205.604 353.486 202.723 353.293C201.613 353.218 199.527 352.98 198.669 353.725L199.083 354.828C201.227 356.249 207.959 354.778 210.125 355.89C210.901 356.288 211.088 357.078 211.203 357.85C211.102 358.125 211.074 358.483 210.792 358.617C209.569 359.202 206.847 358.987 205.431 359.009C193.356 359.196 180.64 358.364 168.863 355.508C168.074 349.571 168.532 343.302 168.33 337.306C168.034 328.492 167.231 319.79 167.16 310.952C167.041 296.335 167.337 273.379 172.118 259.76C172.597 258.398 173.214 256.237 174.316 255.257C174.604 255 174.736 255.092 175.089 255.108C176.316 256.146 176.903 258.138 177.556 259.589L180.108 257.338C180.322 258.478 180.237 260.565 181.011 261.434C181.699 262.206 182.787 262.085 183.736 262.136L183.894 262.856C184.137 263.938 184.253 265.16 185.263 265.797C185.679 265.818 186.02 265.795 186.426 265.696C186.942 265.57 187.467 265.397 188.001 265.384C188.86 265.363 190.126 265.731 190.722 266.357C191.534 267.209 191.843 268.488 191.748 269.622C190.342 271.997 186.981 268.916 184.926 269.679C184.864 270.212 184.897 270.581 185.29 270.998C186.494 272.269 191.82 276.751 193.408 276.914C194.144 276.761 194.521 276.363 195.061 275.897C195.706 275.341 196.522 274.58 197.422 274.646C197.818 275.044 197.963 275.242 198.511 275.413C198.834 275.05 199.14 274.679 199.443 274.299C200.689 274.476 204.449 282.877 207.389 284.179C208.059 284.476 208.554 284.44 209.216 284.179C210.508 282.289 209.236 278.479 209.748 276.119C210.217 273.954 211.143 271.424 213.049 270.162C215.934 270.276 216.051 275.016 217.966 276.462C218.325 276.733 218.168 276.646 218.702 276.555C219.999 274.853 220.252 271.218 220.65 269.093Z"/><path fill="#85826C" d="M241.425 345.639C245.064 341.995 248.933 338.895 251.806 334.558C252.666 333.26 253.516 331.921 254.211 330.527C255.209 328.524 255.927 325.616 257.493 324.03C257.989 323.528 258.601 323.366 259.292 323.398C261.475 323.5 263.607 325.614 264.963 327.2C266.692 329.223 267.948 331.53 268.846 334.029C271.841 342.36 274.411 363.269 273.761 372.39C269.925 372.985 266.05 373.149 262.219 373.723C257.304 374.459 250.207 376.807 245.484 376.252C242.636 375.917 240.92 376.967 238.796 378.71L238.426 379.018C237.858 376.808 240.621 348.155 241.425 345.639Z"/><path fill="#85826C" d="M360.992 318.246C363.78 322.795 366.124 327.608 368.566 332.347C371.78 338.609 375.054 344.839 378.387 351.038C384.337 352.563 389.303 351.644 395.279 350.757C397.709 353.979 398.988 357.761 401.091 361.163C403.754 365.474 407.368 368.915 409.537 373.557C405.707 373.032 401.74 373.107 397.877 372.924C392.835 372.686 387.813 372.124 382.781 371.737C379.829 371.51 376.836 371.519 373.904 371.104C377.461 369.353 381.443 367.623 384.186 364.688C379.97 366.108 376.095 369.096 372.034 370.993C369.655 370.663 367.027 370.615 364.696 370.12C364.536 366.827 364.919 363.367 364.399 360.106C364.197 358.839 363.99 358.06 362.928 357.286C361.823 357.914 360.709 358.605 359.555 359.136C358.61 359.571 357.714 359.542 356.757 359.158L356.692 358.708C358.036 356.704 360.387 356.669 362.113 355.31C362.229 355.218 362.342 355.122 362.456 355.028C361.407 352.914 362.216 348.006 362.094 345.488C361.962 342.764 361.568 340.048 361.378 337.325C361.128 333.238 360.971 329.146 360.908 325.052C360.852 322.841 360.601 320.421 360.992 318.246Z"/><path d="M362.456 355.028C363.456 354.408 367.715 353.233 369.034 352.939C367.505 354.642 364.78 355.814 362.928 357.286C361.823 357.914 360.709 358.605 359.555 359.136C358.61 359.571 357.714 359.542 356.757 359.158L356.692 358.708C358.036 356.704 360.387 356.669 362.113 355.31C362.229 355.218 362.342 355.122 362.456 355.028Z"/><path d="M355.093 227.135C355.397 227.23 355.665 227.396 355.946 227.546C356.558 229.489 352.171 236.428 351.238 238.566C348.273 245.359 346.454 253.049 346.383 260.478C346.352 263.738 346.693 267.457 346.13 270.647L345.41 270.907L345.325 270.804C344.281 269.554 343.857 268.26 343.763 266.635C342.953 252.646 345.522 237.968 355.093 227.135Z"/><path d="M337.013 296.289C340.047 296.322 344.133 298.191 346.485 300.114C347.016 300.549 347.135 300.802 347.226 301.466C346.942 302.026 346.963 302.024 346.38 302.249C343.177 300.016 339.501 299.729 336.132 298.132C335.622 297.89 335.735 297.897 335.564 297.411C335.952 296.765 336.36 296.646 337.013 296.289Z"/><path fill="#E9918D" d="M122.712 60.306C126.46 55.014 147.87 43.812 154.495 41.0456C158.146 39.5213 162.226 38.2644 166.1 37.5217C176.46 35.5358 187.247 37.2195 196.039 43.1638C193.662 44.2212 191.207 44.9895 188.703 45.6769C188.609 45.6244 188.515 45.5739 188.423 45.5193C188.04 45.2925 187.729 45.0971 187.314 44.934C185.12 44.0734 182.608 43.569 180.3 43.0971C171.347 41.2663 163.308 41.4852 154.518 44.1058C152.873 44.596 151.066 45.0502 149.522 45.797C148.806 46.1438 148.378 46.4643 148.122 47.251L148.324 47.5743C149.358 47.5335 150.467 46.8354 151.49 46.5455C153.66 45.9302 155.903 45.3937 158.121 44.9738C167.273 43.2407 176.37 44.9593 185.369 46.689C184.134 47.4086 182.838 47.9771 182.176 49.3178L182.373 49.6385C183.696 50.0585 185.13 49.8101 186.5 49.9801C191.212 50.5649 197.188 50.0927 201.3 52.8222C201.964 53.263 202.603 53.8349 202.703 54.6743C203.021 57.3642 198.287 58.0777 197.061 59.9397C197.113 60.1133 197.09 60.3309 197.216 60.4607C198.358 61.6304 207.44 60.4937 210.954 64.344C213.081 66.675 209.347 68.5611 209.278 70.8394C209.24 72.1217 211.295 73.4104 212.136 74.2936C212.797 74.9887 213.012 75.4882 212.999 76.4378C212.253 77.9484 208.408 79.362 206.882 80.6087L206.622 80.8255C207.835 81.8355 209.112 82.7562 209.878 84.1776C210.394 85.1362 210.62 86.19 210.236 87.2386C209.436 89.42 206.564 90.6122 204.594 91.499C203.316 94.5848 204.244 97.1849 205.142 100.225C214.02 107.389 218.412 110.736 220.675 122.51C221.165 125.063 221.507 127.925 223.011 130.125C223.842 131.341 225.126 132.437 226.234 133.399C232.334 138.697 235.338 138.83 239.075 146.681C238.715 147.535 238.224 148.352 237.784 149.168L239.524 152.981C239.152 154.884 238.466 156.75 237.88 158.597C239.5 161.001 241.196 163.155 243.25 165.205C241.828 166.082 240.443 166.926 239.184 168.03C239.272 169.464 239.596 170.915 239.839 172.332C237.877 171.943 229.108 169.729 227.808 170.393L227.695 170.913C228.55 173.348 234.831 178.384 236.975 180.619C236.443 181.438 235.253 181.503 234.521 182.151C233.607 182.96 233.737 185.097 233.693 186.228C233.642 186.214 233.592 186.198 233.54 186.185C230.356 185.369 224.772 182.007 222.379 179.709C221.224 178.6 219.928 174.98 218.566 174.575L218.269 174.885C218.189 176.991 220.093 179.895 220.961 181.812C224.066 183.066 228.228 185.584 230.465 188.07C232.193 189.991 231.555 193.476 231.475 195.886C230.322 195.811 227.854 195.17 226.907 195.611L226.498 196.961L226.107 197.046C223.946 195.638 220.322 193.786 218.604 191.952C217.84 191.137 217.461 189.301 216.979 188.263C216.059 186.286 214.007 183.079 212.416 181.611C211.928 181.16 211.559 181.05 210.917 181.057C210.768 181.533 210.698 181.628 210.946 182.096C211.97 184.026 213.56 185.843 214.742 187.693C215.922 189.54 216.747 191.86 218.154 193.533C218.814 194.318 219.912 194.989 220.732 195.626C223.76 197.974 226.785 200.537 228.29 204.164L228.428 204.502L227.697 205.612C225.974 205.486 224.304 205.13 222.566 205.051C219.917 203.149 217.384 201.119 214.526 199.525C208.921 196.398 202.363 195.259 196.245 193.49C194.395 192.955 192.86 191.517 191.215 190.528L190.657 190.794C190.211 191.448 190.162 191.495 190.18 192.279C192.454 196.44 202.979 197.894 207.28 199.31C208.977 199.869 213.214 201.119 214.049 202.785C213.052 204.268 208.494 202.727 206.836 203.26C206.277 203.44 205.98 203.499 205.388 203.477C205.109 203.253 204.671 202.843 204.324 202.721C201.819 201.838 194.404 205.537 191.909 206.54C190.164 207.242 188.289 207.754 186.636 208.655C182.815 210.739 179.409 213.428 175.725 215.701C173.88 216.839 171.779 217.552 169.927 218.704C167.438 220.253 165.055 225.118 164.408 227.897C163.661 227.063 162.861 226.269 162.085 225.461C161.758 222.989 162.083 219.445 160.784 217.283C160.743 217.216 160.698 217.151 160.655 217.085L160.732 216.817C161.722 216.481 162.712 217.096 163.725 217.111C166.08 217.145 169.143 216.243 171.328 215.382C172.222 215.03 173.501 214.629 173.911 213.693C173.136 212.976 172.022 213.573 171.137 213.866C167.237 215.156 162.579 214.864 158.523 214.718C157.172 213.9 155.93 213 154.68 212.036C154.151 209.134 154.167 206.155 153.768 203.238C153.613 202.105 153.406 201.009 152.456 200.308L151.941 200.44C150.963 201.949 151.756 206.32 151.786 208.192C149.309 207.478 146.717 207.107 144.201 206.54C134.365 204.326 129.788 200.889 124.824 192.204C122.932 188.892 121.377 185.275 119.198 182.143C116.806 178.704 112.802 177.261 109.883 173.353C111.329 172.17 112.866 170.747 114.504 169.85C118.521 167.651 122.022 167.619 126.608 164.404C127.79 163.575 128.873 162.752 129.142 161.265C128.944 160.559 128.903 160.447 128.372 159.947C126.244 159.249 121.374 160.758 118.972 161.078C113.712 161.78 110.806 163.634 107.614 167.815C104.852 164.778 101.124 162.489 99.1402 158.819C96.0338 153.074 95.9168 146.622 94.9805 140.351C92.9748 126.918 89.7071 112.685 93.8578 99.2672C97.5143 87.4474 107.355 70.1375 118.553 64.341C125.771 60.6042 136.767 58.3068 144.69 60.8522C141.833 62.5472 138.634 63.8176 135.666 65.3313C129.326 68.5645 114.572 76.4624 110.958 82.2743C113.242 81.3205 115.312 79.8885 117.453 78.657C119.81 77.301 122.258 76.1016 124.607 74.7321C128.349 72.5502 131.844 70.233 135.79 68.3978C148.974 62.2662 163.429 58.7428 177.979 60.3768C180.962 60.7118 184.397 61.1892 187.229 62.2435C188.03 62.5415 188.905 63.0128 189.766 62.7961C190.151 62.2258 190.384 61.8703 190.517 61.1801C190.122 59.1353 188.285 57.5257 186.773 56.1978C179.671 49.9623 169.251 47.0291 159.873 47.7093C155.233 48.0459 151.463 48.9374 147.309 51.0117C146.368 51.4812 145.139 52.0368 144.489 52.881C144.196 53.2615 144.276 53.0917 144.326 53.6098C145.803 53.9809 148.565 51.9698 150.064 51.4205C151.209 51.0007 152.461 50.7479 153.653 50.4988C158.845 49.4143 165.293 49.292 170.436 50.6995C174.058 51.6907 182.184 54.1117 184.1 57.4736C183.615 58.2222 182.407 57.8932 181.59 57.8066C174.953 57.1032 168.413 56.7637 161.753 57.4049C158.074 57.7592 154.239 58.641 150.568 58.7291C148.528 58.778 144.905 56.861 143.159 57.6565C142.085 58.1461 137.924 57.4368 136.29 57.5446C131.722 57.8457 127.152 59.2327 122.712 60.306Z"/><path d="M180.597 140.592C180.677 140.572 180.756 140.546 180.838 140.531C183.886 139.986 191.997 141.839 194.563 143.651C195.055 143.999 195.38 144.325 195.458 144.952C195.658 146.558 195.112 148.443 195.001 150.075C194.626 155.606 195.566 160.128 191.972 164.922C188.974 168.922 183.777 170.332 179.056 170.971C176.463 171.185 168.395 172.475 166.517 171.126C165.742 170.57 166.018 169.128 166.207 168.351C166.643 166.561 167.308 164.773 167.586 162.952C168.009 160.175 166.873 157.01 166.53 154.246C166.18 151.423 167.049 148.791 168.805 146.576C171.771 142.835 175.986 141.159 180.597 140.592Z"/><path fill="#FBF5F7" d="M181.188 143.649C185.352 142.982 189.555 144.65 193.389 146.095C193.186 147.808 192.966 149.547 192.932 151.272C192.859 155.01 193.373 158.565 191.153 161.863C188.611 165.637 183.677 167.021 179.472 167.93C175.947 168.526 172.297 168.74 168.737 169.088C170.794 160.489 168.82 157.692 169.261 149.99C169.644 149.353 170.031 148.712 170.507 148.139C173.191 144.908 177.194 143.922 181.188 143.649Z"/><path d="M179.446 148.682C181.005 148.087 182.757 148.289 184.14 149.223C185.523 150.157 186.364 151.707 186.394 153.376C186.433 155.526 185.124 157.472 183.118 158.247C181.989 158.683 180.741 158.706 179.597 158.31C177.561 157.605 176.183 155.703 176.149 153.549C176.116 151.395 177.433 149.449 179.446 148.682Z"/><path d="M132.648 159.304C132.982 159.374 133.465 159.519 133.696 159.786C134.604 160.833 136.993 168.438 138.129 170.552C141.012 175.918 146.034 177.265 149.096 181.458C149.524 182.044 149.914 182.696 150.081 183.409C150.419 184.851 151.348 192.191 151.121 193.544L150.825 193.699C149.711 192.323 149.061 190.396 148.606 188.701L148.508 188.33C146.466 189.944 144.298 191.419 142.183 192.936C140.572 193.872 138.69 194.191 136.889 194.562C133.816 193.706 131.58 192.124 129.3 189.943L129.097 189.981L128.756 190.041C128.007 190.18 127.409 190.388 126.672 190.075L126.573 189.644C127.011 189.224 127.82 188.61 127.763 187.931C127.522 185.052 121.633 182.182 122.949 174.529C123.467 171.513 125.097 169.011 127.62 167.285C129.697 165.864 131.758 165.281 134.245 165.706C133.313 163.576 132.236 161.697 132.648 159.304Z"/><path fill="#E9918D" d="M132.298 167.757L132.861 167.889C135.623 170.264 137.563 174.82 139.39 178.011C137.446 180.547 134.21 183.621 131.575 185.466L130.141 186.309C130.079 186.292 130.013 186.283 129.954 186.257C128.448 185.591 126.34 181.322 125.751 179.782C124.934 177.642 125.041 175.475 125.974 173.391C127.246 170.553 129.484 168.854 132.298 167.757Z"/><path fill="#FBF5F7" d="M141.436 178.985C142.736 179.829 144.157 180.526 145.409 181.441C146.334 182.117 147.655 183.343 147.702 184.597C147.737 185.566 147.139 186.284 146.475 186.911C143.675 189.555 140.133 191.744 136.23 191.659C134.008 190.783 132.428 188.943 130.826 187.244C132.244 187.807 133.695 188.417 135.193 188.734C136.311 188.97 137.569 188.989 138.535 188.295C139.996 187.245 140.243 185.391 140.576 183.752C140.283 182.831 139.843 181.967 139.434 181.093L141.436 178.985Z"/><path d="M190.237 105.492C190.686 105.471 191.177 105.444 191.619 105.542C192.447 105.726 193.363 106.654 193.826 107.323C194.305 108.016 194.558 108.868 194.389 109.706C194.233 110.474 193.841 110.983 193.219 111.432C190.795 113.185 187.491 114.082 184.74 115.227C181.494 116.575 178.341 118.137 175.302 119.901C166.084 125.342 169.152 131.68 161.508 136.936C160.908 137.459 160.058 138.315 159.264 138.468C158.821 138.554 158.836 138.46 158.486 138.236C157.835 135.411 163.029 129.2 164.146 126.15C164.911 124.059 164.689 121.751 165.661 119.666C166.331 118.229 167.874 117.147 169.164 116.28C171.167 114.934 173.446 113.96 175.574 112.827C180.428 110.244 185.09 107.486 190.237 105.492Z"/><path d="M221.69 135.63C222.052 135.732 222.403 135.827 222.739 136.001C226.15 137.77 229.677 142.828 230.696 146.523C232.967 154.76 226.8 161.872 222.987 168.565C222.956 168.61 222.929 168.658 222.893 168.7C222.475 169.19 222.457 169.274 221.837 169.299C221.486 168.351 226.211 159.576 226.863 157.703C227.722 155.233 228.34 152.538 228.451 149.919C228.771 142.352 222.168 139.501 221.719 136.024C221.703 135.893 221.7 135.761 221.69 135.63Z"/><path d="M178.312 99.5837C178.865 99.5241 178.871 99.5803 179.348 99.7912C179.65 100.41 179.773 100.692 179.718 101.404C178.891 102.511 177.441 102.565 176.151 102.774C169.326 103.882 161.162 116.744 156.075 121.542C155.419 121.667 155.343 121.765 154.778 121.431C154.76 121.338 154.732 121.247 154.724 121.153C154.65 120.293 155.309 119.515 155.798 118.871C157.028 117.254 158.515 115.797 159.801 114.209C164.668 108.198 170.112 100.701 178.312 99.5837Z"/><path d="M182.216 133.33C182.719 133.224 183.13 133.154 183.641 133.26C185.886 133.726 188.91 135.964 190.124 137.972C190.441 138.497 190.421 138.794 190.269 139.361C188.106 140.387 186.111 136.701 184.076 136.097C180.419 135.012 175.772 138.314 172.7 140.037C170.828 141.175 166.612 144.321 164.433 143.834L164.286 143.404C164.42 143.112 164.544 142.846 164.737 142.588C167.208 139.301 178.174 133.886 182.216 133.33Z"/><path d="M119.49 148.822C120.107 148.817 120.172 148.844 120.693 149.177C121.029 149.835 121.085 149.917 121.004 150.643C119.825 152.199 116.241 151.981 114.417 152.602C109.81 154.17 106.024 156.253 102.061 159.04C101.568 159.232 101.476 159.257 100.956 159.177L100.603 158.647C100.659 158.194 100.727 157.924 100.986 157.534C103.566 153.642 114.956 149.617 119.49 148.822Z"/><path d="M138.922 139.72L139.503 139.877C139.709 140.496 139.69 140.89 139.373 141.476C137.032 145.794 128.75 148.707 124.362 150.176L123.925 150.074C123.856 149.901 123.761 149.699 123.755 149.51C123.731 148.696 124.206 148.116 124.859 147.705C126.564 146.632 129.002 146.085 130.878 145.265C133.867 143.959 136.394 141.734 138.922 139.72Z"/><path d="M169.607 91.7583C170.382 91.9208 170.658 91.9168 171.252 92.4644C171.287 92.663 171.344 92.8988 171.3 93.1002C171.008 94.4311 169.473 94.8163 168.375 95.2693C164.972 96.674 163.443 99.9074 160.619 102.056C160.14 102.237 160.083 102.237 159.582 102.126C159.394 101.565 159.392 101.275 159.656 100.726C161.28 97.3528 166.092 93.036 169.607 91.7583Z"/><path d="M178.256 191.018C179.975 190.894 182.06 191.554 183.6 192.321C185.304 193.17 186.858 194.491 187.453 196.354C188.074 198.3 187.552 200.378 186.669 202.148C186.174 202.427 186.146 202.583 185.568 202.454C185.06 200.753 186.525 198.702 185.858 196.667C184.766 193.34 179.893 193.969 178.256 191.018Z"/><path d="M150.141 168.654C150.522 168.938 150.713 169.231 150.79 169.713C150.895 170.366 150.544 170.936 150.133 171.405C148.599 173.154 146.006 174.11 143.769 174.332L143.403 174.039C143.395 172.436 146.656 171.744 147.924 170.909C148.761 170.358 149.481 169.405 150.141 168.654Z"/><path d="M182.044 203.336C182.346 203.364 182.71 203.375 183.001 203.481C183.553 203.682 183.875 203.921 184.097 204.465C183.271 205.335 180.1 205.3 178.793 205.72C177.795 206.04 176.84 206.589 175.919 207.084C175.428 207.377 175.365 207.571 174.784 207.447C174.747 206.887 174.777 206.783 175.155 206.325C176.721 204.429 179.702 203.636 182.044 203.336Z"/><path d="M206.646 140.466C206.969 140.503 207.072 140.586 207.339 140.759L207.239 141.326C205.86 142.929 203.005 143.817 201.065 144.663C200.699 144.766 200.91 144.759 200.442 144.541L200.326 143.944C201.306 141.993 204.721 141.131 206.646 140.466Z"/><path d="M110.214 140.459C110.729 140.584 110.738 140.567 111.045 140.995C111.029 141.089 111.022 141.186 110.995 141.278C110.504 142.958 107.531 144.234 106.083 144.938L105.64 144.889L105.429 144.513C105.457 144.423 105.478 144.329 105.515 144.242C106.26 142.45 108.57 141.277 110.214 140.459Z"/><path fill="#E9918D" d="M108.8 325.287C113.733 326.161 120.226 327.23 124.493 329.911C126.396 331.106 127.856 333.135 129.533 334.635C135.559 340.027 141.6 345.642 147.961 350.631C151.731 353.588 155.45 356.747 159.353 359.52C162.568 361.804 166.002 363.766 169.266 365.978C176.431 370.809 183.482 375.809 190.412 380.973C196.676 385.57 202.961 390.155 208.739 395.371C211.491 397.856 213.627 400.781 216.193 403.403C216.87 404.095 217.651 404.503 218.63 404.492C218.842 404.137 218.925 404.146 218.852 403.704C218.279 400.25 211.096 393.008 208.198 390.528C205.849 388.518 203.121 386.958 200.625 385.139C197.936 383.178 195.376 381.042 192.682 379.086C188.996 376.412 185.146 373.932 181.363 371.397C180.965 367.816 180.924 364.3 181.052 360.707C184.197 360.797 187.361 361.333 190.502 361.587C197.239 362.132 204.75 362.187 211.426 361.137C211.427 370.519 211.605 374.532 216.4 382.699C214.388 382.058 212.791 381.75 210.759 382.543C209.886 382.884 208.844 383.475 208.489 384.39C208.326 384.811 208.493 384.874 208.692 385.232C210.784 386.206 213.821 384.838 216.122 384.858L218.049 384.86C221.736 388.645 224.836 392.961 227.247 397.663C228.516 400.542 229.935 404.551 229.879 407.738C229.851 409.302 229.463 410.894 229.811 412.443C230.331 414.762 232.007 416.635 232.584 419.052C231.111 424.76 229.853 430.458 228.206 436.131C227.626 438.127 227.136 440.323 226.292 442.221C224.587 446.056 213.456 453.094 209.4 454.685C204.653 453.291 200.256 450.636 195.51 449.089C191.792 447.876 188.002 447.367 184.208 446.501C179.508 445.427 174.612 443.594 170.366 441.312C163.611 437.681 156.891 433.048 151.282 427.824C146.403 423.281 142.131 418.053 137.775 413.018C127.216 400.811 117.386 388.173 107.454 375.465C101.965 368.443 95.8793 361.862 90.6197 354.663C88.6496 351.966 86.8555 348.416 85.913 345.197C84.0323 338.773 84.4074 336.32 79.4007 331.185C79.4725 331.003 79.546 330.822 79.6213 330.642C80.092 329.522 80.4885 328.545 81.768 328.189C83.9323 327.586 91.2228 329.333 94.3619 329.275C99.4836 329.18 104.128 327.159 108.8 325.287Z"/><path d="M93.8301 333.978C94.2628 333.965 94.7066 333.952 95.1366 334.011C96.2392 334.162 97.3761 335.113 98.1751 335.856C100.499 338.018 102.601 340.528 104.765 342.853C108.776 347.162 112.912 351.496 117.29 355.434C118.313 356.354 120.074 357.564 120.801 358.71C121.184 359.315 120.974 359.848 120.841 360.484C118.654 359.525 116.524 357.68 114.746 356.106C110.154 352.04 106.397 347.144 101.962 342.932C99.5315 340.624 95.6523 338.522 93.8908 335.719C93.4756 335.058 93.6888 334.693 93.8301 333.978Z"/><path d="M227.746 414.107L228.262 414.378C228.557 414.952 228.598 415.382 228.539 416.012C228.255 419.001 225.433 423.314 223.055 425.112C221.908 425.98 220.872 426.084 219.486 425.898C219.374 425.844 219.26 425.794 219.15 425.737C218.402 425.345 218.164 425.086 217.927 424.309L218.251 423.789C219.215 423.157 220.078 423.083 221.19 422.939C223.687 420.566 226.339 417.263 227.746 414.107Z"/><path d="M95.5314 343.622C95.8126 343.626 95.9379 343.62 96.2295 343.663C97.2033 343.807 101.632 349.475 102.514 350.573C103.277 351.523 103.511 351.953 103.382 353.183C102.386 352.939 101.409 352.606 100.429 352.302C99.1455 350.755 97.7552 349.206 96.6678 347.514C95.8674 346.269 95.1933 345.122 95.5314 343.622Z"/><path d="M191.437 442.941C193.528 443.071 199.689 446.125 201.707 447.338C202.375 447.74 202.385 448.073 202.541 448.808C199.744 448.884 195.964 447.055 193.647 445.519C192.63 444.845 191.698 444.185 191.437 442.941Z"/><path fill="#ACA992" d="M241.638 153.128C241.223 152.239 240.757 151.281 240.473 150.343C240.281 149.708 240.25 149.175 240.578 148.579L241.136 148.429C243.402 149.158 245.465 151.797 247.122 153.464L247.358 154.658C247.937 157.584 249.619 158.765 251.839 160.528C250.754 160.765 249.227 160.881 248.357 161.629C247.954 161.977 247.98 162.095 247.95 162.591C248.815 164.014 250.649 164.548 251.897 165.575C252.45 166.03 252.584 166.295 252.681 166.991C252.305 167.643 251.908 168.307 251.755 169.053C251.36 170.975 252.649 172.617 253.625 174.139C253.232 175.529 252.478 176.735 252.032 178.095C251.031 181.152 253.151 183.966 254.506 186.58C254.033 186.789 253.531 186.988 253.083 187.247C252.548 187.556 252.423 187.768 252.283 188.351C252.815 189.283 253.931 189.793 254.825 190.347C253.494 190.735 251.81 191.017 251.018 192.262C251.11 193.174 251.739 193.597 252.149 194.381C252.421 194.901 252.282 195.245 252.069 195.742C251.434 195.96 250.603 196.138 250.142 196.647C249.236 197.645 250.955 198.802 251.001 199.866C250.733 200.255 250.349 200.742 250.256 201.212C249.735 203.855 252.898 207.067 254.45 208.851C253.728 209.124 252.622 209.438 252.257 210.176C251.602 211.503 252.593 213.493 253.012 214.814C252.089 214.734 251.168 214.696 250.242 214.755C249.381 214.811 248.897 214.945 248.324 215.594C248.327 216.989 249.801 217.873 250.164 219.141C250.302 219.624 250.217 219.737 249.986 220.139C249.737 220.202 249.487 220.26 249.242 220.335C248.787 220.473 248.296 220.664 248.096 221.119C247.243 223.067 249.422 226.814 250.246 228.65C248.518 227.709 246.139 226.627 244.15 227.284C243.384 227.537 242.817 228.068 242.509 228.809C241.535 231.155 242.841 234.288 243.711 236.491L242.133 237.127C240.738 238.86 242.883 240.44 242.203 242.464C241.832 242.561 241.438 242.651 241.083 242.795C240.444 243.055 240.081 243.316 239.813 243.965C238.657 246.76 241.902 252.574 243.225 255.095C242.361 254.864 241.479 254.705 240.589 254.619C239.681 254.533 239.127 254.622 238.403 255.226C237.585 256.762 238.268 258.46 238.638 260.053C237.516 259.84 236.319 259.539 235.178 259.504C234.323 259.478 233.786 259.684 233.178 260.276C233.113 260.792 233.071 261.253 232.875 261.739C231.484 262.219 229.588 260.916 228.221 261.746C227.728 262.046 227.481 262.314 227.296 262.856C226.57 264.978 228.669 268.741 229.637 270.61C228.218 270.226 226.67 269.889 225.343 269.262C223.65 268.462 221.551 266.066 219.792 265.911C219.42 265.878 219.1 266.067 218.851 266.341C217.872 267.42 217.798 269.819 217.643 271.236C215.986 269.209 214.533 268.373 212.153 267.403C211.886 267.656 211.627 267.917 211.377 268.186C208.187 271.657 206.531 276.705 206.793 281.342C204.952 278.69 203.078 273.54 200.74 271.648C200.049 271.089 199.21 271.342 198.374 271.361C197.973 271.063 197.577 270.796 197.145 270.544C195.03 271.086 195.504 273.457 193.649 274.363C192.815 274.246 192.404 273.914 191.753 273.398C191.809 272.908 191.729 273.148 192.062 272.667C192.538 271.979 193.015 271.274 193.376 270.517C193.986 269.241 194.119 267.944 193.566 266.629C192.159 263.287 189.036 264.164 186.531 262.668C185.093 261.808 185.988 260.772 182.742 259.504C182.466 258.653 182.249 257.788 181.996 256.93C181.742 256.071 181.573 255.529 180.734 255.072C179.821 254.955 179.075 255.546 178.322 255.994C177.92 254.908 177.559 253.361 176.805 252.487C176.174 251.754 175.529 251.548 174.601 251.476C173.831 251.416 172.803 246.177 171.291 245.277C170.338 244.71 169.702 246.541 168.797 246.752C167.078 245.29 168.475 242.46 167.212 240.885C166.974 240.588 166.682 240.649 166.333 240.602C165.22 240.94 164.483 241.796 163.655 242.576C163.555 241.058 163.762 238.383 162.436 237.411C161.783 236.934 160.728 237.14 159.969 237.197C159.769 235.216 160.15 233.198 159.934 231.284C159.872 230.73 159.815 230.636 159.416 230.292C158.578 230.612 158.137 231.732 157.496 232.362C158.076 227.467 158.935 222.635 159.504 217.735C159.832 220.047 159.817 222.634 160.478 224.865C161.015 226.68 164.031 230.893 165.621 231.816L166.027 231.694C167.514 230.145 165.975 228.25 166.844 226.529C167.233 226.395 167.582 226.295 167.99 226.227C168.114 226.206 168.238 226.19 168.362 226.171C169.434 224.651 169.394 222.254 170.58 220.882C171.005 220.391 185.76 211.41 187.223 210.673C189.006 209.776 190.968 209.295 192.811 208.545C194.92 207.687 196.92 206.383 199.103 205.74C200.904 205.211 203.044 205.263 204.92 205.163C205.346 205.464 205.753 205.711 206.221 205.941C207.195 205.792 207.951 205.957 208.916 206.069C210.067 206.203 210.224 206.236 211.128 205.504C211.971 204.822 213.332 206.458 214.441 206.332C214.864 205.807 214.833 205.75 215.49 205.651C216.287 205.997 216.669 206.568 217.194 207.24L217.983 206.505C218.963 206.551 222.383 207.229 223.245 207.582C223.514 207.674 223.822 207.665 224.106 207.656C226.499 207.585 229.774 209.019 232.143 209.706L234.281 205.831C232.767 204.957 229.903 203.751 229.403 201.932C229.031 200.58 229.97 199.375 230.599 198.241C231.411 197.92 232.286 197.69 233.118 197.422C233.478 194.063 233.559 191.373 232.951 188.016C233.571 188.025 234.339 188.099 234.945 187.998C235.616 187.887 235.732 187.668 236.103 187.164C236.227 185.974 235.593 184.628 235.227 183.501C236.27 183.41 237.578 183.411 238.551 183.02C239.211 182.754 239.53 182.381 239.793 181.743C238.98 179.41 233.108 174.392 230.993 172.515C234.124 173.224 237.28 173.871 240.419 174.545C241.25 174.723 241.697 174.736 242.418 174.28C243.036 172.894 241.588 170.635 241.134 169.264C241.891 167.421 244.133 168.122 245.2 166.413C245.394 163.446 241.478 160.802 239.928 158.466C239.874 158.384 239.823 158.301 239.77 158.219C240.316 156.479 240.928 154.808 241.638 153.128Z"/><path d="M214.441 206.332C214.864 205.807 214.833 205.75 215.49 205.651C216.287 205.997 216.669 206.568 217.194 207.24L217.983 206.505C218.963 206.551 222.383 207.229 223.245 207.582C223.077 208.115 222.911 208.394 222.538 208.81C224.962 210.635 227.841 211.411 229.2 214.475C230.4 217.185 229.323 219.822 228.342 222.384C225.807 224.406 224.796 227.466 223.462 230.319C222.889 231.543 222.122 233.554 220.814 234.027C220.173 233.844 219.564 233.578 218.903 233.789C218.776 234.812 219.192 235.732 218.756 236.67C217.879 236.975 217.338 236.393 216.435 236.482C215.952 237.515 215.458 238.467 214.827 239.421L214.653 239.68C212.751 237.988 210.297 236.79 208.194 235.354C205.565 233.56 203.643 231.176 201.648 228.741C201.259 229.126 200.858 229.493 200.462 229.871C199.702 230.597 199.668 231.026 199.669 232.05C199.67 232.523 199.694 232.965 199.581 233.428C199.475 233.862 199.575 233.698 199.164 233.942C198.437 233.721 197.843 232.942 197.318 232.402C195.709 232.481 193.591 233.829 191.905 234.271C193.219 235.267 194.297 236.408 195.416 237.613C195.078 238.683 194.628 239.737 194.23 240.787C195.266 242.801 196.488 244.528 197.975 246.232C196.717 247.236 195.741 247.991 195.04 249.477C194.261 249.476 192.839 249.322 192.143 249.672C191.52 249.985 191.217 250.32 191 250.981C190.805 251.576 190.958 251.295 190.678 251.807C190.457 252.211 190.161 252.177 189.743 252.311C188.153 251.947 188.942 250.515 188.198 249.398C187.438 249.377 186.523 250.251 185.865 250.696C182.589 251.065 184.044 249.902 182.235 248.599C181.198 248.851 180.534 249.043 179.517 248.608C178.39 247.292 178.461 245.926 178.467 244.292C177.645 244.713 176.508 245.513 175.576 245.352C175.427 245.126 175.267 244.907 175.13 244.673C174.635 243.827 174.088 243.405 173.303 242.804C171.667 241.554 170.39 239.793 169.349 238.021C168.871 237.206 168.631 236.632 168.869 235.703L169.54 235.333C169.999 234.562 169.61 233.587 169.412 232.748C170.118 230.51 172.92 232.565 173.85 231.367C174.119 231.02 174.064 230.148 174.273 229.735C174.626 229.036 176.796 228.357 177.503 227.874C178.601 227.124 179.595 226.045 180.586 225.148C183.154 222.822 185.938 220.548 189.08 219.036C191.246 217.993 195.775 216.568 197.443 215.192L197.542 213.995L197.882 213.756L198.503 214.1C200.33 214.216 202.252 211.493 203.955 210.807C204.485 210.954 204.804 211.078 205.333 210.889C208.401 209.793 211.914 209.919 214.571 207.909C214.629 207.864 214.686 207.818 214.744 207.773L214.262 207.653C214.298 207.205 214.369 206.775 214.441 206.332Z"/><path fill="#B2AEAC" d="M214.441 206.332C214.864 205.807 214.833 205.75 215.49 205.651C216.287 205.997 216.669 206.568 217.194 207.24L217.983 206.505C218.963 206.551 222.383 207.229 223.245 207.582C223.077 208.115 222.911 208.394 222.538 208.81C221.212 208.373 219.411 207.984 218.032 208.292L217.042 209.191L216.971 209.291C215.993 209.527 215.871 208.023 214.744 207.773L214.262 207.653C214.298 207.205 214.369 206.775 214.441 206.332Z"/><path fill="#E9918D" d="M212.58 211.344C213.125 211.495 213.348 211.833 213.693 212.25L213.842 212.434C215.294 213.135 217.133 211.66 218.606 211.59C219.027 211.571 219.345 212.03 219.644 212.304C220.437 212.391 220.579 212.184 221.243 211.779C222.941 211.788 224.775 212.782 225.959 213.956C226.927 214.915 227.653 216.228 227.622 217.621C227.565 220.18 225.507 219.44 224.557 221.055C223.842 222.274 223.818 224.207 222.86 225.196C222.273 225.337 221.667 225.435 221.162 225.784C220.796 226.036 220.841 226.832 220.809 227.26C220.729 228.363 220.531 228.923 219.975 229.9C217.312 231.436 214.533 234.25 211.19 233.783C208.102 233.351 205.531 229.309 203.847 227.004C205.262 225.715 206.665 224.377 207.924 222.935C207.902 221.71 207.696 220.48 207.545 219.265C203.167 222.975 199.187 227.658 194.073 230.367C191.885 231.526 183.558 233.928 183.08 234.363C183.303 235.014 183.52 235.767 184.073 236.22C185.453 237.35 186.901 236.066 188.363 235.834C189.205 235.701 189.572 235.939 190.208 236.439C190.902 236.984 191.807 237.274 192.423 237.843C193.242 238.601 191.991 240.642 192.051 241.635C192.079 242.089 192.508 242.917 192.684 243.352C191.8 244.108 191.127 245.059 190.252 245.801C189.629 246.329 189.018 246.533 188.191 246.443C184.9 246.085 174.523 238.769 172.267 235.996C173.296 234.965 174.515 234.096 175.586 233.097C177.859 230.976 180.062 228.71 182.506 226.786C184.583 225.15 187.41 222.993 189.86 221.961C191.021 221.472 192.375 221.49 193.469 220.84C195.198 219.813 202.108 214.717 203.599 214.901C204.051 215.338 204.351 215.692 205.005 215.788L205.268 215.546C205.193 215.006 205.151 214.595 205.254 214.057C207.357 212.851 209.588 214.068 211.494 213.195C212.26 212.844 212.318 212.078 212.58 211.344Z"/><path d="M235.301 213.839C235.442 213.903 235.587 213.958 235.723 214.032C237.75 215.124 240.199 221.133 240.654 223.393C240.796 224.098 240.51 224.448 240.163 225.038C240.023 224.986 239.881 224.939 239.742 224.883C239.248 224.681 238.936 224.4 238.631 223.967C237.916 222.952 234.727 216.737 234.532 215.663C234.392 214.885 234.894 214.434 235.301 213.839Z"/><path d="M232.191 236.583C233.559 237.286 234.961 240.044 235.585 241.462C236.284 243.048 236.555 243.645 235.916 245.309L235.244 245.213C234.166 244.486 233.181 242.445 232.674 241.243C231.951 239.531 231.441 238.34 232.191 236.583Z"/><path d="M235.704 226.293L236.502 226.434C237.589 227.175 238.382 229.334 238.923 230.513C239.535 231.845 239.796 232.249 239.281 233.648C239.159 233.648 239.037 233.66 238.916 233.647C237.994 233.542 237.335 232.524 236.858 231.794C235.704 230.029 235.294 228.359 235.704 226.293Z"/><path fill="#E9918D" d="M91.6839 288.105C93.5433 287.907 96.08 288.038 97.6468 289.156C99.9188 290.776 101.287 293.925 103.064 296.066C105.969 299.566 116.156 308.606 119.937 310.723C125.24 313.694 128.439 311.538 133.562 312.515C137.008 313.172 139.597 315.984 142.944 316.957C146.552 318.006 150.518 317.29 154.171 318.612C155.518 319.099 156.998 319.898 157.55 321.308C157.967 322.375 157.803 323.63 157.336 324.652C156.369 326.768 153.999 327.914 151.882 328.588C147.049 330.126 140.535 329.233 136.072 326.993C127.327 330.606 119.237 323.692 110.675 323.273C106.75 323.08 101.371 326.258 97.1029 326.728C94.3387 327.032 91.3262 326.67 88.601 326.197C86.6166 325.852 83.789 324.946 81.8082 325.252C79.8041 325.561 77.4319 326.897 75.5583 327.705L75.2572 327.578C74.2884 325.474 74.7143 322.078 74.7347 319.767C77.6838 318.845 80.5859 317.744 83.5623 316.913C86.4296 316.113 89.3903 315.563 92.2968 314.914C93.6651 314.609 97.0033 314.109 97.777 312.892L97.4962 312.475C96.5841 312.083 95.7433 312.435 94.8311 312.677C88.02 313.683 81.4558 315.91 74.596 316.794C74.2892 312.709 73.6703 307.927 72.3607 304.037C75.9462 304.29 83.1273 304.98 86.3392 304.436C89.6275 303.878 94.0406 301.331 95.8521 298.436C96.1689 297.93 96.1001 297.635 95.9418 297.095C95.0068 296.837 90.0056 301.39 88.1405 302.041C86.9693 302.45 85.4885 302.367 84.2671 302.291C76.4532 301.8 71.2974 302.077 63.541 303.1C64.2076 301.567 64.1204 299.862 64.1018 298.227C61.3972 301.273 59.6982 305.771 56.0491 307.882C51.6133 310.448 39.1899 314.219 34.2974 312.74C33.3112 312.443 32.4942 311.988 32.041 311.026C31.8775 310.679 31.712 309.94 31.9545 309.619C32.2734 309.196 33.7293 308.646 34.2355 308.274C35.7696 307.147 36.5769 303.591 37.3 301.795C41.6299 299.86 46.3565 299.095 50.5195 296.712C53.4954 295.008 55.593 291.87 58.978 290.821C61.8307 289.938 64.8447 290.92 67.749 290.728C71.5961 290.474 75.5052 289.821 79.3417 289.356C83.4524 288.857 87.5659 288.522 91.6839 288.105Z"/><path d="M98.9317 302.479L99.3918 302.707L99.5148 303.253C99.2542 303.755 98.9472 304.036 98.5095 304.382C96.516 305.954 94.0659 307.096 91.5023 306.769C91.2292 306.699 91.0506 306.55 90.8191 306.395L90.8812 305.839C92.2618 304.534 94.8467 304.798 96.5678 304.049C97.3975 303.687 98.2017 303.013 98.9317 302.479Z"/><path d="M138.368 320.159C138.608 320.337 138.736 320.381 138.868 320.634C139.313 321.485 139.337 323.226 138.971 324.124C138.631 324.959 138.339 324.931 137.564 325.235C137.478 325.12 137.384 325.011 137.306 324.891C136.826 324.151 136.609 323.076 136.788 322.21C137.003 321.164 137.48 320.7 138.368 320.159Z"/><path fill="#E9918D" d="M254.296 179.609C255.219 179.789 256.133 180.518 256.879 181.075C263.909 186.322 267.789 192.727 269.037 201.369C271.072 215.471 269.126 237.307 260.31 248.928C257.237 252.979 251.907 254.943 247.004 255.617C244.79 252.805 243.495 250.797 243.099 247.182C243.808 248.07 244.343 248.657 245.419 249.068C245.756 248.964 245.888 249.012 246.068 248.668C247.03 246.826 245.354 243.114 244.889 241.171C245.439 240.445 246.373 240.917 247.181 240.354C247.667 238.909 245.266 233.32 244.714 231.438C244.605 230.874 244.564 230.452 244.633 229.881C245.78 228.903 248.794 230.826 250.53 230.789C251.508 230.769 252.503 230.518 253.148 229.738C254.292 228.354 250.811 224.704 250.57 222.873L250.819 222.583L251.773 222.526C252.233 222.502 252.73 222.514 253.182 222.419C253.867 222.276 254.097 222.012 254.489 221.467C254.597 219.764 252.953 218.266 251.942 217.037C253.368 217.349 255.229 218.099 256.487 217.312L256.854 217.446C257.886 219.687 258.639 232.741 258.805 235.921C258.892 237.584 258.726 239.439 259.139 241.041L259.485 241.235C260.095 240.778 260.265 239.485 260.463 238.751C260.907 237.109 260.627 235.487 260.609 233.813C260.592 232.205 260.745 230.606 260.68 228.994C260.433 222.855 259.476 216.72 258.242 210.709C257.908 209.082 256.393 206.168 256.702 204.646C257.219 204.247 257.519 204.045 257.774 203.422C257.349 201.74 255.082 200.661 254.381 198.94C254.198 198.492 254.234 198.7 254.446 198.168L255.741 197.752C256.69 196.098 254.255 194.606 254.343 192.885C255.592 191.241 258.249 193.084 259.717 191.982C259.461 190.167 256.747 190.042 256.622 188.898C256.517 187.948 257.064 186.763 256.999 185.733C256.887 183.952 255.052 181.701 254.405 179.92C254.368 179.817 254.333 179.713 254.296 179.609Z"/><path fill="#85826C" d="M273.629 196.07C274.868 195.991 276.123 196.035 277.365 196.039C277.401 196.114 277.438 196.189 277.472 196.265C278.522 198.58 278.781 201.439 279.23 203.935C280.953 213.5 282.521 223.758 279.095 233.163C274.425 245.983 271.066 253.653 261.525 263.689C259.491 265.828 257.325 268.256 254.599 269.493C248.836 272.107 240.314 271.308 234.553 269.149C231.651 267.913 230.479 266.492 229.289 263.621C230.672 263.932 231.901 264.442 233.218 264.931C234.089 265.255 234.542 265.311 235.392 264.94C235.734 264.493 235.769 264.194 235.816 263.653C235.86 263.147 235.912 262.714 236.058 262.224C237.813 261.936 239.453 263.028 241.169 263.002C241.764 262.993 241.842 262.87 242.237 262.475C242.4 260.945 241.555 259.839 240.822 258.576C243.654 258.589 246.573 258.269 249.347 257.709C255.281 256.511 261.438 253.133 264.814 247.98C266.811 244.931 268.43 240.696 269.369 237.184C271.242 230.176 272.635 216.299 272.484 209.019C272.397 204.852 271.902 200.824 271.03 196.756L273.629 196.07Z"/><path fill="#E9918D" d="M242.536 93.0122C243.62 93.1169 244.585 93.3408 245.513 93.9407C248.952 96.1623 250.055 100.456 250.955 104.18C249.923 103.303 248.753 102.513 247.511 101.964C245.896 101.251 244.097 100.914 242.418 101.623C239.976 102.656 238.371 105.525 237.489 107.918C235.886 112.27 235.21 123.107 237.297 127.163C237.641 127.831 237.971 128.206 238.695 128.405L239.069 128.016C239.866 125.169 238.999 117.066 238.923 113.603C241.115 114.112 243.11 115.608 244.805 115.887L245.192 115.556C245.297 114.939 245.396 114.491 245.044 113.926C243.957 112.177 241.502 111.426 239.605 111.004C240.118 108.93 240.72 106.903 242.129 105.235C242.866 104.362 243.827 103.651 245.006 103.592C246.013 103.541 246.854 103.953 247.585 104.611C248.055 105.034 248.466 105.36 249.004 105.693C249.759 105.772 250.123 105.498 250.735 105.117C250.816 105.067 250.895 105.015 250.975 104.964C252.429 108.311 250.548 114.898 250.78 118.72L250.803 119.062C250.748 124.102 250.569 131.448 253.039 135.962C255.199 139.91 257.895 142.584 258.937 147.151C258.904 147.206 258.873 147.262 258.84 147.317C256.726 150.79 254.571 151.775 250.737 152.677C245.243 149.819 237.584 141.332 235.048 135.848C232.395 130.11 231.875 117.947 233.174 111.904C233.774 109.115 235.308 106.762 236.25 104.107C236.971 102.074 237.243 99.8966 238.032 97.882C238.912 95.6327 240.286 93.9503 242.536 93.0122Z"/><path d="M239.149 130.759C240.755 130.64 242.881 130.575 244.221 131.617C245.63 132.711 245.407 134.617 245.585 136.207C246.277 136.98 249.668 136.369 250.933 136.765C251.472 136.934 251.505 137.039 251.752 137.509C251.662 137.731 251.611 137.878 251.504 138.08C251.098 138.844 250.501 139.128 249.715 139.39C247.035 139.473 244.345 139.466 241.664 139.499C242.303 138.234 242.912 136.802 242.836 135.351C242.653 131.844 238.954 133.892 237.438 132.531L237.453 131.913C237.806 131.243 238.492 131.053 239.149 130.759Z"/><path fill="#E9918D" d="M69.7689 304.643L70.0803 304.774C71.2773 307.945 72.4523 320.789 71.9863 324.257C71.7924 325.7 71.1166 327.215 70.7253 328.629C70.3876 329.849 70.3691 331.021 71.0182 332.13C71.4284 332.325 71.3489 332.391 71.7154 332.281C72.7528 331.971 73.267 330.965 73.7803 330.099C77.7509 332.751 80.1886 335.654 81.6584 340.226C77.3896 341.118 76.7896 342.657 73.7498 344.987L73.3538 344.71C69.0508 340.386 62.7435 339.499 58.3016 335.225C57.7082 324.909 61.126 319.608 58.1217 308.518C62.2933 304.984 64.5568 305.033 69.7689 304.643Z"/><path d="M64.7636 331.173C64.9628 331.285 64.881 331.212 65.0303 331.437C65.3333 331.894 65.5097 332.192 66.0019 332.478C67.1191 332.495 67.6974 332.468 68.6048 333.184L68.6104 333.597C67.5536 334.464 66.1109 334.533 64.8039 334.552C64.2488 334.791 62.9624 334.867 62.3739 334.717C61.6379 334.53 61.2532 333.93 60.9903 333.279C61.0864 332.63 61.1274 332.41 61.6157 331.923C62.0035 331.537 62.3987 331.544 62.9053 331.525C63.5116 331.502 63.9849 331.421 64.5632 331.239C64.6303 331.218 64.6968 331.195 64.7636 331.173Z"/><path fill="#E9918D" d="M55.1704 310.823L55.6259 310.866C56.204 312.926 56.7274 314.85 56.7902 317.005C56.931 321.833 54.305 331.125 55.5252 335.059C57.2033 340.47 68.8283 341.993 70.2304 345.001C70.4034 345.372 70.3349 345.648 70.1869 346.023C69.6747 347.322 67.2523 348.171 66.0669 348.708C65.3418 348.432 64.6387 348.099 63.9314 347.78C61.1206 346.289 58.4794 344.453 55.6902 342.911C53.5851 341.748 51.3066 340.87 49.2532 339.619C48.3991 339.099 47.6792 338.551 47.0305 337.784C46.731 336.625 46.5556 335.491 46.4723 334.298C46.2574 331.217 46.4909 328.103 46.3469 325.015C46.2146 322.181 45.7487 319.337 45.6965 316.507C45.683 315.775 45.651 315.017 45.9172 314.325C48.4443 312.636 52.283 311.801 55.1704 310.823Z"/><path d="M52.439 335.798C52.9355 335.681 53.156 335.714 53.637 335.879L53.7478 336.302C53.6367 336.543 53.5993 336.654 53.4218 336.88C52.8222 337.642 51.9559 337.736 51.0597 337.923C50.3825 337.799 50.0743 337.742 49.5413 337.268L49.6084 336.821C50.4781 336.149 51.3906 336.021 52.439 335.798Z"/><path fill="#E9918D" d="M39.1597 315.362C39.7298 315.227 40.7042 315.14 41.2549 315.342C45.2387 316.802 42.9766 333.531 44.26 337.548C45.5899 341.71 48.3926 341.342 51.6977 343.099C52.3955 343.47 53.0954 343.849 53.3418 344.644L53.0062 345.093C51.3254 345.672 49.7756 345.388 48.0606 345.156C45.4235 344.403 42.6921 344.459 40.036 343.513C39.2055 342.42 38.5244 341.302 37.9356 340.063C36.0116 336.012 32.9278 322.637 33.0749 318.158C33.1026 317.312 33.4675 316.42 33.7507 315.629C35.5555 315.581 37.3589 315.492 39.1597 315.362Z"/><path fill="#85826C" d="M260.252 149.701C262.681 151.238 265.538 154.295 267.466 156.467C266.038 155.834 262.053 153.75 260.529 154.319C259.941 156.897 266.261 160.033 267.249 162.207C266.562 162.671 265.307 162.167 264.89 162.838C264.518 163.438 264.917 163.916 264.265 164.513C263.73 164.259 263.187 163.981 262.631 163.775C262.021 163.549 261.727 163.491 261.147 163.776C260.9 164.795 261.325 166.044 261.538 167.058C261.63 167.591 261.698 167.899 261.494 168.409C260.373 168.629 259.151 167.973 258.07 167.596C256.562 165.698 254.962 164.643 252.87 163.445C254.341 163.13 255.901 162.864 257.209 162.096C258.169 159.95 250.657 157.725 249.982 155.139C250.377 154.259 251.683 154.416 252.574 154.279C255.618 153.809 258.011 151.638 260.252 149.701Z"/><path fill="#85826C" d="M251.352 95.3808C256.493 98.6773 260.351 105.902 261.66 111.748C261.863 112.657 262.134 113.905 261.751 114.752C260.2 114.732 255.943 111.205 254.376 110.225C253.84 105.478 253.084 100.193 250.562 96.0546L251.352 95.3808Z"/><path fill="#85826C" d="M274.055 187.811C274.077 187.819 274.101 187.823 274.121 187.835C275.629 188.713 275.999 191.774 276.466 193.431C274.436 193.826 272.147 194.107 270.324 195.121C269.394 193.228 268.722 191.096 267.949 189.126C269.911 188.539 272.048 188.262 274.055 187.811Z"/><path fill="#F7D0C8" d="M80.3039 342.472C81.8013 343.239 83.6696 347.26 84.6032 348.807L83.7516 349.76C83.4164 350.139 83.1638 350.515 82.6583 350.681C82.2567 350.812 81.9426 350.493 81.5955 350.307C79.69 348.887 77.8828 347.489 76.1502 345.854C77.3841 344.364 78.6373 343.407 80.3039 342.472Z"/><path fill="#85826C" d="M89.0021 126.269C89.4486 126.172 89.2034 126.164 89.7256 126.404C90.675 128.697 90.6357 131.508 90.7858 133.962C89.3969 133.203 88.0566 132.358 86.7066 131.532C85.033 130.554 83.4147 129.477 81.7851 128.427C84.2143 127.789 86.6213 127.069 89.0021 126.269Z"/><path fill="#85826C" d="M270.022 182.373C270.373 182.254 270.522 182.237 270.903 182.295C271.622 182.405 272.45 183.366 272.841 183.957C273.265 184.599 273.305 185.062 273.126 185.79C272.196 186.472 270.334 186.337 269.188 186.623C268.134 186.885 267.925 187.394 267.41 188.268C266.097 187.439 264.793 184.875 263.877 183.546C266.007 182.729 267.749 182.456 270.022 182.373Z"/><path fill="#ACA992" d="M465.189 312.775L465.363 312.906C465.443 313.741 464.549 314.949 464.068 315.654C463.167 316.975 460.924 320.305 459.304 320.615L458.818 320.142C458.15 319.067 457.682 317.943 457.196 316.779C459.739 315.134 462.409 313.945 465.189 312.775Z"/><path fill="#F7D0C8" d="M33.7961 303.418L33.9399 303.429L34.1923 303.742C34.0405 304.126 33.8905 304.461 33.6467 304.798C31.8297 307.314 28.1032 307.809 25.2588 308.324C24.9506 308.177 24.8675 308.02 24.6662 307.753L24.8526 307.134C27.2088 304.607 30.4488 303.654 33.7961 303.418Z"/><path fill="#8B807B" d="M256.558 177.573C256.684 177.56 256.808 177.544 256.934 177.534C258.933 177.379 264.682 179.037 266.145 180.358C265.719 180.891 265.249 180.851 264.603 180.998C263.622 181.189 263.021 181.995 262.377 182.691C260.936 181.273 257.32 179.143 256.558 177.573Z"/><path fill="#E9918D" d="M276.247 433.02C277.105 433.027 278.056 432.9 278.782 433.437C279.482 433.954 280.004 434.826 280.122 435.684C280.237 436.532 279.815 437.902 279.251 438.519C277.915 437.342 275.912 436.204 275.411 434.411C275.584 433.642 275.676 433.575 276.247 433.02Z"/><path fill="#8B807B" d="M253.76 117.692C254.486 118.524 256.474 125.261 256.906 126.728L253.571 126.734C253.489 123.926 253.09 120.394 253.76 117.692Z"/><path fill="#B88982" d="M254.958 211.374L255.566 211.564C256.633 212.603 256.63 213.972 256.781 215.36C256.651 215.273 256.514 215.197 256.393 215.099C255.244 214.171 254.934 212.761 254.958 211.374Z"/><path fill="#B88982" d="M228.428 204.502C229.468 205.633 230.56 206.739 231.48 207.971C230.145 207.345 228.661 206.775 227.697 205.612L228.428 204.502Z"/><path fill="#FBF5F7" fill-opacity="0.98431373" d="M72.6636 347.382L73.1632 347.594L73.2332 348.099C72.7214 348.977 71.9452 349.512 71.1619 350.135L70.6616 349.619L70.8429 349.136C71.5205 348.664 72.0203 348.227 72.5244 347.568C72.5715 347.506 72.6172 347.444 72.6636 347.382Z"/><path fill="#8B807B" fill-opacity="0.98823529" d="M248.447 92.965C249.49 93.6836 250.409 94.5394 251.352 95.3808L250.562 96.0546C249.776 95.0794 249.123 94.018 248.447 92.965Z"/><path d="M241.394 32.4918L242.089 32.2553C242.26 31.9948 242.402 31.7518 242.63 31.5361C242.927 31.777 243.205 31.9834 243.537 32.1771C243.634 32.2337 243.733 32.2869 243.831 32.3418C246.228 36.5987 247.094 41.866 247.258 46.7028C247.288 47.5756 246.579 51.6598 247.347 51.853C249.659 52.4341 254.447 50.2182 256.077 52.5581C256.856 53.6757 256.469 55.3633 256.121 56.5569C255.381 59.0878 254.395 60.8932 252.965 63.0851C256.105 64.6925 259.421 67.8246 260.508 71.327C260.695 71.9305 260.767 72.5824 260.844 73.2078C261.866 74.2359 263.509 75.4694 263.529 77.0248C263.103 77.441 262.836 77.6207 262.207 77.5525C261.494 77.4751 260.761 77.2371 260.061 77.0785C258.584 75.8174 256.889 74.8121 255.189 73.884C256.579 75.3245 258.13 77.0329 259.905 77.9951C259.967 78.0634 260.028 78.1327 260.091 78.1998C261.365 79.5572 263.182 79.6769 263.716 81.6189C263.544 82.1854 263.544 82.1517 263.024 82.4438C262.115 82.136 260.882 81.3645 259.95 81.5689C259.764 81.8025 259.605 81.8924 259.616 82.2154C259.647 83.142 260.34 83.9864 260.404 85.0677C260.294 85.5533 260.395 85.3389 260.114 85.7176L259.87 84.7822L259.593 84.7314C259.032 86.4692 260.091 87.8344 259.068 89.5378C258.882 87.9572 258.522 85.999 258.028 84.4925C257.397 82.5696 256.098 82.7756 254.627 81.8725C254.039 81.5116 253.719 81.2136 253.549 80.5635C253.587 80.5036 253.616 80.4377 253.662 80.3836C254.346 79.5674 255.852 79.4777 256.838 79.3466C255.305 77.1902 251.972 75.3438 251.25 72.8347C251.729 70.5491 256.508 72.9792 258.029 71.9352L258.133 71.3621C257.789 70.2185 257.116 69.2667 256.421 68.3075C253.093 63.7142 250.443 66.0177 248.869 64.3019C249.088 63.5525 249.642 63.0175 250.124 62.4223C252.394 59.62 253.579 57.6869 253.796 54.0049C250.674 53.8771 246.6 55.2133 243.671 53.9661C242.859 52.2103 244.676 50.0569 244.846 48.182C245.171 44.1607 244.787 40.1136 243.714 36.2247C241.806 40.3322 238.966 45.0559 234.756 47.1619C234.96 46.8392 235.162 46.5504 235.426 46.2725C235.904 45.7686 236.204 45.4765 236.414 44.7851L235.955 44.2849C236.395 43.6318 237.305 42.9095 237.852 42.3052C241.123 38.6945 241.279 37.2798 241.394 32.4918Z"/><defs><linearGradient id="gradient_0" gradientUnits="userSpaceOnUse" x1="232.59441" y1="25.052515" x2="215.64055" y2="44.494583"><stop offset="0" stop-color="#010001" stop-opacity="0.96470588"/><stop offset="1" stop-color="black"/></linearGradient></defs><path fill="url(#gradient_0)" d="M211.674 19.9074C212.271 20.4938 212.37 20.5615 212.373 21.3832C212.377 22.4577 212.505 23.3471 212.745 24.3952C213.075 25.8406 213.927 30.3014 215.184 31.0982C215.825 30.3916 216.638 29.6132 217.099 28.779C217.543 27.975 217.683 26.8022 217.906 25.9019C218.798 22.3025 219.75 18.0892 222.188 15.1953C222.245 15.1279 222.305 15.0633 222.363 14.9973C222.609 15.7341 222.784 16.2501 223.342 16.8241C221.908 19.0115 220.479 22.2035 220.49 24.8597C220.935 25.3172 221.14 25.2643 221.78 25.3666C221.619 26.6859 221.22 27.9416 221.112 29.2789C220.683 34.5727 221.735 40.884 225.059 45.1784C225.888 46.2504 226.92 47.1744 228.317 47.3182C230.673 47.5606 234.146 45.7652 235.955 44.2849L236.414 44.7851C236.204 45.4765 235.904 45.7686 235.426 46.2725C235.162 46.5504 234.96 46.8392 234.756 47.1619C233.056 48.4621 229.761 49.2389 227.663 49.4852C226.582 49.6121 225.338 49.6344 224.485 48.8545C223.799 48.2276 223.251 46.8805 222.757 46.0771C219.712 41.1236 218.576 39.0738 218.418 33.0472C217.706 34.932 215.872 43.3963 214.961 44.0563C214.622 44.0311 214.326 44.0042 214.041 43.7918C212.207 42.4285 211.192 31.0869 210.981 28.3654C211.361 25.6367 210.871 22.529 211.674 19.9074Z"/><path d="M74.8706 106.23C71.8287 104.633 68.2655 100.964 67.1022 97.6892C66.4502 95.8539 66.6096 93.8996 67.4676 92.1577C68.3279 90.4109 69.8583 89.1757 71.7263 88.6458C75.7049 87.5173 81.4875 88.6595 85.0025 90.7069L84.8442 91.2435L83.773 91.7165C80.6151 90.0598 77.0432 89.1259 73.511 90.1614C72.2709 90.525 70.1843 91.2748 69.5465 92.4266C68.5474 94.2311 69.4336 97.3299 70.1694 99.1328C71.083 101.371 72.5634 103.641 74.8762 104.602C76.102 105.124 77.4902 105.108 78.7043 104.56C81.8854 103.116 84.0812 98.1591 85.1519 95.0237C85.3752 94.3698 85.4362 93.6874 85.6488 93.0409C85.7226 93.0479 85.7961 93.0579 85.87 93.0617C86.1705 93.0773 86.3757 93.0252 86.6601 92.9438L86.9695 93.2307C86.9443 93.4404 86.9158 93.7456 86.8647 93.9628C85.7392 98.7455 82.0812 103.699 77.9221 106.24C76.9069 106.28 75.8866 106.243 74.8706 106.23Z"/><path d="M77.0432 68.192C77.1461 67.4284 77.2466 66.6555 77.4158 65.9029C78.1507 62.6351 80.6378 60.1748 83.4075 58.4847C86.1746 56.7963 89.708 55.7408 92.9182 56.6287C95.0604 57.2212 96.1537 58.2354 97.2441 60.0718C97.085 61.6725 97.2417 63.3093 97.1334 64.9251C96.7794 70.2052 96.2015 72.8278 97.5789 78.142L97.2289 78.8013C96.7228 78.8466 96.9614 78.8891 96.5112 78.6843L96.34 78.9362C94.3316 72.9527 95.9927 66.04 95.4431 59.8069C93.28 58.5745 90.9949 58.1612 88.5279 58.3993C85.3178 58.7092 81.4915 60.6538 79.8073 63.4859C78.9085 64.9973 78.3709 66.5905 77.2352 67.968C77.1726 68.0439 77.1072 68.1174 77.0432 68.192Z"/><path d="M72.3117 120.481C73.7196 116.262 74.2922 114.582 78.1837 112.058C78.4106 112.653 78.696 113.232 78.6752 113.881C76.4288 116.252 74.8978 118.322 73.4383 121.252C73.8871 122.324 74.5123 123.491 74.375 124.68L74.0025 124.524C73.0721 123.351 72.7411 121.89 72.3117 120.481Z"/><defs><linearGradient id="gradient_1" gradientUnits="userSpaceOnUse" x1="87.769051" y1="92.153542" x2="87.123894" y2="93.28405"><stop offset="0" stop-color="black" stop-opacity="0.96470588"/><stop offset="1" stop-color="black"/></linearGradient></defs><path fill="url(#gradient_1)" d="M85.0025 90.7069C85.2996 89.9352 85.4054 89.3363 86.0434 88.7964C87.4952 89.5174 88.1462 92.4407 91.0014 93.3402C91.8843 93.6184 92.8308 93.566 93.7283 93.7444C92.6726 93.8012 91.4516 93.6083 90.5334 94.1734L90.2067 94.7039C89.112 94.248 88.0323 93.7567 86.9695 93.2307L86.6601 92.9438C86.3757 93.0252 86.1705 93.0773 85.87 93.0617C85.7961 93.0579 85.7226 93.0479 85.6488 93.0409C85.1107 92.5073 84.4114 92.1258 83.773 91.7165L84.8442 91.2435L85.0025 90.7069Z"/><defs><linearGradient id="gradient_2" gradientUnits="userSpaceOnUse" x1="416.65781" y1="468.76556" x2="414.84219" y2="469.23444"><stop offset="0" stop-color="black" stop-opacity="0.96862745"/><stop offset="1" stop-color="black"/></linearGradient></defs><path fill="url(#gradient_2)" d="M416.133 462.968C416.519 464.956 417.135 466.988 417.385 468.986C417.153 469.319 416.968 469.566 416.837 469.954L416.529 470.085L416.333 469.009C416.076 469.463 415.952 469.624 416.105 470.172C416.207 470.541 416.492 470.957 416.68 471.295C416.448 472.26 416.149 473.453 415.791 474.369C415.185 472.075 414.882 469.649 414.566 467.3C415.047 466.538 415.248 466.006 415.346 465.113C415.451 464.152 415.481 463.713 416.133 462.968Z"/><defs><linearGradient id="gradient_3" gradientUnits="userSpaceOnUse" x1="492.63281" y1="403.52228" x2="490.8399" y2="404.14978"><stop offset="0" stop-color="black" stop-opacity="0.96078432"/><stop offset="1" stop-color="#000100"/></linearGradient></defs><path fill="url(#gradient_3)" d="M491.913 398.56C492.466 400.513 493.196 402.608 493.34 404.643C493.286 404.782 493.234 404.923 493.178 405.062C492.941 405.652 492.592 406.136 492.22 406.646C492.123 407.86 493.299 408.395 492.166 409.451C492.143 409.473 492.115 409.487 492.089 409.506C491.298 407.319 490.976 404.808 490.533 402.523C491.596 401.598 490.948 400.598 491.467 399.478C491.609 399.171 491.772 398.87 491.913 398.56Z"/><defs><linearGradient id="gradient_4" gradientUnits="userSpaceOnUse" x1="261.63794" y1="89.886169" x2="259.95844" y2="90.687096"><stop offset="0" stop-color="#000001" stop-opacity="0.96470588"/><stop offset="1" stop-color="black"/></linearGradient></defs><path fill="url(#gradient_4)" d="M259.068 89.5378C260.091 87.8344 259.032 86.4692 259.593 84.7314L259.87 84.7822L260.114 85.7176C260.395 85.3389 260.294 85.5533 260.404 85.0677C260.85 86.8474 262.748 92.3981 262.807 93.526L261.296 93.5585C260.338 92.2746 259.717 90.9926 259.068 89.5378Z"/><path d="M207.88 8.55261C207.92 7.55475 207.953 6.80265 208.379 5.89021L208.76 5.76689C209.191 6.27142 209.341 6.53726 209.496 7.18587C209.67 7.91558 209.899 8.16169 210.433 8.67453C210.454 10.8242 210.602 12.9297 210.8 15.0696C209.136 13.5637 210.157 10.8817 209.055 9.20573C208.786 8.79668 208.742 8.50291 208.656 8.02541C208.643 7.95146 208.632 7.87726 208.619 7.80318C208.542 7.90397 208.348 8.16524 208.265 8.24266C208.145 8.35529 208.009 8.44929 207.88 8.55261Z"/><path d="M222.363 14.9973C223.741 13.436 225.314 11.9431 227.052 10.7917L227.374 10.8257C226.6 12.916 224.553 14.9053 223.342 16.8241C222.784 16.2501 222.609 15.7341 222.363 14.9973Z"/><path d="M241.394 32.4918C241.169 31.9538 240.794 31.2417 240.696 30.6747C240.586 30.0433 240.737 29.8796 241.12 29.4595L241.733 29.4702C243.022 30.2015 243.347 30.9633 243.831 32.3418C243.733 32.2869 243.634 32.2337 243.537 32.1771C243.205 31.9834 242.927 31.777 242.63 31.5361C242.402 31.7518 242.26 31.9948 242.089 32.2553L241.394 32.4918Z"/><path fill="#B2AEAC" fill-opacity="0.98431373" d="M255.189 73.884C256.889 74.8121 258.584 75.8174 260.061 77.0785L259.905 77.9951C258.13 77.0329 256.579 75.3245 255.189 73.884Z"/></svg>