<?xml version="1.0" encoding="utf-8"?>
<svg version="1.1" xmlns="http://www.w3.org/2000/svg" style="display: block;" viewBox="0 0 2048 2048" width="1024" height="1024" xmlns:bx="https://boxy-svg.com">
  <defs>
    <bx:export>
      <bx:file format="svg" href="#object-0"/>
      <bx:file format="png"/>
    </bx:export>
  </defs>
  <rect y="1.095" width="2041.43" height="2045.81" style="stroke: rgb(0, 0, 0);" rx="407.41" ry="407.41" id="object-0" x="3.285"/>
  <path fill="rgb(157,203,150)" d="M -1445.1 1683.93 C -1509.7 1690.81 -1567.5 1643.64 -1573.7 1578.94 C -1580 1514.25 -1532.2 1456.9 -1467.5 1451.31 C -1403.6 1445.8 -1347.2 1492.74 -1341.1 1556.53 C -1335 1620.32 -1381.3 1677.15 -1445.1 1683.93 Z M -1467.2 1491.99 C -1459.3 1490.21 -1449.7 1491.08 -1441.6 1491.12 L -1441.2 1489.83 C -1442.5 1488.73 -1445 1487.12 -1445.9 1485.77 C -1449.2 1480.87 -1444.9 1469.7 -1455.1 1470.53 C -1458.1 1470.77 -1461.8 1472.77 -1463.5 1475.31 C -1464.9 1477.55 -1464.4 1478.87 -1463.9 1481.25 C -1460.1 1485.28 -1456.9 1485.13 -1451.6 1485.93 C -1455 1486.5 -1459.7 1487.8 -1463.1 1487.29 C -1469.9 1486.27 -1475.7 1480.49 -1482.6 1483.53 C -1483.8 1485.96 -1483.7 1486.69 -1482.9 1489.28 C -1482 1492.3 -1480.9 1493.35 -1481.8 1496.47 C -1484 1497.93 -1488.5 1500 -1489.9 1502.09 C -1491.4 1504.33 -1493 1514.96 -1494.2 1515.74 C -1499.8 1519.45 -1509.4 1510.23 -1512.8 1520.89 C -1511.9 1527.59 -1506.5 1533.75 -1501.6 1538.11 L -1508.3 1548.38 C -1513.6 1548.11 -1520.6 1546.71 -1524.9 1550.36 C -1526.3 1553.49 -1525.5 1555.88 -1524.3 1558.9 C -1523.8 1560.24 -1523.2 1561.57 -1522.7 1562.89 C -1517.8 1566.78 -1513.4 1570.9 -1508.9 1575.28 L -1510.1 1578.83 C -1511.7 1581.69 -1512.7 1584.11 -1515.6 1585.86 C -1517.8 1586.08 -1520.2 1586.23 -1522.4 1586.81 C -1524.9 1587.48 -1526.3 1589.6 -1527.6 1591.71 C -1528.1 1594.21 -1527.9 1595.47 -1526.6 1597.7 C -1522.1 1605.1 -1509.7 1610.54 -1501.6 1612.47 C -1504.5 1617.21 -1511.3 1626.02 -1510.1 1631.66 C -1509.5 1632.06 -1508.2 1632.92 -1507.7 1633.23 C -1506.6 1633.87 -1505.1 1634.37 -1504.1 1635.27 C -1502.6 1636.64 -1501.5 1638.21 -1501.6 1640.24 C -1503.9 1640.08 -1505 1639.98 -1507.2 1640.63 C -1507.2 1640.94 -1507.2 1641.24 -1507.2 1641.55 C -1506.9 1645.63 -1503.1 1649.18 -1500.5 1651.97 L -1486.8 1654 C -1486.2 1656.88 -1485.6 1660.02 -1484 1662.55 C -1479.8 1669.21 -1470 1674.68 -1462.5 1676.35 C -1454 1678.22 -1445.3 1675.87 -1438.1 1671.1 C -1431.3 1666.54 -1427.6 1661.49 -1426.2 1653.49 C -1424.8 1645.69 -1409.4 1651.08 -1404.2 1646.7 C -1403.6 1643.67 -1404.6 1641.6 -1405.6 1638.81 L -1406.1 1637.56 C -1403.9 1636.1 -1402.2 1634.21 -1401.3 1631.68 C -1398.6 1623.86 -1409.7 1619.42 -1412.6 1612.81 C -1412.8 1612.47 -1412.9 1612.12 -1413.1 1611.77 C -1405 1608.24 -1393.6 1604.74 -1389.2 1596.55 C -1389.1 1593.91 -1389 1592.88 -1390.8 1590.73 C -1393.2 1587.94 -1397.1 1587.62 -1400.5 1587.01 C -1401.4 1581.31 -1402.7 1575.67 -1403.8 1570.03 C -1400.9 1567.32 -1397.7 1564.9 -1394.6 1562.44 C -1391.5 1560.02 -1387.6 1556.19 -1387.1 1552.16 C -1390.5 1547.97 -1398.6 1547.29 -1403.4 1544.45 C -1406.8 1542.45 -1410.1 1537.72 -1412.7 1534.73 C -1407.8 1530.12 -1399.3 1523.55 -1398.9 1516.66 C -1403.9 1512.59 -1415.3 1515.52 -1421.5 1516.12 C -1423 1511.53 -1424.5 1507.26 -1427 1503.11 C -1437.1 1486.56 -1429.6 1493.96 -1431.6 1483.48 C -1434 1482.34 -1434.4 1482.33 -1437.1 1482.54 C -1439.4 1484.81 -1439.4 1489 -1440 1492.21 C -1449 1492.34 -1458.1 1492.27 -1467.2 1491.99 Z"/>
  <path fill="rgb(157,203,150)" d="M -1097.1 1681.26 C -1138.7 1683.31 -1178.2 1662.85 -1200.4 1627.69 C -1222.7 1592.53 -1224.4 1548.11 -1204.7 1511.4 C -1185.1 1474.68 -1147.3 1451.35 -1105.7 1450.33 C -1042.4 1448.76 -989.7 1498.34 -987.36 1561.56 C -985.01 1624.78 -1033.9 1678.13 -1097.1 1681.26 Z M -1175.3 1519.91 L -1187 1520.53 C -1174.6 1553.44 -1160.7 1585.72 -1147.7 1618.39 C -1138.8 1618.29 -1129.9 1618.05 -1121.1 1618.35 C -1115.9 1602.68 -1110.3 1587.13 -1104.4 1571.71 C -1099.4 1587.48 -1094 1603.25 -1089.7 1619.21 C -1080.3 1618.61 -1070.9 1618.24 -1061.5 1618.12 L -1043.2 1570.2 C -1036.9 1552.93 -1029.3 1536.45 -1022.4 1519.45 C -1036.3 1519.62 -1050.1 1519.59 -1063.9 1520.14 C -1067.8 1535.29 -1071.7 1550.5 -1077.5 1565.03 C -1081.9 1550.29 -1085.8 1534.78 -1091.7 1520.58 L -1119.9 1520.39 C -1123.7 1535.14 -1127.3 1550.34 -1132.6 1564.62 C -1137.8 1549.73 -1142.3 1534.28 -1148.3 1519.7 C -1157.3 1519.7 -1166.3 1519.59 -1175.3 1519.91 Z"/>
  <path fill="rgb(0,0,0)" d="M -1441.6 1491.12 C -1450.2 1487.52 -1459.8 1487.11 -1468.6 1489.96 L -1469.9 1491.36 L -1469 1492.23 L -1467.2 1491.99 C -1458.1 1492.27 -1449 1492.34 -1440 1492.21 C -1439.4 1489 -1439.4 1484.81 -1437.1 1482.54 C -1434.4 1482.33 -1434 1482.34 -1431.6 1483.48 C -1429.6 1493.96 -1437.1 1486.56 -1427 1503.11 C -1424.5 1507.26 -1423 1511.53 -1421.5 1516.12 C -1415.3 1515.52 -1403.9 1512.59 -1398.9 1516.66 C -1399.3 1523.55 -1407.8 1530.12 -1412.7 1534.73 C -1410.1 1537.72 -1406.8 1542.45 -1403.4 1544.45 C -1398.6 1547.29 -1390.5 1547.97 -1387.1 1552.16 C -1387.6 1556.19 -1391.5 1560.02 -1394.6 1562.44 C -1397.7 1564.9 -1400.9 1567.32 -1403.8 1570.03 C -1402.7 1575.67 -1401.4 1581.31 -1400.5 1587.01 C -1397.1 1587.62 -1393.2 1587.94 -1390.8 1590.73 C -1389 1592.88 -1389.1 1593.91 -1389.2 1596.55 C -1393.6 1604.74 -1405 1608.24 -1413.1 1611.77 C -1412.9 1612.12 -1412.8 1612.47 -1412.6 1612.81 C -1409.7 1619.42 -1398.6 1623.86 -1401.3 1631.68 C -1402.2 1634.21 -1403.9 1636.1 -1406.1 1637.56 L -1405.6 1638.81 C -1404.6 1641.6 -1403.6 1643.67 -1404.2 1646.7 C -1409.4 1651.08 -1424.8 1645.69 -1426.2 1653.49 C -1427.6 1661.49 -1431.3 1666.54 -1438.1 1671.1 C -1445.3 1675.87 -1454 1678.22 -1462.5 1676.35 C -1470 1674.68 -1479.8 1669.21 -1484 1662.55 C -1485.6 1660.02 -1486.2 1656.88 -1486.8 1654 L -1500.5 1651.97 C -1503.1 1649.18 -1506.9 1645.63 -1507.2 1641.55 C -1507.2 1641.24 -1507.2 1640.94 -1507.2 1640.63 C -1505 1639.98 -1503.9 1640.08 -1501.6 1640.24 C -1501.5 1638.21 -1502.6 1636.64 -1504.1 1635.27 C -1505.1 1634.37 -1506.6 1633.87 -1507.7 1633.23 C -1508.2 1632.92 -1509.5 1632.06 -1510.1 1631.66 C -1511.3 1626.02 -1504.5 1617.21 -1501.6 1612.47 C -1509.7 1610.54 -1522.1 1605.1 -1526.6 1597.7 C -1527.9 1595.47 -1528.1 1594.21 -1527.6 1591.71 C -1526.3 1589.6 -1524.9 1587.48 -1522.4 1586.81 C -1520.2 1586.23 -1517.8 1586.08 -1515.6 1585.86 C -1512.7 1584.11 -1511.7 1581.69 -1510.1 1578.83 C -1505.9 1575.81 -1501.4 1573.27 -1496.9 1570.68 C -1501 1566.85 -1506.1 1563.55 -1510.6 1560.17 C -1508.7 1565.76 -1506.7 1569.59 -1508.9 1575.28 C -1513.4 1570.9 -1517.8 1566.78 -1522.7 1562.89 C -1523.2 1561.57 -1523.8 1560.24 -1524.3 1558.9 C -1525.5 1555.88 -1526.3 1553.49 -1524.9 1550.36 C -1520.6 1546.71 -1513.6 1548.11 -1508.3 1548.38 L -1501.6 1538.11 C -1506.5 1533.75 -1511.9 1527.59 -1512.8 1520.89 C -1509.4 1510.23 -1499.8 1519.45 -1494.2 1515.74 C -1493 1514.96 -1491.4 1504.33 -1489.9 1502.09 C -1488.5 1500 -1484 1497.93 -1481.8 1496.47 C -1480.9 1493.35 -1482 1492.3 -1482.9 1489.28 C -1483.7 1486.69 -1483.8 1485.96 -1482.6 1483.53 C -1475.7 1480.49 -1469.9 1486.27 -1463.1 1487.29 C -1459.7 1487.8 -1455 1486.5 -1451.6 1485.93 C -1456.9 1485.13 -1460.1 1485.28 -1463.9 1481.25 C -1464.4 1478.87 -1464.9 1477.55 -1463.5 1475.31 C -1461.8 1472.77 -1458.1 1470.77 -1455.1 1470.53 C -1444.9 1469.7 -1449.2 1480.87 -1445.9 1485.77 C -1445 1487.12 -1442.5 1488.73 -1441.2 1489.83 L -1441.6 1491.12 Z M -1418.8 1521.29 C -1422.2 1520.7 -1424.2 1520.94 -1426.5 1518.13 C -1431.5 1512 -1434.9 1503.59 -1438.9 1496.73 C -1450.6 1496.45 -1462.3 1496.61 -1474 1497.22 C -1478.7 1500.09 -1486.2 1505.08 -1487.4 1510.98 C -1487.8 1513.21 -1486.7 1516.02 -1486 1518.13 C -1487.4 1519.95 -1487.6 1519.89 -1489.8 1520.17 C -1494.7 1520.8 -1500.7 1518.75 -1505.2 1520.95 C -1504.8 1524.16 -1499.6 1528.48 -1497.5 1531.1 C -1494.2 1529.95 -1492.1 1526.76 -1490 1524.1 C -1472.3 1523.23 -1453.9 1524.08 -1436.2 1525.31 C -1431.1 1525.66 -1424.2 1528.6 -1419.4 1527.79 C -1417.9 1525.61 -1418 1525 -1415.4 1524 C -1412.4 1523.98 -1409.9 1523.39 -1407.5 1521.4 L -1408.7 1520.43 L -1407.7 1520.61 C -1411.2 1519.09 -1415.2 1520.51 -1418.8 1521.29 Z M -1417.1 1601.2 C -1414.1 1596.48 -1408.8 1589.7 -1404.8 1585.76 L -1411.2 1576.14 C -1440.7 1577.5 -1469.7 1577.36 -1499.3 1577.03 C -1503 1581 -1507.3 1584.77 -1506.7 1590.79 C -1506.4 1594.02 -1504.4 1596.51 -1501.8 1598.3 C -1488.7 1607.45 -1434 1604.25 -1417.4 1602.52 C -1417.6 1602.98 -1417.8 1603.45 -1418.1 1603.88 C -1425.2 1614.13 -1481 1604.48 -1493 1606.25 C -1491.1 1607.92 -1489.3 1609.65 -1487.5 1611.39 C -1473.8 1615.52 -1436.9 1612.2 -1421.1 1611.28 C -1415.2 1603.86 -1414.8 1609.16 -1409 1605.87 C -1407.8 1605.2 -1407.9 1603.72 -1407.6 1602.5 L -1408.8 1600.86 C -1411.9 1600.13 -1414 1600.54 -1417.1 1601.2 Z M -1418.2 1634.93 C -1416 1630.08 -1412.7 1625.25 -1411.9 1619.93 C -1413.8 1617.12 -1416.1 1616.41 -1419.4 1615.68 C -1431.6 1613 -1446.1 1615.1 -1458.6 1615.26 C -1472.1 1615.39 -1485.6 1614.97 -1499 1614.01 C -1502 1618.26 -1505.2 1622.25 -1504.4 1627.79 C -1503.7 1631.77 -1501.2 1634.63 -1497.8 1636.72 C -1479.1 1648.53 -1447.9 1642.13 -1426.6 1642.49 C -1423.5 1640.37 -1420.5 1638.1 -1417.2 1636.36 L -1414.9 1637.79 C -1414.5 1639.22 -1414 1640.5 -1413.4 1641.85 C -1410.9 1642.75 -1410.7 1642.88 -1408.2 1642.16 C -1409 1640.05 -1409.9 1638 -1410.8 1635.94 C -1409.3 1633.62 -1407.9 1631.29 -1406.6 1628.84 C -1409.9 1628.95 -1415.3 1633.23 -1418.2 1634.93 Z M -1488.1 1527.67 C -1489.6 1529.46 -1491.3 1530.7 -1491.6 1533.07 C -1474.2 1536.7 -1440.9 1534.2 -1422.4 1533.53 L -1419.8 1532.65 L -1420.3 1531.31 C -1434.8 1527.78 -1472.5 1527.49 -1488.1 1527.67 Z M -1443.8 1536.98 C -1461 1537.06 -1479.4 1535.86 -1496.4 1537.83 C -1499.3 1541.36 -1502.4 1544.81 -1504.8 1548.69 C -1504.5 1553.61 -1504.9 1558.63 -1501.3 1562.4 C -1495.4 1568.48 -1477.1 1565.29 -1468.9 1565.5 C -1456.6 1565.58 -1417.2 1568.34 -1409.7 1559.37 C -1408.3 1557.6 -1407.7 1555.29 -1408.4 1553.08 C -1410.3 1546.46 -1414.7 1539.87 -1420.7 1536.4 C -1428.4 1536.58 -1436.1 1536.7 -1443.8 1536.98 Z M -1519 1551.69 L -1519 1554 C -1515.9 1557.25 -1511.5 1558.96 -1507.3 1560.51 C -1507.3 1557.82 -1508.2 1554.53 -1510.3 1552.67 C -1512.9 1550.31 -1515.9 1551.17 -1519 1551.69 Z M -1401.1 1551.98 C -1404.1 1555.83 -1406.8 1559.2 -1410.6 1562.31 C -1412 1563.41 -1412.9 1564.55 -1414 1565.93 C -1412.2 1567.3 -1410.8 1567.23 -1408.6 1567.37 C -1402.1 1561.45 -1406.7 1558.21 -1396.2 1556.29 L -1395.6 1554.53 C -1397.4 1552.31 -1398.4 1552.55 -1401.1 1551.98 Z M -1424.5 1567.92 C -1435.1 1568.45 -1489.4 1567.28 -1493.1 1569.8 L -1493.4 1571.99 C -1491.6 1573.9 -1491.3 1574.39 -1488.6 1574.72 C -1486.8 1574.94 -1484.7 1574.78 -1482.9 1574.76 C -1472.9 1575 -1419.8 1576.45 -1414 1571.99 C -1414.9 1569.81 -1416.2 1568.84 -1418.5 1568.1 C -1420.3 1567.5 -1422.6 1567.77 -1424.5 1567.92 Z M -1521.1 1590.66 C -1520.5 1592.63 -1520.8 1592.54 -1519 1593.75 C -1517.6 1594.66 -1517.1 1595.22 -1515.9 1596.53 C -1512.8 1600.2 -1506.8 1600.42 -1504.1 1604.02 L -1506.1 1606.63 C -1505.5 1608.74 -1505.9 1607.9 -1504.9 1609.27 L -1501.2 1606.61 C -1501 1604.11 -1501.6 1602.95 -1503.2 1600.98 C -1507 1596.27 -1515.3 1592.12 -1521.1 1590.66 Z M -1401.4 1590.26 C -1403.6 1591.92 -1405.1 1592.5 -1406 1595.16 C -1403.7 1597.17 -1401 1597.05 -1398.1 1597.33 C -1396.4 1595.21 -1395.3 1594.72 -1395.3 1591.86 C -1397.5 1590.27 -1398.8 1590.35 -1401.4 1590.26 Z M -1498.5 1641.68 C -1497.6 1643.98 -1497.7 1643.89 -1495.4 1644.9 C -1490.5 1647.05 -1484.6 1648.32 -1479.3 1648.41 C -1482 1644.63 -1489.4 1642.49 -1493.8 1641.64 C -1495.5 1641.32 -1496.8 1641.4 -1498.5 1641.68 Z M -1422.9 1644.93 C -1440.1 1647.36 -1458.2 1645.85 -1474.2 1648.36 L -1475 1649.53 L -1472.8 1650.59 C -1456.2 1650.95 -1437.2 1652.21 -1421.6 1646.26 L -1421.1 1645.01 L -1422.9 1644.93 Z M -1482 1653.54 C -1481.4 1659.28 -1480.4 1662.41 -1476 1666.25 C -1469.8 1671.6 -1460.7 1673.3 -1452.7 1672.37 C -1447.3 1671.74 -1443.3 1669.33 -1438.9 1666.17 C -1436.4 1663.06 -1433.8 1659.99 -1431.5 1656.62 C -1446.4 1650.66 -1466 1653.54 -1482 1653.54 Z"/>
  <path fill="rgb(172,202,170)" d="M -1441.6 1491.12 C -1449.7 1491.08 -1459.3 1490.21 -1467.2 1491.99 L -1469 1492.23 L -1469.9 1491.36 L -1468.6 1489.96 C -1459.8 1487.11 -1450.2 1487.52 -1441.6 1491.12 Z"/>
  <path fill="rgb(157,203,150)" d="M -1438.9 1496.73 C -1434.9 1503.59 -1431.5 1512 -1426.5 1518.13 C -1424.2 1520.94 -1422.2 1520.7 -1418.8 1521.29 C -1419.2 1521.41 -1419.6 1521.54 -1420 1521.64 C -1421.5 1522.06 -1422.8 1522.15 -1424.4 1522.21 C -1421.9 1521.86 -1417.7 1522.91 -1415.4 1524 C -1418 1525 -1417.9 1525.61 -1419.4 1527.79 C -1424.2 1528.6 -1431.1 1525.66 -1436.2 1525.31 C -1453.9 1524.08 -1472.3 1523.23 -1490 1524.1 C -1492.1 1526.76 -1494.2 1529.95 -1497.5 1531.1 C -1499.6 1528.48 -1504.8 1524.16 -1505.2 1520.95 C -1500.7 1518.75 -1494.7 1520.8 -1489.8 1520.17 C -1487.6 1519.89 -1487.4 1519.95 -1486 1518.13 C -1486.7 1516.02 -1487.8 1513.21 -1487.4 1510.98 C -1486.2 1505.08 -1478.7 1500.09 -1474 1497.22 C -1462.3 1496.61 -1450.6 1496.45 -1438.9 1496.73 Z"/>
  <path fill="rgb(172,202,170)" d="M -1418.8 1521.29 C -1415.2 1520.51 -1411.2 1519.09 -1407.7 1520.61 L -1408.7 1520.43 L -1407.5 1521.4 C -1409.9 1523.39 -1412.4 1523.98 -1415.4 1524 C -1417.7 1522.91 -1421.9 1521.86 -1424.4 1522.21 C -1422.8 1522.15 -1421.5 1522.06 -1420 1521.64 C -1419.6 1521.54 -1419.2 1521.41 -1418.8 1521.29 Z"/>
  <path fill="rgb(0,0,0)" d="M -1187 1520.53 L -1175.3 1519.91 C -1166.3 1519.59 -1157.3 1519.7 -1148.3 1519.7 C -1142.3 1534.28 -1137.8 1549.73 -1132.6 1564.62 C -1127.3 1550.34 -1123.7 1535.14 -1119.9 1520.39 L -1091.7 1520.58 C -1085.8 1534.78 -1081.9 1550.29 -1077.5 1565.03 C -1071.7 1550.5 -1067.8 1535.29 -1063.9 1520.14 C -1050.1 1519.59 -1036.3 1519.62 -1022.4 1519.45 C -1029.3 1536.45 -1036.9 1552.93 -1043.2 1570.2 L -1061.5 1618.12 C -1070.9 1618.24 -1080.3 1618.61 -1089.7 1619.21 C -1094 1603.25 -1099.4 1587.48 -1104.4 1571.71 C -1110.3 1587.13 -1115.9 1602.68 -1121.1 1618.35 C -1129.9 1618.05 -1138.8 1618.29 -1147.7 1618.39 C -1160.7 1585.72 -1174.6 1553.44 -1187 1520.53 Z"/>
  <path fill="rgb(254,254,240)" d="M -802.12 1342.73 C -923.99 1352.58 -1030.8 1261.79 -1040.7 1139.92 C -1050.5 1018.06 -959.8 911.244 -837.93 901.314 C -716.01 891.384 -609.13 982.184 -599.24 1104.11 C -589.35 1226.04 -680.19 1332.88 -802.12 1342.73 Z M -804.8 991.484 C -807.3 992.944 -810.47 994.434 -811.51 997.334 C -812.45 999.944 -812.38 1002.68 -811.13 1005.19 C -810.04 1007.39 -807.76 1008.63 -805.45 1009.08 C -793.78 1011.37 -758.08 1008.57 -744.31 1007.89 L -732.53 1006.84 C -754.24 994.834 -780.12 990.434 -804.8 991.484 Z M -859.68 993.664 C -872.87 996.774 -884.19 1002.81 -895.91 1009.46 C -882.88 1009.27 -869.84 1009.23 -856.81 1009.33 C -846.79 1009.52 -834.91 1010.98 -825.18 1008.86 C -823.26 1006.51 -822.77 1004.33 -822.06 1001.47 C -822.82 998.924 -823.22 997.754 -825.6 996.344 C -834.33 991.194 -849.91 993.044 -859.68 993.664 Z M -768.05 1014.96 C -774.33 1015.1 -797.55 1014.12 -801.44 1017.2 C -802.64 1018.15 -804.66 1021.59 -804.61 1023.17 C -804.36 1031.06 -782.09 1067.72 -777.25 1077.49 C -773.61 1084.82 -770.4 1092.31 -767.98 1100.14 L -766.54 1103.69 L -765.04 1104.28 C -759.71 1096.26 -758.69 1078.69 -755.71 1068.68 C -750.22 1050.28 -741.5 1032.91 -736.5 1014.37 C -747.02 1014.42 -757.54 1014.41 -768.05 1014.96 Z M -727.53 1013.86 C -739.81 1044.82 -757.16 1076.89 -755.41 1111.23 C -737.43 1111.94 -719.3 1111.76 -701.31 1111.44 C -692.66 1111.34 -683.97 1111.05 -675.33 1111.24 C -684.15 1089.68 -712.25 1027.8 -727.53 1013.86 Z M -898.83 1016.84 L -902.08 1018 C -902.26 1018.75 -902.7 1019.49 -902.61 1020.26 C -902.23 1023.52 -877.37 1095.51 -875.56 1098.51 C -875.24 1099.04 -874.84 1099.51 -874.49 1100 L -872.44 1099.97 C -866.79 1092.88 -863.07 1083.5 -858.67 1075.53 C -847.78 1056.61 -834.6 1037.66 -827.29 1017.05 C -850.61 1015.62 -875.52 1015.41 -898.83 1016.84 Z M -914.2 1017.83 C -922.88 1028.79 -929.24 1043.08 -935.91 1055.34 C -945.83 1073.91 -956.38 1092.13 -967.55 1109.98 L -932.31 1110.47 C -922.32 1110.58 -892.07 1112.96 -885.27 1107.36 C -883.73 1106.1 -883.48 1103.68 -883.47 1101.8 C -883.36 1090.4 -902.95 1026.92 -910.14 1019.95 C -911.16 1018.96 -912.91 1018.34 -914.2 1017.83 Z M -815.62 1024.13 C -818.64 1026.2 -821.17 1028.28 -823.43 1031.17 C -832.7 1042.98 -862.55 1092.36 -865.37 1105.39 C -865.77 1107.2 -865.71 1108.45 -865.03 1110.21 C -855.92 1114.01 -835.62 1111.75 -825.37 1111.65 C -814.9 1111.66 -780.38 1113.88 -773.87 1107.58 C -774.14 1103.12 -775.88 1098.77 -777.64 1094.68 C -781.31 1086.16 -809.2 1029.37 -813.85 1025.27 C -814.58 1024.62 -814.85 1024.53 -815.62 1024.13 Z M -756.24 1117.36 C -781.08 1146.74 -798.33 1209.55 -813.03 1246.05 C -797.08 1234.28 -782.61 1220.47 -767.99 1207.11 C -737.12 1177.37 -704.73 1148.96 -674.53 1118.58 C -701.65 1118.47 -729.2 1119.28 -756.24 1117.36 Z M -968.13 1118.51 C -923.73 1163.91 -877.99 1204.99 -829.29 1245.67 C -837.77 1218.98 -848.46 1193.1 -858.88 1167.12 C -863.73 1155.04 -868.11 1140.67 -875.28 1129.83 C -877.62 1126.28 -881.37 1123.43 -885.16 1121.58 C -896.65 1115.98 -951.94 1118.67 -968.13 1118.51 Z M -865.52 1118.78 C -869.33 1127.78 -860.31 1146.03 -856.71 1154.92 C -844.93 1184 -833.08 1213.41 -820.54 1242.15 C -815.56 1231.37 -811.7 1220.03 -807.57 1208.9 C -802.38 1194.12 -796.67 1179.52 -790.47 1165.13 C -785.91 1154.65 -780.54 1144.35 -776.41 1133.72 C -775.33 1130.94 -773.62 1127.3 -773.99 1124.3 C -778.08 1119.68 -784.59 1118.82 -790.46 1118.39 C -811.78 1116.85 -843.69 1117.86 -865.52 1118.78 Z"/>
  <path fill="rgb(254,254,228)" d="M -1798.1 1962.07 C -1919 1959.13 -2014.8 1859.05 -2012.5 1738.11 C -2010.2 1617.17 -1910.6 1520.83 -1789.7 1522.51 C -1667.8 1524.21 -1570.6 1624.69 -1573 1746.52 C -1575.3 1868.35 -1676.3 1965.04 -1798.1 1962.07 Z M -1950.4 1679.1 C -1954.4 1679.31 -1958.2 1679.69 -1961.2 1682.69 C -1963.5 1684.88 -1964.2 1687.69 -1963.8 1690.71 C -1963.2 1695.95 -1959.2 1700.69 -1955 1703.59 C -1950.6 1706.58 -1945.2 1708.3 -1939.9 1707.07 C -1937 1706.38 -1935.5 1705.14 -1934 1702.58 C -1932.2 1699.28 -1930.4 1695.79 -1930.9 1691.96 C -1932.6 1690.14 -1933.6 1689.43 -1936.2 1689.43 C -1941.7 1689.43 -1947 1691.94 -1952.2 1689.14 C -1953.2 1687.43 -1953.6 1687.57 -1953.1 1685.47 C -1952.7 1683.74 -1952.4 1683.15 -1951.3 1681.87 C -1947.5 1682.15 -1944.1 1682.97 -1940.3 1682.76 L -1939.7 1681.85 C -1943.3 1680.19 -1946.5 1679.64 -1950.4 1679.1 Z M -1808.6 1536.88 C -1814.4 1537.48 -1820.3 1537.94 -1826 1538.91 C -1816.4 1551.67 -1805.3 1563.33 -1795.5 1575.91 C -1767.1 1612.05 -1748.2 1652.71 -1754.5 1699.5 C -1756.8 1715.77 -1763.9 1738.72 -1777.4 1749.29 C -1784.5 1754.84 -1803.3 1765.7 -1812.3 1763.97 C -1814.4 1763.58 -1815.4 1762.15 -1816.6 1760.47 C -1822 1752.48 -1827.5 1739.04 -1825.1 1729.47 C -1823.9 1724.6 -1821 1722.07 -1817.3 1718.95 C -1817 1718.68 -1816.7 1718.39 -1816.3 1718.12 L -1815.7 1717.62 C -1829.1 1717.58 -1841.6 1715.28 -1851.3 1705.3 C -1854.5 1702.1 -1856.7 1698.46 -1858.8 1694.56 L -1859.9 1695.45 C -1895.7 1724 -1962.8 1709.17 -1970.9 1767.89 C -1972.7 1780.31 -1968.8 1793.25 -1960.9 1802.96 C -1951.6 1814.4 -1937.4 1820.59 -1922.9 1821.7 C -1910.8 1822.63 -1897.6 1820.59 -1888.3 1812.19 C -1881.8 1806.27 -1878.3 1798 -1878.1 1789.24 C -1878 1778.86 -1882.1 1768.87 -1889.5 1761.59 C -1897.1 1754.16 -1908.1 1751.21 -1918.6 1751.5 C -1924.1 1751.66 -1929.3 1752.55 -1933.3 1756.72 C -1935.9 1759.53 -1937.5 1763.5 -1937.3 1767.39 C -1937.1 1771.45 -1935 1775.8 -1931.8 1778.31 C -1929.3 1780.24 -1926.6 1781.01 -1923.5 1780.76 L -1921.8 1779.69 C -1923.9 1776.33 -1926.8 1774.96 -1927.6 1770.81 C -1926.9 1768.25 -1926.3 1767.22 -1924.4 1765.4 C -1921.8 1764.38 -1920.4 1764.26 -1917.7 1765.19 C -1913.7 1766.59 -1910.3 1770.6 -1908.9 1774.56 C -1907.8 1777.75 -1908.2 1781.39 -1909.7 1784.4 C -1911.4 1788 -1914.9 1790.24 -1918.6 1791.23 C -1925.1 1792.95 -1932.4 1791.31 -1938.1 1787.87 C -1943.8 1784.42 -1947.7 1779.11 -1948.9 1772.55 C -1950.3 1765.09 -1948.5 1757.4 -1943.9 1751.35 C -1938.5 1744.28 -1930.2 1740.29 -1921.4 1739.43 C -1906.8 1738 -1892.7 1743.36 -1880.3 1750.54 C -1873.7 1749.56 -1864.6 1747.02 -1858.6 1751.11 C -1856.2 1752.7 -1856.1 1753.34 -1855.6 1755.91 C -1857.1 1759.1 -1859.5 1761.18 -1862.9 1762.3 C -1866.5 1763.52 -1870.9 1763.68 -1874.7 1764.09 C -1867.6 1773.92 -1864.8 1784.51 -1866.6 1796.62 C -1868.5 1809.06 -1875.8 1819.31 -1886 1826.42 C -1891.3 1830.1 -1896.9 1832.08 -1902.9 1833.94 C -1896.4 1835.13 -1890.9 1835.5 -1886.7 1841.5 C -1885.4 1843.42 -1884.5 1845.71 -1883.3 1847.72 C -1881 1843.13 -1878.1 1835 -1873.1 1832.94 C -1872.8 1832.79 -1872.4 1832.72 -1872 1832.62 C -1870 1833.93 -1870.4 1833.1 -1870 1835.3 C -1868.7 1841.3 -1873 1848.03 -1875.4 1853.31 C -1861.9 1866.44 -1854.1 1883.42 -1844.6 1899.4 C -1847.4 1887.93 -1848.9 1876.98 -1844.2 1865.66 C -1856.3 1858.25 -1863.5 1848.43 -1866.8 1834.5 C -1870 1821.59 -1868.6 1805.91 -1861.3 1794.64 C -1854 1783.49 -1841.4 1776.02 -1828.4 1773.76 C -1816.5 1771.69 -1804.6 1773.89 -1794.8 1781.07 C -1785.2 1788.12 -1778.7 1798.72 -1776.9 1810.52 C -1775.1 1822.05 -1777 1833.78 -1784.2 1843.19 C -1787.6 1847.68 -1791.9 1851.29 -1796.3 1854.74 C -1789 1861.12 -1781.8 1866.25 -1771.6 1865.74 C -1762.6 1865.29 -1754.6 1860.14 -1748.8 1853.51 C -1738.7 1841.98 -1733.8 1826.29 -1735 1811.09 C -1735.9 1799.81 -1739.7 1788.32 -1748.6 1780.91 C -1756.5 1774.42 -1776.5 1771.92 -1777.3 1766.48 C -1777.8 1762.79 -1776 1757.92 -1775 1754.29 C -1758.6 1756.7 -1749.3 1760.47 -1737.2 1772.05 C -1719.6 1750.75 -1705.1 1737.92 -1676.4 1735.07 C -1660.9 1733.53 -1644.7 1735.78 -1632.5 1746.19 C -1620.8 1756.12 -1617.3 1769.12 -1615 1783.53 C -1602.9 1771.4 -1597.1 1758.38 -1592.8 1741.95 C -1591.3 1736.02 -1590.7 1730.87 -1587 1725.74 C -1587 1716.1 -1588.5 1706.7 -1590.3 1697.25 C -1597.5 1657.78 -1614.7 1623.55 -1643.1 1594.83 C -1683.1 1554.33 -1733.8 1536.43 -1790.3 1536.22 C -1796.3 1536.2 -1802.7 1536.19 -1808.6 1536.88 Z M -1842.4 1542.65 C -1870.6 1549.89 -1902.6 1563.2 -1924.2 1583.12 C -1924.4 1583.32 -1924.6 1583.52 -1924.8 1583.72 C -1897.5 1573.98 -1875.3 1572.54 -1847.4 1580.1 C -1825.4 1587.13 -1807.2 1597.35 -1788.2 1610.4 C -1803.8 1586.64 -1824.3 1567.23 -1840.7 1544.27 C -1841.6 1542.99 -1841.1 1543.45 -1842.4 1542.65 Z M -1887.7 1586.87 C -1901.1 1588.27 -1912.5 1591.75 -1921.4 1602.52 C -1928.9 1611.47 -1932.3 1623.12 -1930.9 1634.7 C -1929.7 1644.81 -1924.5 1653.31 -1916.4 1659.46 C -1910.5 1663.96 -1902.6 1666.6 -1895.1 1665.2 C -1891.3 1664.48 -1886.5 1661.8 -1884.6 1658.31 C -1882.9 1655.21 -1882.9 1649.44 -1884.1 1646.16 C -1884.7 1644.52 -1884.9 1643.95 -1886.5 1643.35 C -1889.9 1646.06 -1893.3 1649.84 -1898 1649.39 C -1902.4 1648.97 -1906.3 1645.58 -1908.6 1642.02 C -1911.8 1637.27 -1913.3 1630.72 -1911.8 1625.16 C -1910.4 1620.11 -1905.6 1614.82 -1901.1 1612.35 C -1894.6 1608.82 -1885.7 1609.71 -1878.9 1612.09 C -1872.9 1614.23 -1867.2 1617.87 -1861.8 1621.33 C -1857.2 1613.85 -1851.2 1607.85 -1842.3 1605.95 C -1836.5 1604.66 -1830.4 1605.85 -1825.5 1609.24 C -1821.6 1611.97 -1819 1616.15 -1818.2 1620.85 C -1816.5 1631.01 -1821.6 1642.9 -1827.5 1650.88 C -1833.4 1658.75 -1839.5 1662.37 -1848.4 1665.8 C -1848.9 1676.63 -1849 1687.66 -1841 1696.11 C -1836.1 1701.3 -1828.9 1703.9 -1821.8 1703.98 C -1817.2 1704.03 -1810.9 1702.89 -1807.7 1699.1 C -1806 1697.09 -1804.8 1694.9 -1805.2 1692.19 C -1805.5 1689.68 -1807.3 1686.48 -1809.4 1684.97 C -1810.6 1684.16 -1810.9 1684.11 -1812 1683.64 L -1813.9 1684.31 C -1814 1687.07 -1813.2 1690.66 -1815.4 1692.71 C -1816 1693.26 -1817.4 1694.11 -1818.1 1694.55 C -1818.4 1694.39 -1818.8 1694.24 -1819 1694.08 C -1822.6 1692.13 -1825.5 1689.59 -1826.9 1685.66 C -1827.8 1683.18 -1827.3 1680.9 -1826 1678.7 C -1823.5 1674.64 -1817.3 1672.17 -1812.8 1671.66 C -1807.7 1671.06 -1802.2 1672.5 -1798.2 1675.75 C -1794.8 1678.44 -1792.9 1682.14 -1792.4 1686.4 C -1791.5 1694.96 -1794.5 1702.48 -1799 1709.58 C -1794.7 1708.35 -1790.7 1707.1 -1786.9 1704.79 C -1781.6 1701.61 -1771.5 1690.88 -1767 1690.09 C -1767.5 1695.13 -1773.6 1705.15 -1777.7 1708.31 C -1786.4 1714.99 -1812.4 1719.8 -1814.3 1731.41 C -1814.9 1735.03 -1813.7 1738.78 -1811.3 1741.54 C -1808.8 1744.48 -1805 1745.74 -1801.2 1745.82 C -1793.9 1745.97 -1787.5 1742.9 -1782.5 1737.73 C -1770.5 1725.22 -1764.5 1702.29 -1765.2 1685.26 C -1766.2 1661.3 -1776.5 1642.43 -1794.1 1626.54 C -1819.4 1603.71 -1850.1 1584.94 -1885.4 1586.66 C -1886.2 1586.7 -1887 1586.79 -1887.7 1586.87 Z M -1936.4 1593.18 C -1966.7 1618.27 -1995 1672.56 -1998.9 1711.43 C -2001.3 1735.83 -1992.2 1762.87 -1980.2 1783.82 C -1983.7 1766.9 -1982.1 1751.94 -1972.4 1737.27 C -1966.8 1728.66 -1959.6 1723.67 -1951 1718.35 C -1961.4 1714.39 -1972.1 1710.13 -1976.7 1699.02 C -1979.1 1693.36 -1979.1 1687.1 -1976.6 1681.49 C -1973.9 1675.35 -1968.2 1670.95 -1961.9 1668.9 C -1952.8 1665.96 -1942.9 1667.41 -1934.6 1671.76 C -1931.5 1673.38 -1928.8 1675.52 -1926.1 1677.73 C -1922.8 1682.08 -1920.5 1685.98 -1921.2 1691.61 C -1921.8 1696.85 -1925.1 1701.45 -1928.4 1705.46 C -1909.7 1701.23 -1879.5 1696.71 -1863.7 1687.2 C -1860.8 1668.28 -1856 1648.9 -1868.5 1632.15 C -1872.7 1626.54 -1878.8 1621.89 -1885.9 1620.84 C -1890.3 1620.18 -1895.1 1621.08 -1898.6 1624 C -1900.7 1625.64 -1902.3 1628.06 -1902.4 1630.72 C -1902.6 1633.17 -1901.2 1636.31 -1899.2 1637.87 C -1898.8 1638.16 -1898.4 1638.37 -1898 1638.62 C -1897.5 1636.84 -1897.4 1635.54 -1897.3 1633.7 C -1895.6 1631.71 -1894.8 1630.88 -1892.1 1630.7 C -1887.2 1630.37 -1881 1632.98 -1877.6 1636.49 C -1873.9 1640.41 -1872.5 1645.69 -1872.8 1650.99 C -1873.2 1658.78 -1877.2 1666.39 -1883.1 1671.42 C -1889.1 1676.49 -1896.8 1678.42 -1904.5 1677.43 C -1916.2 1675.93 -1926.2 1668.19 -1932.9 1658.8 C -1940.4 1648.26 -1944.2 1635.64 -1942 1622.76 C -1940.4 1613.57 -1932.8 1603.07 -1934.9 1594.09 L -1936.4 1593.18 Z M -1838.5 1616.47 C -1846.1 1619.65 -1849.5 1624.76 -1853.5 1631.68 C -1850.3 1639.55 -1848 1646.38 -1847.4 1654.97 L -1846.7 1655.59 L -1843.1 1653.67 C -1835.3 1647.86 -1827.8 1640.47 -1826.2 1630.34 C -1825.7 1627.21 -1826.2 1624 -1828.1 1621.42 C -1830.8 1617.92 -1834.4 1617.2 -1838.5 1616.47 Z M -1587.3 1744.01 C -1591 1758.37 -1592.7 1777.29 -1603 1788.48 C -1607.8 1793.62 -1614.3 1797.17 -1618.7 1802.64 C -1625.2 1810.88 -1629.8 1820.43 -1639.2 1825.97 C -1646.5 1830.3 -1657.1 1831.47 -1665.3 1829.06 C -1667.2 1828.52 -1668.8 1827.49 -1670.5 1826.57 C -1672.5 1825.46 -1675.5 1823.06 -1677.9 1823.71 C -1679.5 1824.14 -1681.3 1825.32 -1682.8 1826.09 C -1688.8 1825.98 -1694.7 1824.58 -1700.6 1824.48 C -1696 1830.71 -1691.7 1835.04 -1684.8 1838.9 C -1675.1 1841.83 -1668.9 1842 -1659.9 1837.1 C -1655.3 1834.63 -1651.5 1831.82 -1646 1832.14 L -1645.3 1833.43 C -1641.8 1839.64 -1637.3 1845.96 -1630.1 1848.14 C -1626 1849.37 -1622 1848.61 -1618.3 1846.52 C -1604.7 1838.79 -1591.2 1786.2 -1588.6 1771.33 C -1587.6 1765.29 -1584.3 1749.49 -1587.3 1744.01 Z M -1675.9 1747.73 C -1695.4 1751.23 -1713.7 1758.67 -1725.5 1775.45 C -1726.9 1777.56 -1728.3 1779.66 -1729.4 1781.93 C -1720.6 1799.72 -1713.4 1810.78 -1693.6 1817.21 C -1689.8 1818.43 -1685.9 1819.54 -1682 1820.55 C -1688.2 1810.49 -1692.7 1800.4 -1690 1788.27 C -1688.6 1782.08 -1685 1777.17 -1679.5 1773.93 C -1673.1 1770.09 -1665 1768.65 -1657.8 1770.78 C -1652.2 1772.41 -1646.3 1776.38 -1643.6 1781.67 C -1641.9 1785.1 -1641.7 1788.61 -1643.1 1792.19 C -1645.3 1797.76 -1648.4 1801.29 -1653.1 1804.88 C -1657.1 1805.96 -1660.2 1807 -1664.1 1804.81 C -1666.9 1803.29 -1668.7 1800.02 -1669.4 1797.05 C -1670.1 1793.87 -1669.5 1790.29 -1667.6 1787.63 C -1666 1785.41 -1664 1784.4 -1661.5 1783.53 L -1659.6 1784.2 C -1658.6 1786.72 -1658.2 1788.87 -1657.8 1791.54 L -1656.7 1791.89 C -1655.4 1790.59 -1654.6 1790.41 -1654.5 1788.42 C -1654.3 1785.35 -1655.2 1782.52 -1657.3 1780.24 C -1658.7 1778.71 -1660.1 1778.14 -1662.1 1777.54 C -1667.3 1777.9 -1672.4 1779.91 -1675.9 1783.82 C -1679.5 1787.82 -1680.9 1793.23 -1680.5 1798.52 C -1680 1804.46 -1677.1 1810.27 -1672.4 1813.98 C -1667.1 1818.12 -1659 1819.28 -1652.5 1818.28 C -1645.6 1817.22 -1639.8 1813.24 -1635.8 1807.53 C -1629.9 1799.04 -1628 1787.69 -1629.9 1777.63 C -1631.9 1767.63 -1637.8 1758.41 -1646.5 1752.99 C -1655.4 1747.45 -1665.7 1746.62 -1675.9 1747.73 Z M -2000.4 1769.24 C -1993.6 1823.91 -1962.5 1870.94 -1919.6 1904.32 C -1887.8 1929.07 -1852 1943.02 -1812.3 1948.34 C -1822 1941.18 -1832.9 1935.68 -1841 1926.53 C -1850.6 1915.66 -1873.6 1869.78 -1879.3 1865.83 C -1884.6 1877 -1890.1 1886.11 -1902.4 1890.73 C -1910.6 1893.85 -1919.8 1893.75 -1927.9 1890 C -1935.5 1886.46 -1942.2 1879.78 -1944.9 1871.76 C -1946.8 1866.23 -1946.7 1859.83 -1943.8 1854.65 C -1941.7 1850.77 -1938 1847.96 -1933.7 1846.89 C -1929.4 1845.82 -1924.7 1846.5 -1921 1849.05 C -1917.7 1851.38 -1915.7 1854.88 -1915.1 1858.86 C -1914.5 1862.41 -1914.4 1866.68 -1916.2 1869.87 C -1918.7 1870.88 -1920 1870.86 -1922.7 1870.37 C -1927.5 1867.13 -1928.6 1857.13 -1931.5 1856.04 C -1933.3 1858.32 -1933.9 1859.4 -1933.6 1862.39 C -1933 1867.54 -1929.4 1872.02 -1925.3 1874.83 C -1920.3 1878.25 -1914.2 1879.4 -1908.3 1878.02 C -1903.2 1876.77 -1898.6 1873.55 -1895.9 1869.03 C -1893.1 1864.4 -1892.6 1858.9 -1894 1853.72 C -1895.8 1846.76 -1902.1 1839.7 -1906 1833.67 C -1927.6 1835.47 -1949 1834.48 -1966.4 1819.77 C -1977.4 1810.45 -1985.9 1796.83 -1992.4 1784.11 C -1994.7 1779.45 -1996.8 1772.99 -2000.4 1769.24 Z M -1827 1792.68 C -1837.5 1795.75 -1845.9 1800.5 -1851.5 1810.32 C -1856.3 1818.79 -1857 1828.75 -1854.2 1838 C -1852.2 1844.53 -1848.1 1850.46 -1841.8 1853.37 C -1834.7 1856.61 -1828.1 1855.05 -1820.9 1853.24 C -1810.1 1850.11 -1800.8 1845.68 -1795.3 1835.34 C -1791.3 1827.9 -1790.6 1819.16 -1793.2 1811.14 C -1795.6 1803.88 -1801 1798.21 -1808 1795.17 C -1814.3 1792.46 -1820.3 1792.05 -1827 1792.68 Z M -1726.5 1807.32 C -1724.9 1818.08 -1723.9 1827.33 -1726.6 1838.02 C -1729.8 1851.13 -1748.5 1872.02 -1733.1 1883.12 C -1726.7 1887.7 -1717.5 1888.15 -1710 1886.8 C -1698.7 1884.77 -1691.1 1871.65 -1684.2 1873.83 C -1683.4 1875 -1682.4 1875.78 -1682.6 1877.28 C -1683.5 1883.01 -1689.7 1888.4 -1694.3 1891.38 C -1699.4 1894.73 -1705.8 1896.85 -1710.5 1900.81 C -1715.7 1905.28 -1719.3 1911.41 -1723.1 1917.1 C -1736.9 1937.85 -1750.9 1943.42 -1774.5 1947.79 L -1774.5 1948.09 C -1741.1 1952.9 -1701.5 1932.96 -1675.6 1913.53 C -1667.2 1907.15 -1659 1900.41 -1651.1 1893.33 C -1662.3 1874.38 -1683.5 1868.08 -1698.3 1852.56 C -1707.7 1842.68 -1713.9 1830.59 -1720.2 1818.65 C -1722.1 1815.16 -1723.9 1810.25 -1726.5 1807.32 Z M -1683.1 1852.56 C -1682.9 1852.72 -1682.6 1852.88 -1682.4 1853.03 C -1660.8 1866.58 -1658.6 1861.69 -1641.3 1883.86 L -1630.4 1869.46 C -1627.5 1865.44 -1623.2 1860.74 -1621.5 1856.11 C -1625.4 1856.21 -1628.7 1857.91 -1632.7 1857.7 C -1640 1857.32 -1647.4 1855.08 -1654.7 1853.99 C -1663.9 1852.62 -1673.9 1852.6 -1683.1 1852.56 Z M -1806.5 1861.09 C -1814.4 1864.87 -1823 1866.01 -1831.5 1867.79 C -1836.5 1878.69 -1837.3 1888.98 -1832.9 1900.34 C -1827.8 1913.9 -1817.3 1924.79 -1804 1930.54 C -1790.3 1936.33 -1775.9 1936.46 -1762.1 1930.79 C -1760.5 1930.13 -1758.9 1929.44 -1757.3 1928.73 C -1744 1920.66 -1736.3 1910.54 -1728.5 1897.37 C -1735.7 1895.23 -1740.8 1892.98 -1744.6 1886.26 C -1746.7 1882.71 -1748.1 1878.84 -1749.5 1875.03 C -1762.1 1879.9 -1777.1 1883.36 -1790 1877.64 C -1798.4 1873.95 -1800.2 1866.24 -1806.5 1861.09 Z"/>
  <path fill="rgb(157,203,150)" d="M -1422.4 1533.53 C -1440.9 1534.2 -1474.2 1536.7 -1491.6 1533.07 C -1491.3 1530.7 -1489.6 1529.46 -1488.1 1527.67 C -1472.5 1527.49 -1434.8 1527.78 -1420.3 1531.31 L -1419.8 1532.65 L -1422.4 1533.53 Z"/>
  <path fill="rgb(0,0,0)" d="M -1826 1538.91 C -1820.3 1537.94 -1814.4 1537.48 -1808.6 1536.88 C -1802.7 1536.19 -1796.3 1536.2 -1790.3 1536.22 C -1733.8 1536.43 -1683.1 1554.33 -1643.1 1594.83 C -1614.7 1623.55 -1597.5 1657.78 -1590.3 1697.25 C -1588.5 1706.7 -1587 1716.1 -1587 1725.74 C -1590.7 1730.87 -1591.3 1736.02 -1592.8 1741.95 C -1597.1 1758.38 -1602.9 1771.4 -1615 1783.53 C -1617.3 1769.12 -1620.8 1756.12 -1632.5 1746.19 C -1644.7 1735.78 -1660.9 1733.53 -1676.4 1735.07 C -1705.1 1737.92 -1719.6 1750.75 -1737.2 1772.05 C -1749.3 1760.47 -1758.6 1756.7 -1775 1754.29 C -1776 1757.92 -1777.8 1762.79 -1777.3 1766.48 C -1776.5 1771.92 -1756.5 1774.42 -1748.6 1780.91 C -1739.7 1788.32 -1735.9 1799.81 -1735 1811.09 C -1733.8 1826.29 -1738.7 1841.98 -1748.8 1853.51 C -1754.6 1860.14 -1762.6 1865.29 -1771.6 1865.74 C -1781.8 1866.25 -1789 1861.12 -1796.3 1854.74 C -1791.9 1851.29 -1787.6 1847.68 -1784.2 1843.19 C -1777 1833.78 -1775.1 1822.05 -1776.9 1810.52 C -1778.7 1798.72 -1785.2 1788.12 -1794.8 1781.07 C -1804.6 1773.89 -1816.5 1771.69 -1828.4 1773.76 C -1841.4 1776.02 -1854 1783.49 -1861.3 1794.64 C -1868.6 1805.91 -1870 1821.59 -1866.8 1834.5 C -1863.5 1848.43 -1856.3 1858.25 -1844.2 1865.66 C -1848.9 1876.98 -1847.4 1887.93 -1844.6 1899.4 C -1854.1 1883.42 -1861.9 1866.44 -1875.4 1853.31 C -1873 1848.03 -1868.7 1841.3 -1870 1835.3 C -1870.4 1833.1 -1870 1833.93 -1872 1832.62 C -1872.4 1832.72 -1872.8 1832.79 -1873.1 1832.94 C -1878.1 1835 -1881 1843.13 -1883.3 1847.72 C -1884.5 1845.71 -1885.4 1843.42 -1886.7 1841.5 C -1890.9 1835.5 -1896.4 1835.13 -1902.9 1833.94 C -1896.9 1832.08 -1891.3 1830.1 -1886 1826.42 C -1875.8 1819.31 -1868.5 1809.06 -1866.6 1796.62 C -1864.8 1784.51 -1867.6 1773.92 -1874.7 1764.09 C -1870.9 1763.68 -1866.5 1763.52 -1862.9 1762.3 C -1859.5 1761.18 -1857.1 1759.1 -1855.6 1755.91 C -1856.1 1753.34 -1856.2 1752.7 -1858.6 1751.11 C -1864.6 1747.02 -1873.7 1749.56 -1880.3 1750.54 C -1892.7 1743.36 -1906.8 1738 -1921.4 1739.43 C -1930.2 1740.29 -1938.5 1744.28 -1943.9 1751.35 C -1948.5 1757.4 -1950.3 1765.09 -1948.9 1772.55 C -1947.7 1779.11 -1943.8 1784.42 -1938.1 1787.87 C -1932.4 1791.31 -1925.1 1792.95 -1918.6 1791.23 C -1914.9 1790.24 -1911.4 1788 -1909.7 1784.4 C -1908.2 1781.39 -1907.8 1777.75 -1908.9 1774.56 C -1910.3 1770.6 -1913.7 1766.59 -1917.7 1765.19 C -1920.4 1764.26 -1921.8 1764.38 -1924.4 1765.4 C -1926.3 1767.22 -1926.9 1768.25 -1927.6 1770.81 C -1926.8 1774.96 -1923.9 1776.33 -1921.8 1779.69 L -1923.5 1780.76 C -1926.6 1781.01 -1929.3 1780.24 -1931.8 1778.31 C -1935 1775.8 -1937.1 1771.45 -1937.3 1767.39 C -1937.5 1763.5 -1935.9 1759.53 -1933.3 1756.72 C -1929.3 1752.55 -1924.1 1751.66 -1918.6 1751.5 C -1908.1 1751.21 -1897.1 1754.16 -1889.5 1761.59 C -1882.1 1768.87 -1878 1778.86 -1878.1 1789.24 C -1878.3 1798 -1881.8 1806.27 -1888.3 1812.19 C -1897.6 1820.59 -1910.8 1822.63 -1922.9 1821.7 C -1937.4 1820.59 -1951.6 1814.4 -1960.9 1802.96 C -1968.8 1793.25 -1972.7 1780.31 -1970.9 1767.89 C -1962.8 1709.17 -1895.7 1724 -1859.9 1695.45 L -1858.8 1694.56 C -1856.7 1698.46 -1854.5 1702.1 -1851.3 1705.3 C -1841.6 1715.28 -1829.1 1717.58 -1815.7 1717.62 L -1816.3 1718.12 C -1816.7 1718.39 -1817 1718.68 -1817.3 1718.95 C -1821 1722.07 -1823.9 1724.6 -1825.1 1729.47 C -1827.5 1739.04 -1822 1752.48 -1816.6 1760.47 C -1815.4 1762.15 -1814.4 1763.58 -1812.3 1763.97 C -1803.3 1765.7 -1784.5 1754.84 -1777.4 1749.29 C -1763.9 1738.72 -1756.8 1715.77 -1754.5 1699.5 C -1748.2 1652.71 -1767.1 1612.05 -1795.5 1575.91 C -1805.3 1563.33 -1816.4 1551.67 -1826 1538.91 Z M -1735.8 1549.63 C -1745 1551.83 -1752.1 1555.66 -1757.3 1563.81 C -1763.2 1573.06 -1765.1 1585.59 -1762.4 1596.21 C -1759.9 1605.51 -1753.7 1613.92 -1745.2 1618.52 C -1739.1 1621.83 -1732.1 1622.79 -1725.4 1620.79 C -1716.9 1618.26 -1710.9 1612.27 -1705.3 1605.83 C -1698.9 1608 -1691.8 1608.91 -1685.8 1612.08 L -1685 1613.81 C -1693.5 1628.04 -1732.5 1633.5 -1751 1662.66 C -1750.4 1683.26 -1749.8 1709.79 -1733.5 1724.77 C -1727.9 1729.83 -1722.3 1732.47 -1714.8 1732 C -1709.7 1731.69 -1705 1729.47 -1701.2 1726.15 L -1700.5 1724.28 C -1703.8 1719.73 -1712.8 1717.76 -1717.9 1715.2 C -1733.3 1707.51 -1740.9 1691.91 -1737.9 1675.07 C -1735.9 1664.33 -1729.5 1656.88 -1720.6 1650.99 C -1704.1 1640.07 -1680.5 1636.46 -1671.3 1617.35 C -1665.9 1617.19 -1657.7 1624.15 -1653.7 1627.83 C -1642.1 1638.57 -1632.8 1655.06 -1632.1 1671.04 C -1631.7 1681.78 -1635.8 1692.22 -1643.4 1699.84 C -1650.3 1706.92 -1659.2 1710.33 -1669.1 1709.99 C -1676.8 1709.72 -1683.5 1707.44 -1689.9 1703.26 C -1694.7 1697.96 -1697 1693.49 -1696.8 1686.14 C -1696.8 1682.12 -1695.6 1678.22 -1692.5 1675.47 C -1689.8 1673.07 -1686.2 1671.94 -1682.7 1672.35 C -1678.7 1672.8 -1673.6 1674.48 -1671.2 1677.86 C -1669.8 1679.71 -1670.3 1680.81 -1670.7 1682.86 L -1672.5 1685.16 C -1674.5 1682.67 -1674.9 1680.54 -1678.2 1679.99 C -1680.9 1681.67 -1681.8 1682.77 -1683.5 1685.46 C -1683.7 1687.91 -1683.8 1689.19 -1682.2 1691.3 C -1679.7 1694.44 -1674.5 1695.94 -1670.7 1695.71 C -1667.7 1695.54 -1665.4 1694.16 -1663.5 1691.94 C -1660 1687.95 -1657.5 1682.48 -1658.2 1677.13 C -1658.8 1671.8 -1662.3 1667.22 -1666.5 1664.05 C -1672.5 1659.45 -1680 1657.88 -1687.4 1659.31 C -1694.6 1660.69 -1700.6 1664.5 -1704.7 1670.63 C -1709.3 1677.73 -1711.3 1686.31 -1709.4 1694.67 C -1707.5 1703.2 -1701.8 1710.41 -1694.4 1715 C -1682 1722.72 -1664 1723.2 -1650.1 1719.61 C -1638.8 1716.7 -1629.4 1709.64 -1623.6 1699.48 C -1615.6 1685.33 -1615.9 1667.25 -1620.4 1651.98 C -1621.7 1647.21 -1626.9 1628.78 -1629.6 1626.65 C -1631.2 1627.79 -1632.7 1628.95 -1634.2 1630.2 C -1638.5 1628.68 -1642.5 1621.48 -1645.8 1618.01 C -1659.4 1604.07 -1680.7 1596.93 -1699.7 1596.04 C -1702.6 1590.61 -1704.9 1584.07 -1711.4 1582.3 C -1715.7 1581.14 -1720.9 1581.64 -1724.7 1584.1 C -1727.3 1585.84 -1728.8 1588.35 -1729.1 1591.52 C -1729.4 1594.3 -1728.7 1596.79 -1727.1 1599.07 C -1724.6 1599.62 -1723.6 1599.21 -1721.5 1597.77 C -1720.2 1596.95 -1719.1 1595.89 -1718 1594.94 C -1717.5 1598.45 -1717 1601.22 -1718.1 1604.64 C -1720.6 1607.81 -1723.5 1609.21 -1727.5 1609.85 C -1732.8 1610.72 -1737.9 1609.13 -1742.1 1605.85 C -1747.1 1601.93 -1750.3 1596.2 -1751.1 1589.91 C -1751.8 1583.16 -1749.4 1576.74 -1744.9 1571.71 C -1733.8 1559.33 -1710.2 1568.93 -1710.8 1556.9 C -1710.9 1554.87 -1711.5 1553.92 -1712.7 1552.34 C -1719.5 1549.27 -1728.4 1549.07 -1735.8 1549.63 Z"/>
  <path fill="rgb(157,203,150)" d="M -1496.4 1537.83 C -1479.4 1535.86 -1461 1537.06 -1443.8 1536.98 C -1436.1 1536.7 -1428.4 1536.58 -1420.7 1536.4 C -1414.7 1539.87 -1410.3 1546.46 -1408.4 1553.08 C -1407.7 1555.29 -1408.3 1557.6 -1409.7 1559.37 C -1417.2 1568.34 -1456.6 1565.58 -1468.9 1565.5 C -1477.1 1565.29 -1495.4 1568.48 -1501.3 1562.4 C -1504.9 1558.63 -1504.5 1553.61 -1504.8 1548.69 C -1502.4 1544.81 -1499.3 1541.36 -1496.4 1537.83 Z"/>
  <path fill="rgb(0,0,0)" d="M -1924.8 1583.72 C -1924.6 1583.52 -1924.4 1583.32 -1924.2 1583.12 C -1902.6 1563.2 -1870.6 1549.89 -1842.4 1542.65 C -1841.1 1543.45 -1841.6 1542.99 -1840.7 1544.27 C -1824.3 1567.23 -1803.8 1586.64 -1788.2 1610.4 C -1807.2 1597.35 -1825.4 1587.13 -1847.4 1580.1 C -1875.3 1572.54 -1897.5 1573.98 -1924.8 1583.72 Z"/>
  <path fill="rgb(254,254,228)" d="M -1705.3 1605.83 C -1710.9 1612.27 -1716.9 1618.26 -1725.4 1620.79 C -1732.1 1622.79 -1739.1 1621.83 -1745.2 1618.52 C -1753.7 1613.92 -1759.9 1605.51 -1762.4 1596.21 C -1765.1 1585.59 -1763.2 1573.06 -1757.3 1563.81 C -1752.1 1555.66 -1745 1551.83 -1735.8 1549.63 C -1728.4 1549.07 -1719.5 1549.27 -1712.7 1552.34 C -1711.5 1553.92 -1710.9 1554.87 -1710.8 1556.9 C -1710.2 1568.93 -1733.8 1559.33 -1744.9 1571.71 C -1749.4 1576.74 -1751.8 1583.16 -1751.1 1589.91 C -1750.3 1596.2 -1747.1 1601.93 -1742.1 1605.85 C -1737.9 1609.13 -1732.8 1610.72 -1727.5 1609.85 C -1723.5 1609.21 -1720.6 1607.81 -1718.1 1604.64 C -1717 1601.22 -1717.5 1598.45 -1718 1594.94 C -1719.1 1595.89 -1720.2 1596.95 -1721.5 1597.77 C -1723.6 1599.21 -1724.6 1599.62 -1727.1 1599.07 C -1728.7 1596.79 -1729.4 1594.3 -1729.1 1591.52 C -1728.8 1588.35 -1727.3 1585.84 -1724.7 1584.1 C -1720.9 1581.64 -1715.7 1581.14 -1711.4 1582.3 C -1704.9 1584.07 -1702.6 1590.61 -1699.7 1596.04 C -1680.7 1596.93 -1659.4 1604.07 -1645.8 1618.01 C -1642.5 1621.48 -1638.5 1628.68 -1634.2 1630.2 C -1632.7 1628.95 -1631.2 1627.79 -1629.6 1626.65 C -1626.9 1628.78 -1621.7 1647.21 -1620.4 1651.98 C -1615.9 1667.25 -1615.6 1685.33 -1623.6 1699.48 C -1629.4 1709.64 -1638.8 1716.7 -1650.1 1719.61 C -1664 1723.2 -1682 1722.72 -1694.4 1715 C -1701.8 1710.41 -1707.5 1703.2 -1709.4 1694.67 C -1711.3 1686.31 -1709.3 1677.73 -1704.7 1670.63 C -1700.6 1664.5 -1694.6 1660.69 -1687.4 1659.31 C -1680 1657.88 -1672.5 1659.45 -1666.5 1664.05 C -1662.3 1667.22 -1658.8 1671.8 -1658.2 1677.13 C -1657.5 1682.48 -1660 1687.95 -1663.5 1691.94 C -1665.4 1694.16 -1667.7 1695.54 -1670.7 1695.71 C -1674.5 1695.94 -1679.7 1694.44 -1682.2 1691.3 C -1683.8 1689.19 -1683.7 1687.91 -1683.5 1685.46 C -1681.8 1682.77 -1680.9 1681.67 -1678.2 1679.99 C -1674.9 1680.54 -1674.5 1682.67 -1672.5 1685.16 L -1670.7 1682.86 C -1670.3 1680.81 -1669.8 1679.71 -1671.2 1677.86 C -1673.6 1674.48 -1678.7 1672.8 -1682.7 1672.35 C -1686.2 1671.94 -1689.8 1673.07 -1692.5 1675.47 C -1695.6 1678.22 -1696.8 1682.12 -1696.8 1686.14 C -1697 1693.49 -1694.7 1697.96 -1689.9 1703.26 C -1683.5 1707.44 -1676.8 1709.72 -1669.1 1709.99 C -1659.2 1710.33 -1650.3 1706.92 -1643.4 1699.84 C -1635.8 1692.22 -1631.7 1681.78 -1632.1 1671.04 C -1632.8 1655.06 -1642.1 1638.57 -1653.7 1627.83 C -1657.7 1624.15 -1665.9 1617.19 -1671.3 1617.35 C -1680.5 1636.46 -1704.1 1640.07 -1720.6 1650.99 C -1729.5 1656.88 -1735.9 1664.33 -1737.9 1675.07 C -1740.9 1691.91 -1733.3 1707.51 -1717.9 1715.2 C -1712.8 1717.76 -1703.8 1719.73 -1700.5 1724.28 L -1701.2 1726.15 C -1705 1729.47 -1709.7 1731.69 -1714.8 1732 C -1722.3 1732.47 -1727.9 1729.83 -1733.5 1724.77 C -1749.8 1709.79 -1750.4 1683.26 -1751 1662.66 C -1732.5 1633.5 -1693.5 1628.04 -1685 1613.81 L -1685.8 1612.08 C -1691.8 1608.91 -1698.9 1608 -1705.3 1605.83 Z"/>
  <path fill="rgb(172,202,170)" d="M -1507.3 1560.51 C -1511.5 1558.96 -1515.9 1557.25 -1519 1554 L -1519 1551.69 C -1515.9 1551.17 -1512.9 1550.31 -1510.3 1552.67 C -1508.2 1554.53 -1507.3 1557.82 -1507.3 1560.51 Z"/>
  <path fill="rgb(172,202,170)" d="M -1408.6 1567.37 C -1410.8 1567.23 -1412.2 1567.3 -1414 1565.93 C -1412.9 1564.55 -1412 1563.41 -1410.6 1562.31 C -1406.8 1559.2 -1404.1 1555.83 -1401.1 1551.98 C -1398.4 1552.55 -1397.4 1552.31 -1395.6 1554.53 L -1396.2 1556.29 C -1406.7 1558.21 -1402.1 1561.45 -1408.6 1567.37 Z"/>
  <path fill="rgb(254,254,240)" d="M 985.057 942.823 C 1007.87 937.508 1029.18 931.927 1050.46 921.045 C 1114.34 888.256 1139.87 842.141 1162.71 772.96 C 1167.19 778.466 1172.57 799.499 1175.91 807.463 C 1178.6 814.241 1182.06 820.678 1185.52 827.063 C 1216.31 884.011 1263.26 925.403 1323.03 942.382 C 1306.72 946.275 1291.08 952.372 1276.34 960.523 C 1213.24 994.648 1182.7 1051.84 1161.16 1121.14 L 1157.32 1106.26 C 1150.38 1077.75 1138.59 1050.86 1122.42 1026.98 C 1098.29 991.848 1062.66 961.655 1023.16 949.828 C 1010.7 946.123 997.748 944.851 985.057 942.823 Z" style="transform-box: fill-box; transform-origin: 50% 50%;" transform="matrix(0, 1, -1, 0, 0.000077, -0.000175)"/>
  <path fill="rgb(172,202,170)" d="M -1508.9 1575.28 C -1506.7 1569.59 -1508.7 1565.76 -1510.6 1560.17 C -1506.1 1563.55 -1501 1566.85 -1496.9 1570.68 C -1501.4 1573.27 -1505.9 1575.81 -1510.1 1578.83 L -1508.9 1575.28 Z"/>
  <path fill="rgb(157,203,150)" d="M -1482.9 1574.76 C -1484.7 1574.78 -1486.8 1574.94 -1488.6 1574.72 C -1491.3 1574.39 -1491.6 1573.9 -1493.4 1571.99 L -1493.1 1569.8 C -1489.4 1567.28 -1435.1 1568.45 -1424.5 1567.92 C -1422.6 1567.77 -1420.3 1567.5 -1418.5 1568.1 C -1416.2 1568.84 -1414.9 1569.81 -1414 1571.99 C -1419.8 1576.45 -1472.9 1575 -1482.9 1574.76 Z"/>
  <path fill="rgb(157,203,150)" d="M -1404.8 1585.76 C -1408.8 1589.7 -1414.1 1596.48 -1417.1 1601.2 L -1417.4 1602.52 C -1434 1604.25 -1488.7 1607.45 -1501.8 1598.3 C -1504.4 1596.51 -1506.4 1594.02 -1506.7 1590.79 C -1507.3 1584.77 -1503 1581 -1499.3 1577.03 C -1469.7 1577.36 -1440.7 1577.5 -1411.2 1576.14 L -1404.8 1585.76 Z"/>
  <path fill="rgb(0,0,0)" d="M -1861.8 1621.33 C -1867.2 1617.87 -1872.9 1614.23 -1878.9 1612.09 C -1885.7 1609.71 -1894.6 1608.82 -1901.1 1612.35 C -1905.6 1614.82 -1910.4 1620.11 -1911.8 1625.16 C -1913.3 1630.72 -1911.8 1637.27 -1908.6 1642.02 C -1906.3 1645.58 -1902.4 1648.97 -1898 1649.39 C -1893.3 1649.84 -1889.9 1646.06 -1886.5 1643.35 C -1884.9 1643.95 -1884.7 1644.52 -1884.1 1646.16 C -1882.9 1649.44 -1882.9 1655.21 -1884.6 1658.31 C -1886.5 1661.8 -1891.3 1664.48 -1895.1 1665.2 C -1902.6 1666.6 -1910.5 1663.96 -1916.4 1659.46 C -1924.5 1653.31 -1929.7 1644.81 -1930.9 1634.7 C -1932.3 1623.12 -1928.9 1611.47 -1921.4 1602.52 C -1912.5 1591.75 -1901.1 1588.27 -1887.7 1586.87 C -1887 1586.79 -1886.2 1586.7 -1885.4 1586.66 C -1850.1 1584.94 -1819.4 1603.71 -1794.1 1626.54 C -1776.5 1642.43 -1766.2 1661.3 -1765.2 1685.26 C -1764.5 1702.29 -1770.5 1725.22 -1782.5 1737.73 C -1787.5 1742.9 -1793.9 1745.97 -1801.2 1745.82 C -1805 1745.74 -1808.8 1744.48 -1811.3 1741.54 C -1813.7 1738.78 -1814.9 1735.03 -1814.3 1731.41 C -1812.4 1719.8 -1786.4 1714.99 -1777.7 1708.31 C -1773.6 1705.15 -1767.5 1695.13 -1767 1690.09 C -1771.5 1690.88 -1781.6 1701.61 -1786.9 1704.79 C -1790.7 1707.1 -1794.7 1708.35 -1799 1709.58 C -1794.5 1702.48 -1791.5 1694.96 -1792.4 1686.4 C -1792.9 1682.14 -1794.8 1678.44 -1798.2 1675.75 C -1802.2 1672.5 -1807.7 1671.06 -1812.8 1671.66 C -1817.3 1672.17 -1823.5 1674.64 -1826 1678.7 C -1827.3 1680.9 -1827.8 1683.18 -1826.9 1685.66 C -1825.5 1689.59 -1822.6 1692.13 -1819 1694.08 C -1818.8 1694.24 -1818.4 1694.39 -1818.1 1694.55 C -1817.4 1694.11 -1816 1693.26 -1815.4 1692.71 C -1813.2 1690.66 -1814 1687.07 -1813.9 1684.31 L -1812 1683.64 C -1810.9 1684.11 -1810.6 1684.16 -1809.4 1684.97 C -1807.3 1686.48 -1805.5 1689.68 -1805.2 1692.19 C -1804.8 1694.9 -1806 1697.09 -1807.7 1699.1 C -1810.9 1702.89 -1817.2 1704.03 -1821.8 1703.98 C -1828.9 1703.9 -1836.1 1701.3 -1841 1696.11 C -1849 1687.66 -1848.9 1676.63 -1848.4 1665.8 C -1839.5 1662.37 -1833.4 1658.75 -1827.5 1650.88 C -1821.6 1642.9 -1816.5 1631.01 -1818.2 1620.85 C -1819 1616.15 -1821.6 1611.97 -1825.5 1609.24 C -1830.4 1605.85 -1836.5 1604.66 -1842.3 1605.95 C -1851.2 1607.85 -1857.2 1613.85 -1861.8 1621.33 Z"/>
  <path fill="rgb(157,203,150)" d="M -1504.9 1609.27 C -1505.9 1607.9 -1505.5 1608.74 -1506.1 1606.63 L -1504.1 1604.02 C -1506.8 1600.42 -1512.8 1600.2 -1515.9 1596.53 C -1517.1 1595.22 -1517.6 1594.66 -1519 1593.75 C -1520.8 1592.54 -1520.5 1592.63 -1521.1 1590.66 C -1515.3 1592.12 -1507 1596.27 -1503.2 1600.98 C -1501.6 1602.95 -1501 1604.11 -1501.2 1606.61 L -1504.9 1609.27 Z"/>
  <path fill="rgb(172,202,170)" d="M -1398.1 1597.33 C -1401 1597.05 -1403.7 1597.17 -1406 1595.16 C -1405.1 1592.5 -1403.6 1591.92 -1401.4 1590.26 C -1398.8 1590.35 -1397.5 1590.27 -1395.3 1591.86 C -1395.3 1594.72 -1396.4 1595.21 -1398.1 1597.33 Z"/>
  <path fill="rgb(0,0,0)" d="M -1980.2 1783.82 C -1992.2 1762.87 -2001.3 1735.83 -1998.9 1711.43 C -1995 1672.56 -1966.7 1618.27 -1936.4 1593.18 L -1934.9 1594.09 C -1932.8 1603.07 -1940.4 1613.57 -1942 1622.76 C -1944.2 1635.64 -1940.4 1648.26 -1932.9 1658.8 C -1926.2 1668.19 -1916.2 1675.93 -1904.5 1677.43 C -1896.8 1678.42 -1889.1 1676.49 -1883.1 1671.42 C -1877.2 1666.39 -1873.2 1658.78 -1872.8 1650.99 C -1872.5 1645.69 -1873.9 1640.41 -1877.6 1636.49 C -1881 1632.98 -1887.2 1630.37 -1892.1 1630.7 C -1894.8 1630.88 -1895.6 1631.71 -1897.3 1633.7 C -1897.4 1635.54 -1897.5 1636.84 -1898 1638.62 C -1898.4 1638.37 -1898.8 1638.16 -1899.2 1637.87 C -1901.2 1636.31 -1902.6 1633.17 -1902.4 1630.72 C -1902.3 1628.06 -1900.7 1625.64 -1898.6 1624 C -1895.1 1621.08 -1890.3 1620.18 -1885.9 1620.84 C -1878.8 1621.89 -1872.7 1626.54 -1868.5 1632.15 C -1856 1648.9 -1860.8 1668.28 -1863.7 1687.2 C -1879.5 1696.71 -1909.7 1701.23 -1928.4 1705.46 C -1925.1 1701.45 -1921.8 1696.85 -1921.2 1691.61 C -1920.5 1685.98 -1922.8 1682.08 -1926.1 1677.73 C -1928.8 1675.52 -1931.5 1673.38 -1934.6 1671.76 C -1942.9 1667.41 -1952.8 1665.96 -1961.9 1668.9 C -1968.2 1670.95 -1973.9 1675.35 -1976.6 1681.49 C -1979.1 1687.1 -1979.1 1693.36 -1976.7 1699.02 C -1972.1 1710.13 -1961.4 1714.39 -1951 1718.35 C -1959.6 1723.67 -1966.8 1728.66 -1972.4 1737.27 C -1982.1 1751.94 -1983.7 1766.9 -1980.2 1783.82 Z"/>
  <path fill="rgb(172,202,170)" d="M -1417.1 1601.2 C -1414 1600.54 -1411.9 1600.13 -1408.8 1600.86 L -1407.6 1602.5 C -1407.9 1603.72 -1407.8 1605.2 -1409 1605.87 C -1414.8 1609.16 -1415.2 1603.86 -1421.1 1611.28 C -1436.9 1612.2 -1473.8 1615.52 -1487.5 1611.39 C -1489.3 1609.65 -1491.1 1607.92 -1493 1606.25 C -1481 1604.48 -1425.2 1614.13 -1418.1 1603.88 C -1417.8 1603.45 -1417.6 1602.98 -1417.4 1602.52 L -1417.1 1601.2 Z"/>
  <path fill="rgb(0,0,0)" d="M -687.36 1629.96 C -701.13 1630.64 -736.83 1633.44 -748.5 1631.15 C -750.81 1630.7 -753.09 1629.46 -754.18 1627.26 C -755.43 1624.75 -755.5 1622.01 -754.56 1619.4 C -753.52 1616.5 -750.35 1615.01 -747.85 1613.55 C -723.17 1612.5 -697.29 1616.9 -675.58 1628.91 L -687.36 1629.96 Z"/>
  <path fill="rgb(157,203,150)" d="M -1418.2 1634.93 L -1417.2 1636.36 C -1420.5 1638.1 -1423.5 1640.37 -1426.6 1642.49 C -1447.9 1642.13 -1479.1 1648.53 -1497.8 1636.72 C -1501.2 1634.63 -1503.7 1631.77 -1504.4 1627.79 C -1505.2 1622.25 -1502 1618.26 -1499 1614.01 C -1485.6 1614.97 -1472.1 1615.39 -1458.6 1615.26 C -1446.1 1615.1 -1431.6 1613 -1419.4 1615.68 C -1416.1 1616.41 -1413.8 1617.12 -1411.9 1619.93 C -1412.7 1625.25 -1416 1630.08 -1418.2 1634.93 Z"/>
  <path fill="rgb(0,0,0)" d="M -838.96 1631.53 C -827.24 1624.88 -815.92 1618.84 -802.73 1615.73 C -792.96 1615.11 -777.38 1613.26 -768.65 1618.41 C -766.27 1619.82 -765.87 1620.99 -765.11 1623.54 C -765.82 1626.4 -766.31 1628.58 -768.23 1630.93 C -777.96 1633.05 -789.84 1631.59 -799.86 1631.4 C -812.89 1631.3 -825.93 1631.34 -838.96 1631.53 Z"/>
  <path fill="rgb(0,0,0)" d="M -1853.5 1631.68 C -1849.5 1624.76 -1846.1 1619.65 -1838.5 1616.47 C -1834.4 1617.2 -1830.8 1617.92 -1828.1 1621.42 C -1826.2 1624 -1825.7 1627.21 -1826.2 1630.34 C -1827.8 1640.47 -1835.3 1647.86 -1843.1 1653.67 L -1846.7 1655.59 L -1847.4 1654.97 C -1848 1646.38 -1850.3 1639.55 -1853.5 1631.68 Z"/>
  <path fill="rgb(172,202,170)" d="M -1417.2 1636.36 L -1418.2 1634.93 C -1415.3 1633.23 -1409.9 1628.95 -1406.6 1628.84 C -1407.9 1631.29 -1409.3 1633.62 -1410.8 1635.94 C -1409.9 1638 -1409 1640.05 -1408.2 1642.16 C -1410.7 1642.88 -1410.9 1642.75 -1413.4 1641.85 C -1414 1640.5 -1414.5 1639.22 -1414.9 1637.79 L -1417.2 1636.36 Z"/>
  <path fill="rgb(0,0,0)" d="M -711.03 1722.21 C -713.45 1714.38 -716.66 1706.89 -720.3 1699.56 C -725.14 1689.79 -747.41 1653.13 -747.66 1645.24 C -747.71 1643.66 -745.69 1640.22 -744.49 1639.27 C -740.6 1636.19 -717.38 1637.17 -711.1 1637.03 C -700.59 1636.48 -690.07 1636.49 -679.55 1636.44 C -684.55 1654.98 -693.27 1672.35 -698.76 1690.75 C -701.74 1700.76 -702.76 1718.33 -708.09 1726.35 L -709.59 1725.76 L -711.03 1722.21 Z"/>
  <path fill="rgb(0,0,0)" d="M -698.46 1733.3 C -700.21 1698.96 -682.86 1666.89 -670.58 1635.93 C -655.3 1649.87 -627.2 1711.75 -618.38 1733.31 C -627.02 1733.12 -635.71 1733.41 -644.36 1733.51 C -662.35 1733.83 -680.48 1734.01 -698.46 1733.3 Z"/>
  <path fill="rgb(0,0,0)" d="M -801.72 1697.6 C -806.12 1705.57 -809.84 1714.95 -815.49 1722.04 L -817.54 1722.07 C -817.89 1721.58 -818.29 1721.11 -818.61 1720.58 C -820.42 1717.58 -845.28 1645.59 -845.66 1642.33 C -845.75 1641.56 -845.31 1640.82 -845.13 1640.07 L -841.88 1638.91 C -818.57 1637.48 -793.66 1637.69 -770.34 1639.12 C -777.65 1659.73 -790.83 1678.68 -801.72 1697.6 Z"/>
  <path fill="rgb(0,0,0)" d="M -910.6 1732.05 C -899.43 1714.2 -888.88 1695.98 -878.96 1677.41 C -872.29 1665.15 -865.93 1650.86 -857.25 1639.9 C -855.96 1640.41 -854.21 1641.03 -853.19 1642.02 C -846 1648.99 -826.41 1712.47 -826.52 1723.87 C -826.53 1725.75 -826.78 1728.17 -828.32 1729.43 C -835.12 1735.03 -865.37 1732.65 -875.36 1732.54 L -910.6 1732.05 Z"/>
  <path fill="rgb(172,202,170)" d="M -1479.3 1648.41 C -1484.6 1648.32 -1490.5 1647.05 -1495.4 1644.9 C -1497.7 1643.89 -1497.6 1643.98 -1498.5 1641.68 C -1496.8 1641.4 -1495.5 1641.32 -1493.8 1641.64 C -1489.4 1642.49 -1482 1644.63 -1479.3 1648.41 Z"/>
  <path fill="rgb(172,202,170)" d="M -1472.8 1650.59 L -1475 1649.53 L -1474.2 1648.36 C -1458.2 1645.85 -1440.1 1647.36 -1422.9 1644.93 L -1421.1 1645.01 L -1421.6 1646.26 C -1437.2 1652.21 -1456.2 1650.95 -1472.8 1650.59 Z"/>
  <path fill="rgb(0,0,0)" d="M -768.42 1733.72 C -778.67 1733.82 -798.97 1736.08 -808.08 1732.28 C -808.76 1730.52 -808.82 1729.27 -808.42 1727.46 C -805.6 1714.43 -775.75 1665.05 -766.48 1653.24 C -764.22 1650.35 -761.69 1648.27 -758.67 1646.2 C -757.9 1646.6 -757.63 1646.69 -756.9 1647.34 C -752.25 1651.44 -724.36 1708.23 -720.69 1716.75 C -718.93 1720.84 -717.19 1725.19 -716.92 1729.65 C -723.43 1735.95 -757.95 1733.73 -768.42 1733.72 Z"/>
  <path fill="rgb(157,203,150)" d="M -1438.9 1666.17 C -1443.3 1669.33 -1447.3 1671.74 -1452.7 1672.37 C -1460.7 1673.3 -1469.8 1671.6 -1476 1666.25 C -1480.4 1662.41 -1481.4 1659.28 -1482 1653.54 C -1466 1653.54 -1446.4 1650.66 -1431.5 1656.62 C -1433.8 1659.99 -1436.4 1663.06 -1438.9 1666.17 Z"/>
  <path fill="rgb(0,0,0)" d="M -1951.3 1681.87 C -1952.4 1683.15 -1952.7 1683.74 -1953.1 1685.47 C -1953.6 1687.57 -1953.2 1687.43 -1952.2 1689.14 C -1947 1691.94 -1941.7 1689.43 -1936.2 1689.43 C -1933.6 1689.43 -1932.6 1690.14 -1930.9 1691.96 C -1930.4 1695.79 -1932.2 1699.28 -1934 1702.58 C -1935.5 1705.14 -1937 1706.38 -1939.9 1707.07 C -1945.2 1708.3 -1950.6 1706.58 -1955 1703.59 C -1959.2 1700.69 -1963.2 1695.95 -1963.8 1690.71 C -1964.2 1687.69 -1963.5 1684.88 -1961.2 1682.69 C -1958.2 1679.69 -1954.4 1679.31 -1950.4 1679.1 L -1951.3 1681.87 Z"/>
  <path fill="rgb(10,12,8)" d="M -1950.4 1679.1 C -1946.5 1679.64 -1943.3 1680.19 -1939.7 1681.85 L -1940.3 1682.76 C -1944.1 1682.97 -1947.5 1682.15 -1951.3 1681.87 L -1950.4 1679.1 Z"/>
  <path fill="rgb(97,82,156)" d="M -1439.2 1960.04 C -1504.6 1963.96 -1560.8 1914.21 -1564.8 1848.84 C -1568.9 1783.47 -1519.3 1727.16 -1453.9 1722.96 C -1388.3 1718.75 -1331.8 1768.56 -1327.8 1834.12 C -1323.7 1899.69 -1373.6 1956.11 -1439.2 1960.04 Z M -1447.1 1762.86 C -1469.4 1764.88 -1488.8 1773.61 -1503.3 1791.04 C -1517.2 1807.82 -1525 1829.86 -1522.9 1851.74 C -1520.7 1872.42 -1510.4 1891.4 -1494.2 1904.51 C -1477.9 1917.72 -1458.3 1923.76 -1437.3 1921.48 C -1418.8 1919.59 -1401.8 1910.39 -1390 1895.92 C -1381 1884.65 -1375.2 1869.99 -1377 1855.4 C -1378.8 1841.48 -1387.6 1829.66 -1398.6 1821.41 C -1410.4 1812.56 -1425.2 1807.66 -1440 1809.87 C -1452.4 1811.73 -1464.1 1818.51 -1471.3 1828.9 C -1475.8 1835.32 -1477 1843.86 -1475.5 1851.43 C -1473.9 1859.78 -1469 1868.23 -1461.6 1872.71 C -1454.5 1877 -1444.1 1877.29 -1436.2 1875.18 C -1430.9 1873.76 -1425.3 1870.92 -1422.5 1866.01 C -1420.6 1862.76 -1420.1 1858.42 -1421.2 1854.82 C -1422.2 1851.49 -1426.5 1847.24 -1429.6 1845.73 C -1430.5 1845.3 -1431.1 1845.28 -1432 1845.16 C -1434.3 1846.66 -1434.8 1847.6 -1435.5 1850.33 C -1436.6 1855.15 -1435.3 1860.5 -1440.3 1863.41 C -1442.9 1864.92 -1445.5 1864.68 -1448.2 1863.62 C -1453 1861.73 -1458.9 1856.39 -1460.7 1851.5 C -1461.5 1849.38 -1461.9 1847.06 -1462.3 1844.84 C -1461 1837.51 -1458.7 1831.78 -1452.4 1827.31 C -1445.1 1822.11 -1434.4 1821.36 -1425.8 1823.16 C -1414 1825.65 -1401.5 1834.59 -1395.1 1844.87 C -1390.4 1852.35 -1388.8 1860.95 -1390.9 1869.55 C -1394.2 1882.53 -1405.3 1893.92 -1416.7 1900.5 C -1430.8 1908.49 -1447.6 1910.5 -1463.2 1906.09 C -1479.4 1901.47 -1493.3 1889.9 -1501.3 1875.14 C -1509.6 1859.79 -1512.2 1841.65 -1507 1824.86 C -1501.6 1807.38 -1488.9 1791.39 -1472.5 1782.95 C -1455.7 1774.26 -1436 1773.41 -1418.2 1779.34 C -1387.3 1789.6 -1369 1814.89 -1354.6 1842.51 C -1360.5 1815.28 -1372 1792.02 -1396 1776.4 C -1410.6 1766.88 -1429.6 1761.13 -1447.1 1762.86 Z"/>
  <path fill="rgb(234,169,151)" d="M -1103.1 1961.69 C -1168.9 1968.56 -1227.7 1920.68 -1234.4 1854.86 C -1241.1 1789.05 -1193 1730.36 -1127.1 1723.92 C -1061.6 1717.51 -1003.2 1765.32 -996.63 1830.83 C -990.01 1896.33 -1037.6 1954.86 -1103.1 1961.69 Z M -1115.9 1756.92 C -1122.7 1775.65 -1130.1 1794.4 -1136.4 1813.32 C -1156.4 1815.17 -1176.4 1817.17 -1196.4 1819.3 C -1180.4 1830.05 -1162 1840.53 -1147.8 1853.49 C -1153.3 1872.98 -1158.9 1892.51 -1165.7 1911.6 C -1155.2 1905.06 -1122.7 1881.17 -1113.8 1880.06 L -1111.1 1881.69 C -1095.1 1892.97 -1080.1 1906.11 -1063.9 1916.85 C -1071 1896.71 -1078 1874.67 -1081.4 1853.62 C -1065.9 1841.5 -1048.1 1832.31 -1032.9 1819.95 C -1053.1 1817.11 -1073.6 1815.13 -1093.9 1813.41 C -1097 1805.17 -1111.4 1759.49 -1115.9 1756.92 Z"/>
  <path fill="rgb(0,0,0)" d="M -756.08 1868.12 C -741.38 1831.62 -724.13 1768.81 -699.29 1739.43 C -672.25 1741.35 -644.7 1740.54 -617.58 1740.65 C -647.78 1771.03 -680.17 1799.44 -711.04 1829.18 C -725.66 1842.54 -740.13 1856.35 -756.08 1868.12 Z"/>
  <path fill="rgb(0,0,0)" d="M -772.34 1867.74 C -821.04 1827.06 -866.78 1785.98 -911.18 1740.58 C -894.99 1740.74 -839.7 1738.05 -828.21 1743.65 C -824.42 1745.5 -820.67 1748.35 -818.33 1751.9 C -811.16 1762.74 -806.78 1777.11 -801.93 1789.19 C -791.51 1815.17 -780.82 1841.05 -772.34 1867.74 Z"/>
  <path fill="rgb(0,0,0)" d="M -763.59 1864.22 C -776.13 1835.48 -787.98 1806.07 -799.76 1776.99 C -803.36 1768.1 -812.38 1749.85 -808.57 1740.85 C -786.74 1739.93 -754.83 1738.92 -733.51 1740.46 C -727.64 1740.89 -721.13 1741.75 -717.04 1746.37 C -716.67 1749.37 -718.38 1753.01 -719.46 1755.79 C -723.59 1766.42 -728.96 1776.72 -733.52 1787.2 C -739.72 1801.59 -745.43 1816.19 -750.62 1830.97 C -754.75 1842.1 -758.61 1853.44 -763.59 1864.22 Z"/>
  <path fill="rgb(0,0,0)" d="M -1700.6 1824.48 C -1694.7 1824.58 -1688.8 1825.98 -1682.8 1826.09 C -1681.3 1825.32 -1679.5 1824.14 -1677.9 1823.71 C -1675.5 1823.06 -1672.5 1825.46 -1670.5 1826.57 C -1668.8 1827.49 -1667.2 1828.52 -1665.3 1829.06 C -1657.1 1831.47 -1646.5 1830.3 -1639.2 1825.97 C -1629.8 1820.43 -1625.2 1810.88 -1618.7 1802.64 C -1614.3 1797.17 -1607.8 1793.62 -1603 1788.48 C -1592.7 1777.29 -1591 1758.37 -1587.3 1744.01 C -1584.3 1749.49 -1587.6 1765.29 -1588.6 1771.33 C -1591.2 1786.2 -1604.7 1838.79 -1618.3 1846.52 C -1622 1848.61 -1626 1849.37 -1630.1 1848.14 C -1637.3 1845.96 -1641.8 1839.64 -1645.3 1833.43 L -1646 1832.14 C -1651.5 1831.82 -1655.3 1834.63 -1659.9 1837.1 C -1668.9 1842 -1675.1 1841.83 -1684.8 1838.9 C -1691.7 1835.04 -1696 1830.71 -1700.6 1824.48 Z"/>
  <path fill="rgb(0,0,0)" d="M -1729.4 1781.93 C -1728.3 1779.66 -1726.9 1777.56 -1725.5 1775.45 C -1713.7 1758.67 -1695.4 1751.23 -1675.9 1747.73 C -1665.7 1746.62 -1655.4 1747.45 -1646.5 1752.99 C -1637.8 1758.41 -1631.9 1767.63 -1629.9 1777.63 C -1628 1787.69 -1629.9 1799.04 -1635.8 1807.53 C -1639.8 1813.24 -1645.6 1817.22 -1652.5 1818.28 C -1659 1819.28 -1667.1 1818.12 -1672.4 1813.98 C -1677.1 1810.27 -1680 1804.46 -1680.5 1798.52 C -1680.9 1793.23 -1679.5 1787.82 -1675.9 1783.82 C -1672.4 1779.91 -1667.3 1777.9 -1662.1 1777.54 C -1660.1 1778.14 -1658.7 1778.71 -1657.3 1780.24 C -1655.2 1782.52 -1654.3 1785.35 -1654.5 1788.42 C -1654.6 1790.41 -1655.4 1790.59 -1656.7 1791.89 L -1657.8 1791.54 C -1658.2 1788.87 -1658.6 1786.72 -1659.6 1784.2 L -1661.5 1783.53 C -1664 1784.4 -1666 1785.41 -1667.6 1787.63 C -1669.5 1790.29 -1670.1 1793.87 -1669.4 1797.05 C -1668.7 1800.02 -1666.9 1803.29 -1664.1 1804.81 C -1660.2 1807 -1657.1 1805.96 -1653.1 1804.88 C -1648.4 1801.29 -1645.3 1797.76 -1643.1 1792.19 C -1641.7 1788.61 -1641.9 1785.1 -1643.6 1781.67 C -1646.3 1776.38 -1652.2 1772.41 -1657.8 1770.78 C -1665 1768.65 -1673.1 1770.09 -1679.5 1773.93 C -1685 1777.17 -1688.6 1782.08 -1690 1788.27 C -1692.7 1800.4 -1688.2 1810.49 -1682 1820.55 C -1685.9 1819.54 -1689.8 1818.43 -1693.6 1817.21 C -1713.4 1810.78 -1720.6 1799.72 -1729.4 1781.93 Z"/>
  <path fill="rgb(0,0,0)" d="M -1136.4 1813.32 C -1130.1 1794.4 -1122.7 1775.65 -1115.9 1756.92 C -1111.4 1759.49 -1097 1805.17 -1093.9 1813.41 C -1073.6 1815.13 -1053.1 1817.11 -1032.9 1819.95 C -1048.1 1832.31 -1065.9 1841.5 -1081.4 1853.62 C -1078 1874.67 -1071 1896.71 -1063.9 1916.85 C -1080.1 1906.11 -1095.1 1892.97 -1111.1 1881.69 L -1113.8 1880.06 C -1122.7 1881.17 -1155.2 1905.06 -1165.7 1911.6 C -1158.9 1892.51 -1153.3 1872.98 -1147.8 1853.49 C -1162 1840.53 -1180.4 1830.05 -1196.4 1819.3 C -1176.4 1817.17 -1156.4 1815.17 -1136.4 1813.32 Z"/>
  <path fill="rgb(0,0,0)" d="M -1462.3 1844.84 C -1461.9 1847.06 -1461.5 1849.38 -1460.7 1851.5 C -1458.9 1856.39 -1453 1861.73 -1448.2 1863.62 C -1445.5 1864.68 -1442.9 1864.92 -1440.3 1863.41 C -1435.3 1860.5 -1436.6 1855.15 -1435.5 1850.33 C -1434.8 1847.6 -1434.3 1846.66 -1432 1845.16 C -1431.1 1845.28 -1430.5 1845.3 -1429.6 1845.73 C -1426.5 1847.24 -1422.2 1851.49 -1421.2 1854.82 C -1420.1 1858.42 -1420.6 1862.76 -1422.5 1866.01 C -1425.3 1870.92 -1430.9 1873.76 -1436.2 1875.18 C -1444.1 1877.29 -1454.5 1877 -1461.6 1872.71 C -1469 1868.23 -1473.9 1859.78 -1475.5 1851.43 C -1477 1843.86 -1475.8 1835.32 -1471.3 1828.9 C -1464.1 1818.51 -1452.4 1811.73 -1440 1809.87 C -1425.2 1807.66 -1410.4 1812.56 -1398.6 1821.41 C -1387.6 1829.66 -1378.8 1841.48 -1377 1855.4 C -1375.2 1869.99 -1381 1884.65 -1390 1895.92 C -1401.8 1910.39 -1418.8 1919.59 -1437.3 1921.48 C -1458.3 1923.76 -1477.9 1917.72 -1494.2 1904.51 C -1510.4 1891.4 -1520.7 1872.42 -1522.9 1851.74 C -1525 1829.86 -1517.2 1807.82 -1503.3 1791.04 C -1488.8 1773.61 -1469.4 1764.88 -1447.1 1762.86 C -1429.6 1761.13 -1410.6 1766.88 -1396 1776.4 C -1372 1792.02 -1360.5 1815.28 -1354.6 1842.51 C -1369 1814.89 -1387.3 1789.6 -1418.2 1779.34 C -1436 1773.41 -1455.7 1774.26 -1472.5 1782.95 C -1488.9 1791.39 -1501.6 1807.38 -1507 1824.86 C -1512.2 1841.65 -1509.6 1859.79 -1501.3 1875.14 C -1493.3 1889.9 -1479.4 1901.47 -1463.2 1906.09 C -1447.6 1910.5 -1430.8 1908.49 -1416.7 1900.5 C -1405.3 1893.92 -1394.2 1882.53 -1390.9 1869.55 C -1388.8 1860.95 -1390.4 1852.35 -1395.1 1844.87 C -1401.5 1834.59 -1414 1825.65 -1425.8 1823.16 C -1434.4 1821.36 -1445.1 1822.11 -1452.4 1827.31 C -1458.7 1831.78 -1461 1837.51 -1462.3 1844.84 Z"/>
  <path fill="rgb(0,0,0)" d="M -1812.3 1948.34 C -1852 1943.02 -1887.8 1929.07 -1919.6 1904.32 C -1962.5 1870.94 -1993.6 1823.91 -2000.4 1769.24 C -1996.8 1772.99 -1994.7 1779.45 -1992.4 1784.11 C -1985.9 1796.83 -1977.4 1810.45 -1966.4 1819.77 C -1949 1834.48 -1927.6 1835.47 -1906 1833.67 C -1902.1 1839.7 -1895.8 1846.76 -1894 1853.72 C -1892.6 1858.9 -1893.1 1864.4 -1895.9 1869.03 C -1898.6 1873.55 -1903.2 1876.77 -1908.3 1878.02 C -1914.2 1879.4 -1920.3 1878.25 -1925.3 1874.83 C -1929.4 1872.02 -1933 1867.54 -1933.6 1862.39 C -1933.9 1859.4 -1933.3 1858.32 -1931.5 1856.04 C -1928.6 1857.13 -1927.5 1867.13 -1922.7 1870.37 C -1920 1870.86 -1918.7 1870.88 -1916.2 1869.87 C -1914.4 1866.68 -1914.5 1862.41 -1915.1 1858.86 C -1915.7 1854.88 -1917.7 1851.38 -1921 1849.05 C -1924.7 1846.5 -1929.4 1845.82 -1933.7 1846.89 C -1938 1847.96 -1941.7 1850.77 -1943.8 1854.65 C -1946.7 1859.83 -1946.8 1866.23 -1944.9 1871.76 C -1942.2 1879.78 -1935.5 1886.46 -1927.9 1890 C -1919.8 1893.75 -1910.6 1893.85 -1902.4 1890.73 C -1890.1 1886.11 -1884.6 1877 -1879.3 1865.83 C -1873.6 1869.78 -1850.6 1915.66 -1841 1926.53 C -1832.9 1935.68 -1822 1941.18 -1812.3 1948.34 Z"/>
  <path fill="rgb(0,0,0)" d="M -1820.9 1853.24 C -1828.1 1855.05 -1834.7 1856.61 -1841.8 1853.37 C -1848.1 1850.46 -1852.2 1844.53 -1854.2 1838 C -1857 1828.75 -1856.3 1818.79 -1851.5 1810.32 C -1845.9 1800.5 -1837.5 1795.75 -1827 1792.68 C -1820.3 1792.05 -1814.3 1792.46 -1808 1795.17 C -1801 1798.21 -1795.6 1803.88 -1793.2 1811.14 C -1790.6 1819.16 -1791.3 1827.9 -1795.3 1835.34 C -1800.8 1845.68 -1810.1 1850.11 -1820.9 1853.24 Z"/>
  <path fill="rgb(0,0,0)" d="M -1774.5 1948.09 L -1774.5 1947.79 C -1750.9 1943.42 -1736.9 1937.85 -1723.1 1917.1 C -1719.3 1911.41 -1715.7 1905.28 -1710.5 1900.81 C -1705.8 1896.85 -1699.4 1894.73 -1694.3 1891.38 C -1689.7 1888.4 -1683.5 1883.01 -1682.6 1877.28 C -1682.4 1875.78 -1683.4 1875 -1684.2 1873.83 C -1691.1 1871.65 -1698.7 1884.77 -1710 1886.8 C -1717.5 1888.15 -1726.7 1887.7 -1733.1 1883.12 C -1748.5 1872.02 -1729.8 1851.13 -1726.6 1838.02 C -1723.9 1827.33 -1724.9 1818.08 -1726.5 1807.32 C -1723.9 1810.25 -1722.1 1815.16 -1720.2 1818.65 C -1713.9 1830.59 -1707.7 1842.68 -1698.3 1852.56 C -1683.5 1868.08 -1662.3 1874.38 -1651.1 1893.33 C -1659 1900.41 -1667.2 1907.15 -1675.6 1913.53 C -1701.5 1932.96 -1741.1 1952.9 -1774.5 1948.09 Z"/>
  <path fill="rgb(0,0,0)" d="M -1641.3 1883.86 C -1658.6 1861.69 -1660.8 1866.58 -1682.4 1853.03 C -1682.6 1852.88 -1682.9 1852.72 -1683.1 1852.56 C -1673.9 1852.6 -1663.9 1852.62 -1654.7 1853.99 C -1647.4 1855.08 -1640 1857.32 -1632.7 1857.7 C -1628.7 1857.91 -1625.4 1856.21 -1621.5 1856.11 C -1623.2 1860.74 -1627.5 1865.44 -1630.4 1869.46 L -1641.3 1883.86 Z"/>
  <path fill="rgb(0,0,0)" d="M -1831.5 1867.79 C -1823 1866.01 -1814.4 1864.87 -1806.5 1861.09 C -1800.2 1866.24 -1798.4 1873.95 -1790 1877.64 C -1777.1 1883.36 -1762.1 1879.9 -1749.5 1875.03 C -1748.1 1878.84 -1746.7 1882.71 -1744.6 1886.26 C -1740.8 1892.98 -1735.7 1895.23 -1728.5 1897.37 C -1736.3 1910.54 -1744 1920.66 -1757.3 1928.73 C -1758.9 1929.44 -1760.5 1930.13 -1762.1 1930.79 C -1775.9 1936.46 -1790.3 1936.33 -1804 1930.54 C -1817.3 1924.79 -1827.8 1913.9 -1832.9 1900.34 C -1837.3 1888.98 -1836.5 1878.69 -1831.5 1867.79 Z M -1784.2 1888.58 C -1790.3 1890.56 -1795.9 1892.92 -1798.9 1898.94 C -1801 1902.96 -1801.4 1907.62 -1799.8 1911.88 C -1798 1916.79 -1793.9 1920.45 -1789.1 1922.28 C -1786 1923.44 -1783 1923.55 -1779.8 1923.45 C -1773 1920.58 -1767.8 1916.88 -1765 1909.85 C -1763.4 1905.76 -1763.1 1901.03 -1765 1896.97 C -1766.6 1893.51 -1769.7 1890.82 -1773.3 1889.59 C -1776.8 1888.41 -1780.6 1888.39 -1784.2 1888.58 Z"/>
  <path fill="rgb(254,254,228)" d="M -1779.8 1923.45 C -1783 1923.55 -1786 1923.44 -1789.1 1922.28 C -1793.9 1920.45 -1798 1916.79 -1799.8 1911.88 C -1801.4 1907.62 -1801 1902.96 -1798.9 1898.94 C -1795.9 1892.92 -1790.3 1890.56 -1784.2 1888.58 C -1780.6 1888.39 -1776.8 1888.41 -1773.3 1889.59 C -1769.7 1890.82 -1766.6 1893.51 -1765 1896.97 C -1763.1 1901.03 -1763.4 1905.76 -1765 1909.85 C -1767.8 1916.88 -1773 1920.58 -1779.8 1923.45 Z M -1784.6 1899.55 C -1786.9 1901.27 -1790.3 1903.35 -1791 1906.33 C -1791.6 1909.06 -1791.1 1910.03 -1789.8 1912.27 C -1786.6 1914.13 -1784.2 1914.43 -1780.7 1913.45 C -1780.1 1913.29 -1779.5 1913.11 -1779 1912.95 C -1777 1909.69 -1772.8 1905.59 -1772.4 1901.93 C -1774.1 1900 -1775.5 1899.62 -1778.1 1899.43 C -1780.2 1899.28 -1782.4 1899.45 -1784.6 1899.55 Z"/>
  <path fill="rgb(0,0,0)" d="M -1779 1912.95 C -1779.5 1913.11 -1780.1 1913.29 -1780.7 1913.45 C -1784.2 1914.43 -1786.6 1914.13 -1789.8 1912.27 C -1791.1 1910.03 -1791.6 1909.06 -1791 1906.33 C -1790.3 1903.35 -1786.9 1901.27 -1784.6 1899.55 C -1782.4 1899.45 -1780.2 1899.28 -1778.1 1899.43 C -1775.5 1899.62 -1774.1 1900 -1772.4 1901.93 C -1772.8 1905.59 -1777 1909.69 -1779 1912.95 Z"/>
  <g transform="matrix(1.093904, 0, 0, 1.093904, -810.836487, -114.02906)" style="">
    <path fill="rgb(254,254,240)" d="M 1113.28 781.936 C 1106.95 783.416 1101.68 785.135 1097.17 790.069 C 1093.02 794.613 1091.96 800.575 1092.3 806.552 C 1092.89 816.679 1097.43 825.392 1105.04 832.041 C 1120.38 845.461 1144.78 850.843 1164.71 849.455 C 1181.97 848.253 1198.67 841.626 1209.97 828.061 C 1242.44 789.086 1199.42 753.245 1172.71 728.796 C 1162.32 719.29 1152.1 709.626 1142.91 698.936 C 1121.97 674.599 1106.19 645.476 1103.14 613.072 C 1099.66 576.183 1110.79 536.666 1134.83 508.232 C 1164.23 473.468 1208.09 455.417 1252.63 451.583 C 1272.02 449.235 1293.9 452.31 1312.61 457.591 C 1342.66 466.072 1370.66 482.157 1386.17 510.126 C 1397.47 530.493 1402.61 556.511 1395.93 579.201 C 1390.89 596.336 1379.66 612.405 1363.61 620.805 C 1350.72 627.555 1334.68 629.018 1320.82 624.529 C 1305.43 619.547 1293.38 608.502 1286.19 594.137 C 1283.23 588.234 1281.51 581.562 1284.02 575.182 C 1285.7 570.933 1289.86 565.441 1294.4 563.99 C 1300.64 561.994 1306.18 566.015 1311.46 568.849 C 1312.8 567.62 1314.07 566.382 1315.26 565.009 C 1318.83 560.922 1322.36 555.544 1321.44 549.816 C 1320.94 546.696 1319.01 544.186 1316.39 542.534 C 1311.93 539.717 1306.02 539.891 1301.11 541.262 C 1291.66 543.899 1283.67 551.005 1279.08 559.558 C 1251.05 611.841 1331.47 650.125 1361 678.235 C 1384.68 700.783 1402.49 726.248 1411.77 757.763 C 1426.46 807.687 1420.42 857.813 1395.42 903.201 C 1364.47 959.41 1308.32 998.527 1247.33 1016.02 C 1176.57 1036.31 1096.5 1034.68 1031.01 998.585 C 1006.9 985.13 985.821 967.651 969.871 944.988 C 944.367 908.724 935.313 864.207 942.956 820.639 C 950.454 777.9 972.681 740.806 1008.55 715.962 C 1034.48 697.997 1063.67 689.531 1095 695.279 C 1118.4 699.574 1141.02 711.272 1154.53 731.431 C 1163.03 744.247 1166 759.949 1162.77 774.984 C 1161.25 782.144 1158.04 790.248 1151.39 794.114 C 1138.96 801.34 1129.64 785.787 1113.28 781.936 Z" style="stroke-width: 1;"/>
    <path fill="rgb(254,254,240)" d="M 1717.65 622.515 C 1705.73 610.656 1688.32 611.006 1675.5 600.026 C 1665.01 591.04 1658.6 576.886 1657.53 563.2 C 1655.39 535.894 1669.88 508.43 1687.45 488.556 C 1712.84 459.835 1746.85 444.988 1784.82 442.546 C 1813.21 441.776 1840.74 452.359 1861.31 471.951 C 1884.89 494.25 1894.96 523.612 1895.52 555.54 C 1895.88 574.884 1893.18 594.162 1887.52 612.663 C 1867.88 677.213 1815.29 747.75 1769.02 795.903 C 1704.16 863.395 1606.29 927.62 1509.64 929.154 C 1494.04 929.402 1454.71 930.266 1444.04 919.109 C 1439.14 913.995 1438.85 905.787 1439.45 899.166 C 1440.97 882.296 1447.68 865.321 1451.08 848.684 C 1459.83 805.854 1466.59 761.129 1467.59 717.409 C 1470.36 677.081 1467.35 635.455 1462.69 595.368 C 1460.19 573.862 1456.47 552.081 1455.18 530.486 C 1454.92 526.268 1454.9 521.678 1456.82 517.795 C 1459.98 511.385 1467.26 508.018 1473.76 506.15 C 1497.08 499.451 1577.17 490.583 1602.53 492.497 C 1608.17 492.923 1614.19 493.953 1619.14 496.845 C 1624.96 500.242 1627.29 508.838 1628.66 514.985 C 1633.8 538.21 1633.61 563.621 1634.34 587.357 C 1635.32 632.415 1635.69 677.483 1635.44 722.551 C 1635.42 731.828 1633.63 758.062 1635.83 765.653 C 1636.41 767.621 1635.93 766.891 1637.87 767.953 C 1649.17 762.936 1683.75 716.208 1692.3 703.388 C 1697.4 695.743 1701.9 687.806 1706.17 679.674 C 1715.64 661.636 1724.02 642.968 1717.65 622.515 Z" style="stroke-width: 1;"/>
    <path fill="rgb(254,254,240)" d="M 2322.23 756.446 C 2304.22 766.566 2289.37 799.287 2275.62 815.936 C 2225.43 876.809 2152.88 926.618 2072.8 934.239 C 2022.5 939.03 1974.44 931.243 1934.68 898.256 C 1899.93 869.421 1880.46 826.397 1876.72 781.853 C 1870.68 710.144 1900.19 638.35 1945.9 584.173 C 2007.66 511.002 2093.92 456.013 2190.72 447.694 C 2225.47 442.369 2272.69 450.827 2303.14 468.496 C 2328.2 483.034 2348.28 507.819 2355.65 535.997 C 2362.32 560.833 2358.72 587.307 2345.67 609.457 C 2333.68 629.692 2313.4 646.976 2290.26 652.651 C 2267.8 658.164 2242.59 654.673 2222.9 642.37 C 2208.52 633.386 2193.95 617.09 2190.56 600.124 C 2187.98 587.225 2194.19 572.721 2202.34 562.798 C 2205.3 559.189 2209.22 555.9 2211.5 551.777 C 2212.88 549.265 2212.82 547.745 2212.19 545.057 C 2210.25 542.912 2208.68 541.964 2205.8 541.708 C 2184.7 539.824 2162.64 553.571 2147.34 566.646 C 2098.89 608.094 2059.27 685.559 2054.62 749.771 C 2053.29 768.218 2054.73 789.943 2067.88 804.276 C 2073.9 810.836 2081.88 814.04 2090.72 814.136 C 2109.89 814.345 2127.37 803.037 2140.48 789.968 C 2146.97 783.498 2162.15 771.011 2161.05 761.302 C 2160.86 759.669 2160.77 758.062 2159.26 757.153 C 2144.23 748.041 2124.25 771 2109.87 772.329 C 2105.33 772.749 2101.13 771.463 2097.7 768.434 C 2089.88 761.536 2086.73 748.361 2086.19 738.379 C 2085.39 723.465 2088 707.799 2098.72 696.598 C 2104.51 690.595 2112.01 686.502 2120.2 684.867 C 2136.97 681.675 2156.03 683.947 2173.17 683.939 L 2268.34 683.193 C 2288.55 683.18 2324.74 680.534 2342.92 685.529 C 2348.2 687.004 2353.05 689.641 2357.15 693.247 C 2363.94 699.171 2368.06 707.569 2368.58 716.557 C 2369.14 727.262 2364.2 737.582 2356.75 745.082 C 2346.38 755.563 2336.13 756.378 2322.23 756.446 Z" style="stroke-width: 1;"/>
    <g transform="matrix(1, 0, 0, 1, -100.117302, 434.509094)">
      <path fill="rgb(254,254,240)" d="M 2249.11 712.608 C 2225.45 712.276 2198.42 707.819 2175.26 712.704 C 2134.55 721.29 2113.07 766.249 2071.53 770.476 C 2050.85 772.58 2031.15 766.09 2015.29 752.823 C 2001.48 741.317 1992.9 724.724 1991.49 706.806 C 1989.63 684.933 1997.6 662.859 2011.89 646.348 C 2033.89 620.929 2064.9 611.854 2097.38 609.657 C 2124.26 608.806 2151.42 612.156 2178.2 614.201 C 2207.84 616.273 2237.51 617.919 2267.2 619.139 C 2305.91 620.773 2344.65 621.781 2383.39 622.163 C 2407.16 622.39 2431.41 621.269 2455.09 623.056 C 2462.77 623.635 2470.18 625.053 2476.11 630.379 C 2481.71 635.395 2484.59 643.363 2484.99 650.717 C 2485.4 658.462 2483.62 669.089 2478.11 674.88 C 2461.96 691.844 2443.63 707.107 2426.34 722.907 L 2330.28 810.572 C 2271.93 863.922 2216.12 919.962 2156.84 972.352 C 2175.65 974.952 2194.54 981.152 2212.84 986.192 C 2243.45 994.532 2273.94 1003.3 2304.3 1012.48 C 2327.65 1019.56 2351.43 1027.74 2375.85 1029.9 C 2383.71 1030.59 2392.64 1029.41 2399.84 1026.21 C 2406.22 1023.38 2413.81 1017.92 2416.09 1010.99 C 2417.34 1007.18 2416.49 1003.28 2414.53 999.882 C 2406.94 986.742 2390.36 989.812 2377.56 986.532 C 2357.1 981.292 2340.37 966.692 2329.81 948.712 C 2317.13 927.132 2315.76 900.042 2322.08 876.182 C 2329.3 848.952 2348.14 826.452 2372.44 812.622 C 2400.29 796.762 2429.87 791.796 2460.89 800.612 C 2498.63 811.332 2526.69 840.332 2545.09 874.012 C 2572.1 923.492 2578.65 988.172 2562.72 1042.18 C 2549.27 1087.81 2521.06 1130.62 2478.26 1153.44 C 2415.31 1187 2343.87 1170.68 2279.49 1151.35 C 2128.2 1099.7 1997.83 1055.01 1834.71 1058.24 C 1811.49 1058.77 1788.31 1060.46 1765.25 1063.31 C 1750.76 1065.04 1736.17 1067.86 1721.6 1068.62 L 1720.1 1068.69 C 1714.8 1064.54 1711.28 1060.26 1707.84 1054.55 C 1705.67 1022.46 1729.4 994.612 1743.17 967.122 C 1750.78 951.932 1756.9 935.132 1761.94 918.912 C 1767.06 902.472 1770.55 885.112 1773.43 868.152 C 1775.84 854.012 1776.67 837.202 1782.4 824.132 C 1786.7 814.322 1799.96 808.662 1809.41 804.872 C 1828.62 797.162 1937.38 762.498 1950.95 769.139 C 1957.7 772.442 1952.91 784.513 1951.28 790.21 C 1935.37 845.712 1920.24 904.482 1921.37 962.562 C 1921.51 969.562 1921.04 978.042 1923.33 984.672 C 1924.35 987.612 1925.58 988.612 1928.36 989.822 C 1968.19 985.042 2197.52 753.904 2249.11 712.608 Z" style="stroke-width: 1;"/>
      <path fill="rgb(254,254,240)" d="M 1569.26 941.022 C 1571.12 938.712 1572.9 936.342 1574.62 933.922 C 1602.9 894.072 1637.11 838.062 1641.43 788.731 C 1641.93 782.981 1642.53 775.724 1641.33 770.06 C 1638.62 757.344 1616.86 765.829 1607.76 759.578 C 1601.71 755.428 1599.76 747.221 1598.69 740.362 C 1595.33 719.005 1605.53 696.651 1617.74 679.713 C 1639.76 649.177 1677.56 625.545 1714.7 619.54 C 1717.86 619.234 1721.03 619.001 1724.21 618.841 C 1743.41 618.039 1761.5 624.341 1775.57 637.564 C 1793.21 654.144 1799.68 676.29 1800.26 699.932 C 1802.89 805.802 1696.26 950.982 1625.83 1024.45 C 1577.26 1075.12 1515.93 1122.3 1442.63 1123.36 C 1432.67 1123.51 1421.01 1122.34 1413.7 1114.8 C 1409.29 1110.25 1406.08 1101.57 1406.38 1095.23 C 1407.12 1079.66 1415.56 1060.27 1418.69 1044.23 C 1426.01 1006.71 1428.86 968.802 1429.78 930.622 C 1422.26 945.332 1416.23 960.862 1409.48 975.952 C 1387.81 1024.39 1354.11 1099.35 1311.62 1132.79 C 1280.51 1157.27 1236.05 1164.49 1197.51 1159.85 C 1183.52 1158.17 1169.76 1154.42 1160.9 1142.55 C 1154.15 1133.52 1154.11 1120.75 1155.09 1109.95 C 1157.26 1086.03 1166.28 1060.94 1172.44 1037.77 C 1183.08 997.802 1193.32 957.232 1199.14 916.242 C 1203.93 882.482 1210.29 837.772 1188.01 808.672 C 1180.62 799.022 1170.65 792.549 1158.46 791.131 C 1143.25 789.361 1126.05 796.242 1114.3 805.792 C 1105.24 813.162 1094.36 826.762 1093.52 838.792 C 1093.11 844.732 1094.4 851.122 1098.54 855.622 C 1102.28 859.682 1107.56 861.422 1112.99 861.482 C 1142.26 861.852 1143.19 836.412 1157.08 824.132 C 1159.36 822.122 1162.1 820.842 1165.21 821.412 C 1172.02 822.652 1178.57 831.892 1181.76 837.412 C 1194.37 859.262 1190.95 886.802 1184.96 910.082 C 1177.17 931.162 1166.02 949.642 1148.37 963.922 C 1128.86 979.882 1103.79 987.402 1078.72 984.832 C 1051.85 981.922 1027.63 966.692 1010.97 945.742 C 990.861 920.472 987.111 890.552 990.978 859.212 C 997.335 807.682 1029.22 764.125 1069.36 732.794 C 1109.29 701.625 1165.18 683.666 1215.86 690.018 C 1251.41 694.474 1284.73 711.59 1306.79 740.093 C 1351.34 797.652 1337.4 885.352 1329.05 952.252 C 1348.72 902.462 1366.12 851.292 1382.7 800.402 C 1392.73 769.641 1401.12 737.295 1414.08 707.646 C 1416.42 702.307 1419.19 698.231 1423.67 694.418 C 1440.74 679.862 1499.84 666.048 1522.41 668.313 C 1531.22 669.197 1538.93 672.721 1544.35 679.872 C 1552.29 690.363 1555.53 705.407 1558.71 717.957 C 1575.58 784.458 1579.25 873.312 1569.26 941.022 Z" style="stroke-width: 1;"/>
    </g>
  </g>
</svg>